G75*
%MOIN*%
%OFA0B0*%
%FSLAX24Y24*%
%IPPOS*%
%LPD*%
%AMOC8*
5,1,8,0,0,1.08239X$1,22.5*
%
%ADD10C,0.0180*%
%ADD11C,0.0200*%
%ADD12C,0.0080*%
D10*
X009054Y008658D02*
X009054Y009205D01*
X009054Y008932D02*
X009875Y008932D01*
X009601Y008658D01*
X009465Y011537D02*
X009465Y012084D01*
X009875Y011948D02*
X009054Y011948D01*
X009465Y011537D02*
X009875Y011948D01*
X014727Y015058D02*
X015274Y015058D01*
X015001Y015058D02*
X015001Y015879D01*
X015274Y015605D01*
X009738Y019332D02*
X009465Y019058D01*
X009465Y019468D01*
X009328Y019605D01*
X009191Y019605D01*
X009054Y019468D01*
X009054Y019195D01*
X009191Y019058D01*
X009465Y019058D01*
X009738Y019332D02*
X009875Y019605D01*
X009701Y024258D02*
X009975Y024532D01*
X009154Y024532D01*
X009154Y024805D02*
X009154Y024258D01*
X019388Y027332D02*
X019935Y027332D01*
X019935Y027468D02*
X019935Y027195D01*
X019798Y027058D01*
X019524Y027058D01*
X019388Y027332D02*
X019388Y027468D01*
X019524Y027605D01*
X019798Y027605D01*
X019935Y027468D01*
X020308Y027605D02*
X020855Y027058D01*
X020308Y027058D01*
X020308Y027605D02*
X020855Y027605D01*
X021333Y027605D02*
X021333Y027058D01*
X021469Y027058D02*
X021196Y027058D01*
X021333Y027605D02*
X021469Y027605D01*
X021333Y027879D02*
X021333Y028015D01*
X021826Y027605D02*
X021963Y027605D01*
X022237Y027332D01*
X022237Y027605D02*
X022237Y027058D01*
X022610Y027468D02*
X022747Y027332D01*
X023157Y027332D01*
X023157Y027058D02*
X023157Y027879D01*
X022747Y027879D01*
X022610Y027742D01*
X022610Y027468D01*
X024452Y027605D02*
X024452Y026921D01*
X024589Y026784D01*
X024725Y026784D01*
X024862Y027058D02*
X024452Y027058D01*
X024862Y027058D02*
X024999Y027195D01*
X024999Y027605D01*
X025373Y027468D02*
X025373Y027058D01*
X025783Y027058D01*
X025920Y027195D01*
X025783Y027332D01*
X025373Y027332D01*
X025373Y027468D02*
X025509Y027605D01*
X025783Y027605D01*
X026293Y027605D02*
X026704Y027605D01*
X026841Y027468D01*
X026841Y027195D01*
X026704Y027058D01*
X026293Y027058D01*
X026293Y027879D01*
X027214Y027468D02*
X027214Y027058D01*
X027625Y027058D01*
X027761Y027195D01*
X027625Y027332D01*
X027214Y027332D01*
X027214Y027468D02*
X027351Y027605D01*
X027625Y027605D01*
X028118Y027605D02*
X028529Y027332D01*
X028118Y027058D01*
X028529Y027058D02*
X028529Y027879D01*
X028902Y027605D02*
X029313Y027605D01*
X029449Y027468D01*
X029449Y027195D01*
X029313Y027058D01*
X028902Y027058D01*
X029823Y027058D02*
X029823Y027468D01*
X029960Y027605D01*
X030233Y027605D01*
X030233Y027332D02*
X029823Y027332D01*
X029823Y027058D02*
X030233Y027058D01*
X030370Y027195D01*
X030233Y027332D01*
X030744Y027468D02*
X031291Y027468D01*
X031291Y027058D02*
X031291Y027879D01*
X030744Y027879D02*
X030744Y027058D01*
X032585Y027332D02*
X033133Y027332D01*
X033133Y027468D02*
X033133Y027195D01*
X032996Y027058D01*
X032722Y027058D01*
X032585Y027332D02*
X032585Y027468D01*
X032722Y027605D01*
X032996Y027605D01*
X033133Y027468D01*
X033506Y027468D02*
X033506Y027058D01*
X033506Y027468D02*
X033643Y027605D01*
X033917Y027605D01*
X034053Y027468D01*
X034053Y027058D02*
X034053Y027879D01*
X034427Y027879D02*
X034974Y027879D01*
X034701Y027879D02*
X034701Y027058D01*
X027701Y011879D02*
X027701Y011058D01*
X027974Y011058D02*
X027427Y011058D01*
X027974Y011605D02*
X027701Y011879D01*
X022974Y011468D02*
X022974Y011195D01*
X022837Y011058D01*
X022564Y011058D01*
X022427Y011195D01*
X022427Y011332D01*
X022564Y011468D01*
X022974Y011468D01*
X022701Y011742D01*
X022427Y011879D01*
X030387Y002515D02*
X030387Y002379D01*
X030387Y002105D02*
X030387Y001558D01*
X030524Y001558D02*
X030250Y001558D01*
X030387Y002105D02*
X030524Y002105D01*
X030881Y002105D02*
X031291Y001832D01*
X030881Y001558D01*
X031291Y001558D02*
X031291Y002379D01*
X031665Y001968D02*
X031665Y001558D01*
X031665Y001968D02*
X031801Y002105D01*
X032212Y002105D01*
X032212Y001558D01*
X032585Y001832D02*
X033133Y001832D01*
X033133Y001968D02*
X032996Y002105D01*
X032722Y002105D01*
X032585Y001968D01*
X032585Y001832D01*
X032722Y001558D02*
X032996Y001558D01*
X033133Y001695D01*
X033133Y001968D01*
X033506Y002105D02*
X033917Y002105D01*
X034053Y001968D01*
X033917Y001832D01*
X033643Y001832D01*
X033506Y001695D01*
X033643Y001558D01*
X034053Y001558D01*
X034427Y001695D02*
X034564Y001558D01*
X034837Y001558D01*
X034974Y001695D01*
X034974Y002242D01*
X034837Y002379D01*
X034564Y002379D01*
X034427Y002242D01*
X028989Y002379D02*
X028989Y001558D01*
X028989Y001968D02*
X028715Y001968D01*
X028989Y002379D02*
X028442Y002379D01*
X028068Y001968D02*
X027931Y002105D01*
X027658Y002105D01*
X027521Y001968D01*
X027521Y001832D01*
X028068Y001832D01*
X028068Y001968D02*
X028068Y001695D01*
X027931Y001558D01*
X027658Y001558D01*
X027147Y001558D02*
X027147Y002105D01*
X026874Y002105D02*
X026737Y002105D01*
X026874Y002105D02*
X027147Y001832D01*
X026380Y001832D02*
X025833Y001832D01*
X025833Y001968D01*
X025970Y002105D01*
X026243Y002105D01*
X026380Y001968D01*
X026380Y001695D01*
X026243Y001558D01*
X025970Y001558D01*
X025459Y001558D02*
X025459Y002105D01*
X025049Y002105D01*
X024912Y001968D01*
X024912Y001558D01*
X024539Y001695D02*
X024539Y001968D01*
X024402Y002105D01*
X023991Y002105D01*
X023991Y001558D02*
X024402Y001558D01*
X024539Y001695D01*
X021674Y001558D02*
X021127Y002105D01*
X021127Y002242D01*
X021264Y002379D01*
X021537Y002379D01*
X021674Y002242D01*
X021674Y001558D02*
X021127Y001558D01*
X020753Y001695D02*
X020206Y002242D01*
X020206Y001695D01*
X020343Y001558D01*
X020617Y001558D01*
X020753Y001695D01*
X020753Y002242D01*
X020617Y002379D01*
X020343Y002379D01*
X020206Y002242D01*
X019833Y002105D02*
X019559Y002379D01*
X019559Y001558D01*
X019833Y001558D02*
X019285Y001558D01*
X018912Y001968D02*
X018365Y001968D01*
X018501Y001558D02*
X018501Y002379D01*
X018912Y001968D01*
X017070Y001695D02*
X016933Y001558D01*
X016797Y001558D01*
X016660Y001695D01*
X016660Y002379D01*
X016797Y002379D02*
X016523Y002379D01*
X016149Y002105D02*
X016149Y001695D01*
X016013Y001558D01*
X015602Y001558D01*
X015602Y002105D01*
X015229Y002105D02*
X014818Y002105D01*
X014682Y001968D01*
X014682Y001558D01*
X014308Y001695D02*
X014308Y001968D01*
X014171Y002105D01*
X013898Y002105D01*
X013761Y001968D01*
X013761Y001832D01*
X014308Y001832D01*
X014308Y001695D02*
X014171Y001558D01*
X013898Y001558D01*
X015229Y001558D02*
X015229Y002105D01*
D11*
X010364Y008168D02*
X010364Y012768D01*
X010464Y012768D02*
X012364Y012768D01*
X012364Y008168D01*
X010364Y008168D01*
X021964Y008568D02*
X021964Y010768D01*
X022064Y010768D02*
X028464Y010768D01*
X028464Y008568D01*
X021964Y008568D01*
X033564Y006768D02*
X033564Y003968D01*
X037164Y003968D01*
X037164Y006768D01*
X033564Y006768D01*
X012364Y018468D02*
X010364Y018468D01*
X010364Y025568D01*
X010464Y025568D02*
X012364Y025568D01*
X012364Y018468D01*
D12*
X009224Y025968D02*
X009554Y026298D01*
X009254Y026728D01*
X009444Y027188D02*
X009964Y027288D01*
X009964Y027738D01*
X009434Y027838D01*
X009244Y028278D02*
X009554Y028728D01*
X009224Y029048D01*
X008774Y028738D01*
X008344Y028918D02*
X008244Y029458D01*
X007784Y029458D01*
X007684Y028918D01*
X007254Y028738D02*
X006794Y029048D01*
X006474Y028728D01*
X006784Y028278D01*
X006594Y027838D02*
X006064Y027738D01*
X006064Y027288D01*
X006584Y027188D01*
X006764Y026728D02*
X006474Y026298D01*
X006794Y025978D01*
X007214Y026258D01*
X007394Y026158D01*
X007724Y026958D01*
X008294Y026958D02*
X008624Y026158D01*
X008804Y026258D02*
X009224Y025968D01*
X008774Y028738D02*
X008716Y028771D01*
X008657Y028801D01*
X008596Y028828D01*
X008535Y028852D01*
X008472Y028874D01*
X008408Y028893D01*
X008344Y028908D01*
X009244Y028278D02*
X009280Y028220D01*
X009313Y028159D01*
X009344Y028097D01*
X009371Y028034D01*
X009395Y027970D01*
X009416Y027904D01*
X009434Y027838D01*
X007685Y028908D02*
X007611Y028889D01*
X007539Y028866D01*
X007468Y028839D01*
X007398Y028809D01*
X007331Y028775D01*
X007265Y028738D01*
X007724Y026958D02*
X007682Y026982D01*
X007643Y027010D01*
X007606Y027041D01*
X007571Y027075D01*
X007539Y027111D01*
X007511Y027150D01*
X007485Y027191D01*
X007463Y027234D01*
X007445Y027279D01*
X007430Y027325D01*
X007418Y027372D01*
X007411Y027419D01*
X007407Y027467D01*
X007408Y027516D01*
X007412Y027564D01*
X007420Y027611D01*
X007432Y027658D01*
X007447Y027704D01*
X007466Y027748D01*
X007489Y027791D01*
X007515Y027832D01*
X007544Y027870D01*
X007576Y027906D01*
X007611Y027940D01*
X007649Y027970D01*
X007688Y027997D01*
X007730Y028022D01*
X007774Y028042D01*
X007819Y028059D01*
X007865Y028073D01*
X007913Y028082D01*
X007961Y028088D01*
X008009Y028090D01*
X008057Y028088D01*
X008105Y028082D01*
X008153Y028073D01*
X008199Y028059D01*
X008244Y028042D01*
X008288Y028022D01*
X008330Y027997D01*
X008369Y027970D01*
X008407Y027940D01*
X008442Y027906D01*
X008474Y027870D01*
X008503Y027832D01*
X008529Y027791D01*
X008552Y027748D01*
X008571Y027704D01*
X008586Y027658D01*
X008598Y027611D01*
X008606Y027564D01*
X008610Y027516D01*
X008611Y027467D01*
X008607Y027419D01*
X008600Y027372D01*
X008588Y027325D01*
X008573Y027279D01*
X008555Y027234D01*
X008533Y027191D01*
X008507Y027150D01*
X008479Y027111D01*
X008447Y027075D01*
X008412Y027041D01*
X008375Y027010D01*
X008336Y026982D01*
X008294Y026958D01*
X006764Y026727D02*
X006729Y026789D01*
X006696Y026852D01*
X006667Y026917D01*
X006642Y026983D01*
X006619Y027050D01*
X006600Y027118D01*
X006584Y027188D01*
X009254Y026727D02*
X009289Y026789D01*
X009322Y026852D01*
X009351Y026917D01*
X009376Y026983D01*
X009399Y027050D01*
X009418Y027118D01*
X009434Y027188D01*
X006784Y028278D02*
X006748Y028219D01*
X006715Y028159D01*
X006685Y028097D01*
X006658Y028034D01*
X006633Y027970D01*
X006612Y027904D01*
X006594Y027838D01*
M02*
