%
M48
M72
T01C0.0315
T02C0.0320
T03C0.0400
T04C0.0470
T05C0.0512
T06C0.0710
T07C0.1417
%
T01
X26114Y18218
X27114Y18218
T02
X26864Y15968
X27864Y15968
X28864Y15968
X25864Y15968
X24864Y15968
X23864Y15968
X22864Y15968
X21864Y15968
X20864Y15968
X19864Y15968
X18864Y15968
X17864Y15968
X16864Y15968
X15864Y15968
X15864Y12968
X16864Y12968
X17864Y12968
X18864Y12968
X19864Y12968
X20864Y12968
X21864Y12968
X22864Y12968
X23864Y12968
X24864Y12968
X25864Y12968
X26864Y12968
X27864Y12968
X28864Y12968
X30864Y5468
X31864Y5468
X32864Y5468
X15864Y5468
X14864Y5468
X13864Y5468
X13864Y24468
X14864Y24468
X15864Y24468
X16864Y24468
X17864Y24468
X18864Y24468
X19864Y24468
X20864Y24468
X21864Y24468
X22864Y24468
X23864Y24468
X24864Y24468
X25864Y24468
X26864Y24468
X27864Y24468
X28864Y24468
X29864Y24468
X30864Y24468
X31864Y24468
X32864Y24468
T03
X27764Y9568
X26764Y9568
X25764Y9568
X24764Y9568
X23764Y9568
X22764Y9568
X11364Y9968
X11364Y8968
X11364Y10968
X11364Y11968
X11364Y19468
X11364Y20468
X11364Y21468
X11364Y22468
X11364Y23468
X11364Y24468
T04
X6144Y24928
X4184Y24928
X4184Y20008
X6144Y20008
X6144Y17628
X4184Y17628
X4184Y12708
X6144Y12708
X6144Y10428
X4184Y10428
X4184Y5508
X6144Y5508
X32294Y17568
X36234Y17568
T05
X36333Y5568
X34364Y5568
T06
X6934Y7968
X3394Y7968
X3394Y15168
X6934Y15168
X6934Y22468
X3394Y22468
T07
X2564Y2568
X2564Y27868
X37464Y27868
X37564Y2568
M30
