G75*
%MOIN*%
%OFA0B0*%
%FSLAX24Y24*%
%IPPOS*%
%LPD*%
%AMOC8*
5,1,8,0,0,1.08239X$1,22.5*
%
%ADD10C,0.0180*%
%ADD11C,0.0520*%
%ADD12R,0.0787X0.0591*%
%ADD13R,0.0591X0.0787*%
%ADD14R,0.1339X0.0748*%
%ADD15R,0.0710X0.0630*%
%ADD16R,0.0591X0.0591*%
%ADD17R,0.0276X0.0394*%
%ADD18C,0.0600*%
%ADD19C,0.0705*%
%ADD20R,0.0515X0.0515*%
%ADD21R,0.0945X0.0945*%
%ADD22R,0.0551X0.0394*%
%ADD23R,0.0460X0.0140*%
%ADD24R,0.0630X0.0710*%
%ADD25R,0.0217X0.0472*%
%ADD26OC8,0.1000*%
%ADD27R,0.0880X0.0480*%
%ADD28R,0.0866X0.1417*%
%ADD29R,0.0551X0.0551*%
%ADD30C,0.0768*%
%ADD31C,0.0200*%
%ADD32C,0.0160*%
D10*
X009634Y005058D02*
X009634Y005318D01*
X009721Y005405D01*
X009808Y005318D01*
X009808Y005058D01*
X009981Y005058D02*
X009981Y005405D01*
X009894Y005405D01*
X009808Y005318D01*
X010279Y005318D02*
X010279Y005145D01*
X010365Y005058D01*
X010539Y005058D01*
X010626Y005145D01*
X010626Y005318D01*
X010539Y005405D01*
X010365Y005405D01*
X010279Y005318D01*
X010882Y005405D02*
X011055Y005405D01*
X010969Y005492D02*
X010969Y005145D01*
X010882Y005058D01*
X011312Y005058D02*
X011398Y005145D01*
X011398Y005492D01*
X011312Y005405D02*
X011485Y005405D01*
X011783Y005318D02*
X011783Y005145D01*
X011869Y005058D01*
X012043Y005058D01*
X012130Y005145D01*
X012130Y005318D01*
X012043Y005405D01*
X011869Y005405D01*
X011783Y005318D01*
X012427Y005231D02*
X012427Y005145D01*
X012514Y005058D01*
X012774Y005058D01*
X012774Y005578D01*
X012514Y005578D01*
X012427Y005492D01*
X012427Y005405D01*
X012514Y005318D01*
X012774Y005318D01*
X012514Y005318D02*
X012427Y005231D01*
X010274Y008918D02*
X009927Y008918D01*
X010101Y009845D02*
X010101Y010192D01*
X010274Y010018D02*
X009927Y010018D01*
X034227Y004518D02*
X034574Y004518D01*
X034401Y004345D02*
X034401Y004692D01*
X036127Y004518D02*
X036474Y004518D01*
D11*
X032864Y005208D02*
X032864Y005728D01*
X031864Y005728D02*
X031864Y005208D01*
X030864Y005208D02*
X030864Y005728D01*
X028864Y012708D02*
X028864Y013228D01*
X027864Y013228D02*
X027864Y012708D01*
X026864Y012708D02*
X026864Y013228D01*
X025864Y013228D02*
X025864Y012708D01*
X024864Y012708D02*
X024864Y013228D01*
X023864Y013228D02*
X023864Y012708D01*
X022864Y012708D02*
X022864Y013228D01*
X021864Y013228D02*
X021864Y012708D01*
X020864Y012708D02*
X020864Y013228D01*
X019864Y013228D02*
X019864Y012708D01*
X018864Y012708D02*
X018864Y013228D01*
X017864Y013228D02*
X017864Y012708D01*
X016864Y012708D02*
X016864Y013228D01*
X015864Y013228D02*
X015864Y012708D01*
X015864Y015708D02*
X015864Y016228D01*
X016864Y016228D02*
X016864Y015708D01*
X017864Y015708D02*
X017864Y016228D01*
X018864Y016228D02*
X018864Y015708D01*
X019864Y015708D02*
X019864Y016228D01*
X020864Y016228D02*
X020864Y015708D01*
X021864Y015708D02*
X021864Y016228D01*
X022864Y016228D02*
X022864Y015708D01*
X023864Y015708D02*
X023864Y016228D01*
X024864Y016228D02*
X024864Y015708D01*
X025864Y015708D02*
X025864Y016228D01*
X026864Y016228D02*
X026864Y015708D01*
X027864Y015708D02*
X027864Y016228D01*
X028864Y016228D02*
X028864Y015708D01*
X028864Y024208D02*
X028864Y024728D01*
X029864Y024728D02*
X029864Y024208D01*
X030864Y024208D02*
X030864Y024728D01*
X031864Y024728D02*
X031864Y024208D01*
X032864Y024208D02*
X032864Y024728D01*
X027864Y024728D02*
X027864Y024208D01*
X026864Y024208D02*
X026864Y024728D01*
X025864Y024728D02*
X025864Y024208D01*
X024864Y024208D02*
X024864Y024728D01*
X023864Y024728D02*
X023864Y024208D01*
X022864Y024208D02*
X022864Y024728D01*
X021864Y024728D02*
X021864Y024208D01*
X020864Y024208D02*
X020864Y024728D01*
X019864Y024728D02*
X019864Y024208D01*
X018864Y024208D02*
X018864Y024728D01*
X017864Y024728D02*
X017864Y024208D01*
X016864Y024208D02*
X016864Y024728D01*
X015864Y024728D02*
X015864Y024208D01*
X014864Y024208D02*
X014864Y024728D01*
X013864Y024728D02*
X013864Y024208D01*
X013864Y005728D02*
X013864Y005208D01*
X014864Y005208D02*
X014864Y005728D01*
X015864Y005728D02*
X015864Y005208D01*
D12*
X027664Y006977D03*
X027664Y008159D03*
X028864Y021877D03*
X029864Y021877D03*
X030864Y021877D03*
X031864Y021877D03*
X032864Y021877D03*
X032864Y023059D03*
X031864Y023059D03*
X030864Y023059D03*
X029864Y023059D03*
X028864Y023059D03*
X025864Y023059D03*
X024864Y023059D03*
X024864Y021877D03*
X025864Y021877D03*
X022864Y021877D03*
X021864Y021877D03*
X021864Y023059D03*
X022864Y023059D03*
D13*
X019855Y018668D03*
X018674Y018668D03*
X014355Y015968D03*
X013174Y015968D03*
X031374Y011968D03*
X032555Y011968D03*
X034374Y011968D03*
X035555Y011968D03*
X035455Y007768D03*
X034274Y007768D03*
D14*
X032664Y009300D03*
X032664Y010836D03*
D15*
X032864Y008028D03*
X032864Y006908D03*
X020864Y007708D03*
X020864Y008828D03*
X020864Y009708D03*
X020864Y010828D03*
X013264Y017208D03*
X013264Y018328D03*
X021864Y019908D03*
X021864Y021028D03*
X024864Y021028D03*
X024864Y019908D03*
D16*
X024864Y018907D03*
X024864Y017529D03*
D17*
X021788Y017635D03*
X021040Y017635D03*
X021414Y018501D03*
D18*
X011664Y019468D02*
X011064Y019468D01*
X011064Y020468D02*
X011664Y020468D01*
X011664Y021468D02*
X011064Y021468D01*
X011064Y022468D02*
X011664Y022468D01*
X011664Y023468D02*
X011064Y023468D01*
X011064Y024468D02*
X011664Y024468D01*
X011664Y011968D02*
X011064Y011968D01*
X011064Y010968D02*
X011664Y010968D01*
X011664Y009968D02*
X011064Y009968D01*
X011064Y008968D02*
X011664Y008968D01*
X022764Y009268D02*
X022764Y009868D01*
X023764Y009868D02*
X023764Y009268D01*
X024764Y009268D02*
X024764Y009868D01*
X025764Y009868D02*
X025764Y009268D01*
X026764Y009268D02*
X026764Y009868D01*
X027764Y009868D02*
X027764Y009268D01*
D19*
X006144Y010075D02*
X006144Y010780D01*
X006144Y012355D02*
X006144Y013060D01*
X004184Y013060D02*
X004184Y012355D01*
X004184Y010780D02*
X004184Y010075D01*
X004184Y005860D02*
X004184Y005155D01*
X006144Y005155D02*
X006144Y005860D01*
X006144Y017275D02*
X006144Y017980D01*
X006144Y019655D02*
X006144Y020360D01*
X004184Y020360D02*
X004184Y019655D01*
X004184Y017980D02*
X004184Y017275D01*
X004184Y024575D02*
X004184Y025280D01*
X006144Y025280D02*
X006144Y024575D01*
D20*
X026114Y018218D03*
X027114Y018218D03*
D21*
X028898Y006918D03*
X030630Y006918D03*
D22*
X019497Y008594D03*
X019497Y009342D03*
X018631Y008968D03*
D23*
X019354Y021208D03*
X019354Y021468D03*
X019354Y021728D03*
X020174Y021728D03*
X020174Y021208D03*
D24*
X019824Y019768D03*
X018704Y019768D03*
D25*
X030590Y011080D03*
X031338Y011080D03*
X031338Y010056D03*
X030964Y010056D03*
X030590Y010056D03*
D26*
X032294Y017568D03*
X036234Y017568D03*
D27*
X034344Y010878D03*
X034344Y009968D03*
X034344Y009058D03*
D28*
X036784Y009968D03*
D29*
X028864Y010216D03*
X028864Y008720D03*
X015812Y017168D03*
X014316Y017168D03*
D30*
X034364Y005568D03*
X036333Y005568D03*
D31*
X034364Y005568D02*
X034364Y007768D01*
X034274Y007768D01*
X034344Y007768D01*
X034344Y009058D01*
X032632Y009268D02*
X031464Y009268D01*
X031338Y009394D01*
X031338Y010056D01*
X031338Y010568D01*
X031064Y010568D01*
X029164Y010568D01*
X028893Y010297D01*
X030564Y009968D02*
X030564Y006868D01*
X030630Y006902D02*
X030630Y006918D01*
X032864Y006918D01*
X032864Y006908D02*
X032864Y005468D01*
X032864Y006908D02*
X032764Y006968D01*
X032564Y006968D01*
X032764Y006968D02*
X032864Y006968D01*
X032864Y006908D01*
X028864Y006993D02*
X027821Y006993D01*
X027751Y006964D02*
X027664Y006977D01*
X027641Y006968D02*
X014264Y006968D01*
X013893Y006597D01*
X013864Y006527D02*
X013864Y005468D01*
X013864Y006527D02*
X013866Y006547D01*
X013872Y006565D01*
X013881Y006583D01*
X013893Y006598D01*
X013664Y010668D02*
X013464Y010868D01*
X013464Y011768D01*
X013264Y011968D01*
X011364Y011968D01*
X013664Y010668D02*
X019564Y010668D01*
X019864Y010968D01*
X019864Y012968D01*
X019864Y014568D01*
X020301Y014905D01*
X027601Y014905D01*
X027864Y015168D01*
X027864Y015968D01*
X028864Y015968D02*
X028864Y016368D01*
X027964Y017268D01*
X027964Y023068D01*
X027364Y023668D01*
X027364Y024968D01*
X026764Y025568D01*
X017564Y025568D01*
X016864Y024868D01*
X016864Y024468D01*
X015864Y024468D02*
X015864Y022968D01*
X016364Y022468D01*
X017364Y022468D01*
X017864Y021968D01*
X017864Y017968D01*
X018864Y016968D01*
X018864Y015968D01*
X019855Y015977D02*
X019864Y015968D01*
X019855Y015977D02*
X019855Y018668D01*
X019864Y018668D02*
X019864Y019768D01*
X019824Y019768D01*
X018704Y019768D02*
X018664Y019768D01*
X018664Y021568D01*
X018864Y021768D01*
X020174Y021728D02*
X020764Y021728D01*
X020764Y021268D01*
X020964Y021068D01*
X021824Y021068D01*
X021864Y021028D01*
X021864Y021068D01*
X022864Y021868D02*
X022864Y021877D01*
X022864Y021868D02*
X023764Y021868D01*
X023764Y023468D01*
X023864Y023568D01*
X023864Y024468D01*
X022864Y024468D02*
X022864Y023059D01*
X021864Y023059D02*
X021864Y024468D01*
X020764Y023168D02*
X020764Y021728D01*
X020764Y023168D02*
X019864Y024068D01*
X019864Y024468D01*
X016864Y021468D02*
X017364Y020968D01*
X017364Y017468D01*
X017864Y016968D01*
X017864Y015968D01*
X016864Y015968D02*
X016864Y019968D01*
X016364Y020468D01*
X014364Y020468D01*
X013864Y020968D01*
X013864Y024468D01*
X012964Y024168D02*
X012964Y020009D01*
X012993Y019939D02*
X013264Y019668D01*
X015523Y019668D01*
X015593Y019639D02*
X015864Y019368D01*
X015864Y017261D01*
X015835Y017191D02*
X015812Y017168D01*
X015835Y017145D01*
X015864Y017075D02*
X015864Y015968D01*
X015864Y017075D02*
X015862Y017095D01*
X015856Y017113D01*
X015847Y017131D01*
X015835Y017146D01*
X015835Y017190D02*
X015847Y017205D01*
X015856Y017223D01*
X015862Y017241D01*
X015864Y017261D01*
X014355Y017088D02*
X014355Y015968D01*
X014355Y017088D02*
X014353Y017108D01*
X014347Y017126D01*
X014338Y017144D01*
X014326Y017159D01*
X014325Y017159D02*
X014316Y017168D01*
X013346Y017168D01*
X013275Y017197D02*
X013264Y017208D01*
X013275Y017197D02*
X013290Y017185D01*
X013308Y017176D01*
X013326Y017170D01*
X013346Y017168D01*
X013264Y018328D02*
X012746Y018328D01*
X012675Y018357D02*
X012464Y018568D01*
X012464Y023127D01*
X012435Y023197D02*
X012164Y023468D01*
X011364Y023468D01*
X012435Y023198D02*
X012447Y023183D01*
X012456Y023165D01*
X012462Y023147D01*
X012464Y023127D01*
X012964Y024168D02*
X012693Y024439D01*
X012623Y024468D02*
X011364Y024468D01*
X012623Y024468D02*
X012643Y024466D01*
X012661Y024460D01*
X012679Y024451D01*
X012694Y024439D01*
X014864Y024468D02*
X014864Y021968D01*
X015364Y021468D01*
X016864Y021468D01*
X015594Y019639D02*
X015579Y019651D01*
X015561Y019660D01*
X015543Y019666D01*
X015523Y019668D01*
X012993Y019938D02*
X012981Y019953D01*
X012972Y019971D01*
X012966Y019989D01*
X012964Y020009D01*
X012675Y018357D02*
X012690Y018345D01*
X012708Y018336D01*
X012726Y018330D01*
X012746Y018328D01*
X009864Y019668D02*
X009864Y014668D01*
X010164Y014368D01*
X018564Y014368D01*
X018864Y014068D01*
X018864Y012968D01*
X020864Y012968D02*
X020864Y010828D01*
X020864Y009708D02*
X020864Y009368D01*
X020864Y008828D01*
X022864Y010968D02*
X023064Y010768D01*
X024564Y010768D01*
X024764Y010568D01*
X024764Y009568D01*
X022864Y010968D02*
X022864Y012968D01*
X023864Y012968D02*
X023864Y013968D01*
X024164Y014268D01*
X033964Y014268D01*
X034374Y013859D01*
X034374Y011968D01*
X034344Y011939D01*
X034344Y010878D01*
X032706Y010878D01*
X032664Y010836D01*
X032420Y011080D01*
X031338Y011080D01*
X031364Y011106D01*
X031374Y011968D01*
X030564Y012568D02*
X030564Y011106D01*
X030590Y011080D01*
X030564Y012568D02*
X030164Y012968D01*
X028864Y012968D01*
X024864Y015968D02*
X024864Y017529D01*
X024864Y018907D02*
X024864Y019908D01*
X024864Y021028D02*
X024864Y021068D01*
X024864Y021868D02*
X024864Y021877D01*
X024864Y021868D02*
X023764Y021868D01*
X024864Y023059D02*
X024864Y024468D01*
X025864Y024468D02*
X025864Y023059D01*
X026764Y022368D02*
X026764Y023968D01*
X026864Y024068D01*
X026864Y024468D01*
X028864Y024468D02*
X028864Y023059D01*
X029864Y023059D02*
X029864Y024468D01*
X030864Y024468D02*
X030864Y023059D01*
X031864Y023059D02*
X031864Y024468D01*
X032864Y024468D02*
X032864Y023059D01*
X026764Y022368D02*
X026364Y021968D01*
X025864Y021968D01*
X025864Y021877D01*
X021864Y019908D02*
X021864Y017711D01*
X021788Y017635D01*
X021864Y017559D01*
X021864Y015968D01*
X028864Y008720D02*
X028864Y006993D01*
X027821Y006993D02*
X027801Y006991D01*
X027783Y006985D01*
X027765Y006976D01*
X027750Y006964D01*
X027664Y006977D02*
X027657Y006972D01*
X027649Y006969D01*
X027641Y006968D01*
X009864Y019668D02*
X009524Y020008D01*
X006144Y020008D01*
D32*
X000933Y001529D02*
X001195Y001199D01*
X001525Y000936D01*
X001905Y000754D01*
X002316Y000660D01*
X002526Y000648D01*
X037566Y000648D01*
X037776Y000660D01*
X038187Y000754D01*
X038567Y000936D01*
X038567Y000936D01*
X038897Y001199D01*
X039159Y001529D01*
X039342Y001909D01*
X039436Y002319D01*
X039448Y002530D01*
X039448Y028015D01*
X039432Y028218D01*
X039332Y028616D01*
X039146Y028982D01*
X038883Y029298D01*
X038557Y029546D01*
X038184Y029716D01*
X037782Y029799D01*
X037579Y029806D01*
X037571Y029806D01*
X037481Y029804D01*
X037476Y029806D01*
X002616Y029806D01*
X002611Y029804D01*
X002521Y029806D01*
X002513Y029806D01*
X002311Y029799D01*
X001909Y029716D01*
X001535Y029546D01*
X001209Y029298D01*
X000946Y028982D01*
X000760Y028616D01*
X000660Y028218D01*
X000644Y028015D01*
X000644Y002530D01*
X000656Y002319D01*
X000750Y001909D01*
X000933Y001529D01*
X000921Y001553D02*
X001945Y001553D01*
X001834Y001617D02*
X002105Y001460D01*
X002408Y001379D01*
X002721Y001379D01*
X003023Y001460D01*
X003294Y001617D01*
X003515Y001838D01*
X003672Y002109D01*
X003753Y002411D01*
X003753Y002724D01*
X003672Y003027D01*
X003515Y003298D01*
X003294Y003519D01*
X003023Y003676D01*
X002721Y003757D01*
X002408Y003757D01*
X002105Y003676D01*
X001834Y003519D01*
X001613Y003298D01*
X001457Y003027D01*
X001376Y002724D01*
X001376Y002411D01*
X001457Y002109D01*
X001613Y001838D01*
X001834Y001617D01*
X001740Y001711D02*
X000845Y001711D01*
X000768Y001870D02*
X001595Y001870D01*
X001503Y002028D02*
X000722Y002028D01*
X000686Y002187D02*
X001436Y002187D01*
X001393Y002345D02*
X000655Y002345D01*
X000646Y002504D02*
X001376Y002504D01*
X001376Y002662D02*
X000644Y002662D01*
X000644Y002821D02*
X001401Y002821D01*
X001444Y002979D02*
X000644Y002979D01*
X000644Y003138D02*
X001521Y003138D01*
X001612Y003296D02*
X000644Y003296D01*
X000644Y003455D02*
X001770Y003455D01*
X001998Y003613D02*
X000644Y003613D01*
X000644Y003772D02*
X039448Y003772D01*
X039448Y003930D02*
X000644Y003930D01*
X000644Y004089D02*
X034260Y004089D01*
X034236Y004099D02*
X034343Y004055D01*
X034458Y004055D01*
X034565Y004099D01*
X034647Y004180D01*
X034673Y004245D01*
X034738Y004272D01*
X034820Y004354D01*
X034864Y004460D01*
X034864Y004576D01*
X034820Y004682D01*
X034738Y004764D01*
X034673Y004791D01*
X034647Y004856D01*
X034565Y004938D01*
X034458Y004982D01*
X034343Y004982D01*
X034236Y004938D01*
X034155Y004856D01*
X034128Y004791D01*
X034063Y004764D01*
X033981Y004682D01*
X033937Y004576D01*
X033937Y004460D01*
X033981Y004354D01*
X034063Y004272D01*
X034128Y004245D01*
X034155Y004180D01*
X034236Y004099D01*
X034123Y004247D02*
X000644Y004247D01*
X000644Y004406D02*
X033960Y004406D01*
X033937Y004564D02*
X000644Y004564D01*
X000644Y004723D02*
X003874Y004723D01*
X003905Y004700D02*
X003980Y004662D01*
X004059Y004636D01*
X004142Y004623D01*
X004147Y004623D01*
X004147Y005470D01*
X004222Y005470D01*
X004222Y005545D01*
X004717Y005545D01*
X004717Y005902D01*
X004704Y005985D01*
X004678Y006065D01*
X004640Y006140D01*
X004590Y006207D01*
X004531Y006267D01*
X004463Y006316D01*
X004389Y006354D01*
X004309Y006380D01*
X004226Y006393D01*
X004222Y006393D01*
X004222Y005545D01*
X004147Y005545D01*
X004147Y005470D01*
X003652Y005470D01*
X003652Y005114D01*
X003665Y005031D01*
X003691Y004951D01*
X003729Y004876D01*
X003778Y004809D01*
X003837Y004749D01*
X003905Y004700D01*
X004147Y004723D02*
X004222Y004723D01*
X004222Y004623D02*
X004226Y004623D01*
X004309Y004636D01*
X004389Y004662D01*
X004463Y004700D01*
X004531Y004749D01*
X004590Y004809D01*
X004640Y004876D01*
X004678Y004951D01*
X004704Y005031D01*
X004717Y005114D01*
X004717Y005470D01*
X004222Y005470D01*
X004222Y004623D01*
X004222Y004881D02*
X004147Y004881D01*
X004147Y005040D02*
X004222Y005040D01*
X004222Y005198D02*
X004147Y005198D01*
X004147Y005357D02*
X004222Y005357D01*
X004222Y005515D02*
X005592Y005515D01*
X005592Y005357D02*
X004717Y005357D01*
X004717Y005198D02*
X005592Y005198D01*
X005592Y005046D02*
X005676Y004842D01*
X005831Y004687D01*
X006034Y004603D01*
X006254Y004603D01*
X006457Y004687D01*
X006613Y004842D01*
X006697Y005046D01*
X006697Y005970D01*
X006613Y006173D01*
X006457Y006329D01*
X006254Y006413D01*
X006034Y006413D01*
X005831Y006329D01*
X005676Y006173D01*
X005592Y005970D01*
X005592Y005046D01*
X005594Y005040D02*
X004705Y005040D01*
X004642Y004881D02*
X005660Y004881D01*
X005795Y004723D02*
X004495Y004723D01*
X003726Y004881D02*
X000644Y004881D01*
X000644Y005040D02*
X003663Y005040D01*
X003652Y005198D02*
X000644Y005198D01*
X000644Y005357D02*
X003652Y005357D01*
X003652Y005545D02*
X004147Y005545D01*
X004147Y006393D01*
X004142Y006393D01*
X004059Y006380D01*
X003980Y006354D01*
X003905Y006316D01*
X003837Y006267D01*
X003778Y006207D01*
X003729Y006140D01*
X003691Y006065D01*
X003665Y005985D01*
X003652Y005902D01*
X003652Y005545D01*
X003652Y005674D02*
X000644Y005674D01*
X000644Y005832D02*
X003652Y005832D01*
X003667Y005991D02*
X000644Y005991D01*
X000644Y006149D02*
X003736Y006149D01*
X003894Y006308D02*
X000644Y006308D01*
X000644Y006466D02*
X013564Y006466D01*
X013564Y006606D02*
X013564Y006078D01*
X013474Y005989D01*
X013404Y005819D01*
X013404Y005116D01*
X013474Y004947D01*
X013604Y004818D01*
X013773Y004748D01*
X013956Y004748D01*
X014125Y004818D01*
X014254Y004947D01*
X014324Y005116D01*
X014324Y005819D01*
X014254Y005989D01*
X014164Y006078D01*
X014164Y006444D01*
X014388Y006668D01*
X027070Y006668D01*
X027070Y006599D01*
X027188Y006482D01*
X028141Y006482D01*
X028226Y006567D01*
X028226Y006363D01*
X028343Y006246D01*
X029453Y006246D01*
X029570Y006363D01*
X029570Y007473D01*
X029453Y007590D01*
X029164Y007590D01*
X029164Y008244D01*
X029223Y008244D01*
X029340Y008361D01*
X029340Y009078D01*
X029223Y009196D01*
X028506Y009196D01*
X028389Y009078D01*
X028389Y008361D01*
X028506Y008244D01*
X028564Y008244D01*
X028564Y007590D01*
X028343Y007590D01*
X028226Y007473D01*
X028226Y007388D01*
X028141Y007473D01*
X027188Y007473D01*
X027070Y007356D01*
X027070Y007268D01*
X021348Y007268D01*
X021363Y007283D01*
X021387Y007324D01*
X021399Y007369D01*
X021399Y007631D01*
X020942Y007631D01*
X020942Y007786D01*
X020787Y007786D01*
X020787Y008203D01*
X020486Y008203D01*
X020440Y008191D01*
X020399Y008167D01*
X020365Y008134D01*
X020342Y008093D01*
X020329Y008047D01*
X020329Y007786D01*
X020787Y007786D01*
X020787Y007631D01*
X020329Y007631D01*
X020329Y007369D01*
X020342Y007324D01*
X020365Y007283D01*
X020380Y007268D01*
X014204Y007268D01*
X014094Y007222D01*
X014010Y007138D01*
X013639Y006767D01*
X013625Y006753D01*
X013564Y006606D01*
X013572Y006625D02*
X000644Y006625D01*
X000644Y006783D02*
X013655Y006783D01*
X013639Y006767D02*
X013639Y006767D01*
X013625Y006753D02*
X013625Y006753D01*
X013814Y006942D02*
X000644Y006942D01*
X000644Y007100D02*
X013972Y007100D01*
X014183Y007259D02*
X007404Y007259D01*
X007407Y007260D02*
X007642Y007495D01*
X007769Y007802D01*
X007769Y008134D01*
X007642Y008441D01*
X007407Y008676D01*
X007100Y008803D01*
X006768Y008803D01*
X006461Y008676D01*
X006226Y008441D01*
X006099Y008134D01*
X006099Y007802D01*
X006226Y007495D01*
X006461Y007260D01*
X006768Y007133D01*
X007100Y007133D01*
X007407Y007260D01*
X007565Y007417D02*
X020329Y007417D01*
X020329Y007576D02*
X007676Y007576D01*
X007741Y007734D02*
X020787Y007734D01*
X020942Y007734D02*
X027145Y007734D01*
X027160Y007719D02*
X027201Y007696D01*
X027247Y007683D01*
X027597Y007683D01*
X027597Y008091D01*
X027732Y008091D01*
X027732Y008226D01*
X028238Y008226D01*
X028238Y008477D01*
X028226Y008523D01*
X028202Y008564D01*
X028168Y008598D01*
X028127Y008622D01*
X028082Y008634D01*
X027732Y008634D01*
X027732Y008226D01*
X027597Y008226D01*
X027597Y008634D01*
X027247Y008634D01*
X027201Y008622D01*
X027160Y008598D01*
X027126Y008564D01*
X027103Y008523D01*
X027090Y008477D01*
X027090Y008226D01*
X027597Y008226D01*
X027597Y008091D01*
X027090Y008091D01*
X027090Y007840D01*
X027103Y007794D01*
X027126Y007753D01*
X027160Y007719D01*
X027090Y007893D02*
X021399Y007893D01*
X021399Y007786D02*
X021399Y008047D01*
X021387Y008093D01*
X021363Y008134D01*
X021330Y008167D01*
X021289Y008191D01*
X021243Y008203D01*
X020942Y008203D01*
X020942Y007786D01*
X021399Y007786D01*
X021399Y007576D02*
X028328Y007576D01*
X028226Y007417D02*
X028196Y007417D01*
X028127Y007696D02*
X028168Y007719D01*
X028202Y007753D01*
X028226Y007794D01*
X028238Y007840D01*
X028238Y008091D01*
X027732Y008091D01*
X027732Y007683D01*
X028082Y007683D01*
X028127Y007696D01*
X028184Y007734D02*
X028564Y007734D01*
X028564Y007893D02*
X028238Y007893D01*
X028238Y008051D02*
X028564Y008051D01*
X028564Y008210D02*
X027732Y008210D01*
X027597Y008210D02*
X007738Y008210D01*
X007769Y008051D02*
X020331Y008051D01*
X020329Y007893D02*
X007769Y007893D01*
X007672Y008368D02*
X019043Y008368D01*
X019042Y008373D02*
X019054Y008328D01*
X019078Y008287D01*
X019111Y008253D01*
X019152Y008229D01*
X019198Y008217D01*
X019479Y008217D01*
X019479Y008576D01*
X019042Y008576D01*
X019042Y008373D01*
X019042Y008527D02*
X011906Y008527D01*
X011947Y008544D02*
X012088Y008685D01*
X012089Y008688D01*
X018156Y008688D01*
X018273Y008571D01*
X018990Y008571D01*
X019042Y008623D01*
X019042Y008612D01*
X019479Y008612D01*
X019479Y008576D01*
X019516Y008576D01*
X019516Y008612D01*
X019953Y008612D01*
X019953Y008814D01*
X019941Y008860D01*
X019917Y008901D01*
X019883Y008935D01*
X019859Y008949D01*
X019973Y009062D01*
X020309Y009062D01*
X020309Y008430D01*
X020426Y008313D01*
X021302Y008313D01*
X021419Y008430D01*
X021419Y009226D01*
X021377Y009268D01*
X021419Y009310D01*
X021419Y010106D01*
X021302Y010223D01*
X020426Y010223D01*
X020309Y010106D01*
X020309Y009622D01*
X019973Y009622D01*
X019856Y009739D01*
X019139Y009739D01*
X019022Y009622D01*
X019022Y009333D01*
X018990Y009365D01*
X018273Y009365D01*
X018156Y009248D01*
X012089Y009248D01*
X012088Y009251D01*
X011947Y009392D01*
X011764Y009468D01*
X011947Y009544D01*
X012088Y009685D01*
X012164Y009869D01*
X012164Y010067D01*
X012088Y010251D01*
X011947Y010392D01*
X011764Y010468D01*
X011947Y010544D01*
X012088Y010685D01*
X012164Y010869D01*
X012164Y011067D01*
X012088Y011251D01*
X011947Y011392D01*
X011764Y011468D01*
X011947Y011544D01*
X012071Y011668D01*
X013140Y011668D01*
X013164Y011644D01*
X013164Y010808D01*
X013210Y010698D01*
X013294Y010614D01*
X013494Y010414D01*
X013604Y010368D01*
X019624Y010368D01*
X019734Y010414D01*
X019819Y010498D01*
X020119Y010798D01*
X020164Y010908D01*
X020164Y012357D01*
X020254Y012447D01*
X020324Y012616D01*
X020324Y013319D01*
X020254Y013489D01*
X020164Y013578D01*
X020164Y014420D01*
X020403Y014605D01*
X027661Y014605D01*
X027771Y014651D01*
X028119Y014998D01*
X028164Y015108D01*
X028164Y015357D01*
X028254Y015447D01*
X028324Y015616D01*
X028324Y016319D01*
X028254Y016489D01*
X028125Y016618D01*
X027956Y016688D01*
X027773Y016688D01*
X027604Y016618D01*
X027474Y016489D01*
X027404Y016319D01*
X027404Y015616D01*
X027474Y015447D01*
X027564Y015357D01*
X027564Y015292D01*
X027477Y015205D01*
X020320Y015205D01*
X020280Y015210D01*
X020261Y015205D01*
X020242Y015205D01*
X020204Y015190D01*
X020165Y015179D01*
X020150Y015167D01*
X020131Y015159D01*
X020103Y015131D01*
X019713Y014830D01*
X019694Y014822D01*
X019666Y014794D01*
X019634Y014769D01*
X019624Y014752D01*
X019610Y014738D01*
X019594Y014701D01*
X019574Y014666D01*
X019572Y014646D01*
X019564Y014628D01*
X019564Y014587D01*
X019559Y014547D01*
X019564Y014528D01*
X019564Y013578D01*
X019474Y013489D01*
X019404Y013319D01*
X019404Y012616D01*
X019474Y012447D01*
X019564Y012357D01*
X019564Y011092D01*
X019440Y010968D01*
X013788Y010968D01*
X013764Y010992D01*
X013764Y011828D01*
X013719Y011938D01*
X013519Y012138D01*
X013434Y012222D01*
X013324Y012268D01*
X012071Y012268D01*
X011947Y012392D01*
X011764Y012468D01*
X010965Y012468D01*
X010781Y012392D01*
X010640Y012251D01*
X010564Y012067D01*
X010564Y011869D01*
X010640Y011685D01*
X010781Y011544D01*
X010965Y011468D01*
X011764Y011468D01*
X010965Y011468D01*
X010781Y011392D01*
X010640Y011251D01*
X010564Y011067D01*
X010564Y010869D01*
X010640Y010685D01*
X010781Y010544D01*
X010965Y010468D01*
X011764Y010468D01*
X010965Y010468D01*
X010781Y010392D01*
X010640Y010251D01*
X010564Y010067D01*
X010564Y009869D01*
X010640Y009685D01*
X010781Y009544D01*
X010965Y009468D01*
X011764Y009468D01*
X010965Y009468D01*
X010781Y009392D01*
X010640Y009251D01*
X010564Y009067D01*
X010564Y008869D01*
X010640Y008685D01*
X010781Y008544D01*
X010965Y008468D01*
X011764Y008468D01*
X011947Y008544D01*
X012088Y008685D02*
X018158Y008685D01*
X018631Y008968D02*
X011364Y008968D01*
X010822Y008527D02*
X007556Y008527D01*
X007384Y008685D02*
X009750Y008685D01*
X009763Y008672D02*
X009870Y008628D01*
X010332Y008628D01*
X010438Y008672D01*
X010520Y008754D01*
X010564Y008860D01*
X010564Y008976D01*
X010520Y009082D01*
X010438Y009164D01*
X010332Y009208D01*
X009870Y009208D01*
X009763Y009164D01*
X009681Y009082D01*
X009637Y008976D01*
X009637Y008860D01*
X009681Y008754D01*
X009763Y008672D01*
X009644Y008844D02*
X000644Y008844D01*
X000644Y009002D02*
X009648Y009002D01*
X009760Y009161D02*
X000644Y009161D01*
X000644Y009319D02*
X010709Y009319D01*
X010603Y009161D02*
X010442Y009161D01*
X010553Y009002D02*
X010564Y009002D01*
X010557Y008844D02*
X010574Y008844D01*
X010640Y008685D02*
X010452Y008685D01*
X010158Y009555D02*
X010265Y009599D01*
X010347Y009680D01*
X010373Y009745D01*
X010438Y009772D01*
X010520Y009854D01*
X010564Y009960D01*
X010564Y010076D01*
X010520Y010182D01*
X010438Y010264D01*
X010373Y010291D01*
X010347Y010356D01*
X010265Y010438D01*
X010158Y010482D01*
X010043Y010482D01*
X009936Y010438D01*
X009855Y010356D01*
X009828Y010291D01*
X009763Y010264D01*
X009681Y010182D01*
X009637Y010076D01*
X009637Y009960D01*
X009681Y009854D01*
X009763Y009772D01*
X009828Y009745D01*
X009855Y009680D01*
X009936Y009599D01*
X010043Y009555D01*
X010158Y009555D01*
X010303Y009636D02*
X010689Y009636D01*
X010595Y009795D02*
X010461Y009795D01*
X010561Y009953D02*
X010564Y009953D01*
X010549Y010112D02*
X010583Y010112D01*
X010660Y010270D02*
X010423Y010270D01*
X010274Y010429D02*
X010871Y010429D01*
X010738Y010587D02*
X006697Y010587D01*
X006697Y010429D02*
X009928Y010429D01*
X009779Y010270D02*
X006697Y010270D01*
X006697Y010112D02*
X009652Y010112D01*
X009640Y009953D02*
X006692Y009953D01*
X006697Y009966D02*
X006697Y010890D01*
X006613Y011093D01*
X006457Y011249D01*
X006254Y011333D01*
X006034Y011333D01*
X005831Y011249D01*
X005676Y011093D01*
X005592Y010890D01*
X005592Y009966D01*
X005676Y009762D01*
X005831Y009607D01*
X006034Y009523D01*
X006254Y009523D01*
X006457Y009607D01*
X006613Y009762D01*
X006697Y009966D01*
X006626Y009795D02*
X009740Y009795D01*
X009899Y009636D02*
X006487Y009636D01*
X005802Y009636D02*
X004486Y009636D01*
X004463Y009620D02*
X004531Y009669D01*
X004590Y009729D01*
X004640Y009796D01*
X004678Y009871D01*
X004704Y009951D01*
X004717Y010034D01*
X004717Y010390D01*
X004222Y010390D01*
X004222Y010465D01*
X004717Y010465D01*
X004717Y010822D01*
X004704Y010905D01*
X004678Y010985D01*
X004640Y011060D01*
X004590Y011127D01*
X004531Y011187D01*
X004463Y011236D01*
X004389Y011274D01*
X004309Y011300D01*
X004226Y011313D01*
X004222Y011313D01*
X004222Y010465D01*
X004147Y010465D01*
X004147Y010390D01*
X004222Y010390D01*
X004222Y009543D01*
X004226Y009543D01*
X004309Y009556D01*
X004389Y009582D01*
X004463Y009620D01*
X004222Y009636D02*
X004147Y009636D01*
X004147Y009543D02*
X004147Y010390D01*
X003652Y010390D01*
X003652Y010034D01*
X003665Y009951D01*
X003691Y009871D01*
X003729Y009796D01*
X003778Y009729D01*
X003837Y009669D01*
X003905Y009620D01*
X003980Y009582D01*
X004059Y009556D01*
X004142Y009543D01*
X004147Y009543D01*
X004147Y009795D02*
X004222Y009795D01*
X004222Y009953D02*
X004147Y009953D01*
X004147Y010112D02*
X004222Y010112D01*
X004222Y010270D02*
X004147Y010270D01*
X004147Y010429D02*
X000644Y010429D01*
X000644Y010587D02*
X003652Y010587D01*
X003652Y010465D02*
X004147Y010465D01*
X004147Y011313D01*
X004142Y011313D01*
X004059Y011300D01*
X003980Y011274D01*
X003905Y011236D01*
X003837Y011187D01*
X003778Y011127D01*
X003729Y011060D01*
X003691Y010985D01*
X003665Y010905D01*
X003652Y010822D01*
X003652Y010465D01*
X003652Y010270D02*
X000644Y010270D01*
X000644Y010112D02*
X003652Y010112D01*
X003664Y009953D02*
X000644Y009953D01*
X000644Y009795D02*
X003730Y009795D01*
X003882Y009636D02*
X000644Y009636D01*
X000644Y009478D02*
X010941Y009478D01*
X011788Y009478D02*
X019022Y009478D01*
X019036Y009636D02*
X012040Y009636D01*
X012134Y009795D02*
X020309Y009795D01*
X020309Y009953D02*
X012164Y009953D01*
X012146Y010112D02*
X020315Y010112D01*
X020426Y010313D02*
X020309Y010430D01*
X020309Y011226D01*
X020426Y011343D01*
X020564Y011343D01*
X020564Y012357D01*
X020474Y012447D01*
X020404Y012616D01*
X020404Y013319D01*
X020474Y013489D01*
X020604Y013618D01*
X020773Y013688D01*
X020956Y013688D01*
X021125Y013618D01*
X021254Y013489D01*
X021324Y013319D01*
X021324Y012616D01*
X021254Y012447D01*
X021164Y012357D01*
X021164Y011343D01*
X021302Y011343D01*
X021419Y011226D01*
X021419Y010430D01*
X021302Y010313D01*
X020426Y010313D01*
X020310Y010429D02*
X019749Y010429D01*
X019908Y010587D02*
X020309Y010587D01*
X020309Y010746D02*
X020066Y010746D01*
X020163Y010904D02*
X020309Y010904D01*
X020309Y011063D02*
X020164Y011063D01*
X020164Y011221D02*
X020309Y011221D01*
X020164Y011380D02*
X020564Y011380D01*
X020564Y011538D02*
X020164Y011538D01*
X020164Y011697D02*
X020564Y011697D01*
X020564Y011855D02*
X020164Y011855D01*
X020164Y012014D02*
X020564Y012014D01*
X020564Y012172D02*
X020164Y012172D01*
X020164Y012331D02*
X020564Y012331D01*
X020457Y012489D02*
X020272Y012489D01*
X020324Y012648D02*
X020404Y012648D01*
X020404Y012806D02*
X020324Y012806D01*
X020324Y012965D02*
X020404Y012965D01*
X020404Y013123D02*
X020324Y013123D01*
X020324Y013282D02*
X020404Y013282D01*
X020454Y013440D02*
X020274Y013440D01*
X020164Y013599D02*
X020585Y013599D01*
X020164Y013757D02*
X023564Y013757D01*
X023564Y013599D02*
X023144Y013599D01*
X023125Y013618D02*
X022956Y013688D01*
X022773Y013688D01*
X022604Y013618D01*
X022474Y013489D01*
X022404Y013319D01*
X022404Y012616D01*
X022474Y012447D01*
X022564Y012357D01*
X022564Y010908D01*
X022610Y010798D01*
X022694Y010714D01*
X022894Y010514D01*
X023004Y010468D01*
X024440Y010468D01*
X024464Y010444D01*
X024464Y010275D01*
X024340Y010151D01*
X024264Y009967D01*
X024188Y010151D01*
X024047Y010292D01*
X023864Y010368D01*
X023665Y010368D01*
X023481Y010292D01*
X023340Y010151D01*
X023264Y009967D01*
X023188Y010151D01*
X023047Y010292D01*
X022864Y010368D01*
X022665Y010368D01*
X022481Y010292D01*
X022340Y010151D01*
X022264Y009967D01*
X022264Y009169D01*
X022340Y008985D01*
X022481Y008844D01*
X022665Y008768D01*
X022864Y008768D01*
X023047Y008844D01*
X023481Y008844D01*
X023665Y008768D01*
X023864Y008768D01*
X024047Y008844D01*
X024481Y008844D01*
X024665Y008768D01*
X024864Y008768D01*
X025047Y008844D01*
X025481Y008844D01*
X025665Y008768D01*
X025864Y008768D01*
X026047Y008844D01*
X026481Y008844D01*
X026665Y008768D01*
X026864Y008768D01*
X027047Y008844D01*
X027481Y008844D01*
X027665Y008768D01*
X027864Y008768D01*
X028047Y008844D01*
X028389Y008844D01*
X028389Y009002D02*
X028195Y009002D01*
X028188Y008985D02*
X028264Y009169D01*
X028264Y009967D01*
X028188Y010151D01*
X028047Y010292D01*
X027864Y010368D01*
X027665Y010368D01*
X027481Y010292D01*
X027340Y010151D01*
X027264Y009967D01*
X027188Y010151D01*
X027047Y010292D01*
X026864Y010368D01*
X026665Y010368D01*
X026481Y010292D01*
X026340Y010151D01*
X026264Y009967D01*
X026188Y010151D01*
X026047Y010292D01*
X025864Y010368D01*
X025665Y010368D01*
X025481Y010292D01*
X025340Y010151D01*
X025264Y009967D01*
X025188Y010151D01*
X025064Y010275D01*
X025064Y010628D01*
X025019Y010738D01*
X024819Y010938D01*
X024734Y011022D01*
X024624Y011068D01*
X023188Y011068D01*
X023164Y011092D01*
X023164Y012357D01*
X023254Y012447D01*
X023324Y012616D01*
X023324Y013319D01*
X023254Y013489D01*
X023125Y013618D01*
X023274Y013440D02*
X023454Y013440D01*
X023474Y013489D02*
X023404Y013319D01*
X023404Y012616D01*
X023474Y012447D01*
X023604Y012318D01*
X023773Y012248D01*
X023956Y012248D01*
X024125Y012318D01*
X024254Y012447D01*
X024324Y012616D01*
X024324Y013319D01*
X024254Y013489D01*
X024164Y013578D01*
X024164Y013844D01*
X024288Y013968D01*
X033840Y013968D01*
X034074Y013734D01*
X034074Y012562D01*
X033996Y012562D01*
X033878Y012445D01*
X033878Y011491D01*
X033996Y011374D01*
X034044Y011374D01*
X034044Y011318D01*
X033821Y011318D01*
X033704Y011201D01*
X033704Y011178D01*
X033533Y011178D01*
X033533Y011293D01*
X033416Y011410D01*
X032925Y011410D01*
X032961Y011430D01*
X032994Y011464D01*
X033018Y011505D01*
X033030Y011551D01*
X033030Y011900D01*
X032622Y011900D01*
X032622Y012036D01*
X032487Y012036D01*
X032487Y012542D01*
X032236Y012542D01*
X032190Y012529D01*
X032149Y012506D01*
X032115Y012472D01*
X032092Y012431D01*
X032079Y012385D01*
X032079Y012036D01*
X032487Y012036D01*
X032487Y011900D01*
X032079Y011900D01*
X032079Y011551D01*
X032092Y011505D01*
X032115Y011464D01*
X032149Y011430D01*
X032184Y011410D01*
X031912Y011410D01*
X031882Y011380D01*
X031757Y011380D01*
X031869Y011491D01*
X031869Y012445D01*
X031752Y012562D01*
X030996Y012562D01*
X030878Y012445D01*
X030878Y011491D01*
X030996Y011374D01*
X031030Y011374D01*
X031030Y010868D01*
X030898Y010868D01*
X030898Y011399D01*
X030864Y011433D01*
X030864Y012628D01*
X030819Y012738D01*
X030734Y012822D01*
X030334Y013222D01*
X030224Y013268D01*
X029324Y013268D01*
X029324Y013319D01*
X029254Y013489D01*
X029125Y013618D01*
X028956Y013688D01*
X028773Y013688D01*
X028604Y013618D01*
X028474Y013489D01*
X028404Y013319D01*
X028404Y012616D01*
X028474Y012447D01*
X028604Y012318D01*
X028773Y012248D01*
X028956Y012248D01*
X029125Y012318D01*
X029254Y012447D01*
X029324Y012616D01*
X029324Y012668D01*
X030040Y012668D01*
X030264Y012444D01*
X030264Y011046D01*
X030282Y011003D01*
X030282Y010868D01*
X029104Y010868D01*
X028994Y010822D01*
X028910Y010738D01*
X028864Y010692D01*
X028506Y010692D01*
X028389Y010574D01*
X028389Y009858D01*
X028506Y009740D01*
X029223Y009740D01*
X029340Y009858D01*
X029340Y010268D01*
X030282Y010268D01*
X030282Y010070D01*
X030264Y010028D01*
X030264Y007590D01*
X030075Y007590D01*
X029958Y007473D01*
X029958Y006363D01*
X030075Y006246D01*
X031186Y006246D01*
X031303Y006363D01*
X031303Y006618D01*
X032309Y006618D01*
X032309Y006510D01*
X032426Y006393D01*
X032564Y006393D01*
X032564Y006078D01*
X032474Y005989D01*
X032404Y005819D01*
X032404Y005116D01*
X032474Y004947D01*
X032604Y004818D01*
X032773Y004748D01*
X032956Y004748D01*
X033125Y004818D01*
X033254Y004947D01*
X033324Y005116D01*
X033324Y005819D01*
X033254Y005989D01*
X033164Y006078D01*
X033164Y006393D01*
X033302Y006393D01*
X033419Y006510D01*
X033419Y007306D01*
X033302Y007423D01*
X032426Y007423D01*
X032309Y007306D01*
X032309Y007218D01*
X031303Y007218D01*
X031303Y007473D01*
X031186Y007590D01*
X030864Y007590D01*
X030864Y009640D01*
X030964Y009640D01*
X030964Y010056D01*
X030964Y010056D01*
X030964Y009640D01*
X031038Y009640D01*
X031038Y009334D01*
X031084Y009224D01*
X031210Y009098D01*
X031294Y009014D01*
X031404Y008968D01*
X031795Y008968D01*
X031795Y008843D01*
X031912Y008726D01*
X033416Y008726D01*
X033533Y008843D01*
X033533Y009757D01*
X033416Y009874D01*
X031912Y009874D01*
X031795Y009757D01*
X031795Y009568D01*
X031638Y009568D01*
X031638Y009729D01*
X031646Y009737D01*
X031646Y010107D01*
X031659Y010188D01*
X031646Y010242D01*
X031646Y010375D01*
X031638Y010383D01*
X031638Y010628D01*
X031602Y010716D01*
X031646Y010761D01*
X031646Y010780D01*
X031795Y010780D01*
X031795Y010379D01*
X031912Y010262D01*
X033416Y010262D01*
X033533Y010379D01*
X033533Y010578D01*
X033704Y010578D01*
X033704Y010555D01*
X033821Y010438D01*
X034867Y010438D01*
X034984Y010555D01*
X034984Y011201D01*
X034867Y011318D01*
X034644Y011318D01*
X034644Y011374D01*
X034752Y011374D01*
X034869Y011491D01*
X034869Y012445D01*
X034752Y012562D01*
X034674Y012562D01*
X034674Y013918D01*
X034628Y014028D01*
X034134Y014522D01*
X034024Y014568D01*
X024104Y014568D01*
X023994Y014522D01*
X023694Y014222D01*
X023610Y014138D01*
X023564Y014028D01*
X023564Y013578D01*
X023474Y013489D01*
X023404Y013282D02*
X023324Y013282D01*
X023324Y013123D02*
X023404Y013123D01*
X023404Y012965D02*
X023324Y012965D01*
X023324Y012806D02*
X023404Y012806D01*
X023404Y012648D02*
X023324Y012648D01*
X023272Y012489D02*
X023457Y012489D01*
X023591Y012331D02*
X023164Y012331D01*
X023164Y012172D02*
X030264Y012172D01*
X030264Y012014D02*
X023164Y012014D01*
X023164Y011855D02*
X030264Y011855D01*
X030264Y011697D02*
X023164Y011697D01*
X023164Y011538D02*
X030264Y011538D01*
X030264Y011380D02*
X023164Y011380D01*
X023164Y011221D02*
X030264Y011221D01*
X030264Y011063D02*
X024636Y011063D01*
X024852Y010904D02*
X030282Y010904D01*
X030898Y010904D02*
X031030Y010904D01*
X031030Y011063D02*
X030898Y011063D01*
X030898Y011221D02*
X031030Y011221D01*
X030990Y011380D02*
X030898Y011380D01*
X030878Y011538D02*
X030864Y011538D01*
X030864Y011697D02*
X030878Y011697D01*
X030864Y011855D02*
X030878Y011855D01*
X030864Y012014D02*
X030878Y012014D01*
X030864Y012172D02*
X030878Y012172D01*
X030864Y012331D02*
X030878Y012331D01*
X030864Y012489D02*
X030923Y012489D01*
X030856Y012648D02*
X034074Y012648D01*
X034074Y012806D02*
X030750Y012806D01*
X030591Y012965D02*
X034074Y012965D01*
X034074Y013123D02*
X030433Y013123D01*
X030060Y012648D02*
X029324Y012648D01*
X029272Y012489D02*
X030218Y012489D01*
X030264Y012331D02*
X029138Y012331D01*
X028591Y012331D02*
X028138Y012331D01*
X028125Y012318D02*
X028254Y012447D01*
X028324Y012616D01*
X028324Y013319D01*
X028254Y013489D01*
X028125Y013618D01*
X027956Y013688D01*
X027773Y013688D01*
X027604Y013618D01*
X027474Y013489D01*
X027404Y013319D01*
X027404Y012616D01*
X027474Y012447D01*
X027604Y012318D01*
X027773Y012248D01*
X027956Y012248D01*
X028125Y012318D01*
X028272Y012489D02*
X028457Y012489D01*
X028404Y012648D02*
X028324Y012648D01*
X028324Y012806D02*
X028404Y012806D01*
X028404Y012965D02*
X028324Y012965D01*
X028324Y013123D02*
X028404Y013123D01*
X028404Y013282D02*
X028324Y013282D01*
X028274Y013440D02*
X028454Y013440D01*
X028585Y013599D02*
X028144Y013599D01*
X027585Y013599D02*
X027144Y013599D01*
X027125Y013618D02*
X026956Y013688D01*
X026773Y013688D01*
X026604Y013618D01*
X026474Y013489D01*
X026404Y013319D01*
X026404Y012616D01*
X026474Y012447D01*
X026604Y012318D01*
X026773Y012248D01*
X026956Y012248D01*
X027125Y012318D01*
X027254Y012447D01*
X027324Y012616D01*
X027324Y013319D01*
X027254Y013489D01*
X027125Y013618D01*
X027274Y013440D02*
X027454Y013440D01*
X027404Y013282D02*
X027324Y013282D01*
X027324Y013123D02*
X027404Y013123D01*
X027404Y012965D02*
X027324Y012965D01*
X027324Y012806D02*
X027404Y012806D01*
X027404Y012648D02*
X027324Y012648D01*
X027272Y012489D02*
X027457Y012489D01*
X027591Y012331D02*
X027138Y012331D01*
X026591Y012331D02*
X026138Y012331D01*
X026125Y012318D02*
X026254Y012447D01*
X026324Y012616D01*
X026324Y013319D01*
X026254Y013489D01*
X026125Y013618D01*
X025956Y013688D01*
X025773Y013688D01*
X025604Y013618D01*
X025474Y013489D01*
X025404Y013319D01*
X025404Y012616D01*
X025474Y012447D01*
X025604Y012318D01*
X025773Y012248D01*
X025956Y012248D01*
X026125Y012318D01*
X026272Y012489D02*
X026457Y012489D01*
X026404Y012648D02*
X026324Y012648D01*
X026324Y012806D02*
X026404Y012806D01*
X026404Y012965D02*
X026324Y012965D01*
X026324Y013123D02*
X026404Y013123D01*
X026404Y013282D02*
X026324Y013282D01*
X026274Y013440D02*
X026454Y013440D01*
X026585Y013599D02*
X026144Y013599D01*
X025585Y013599D02*
X025102Y013599D01*
X025095Y013604D02*
X025033Y013636D01*
X024967Y013657D01*
X024899Y013668D01*
X024864Y013668D01*
X024830Y013668D01*
X024761Y013657D01*
X024695Y013636D01*
X024634Y013604D01*
X024578Y013564D01*
X024529Y013515D01*
X024488Y013459D01*
X024456Y013397D01*
X024435Y013331D01*
X024424Y013263D01*
X024424Y012968D01*
X024864Y012968D01*
X024864Y012968D01*
X024424Y012968D01*
X024424Y012673D01*
X024435Y012605D01*
X024456Y012539D01*
X024488Y012477D01*
X024529Y012421D01*
X024578Y012372D01*
X024634Y012332D01*
X024695Y012300D01*
X024761Y012279D01*
X024830Y012268D01*
X024864Y012268D01*
X024864Y012968D01*
X024864Y013668D01*
X024864Y012968D01*
X024864Y012968D01*
X024864Y012968D01*
X024864Y012268D01*
X024899Y012268D01*
X024967Y012279D01*
X025033Y012300D01*
X025095Y012332D01*
X025151Y012372D01*
X025200Y012421D01*
X025240Y012477D01*
X025272Y012539D01*
X025293Y012605D01*
X025304Y012673D01*
X025304Y012968D01*
X025304Y013263D01*
X025293Y013331D01*
X025272Y013397D01*
X025240Y013459D01*
X025200Y013515D01*
X025151Y013564D01*
X025095Y013604D01*
X025250Y013440D02*
X025454Y013440D01*
X025404Y013282D02*
X025301Y013282D01*
X025304Y013123D02*
X025404Y013123D01*
X025404Y012965D02*
X025304Y012965D01*
X025304Y012968D02*
X024864Y012968D01*
X025304Y012968D01*
X025304Y012806D02*
X025404Y012806D01*
X025404Y012648D02*
X025300Y012648D01*
X025247Y012489D02*
X025457Y012489D01*
X025591Y012331D02*
X025093Y012331D01*
X024864Y012331D02*
X024864Y012331D01*
X024864Y012489D02*
X024864Y012489D01*
X024864Y012648D02*
X024864Y012648D01*
X024864Y012806D02*
X024864Y012806D01*
X024864Y012965D02*
X024864Y012965D01*
X024864Y012968D02*
X024864Y012968D01*
X024864Y013123D02*
X024864Y013123D01*
X024864Y013282D02*
X024864Y013282D01*
X024864Y013440D02*
X024864Y013440D01*
X024864Y013599D02*
X024864Y013599D01*
X024626Y013599D02*
X024164Y013599D01*
X024164Y013757D02*
X034050Y013757D01*
X034074Y013599D02*
X029144Y013599D01*
X029274Y013440D02*
X034074Y013440D01*
X034074Y013282D02*
X029324Y013282D01*
X027829Y014708D02*
X039448Y014708D01*
X039448Y014550D02*
X034067Y014550D01*
X034265Y014391D02*
X039448Y014391D01*
X039448Y014233D02*
X034423Y014233D01*
X034582Y014074D02*
X039448Y014074D01*
X039448Y013916D02*
X034674Y013916D01*
X034674Y013757D02*
X039448Y013757D01*
X039448Y013599D02*
X034674Y013599D01*
X034674Y013440D02*
X039448Y013440D01*
X039448Y013282D02*
X034674Y013282D01*
X034674Y013123D02*
X039448Y013123D01*
X039448Y012965D02*
X034674Y012965D01*
X034674Y012806D02*
X039448Y012806D01*
X039448Y012648D02*
X034674Y012648D01*
X034824Y012489D02*
X035133Y012489D01*
X035149Y012506D02*
X035115Y012472D01*
X035092Y012431D01*
X035079Y012385D01*
X035079Y012036D01*
X035487Y012036D01*
X035487Y012542D01*
X035236Y012542D01*
X035190Y012529D01*
X035149Y012506D01*
X035079Y012331D02*
X034869Y012331D01*
X034869Y012172D02*
X035079Y012172D01*
X034869Y012014D02*
X035487Y012014D01*
X035487Y012036D02*
X035487Y011900D01*
X035622Y011900D01*
X035622Y011394D01*
X035874Y011394D01*
X035919Y011407D01*
X035961Y011430D01*
X035994Y011464D01*
X036018Y011505D01*
X036030Y011551D01*
X036030Y011900D01*
X035622Y011900D01*
X035622Y012036D01*
X035487Y012036D01*
X035622Y012036D02*
X035622Y012542D01*
X035874Y012542D01*
X035919Y012529D01*
X035961Y012506D01*
X035994Y012472D01*
X036018Y012431D01*
X036030Y012385D01*
X036030Y012036D01*
X035622Y012036D01*
X035622Y012014D02*
X039448Y012014D01*
X039448Y012172D02*
X036030Y012172D01*
X036030Y012331D02*
X039448Y012331D01*
X039448Y012489D02*
X035977Y012489D01*
X035622Y012489D02*
X035487Y012489D01*
X035487Y012331D02*
X035622Y012331D01*
X035622Y012172D02*
X035487Y012172D01*
X035487Y011900D02*
X035079Y011900D01*
X035079Y011551D01*
X035092Y011505D01*
X035115Y011464D01*
X035149Y011430D01*
X035190Y011407D01*
X035236Y011394D01*
X035487Y011394D01*
X035487Y011900D01*
X035487Y011855D02*
X035622Y011855D01*
X035622Y011697D02*
X035487Y011697D01*
X035487Y011538D02*
X035622Y011538D01*
X036027Y011538D02*
X039448Y011538D01*
X039448Y011380D02*
X034757Y011380D01*
X034869Y011538D02*
X035083Y011538D01*
X035079Y011697D02*
X034869Y011697D01*
X034869Y011855D02*
X035079Y011855D01*
X034963Y011221D02*
X039448Y011221D01*
X039448Y011063D02*
X034984Y011063D01*
X034984Y010904D02*
X039448Y010904D01*
X039448Y010746D02*
X037417Y010746D01*
X037417Y010759D02*
X037300Y010877D01*
X036268Y010877D01*
X036151Y010759D01*
X036151Y009176D01*
X036268Y009059D01*
X037300Y009059D01*
X037417Y009176D01*
X037417Y010759D01*
X037417Y010587D02*
X039448Y010587D01*
X039448Y010429D02*
X037417Y010429D01*
X037417Y010270D02*
X039448Y010270D01*
X039448Y010112D02*
X037417Y010112D01*
X037417Y009953D02*
X039448Y009953D01*
X039448Y009795D02*
X037417Y009795D01*
X037417Y009636D02*
X039448Y009636D01*
X039448Y009478D02*
X037417Y009478D01*
X037417Y009319D02*
X039448Y009319D01*
X039448Y009161D02*
X037402Y009161D01*
X036167Y009161D02*
X034984Y009161D01*
X034984Y009319D02*
X036151Y009319D01*
X036151Y009478D02*
X034887Y009478D01*
X034867Y009498D02*
X034984Y009381D01*
X034984Y008735D01*
X034867Y008618D01*
X034644Y008618D01*
X034644Y008362D01*
X034652Y008362D01*
X034769Y008245D01*
X034769Y007291D01*
X034664Y007187D01*
X034664Y006076D01*
X034695Y006063D01*
X034859Y005899D01*
X034948Y005684D01*
X034948Y005452D01*
X034859Y005237D01*
X034695Y005073D01*
X034480Y004984D01*
X034248Y004984D01*
X034033Y005073D01*
X033869Y005237D01*
X033780Y005452D01*
X033780Y005684D01*
X033869Y005899D01*
X034033Y006063D01*
X034064Y006076D01*
X034064Y007174D01*
X033896Y007174D01*
X033778Y007291D01*
X033778Y008245D01*
X033896Y008362D01*
X034044Y008362D01*
X034044Y008618D01*
X033821Y008618D01*
X033704Y008735D01*
X033704Y009381D01*
X033821Y009498D01*
X034867Y009498D01*
X034854Y009560D02*
X034895Y009584D01*
X034928Y009617D01*
X034952Y009658D01*
X034964Y009704D01*
X034964Y009928D01*
X034384Y009928D01*
X034384Y009548D01*
X034808Y009548D01*
X034854Y009560D01*
X034939Y009636D02*
X036151Y009636D01*
X036151Y009795D02*
X034964Y009795D01*
X034964Y010008D02*
X034964Y010232D01*
X034952Y010277D01*
X034928Y010318D01*
X034895Y010352D01*
X034854Y010376D01*
X034808Y010388D01*
X034384Y010388D01*
X034384Y010008D01*
X034304Y010008D01*
X034304Y009928D01*
X033724Y009928D01*
X033724Y009704D01*
X033736Y009658D01*
X033760Y009617D01*
X033794Y009584D01*
X033835Y009560D01*
X033880Y009548D01*
X034304Y009548D01*
X034304Y009928D01*
X034384Y009928D01*
X034384Y010008D01*
X034964Y010008D01*
X034964Y010112D02*
X036151Y010112D01*
X036151Y010270D02*
X034954Y010270D01*
X034984Y010587D02*
X036151Y010587D01*
X036151Y010429D02*
X033533Y010429D01*
X033425Y010270D02*
X033735Y010270D01*
X033736Y010277D02*
X033724Y010232D01*
X033724Y010008D01*
X034304Y010008D01*
X034304Y010388D01*
X033880Y010388D01*
X033835Y010376D01*
X033794Y010352D01*
X033760Y010318D01*
X033736Y010277D01*
X033724Y010112D02*
X031647Y010112D01*
X031659Y010188D02*
X031659Y010188D01*
X031646Y010270D02*
X031903Y010270D01*
X031795Y010429D02*
X031638Y010429D01*
X031638Y010587D02*
X031795Y010587D01*
X031795Y010746D02*
X031632Y010746D01*
X031757Y011380D02*
X031882Y011380D01*
X031869Y011538D02*
X032083Y011538D01*
X032079Y011697D02*
X031869Y011697D01*
X031869Y011855D02*
X032079Y011855D01*
X031869Y012014D02*
X032487Y012014D01*
X032622Y012014D02*
X033878Y012014D01*
X033878Y012172D02*
X033030Y012172D01*
X033030Y012036D02*
X033030Y012385D01*
X033018Y012431D01*
X032994Y012472D01*
X032961Y012506D01*
X032919Y012529D01*
X032874Y012542D01*
X032622Y012542D01*
X032622Y012036D01*
X033030Y012036D01*
X033030Y011855D02*
X033878Y011855D01*
X033878Y011697D02*
X033030Y011697D01*
X033027Y011538D02*
X033878Y011538D01*
X033990Y011380D02*
X033446Y011380D01*
X033533Y011221D02*
X033725Y011221D01*
X034304Y010270D02*
X034384Y010270D01*
X034384Y010112D02*
X034304Y010112D01*
X034304Y009953D02*
X031646Y009953D01*
X031646Y009795D02*
X031833Y009795D01*
X031795Y009636D02*
X031638Y009636D01*
X031038Y009636D02*
X030864Y009636D01*
X030864Y009478D02*
X031038Y009478D01*
X031044Y009319D02*
X030864Y009319D01*
X030864Y009161D02*
X031147Y009161D01*
X031321Y009002D02*
X030864Y009002D01*
X030864Y008844D02*
X031795Y008844D01*
X032365Y008453D02*
X032342Y008412D01*
X032329Y008366D01*
X032329Y008105D01*
X032787Y008105D01*
X032787Y007950D01*
X032942Y007950D01*
X032942Y008105D01*
X033399Y008105D01*
X033399Y008366D01*
X033387Y008412D01*
X033363Y008453D01*
X033330Y008487D01*
X033289Y008510D01*
X033243Y008523D01*
X032942Y008523D01*
X032942Y008105D01*
X032787Y008105D01*
X032787Y008523D01*
X032486Y008523D01*
X032440Y008510D01*
X032399Y008487D01*
X032365Y008453D01*
X032330Y008368D02*
X030864Y008368D01*
X030864Y008210D02*
X032329Y008210D01*
X032329Y007950D02*
X032329Y007689D01*
X032342Y007643D01*
X032365Y007602D01*
X032399Y007569D01*
X032440Y007545D01*
X032486Y007533D01*
X032787Y007533D01*
X032787Y007950D01*
X032329Y007950D01*
X032329Y007893D02*
X030864Y007893D01*
X030864Y008051D02*
X032787Y008051D01*
X032942Y008051D02*
X033778Y008051D01*
X033778Y007893D02*
X033399Y007893D01*
X033399Y007950D02*
X033399Y007689D01*
X033387Y007643D01*
X033363Y007602D01*
X033330Y007569D01*
X033289Y007545D01*
X033243Y007533D01*
X032942Y007533D01*
X032942Y007950D01*
X033399Y007950D01*
X033399Y007734D02*
X033778Y007734D01*
X033778Y007576D02*
X033337Y007576D01*
X033308Y007417D02*
X033778Y007417D01*
X033811Y007259D02*
X033419Y007259D01*
X033419Y007100D02*
X034064Y007100D01*
X034064Y006942D02*
X033419Y006942D01*
X033419Y006783D02*
X034064Y006783D01*
X034064Y006625D02*
X033419Y006625D01*
X033375Y006466D02*
X034064Y006466D01*
X034064Y006308D02*
X033164Y006308D01*
X033164Y006149D02*
X034064Y006149D01*
X033961Y005991D02*
X033252Y005991D01*
X033319Y005832D02*
X033842Y005832D01*
X033780Y005674D02*
X033324Y005674D01*
X033324Y005515D02*
X033780Y005515D01*
X033820Y005357D02*
X033324Y005357D01*
X033324Y005198D02*
X033908Y005198D01*
X034113Y005040D02*
X033292Y005040D01*
X033188Y004881D02*
X034180Y004881D01*
X034022Y004723D02*
X006493Y004723D01*
X006629Y004881D02*
X009401Y004881D01*
X009388Y004894D02*
X009470Y004812D01*
X009576Y004768D01*
X009692Y004768D01*
X009721Y004780D01*
X009750Y004768D01*
X009865Y004768D01*
X009894Y004780D01*
X009923Y004768D01*
X010039Y004768D01*
X010145Y004812D01*
X010173Y004840D01*
X010201Y004812D01*
X010201Y004812D01*
X010221Y004804D01*
X010308Y004768D01*
X010597Y004768D01*
X010703Y004812D01*
X010710Y004819D01*
X010718Y004812D01*
X010824Y004768D01*
X010940Y004768D01*
X011046Y004812D01*
X011097Y004863D01*
X011147Y004812D01*
X011254Y004768D01*
X011369Y004768D01*
X011476Y004812D01*
X011563Y004899D01*
X011590Y004927D01*
X011618Y004899D01*
X011618Y004899D01*
X011624Y004894D01*
X011705Y004812D01*
X011705Y004812D01*
X011725Y004804D01*
X011812Y004768D01*
X012101Y004768D01*
X012207Y004812D01*
X012278Y004883D01*
X012350Y004812D01*
X012367Y004805D01*
X012456Y004768D01*
X012832Y004768D01*
X012938Y004812D01*
X013020Y004894D01*
X013064Y005000D01*
X013064Y005376D01*
X013064Y005521D01*
X013064Y005636D01*
X013020Y005743D01*
X012938Y005824D01*
X012832Y005868D01*
X012456Y005868D01*
X012350Y005824D01*
X012263Y005738D01*
X012185Y005660D01*
X012164Y005669D01*
X012101Y005695D01*
X011812Y005695D01*
X011705Y005651D01*
X011677Y005623D01*
X011649Y005651D01*
X011646Y005652D01*
X011644Y005656D01*
X011563Y005738D01*
X011456Y005782D01*
X011341Y005782D01*
X011234Y005738D01*
X011183Y005687D01*
X011133Y005738D01*
X011026Y005782D01*
X010911Y005782D01*
X010804Y005738D01*
X010723Y005656D01*
X010721Y005652D01*
X010718Y005651D01*
X010710Y005644D01*
X010703Y005651D01*
X010628Y005682D01*
X010597Y005695D01*
X010308Y005695D01*
X010201Y005651D01*
X010173Y005623D01*
X010145Y005651D01*
X010039Y005695D01*
X009837Y005695D01*
X009808Y005683D01*
X009779Y005695D01*
X009663Y005695D01*
X009557Y005651D01*
X009470Y005564D01*
X009388Y005482D01*
X009344Y005376D01*
X009344Y005000D01*
X009388Y004894D01*
X009344Y005040D02*
X006694Y005040D01*
X006697Y005198D02*
X009344Y005198D01*
X009344Y005357D02*
X006697Y005357D01*
X006697Y005515D02*
X009421Y005515D01*
X009613Y005674D02*
X006697Y005674D01*
X006697Y005832D02*
X012370Y005832D01*
X012199Y005674D02*
X012151Y005674D01*
X011761Y005674D02*
X011626Y005674D01*
X011563Y004899D02*
X011563Y004899D01*
X011545Y004881D02*
X011636Y004881D01*
X011705Y004812D02*
X011705Y004812D01*
X012277Y004881D02*
X012280Y004881D01*
X012350Y004812D02*
X012350Y004812D01*
X012350Y004812D01*
X013008Y004881D02*
X013540Y004881D01*
X013436Y005040D02*
X013064Y005040D01*
X013064Y005198D02*
X013404Y005198D01*
X013404Y005357D02*
X013064Y005357D01*
X013064Y005515D02*
X013404Y005515D01*
X013404Y005674D02*
X013048Y005674D01*
X012919Y005832D02*
X013410Y005832D01*
X013477Y005991D02*
X006688Y005991D01*
X006622Y006149D02*
X013564Y006149D01*
X013564Y006308D02*
X006478Y006308D01*
X005810Y006308D02*
X004474Y006308D01*
X004632Y006149D02*
X005666Y006149D01*
X005600Y005991D02*
X004702Y005991D01*
X004717Y005832D02*
X005592Y005832D01*
X005592Y005674D02*
X004717Y005674D01*
X004222Y005674D02*
X004147Y005674D01*
X004147Y005832D02*
X004222Y005832D01*
X004222Y005991D02*
X004147Y005991D01*
X004147Y006149D02*
X004222Y006149D01*
X004222Y006308D02*
X004147Y006308D01*
X004147Y005515D02*
X000644Y005515D01*
X000644Y007259D02*
X002924Y007259D01*
X002921Y007260D02*
X003228Y007133D01*
X003560Y007133D01*
X003867Y007260D01*
X004102Y007495D01*
X004229Y007802D01*
X004229Y008134D01*
X004102Y008441D01*
X003867Y008676D01*
X003560Y008803D01*
X003228Y008803D01*
X002921Y008676D01*
X002686Y008441D01*
X002559Y008134D01*
X002559Y007802D01*
X002686Y007495D01*
X002921Y007260D01*
X002764Y007417D02*
X000644Y007417D01*
X000644Y007576D02*
X002653Y007576D01*
X002587Y007734D02*
X000644Y007734D01*
X000644Y007893D02*
X002559Y007893D01*
X002559Y008051D02*
X000644Y008051D01*
X000644Y008210D02*
X002591Y008210D01*
X002656Y008368D02*
X000644Y008368D01*
X000644Y008527D02*
X002772Y008527D01*
X002944Y008685D02*
X000644Y008685D01*
X000644Y010746D02*
X003652Y010746D01*
X003665Y010904D02*
X000644Y010904D01*
X000644Y011063D02*
X003731Y011063D01*
X003885Y011221D02*
X000644Y011221D01*
X000644Y011380D02*
X010769Y011380D01*
X010794Y011538D02*
X000644Y011538D01*
X000644Y011697D02*
X010635Y011697D01*
X010570Y011855D02*
X006381Y011855D01*
X006457Y011887D02*
X006254Y011803D01*
X006034Y011803D01*
X005831Y011887D01*
X005676Y012042D01*
X005592Y012246D01*
X005592Y013170D01*
X005676Y013373D01*
X005831Y013529D01*
X006034Y013613D01*
X006254Y013613D01*
X006457Y013529D01*
X006613Y013373D01*
X006697Y013170D01*
X006697Y012246D01*
X006613Y012042D01*
X006457Y011887D01*
X006584Y012014D02*
X010564Y012014D01*
X010608Y012172D02*
X006666Y012172D01*
X006697Y012331D02*
X010720Y012331D01*
X012008Y012331D02*
X015591Y012331D01*
X015604Y012318D02*
X015773Y012248D01*
X015956Y012248D01*
X016125Y012318D01*
X016254Y012447D01*
X016324Y012616D01*
X016324Y013319D01*
X016254Y013489D01*
X016125Y013618D01*
X015956Y013688D01*
X015773Y013688D01*
X015604Y013618D01*
X015474Y013489D01*
X015404Y013319D01*
X015404Y012616D01*
X015474Y012447D01*
X015604Y012318D01*
X015457Y012489D02*
X006697Y012489D01*
X006697Y012648D02*
X015404Y012648D01*
X015404Y012806D02*
X006697Y012806D01*
X006697Y012965D02*
X015404Y012965D01*
X015404Y013123D02*
X006697Y013123D01*
X006650Y013282D02*
X015404Y013282D01*
X015454Y013440D02*
X006546Y013440D01*
X006288Y013599D02*
X015585Y013599D01*
X016144Y013599D02*
X016585Y013599D01*
X016604Y013618D02*
X016474Y013489D01*
X016404Y013319D01*
X016404Y012616D01*
X016474Y012447D01*
X016604Y012318D01*
X016773Y012248D01*
X016956Y012248D01*
X017125Y012318D01*
X017254Y012447D01*
X017324Y012616D01*
X017324Y013319D01*
X017254Y013489D01*
X017125Y013618D01*
X016956Y013688D01*
X016773Y013688D01*
X016604Y013618D01*
X016454Y013440D02*
X016274Y013440D01*
X016324Y013282D02*
X016404Y013282D01*
X016404Y013123D02*
X016324Y013123D01*
X016324Y012965D02*
X016404Y012965D01*
X016404Y012806D02*
X016324Y012806D01*
X016324Y012648D02*
X016404Y012648D01*
X016457Y012489D02*
X016272Y012489D01*
X016138Y012331D02*
X016591Y012331D01*
X017138Y012331D02*
X017591Y012331D01*
X017604Y012318D02*
X017773Y012248D01*
X017956Y012248D01*
X018125Y012318D01*
X018254Y012447D01*
X018324Y012616D01*
X018324Y013319D01*
X018254Y013489D01*
X018125Y013618D01*
X017956Y013688D01*
X017773Y013688D01*
X017604Y013618D01*
X017474Y013489D01*
X017404Y013319D01*
X017404Y012616D01*
X017474Y012447D01*
X017604Y012318D01*
X017457Y012489D02*
X017272Y012489D01*
X017324Y012648D02*
X017404Y012648D01*
X017404Y012806D02*
X017324Y012806D01*
X017324Y012965D02*
X017404Y012965D01*
X017404Y013123D02*
X017324Y013123D01*
X017324Y013282D02*
X017404Y013282D01*
X017454Y013440D02*
X017274Y013440D01*
X017144Y013599D02*
X017585Y013599D01*
X018144Y013599D02*
X018564Y013599D01*
X018564Y013578D02*
X018474Y013489D01*
X018404Y013319D01*
X018404Y012616D01*
X018474Y012447D01*
X018604Y012318D01*
X018773Y012248D01*
X018956Y012248D01*
X019125Y012318D01*
X019254Y012447D01*
X019324Y012616D01*
X019324Y013319D01*
X019254Y013489D01*
X019164Y013578D01*
X019164Y014128D01*
X019119Y014238D01*
X018734Y014622D01*
X018624Y014668D01*
X010288Y014668D01*
X010164Y014792D01*
X010164Y019728D01*
X010119Y019838D01*
X010034Y019922D01*
X009694Y020262D01*
X009584Y020308D01*
X006697Y020308D01*
X006697Y020470D01*
X006613Y020673D01*
X006457Y020829D01*
X006254Y020913D01*
X006034Y020913D01*
X005831Y020829D01*
X005676Y020673D01*
X005592Y020470D01*
X005592Y019546D01*
X005676Y019342D01*
X005831Y019187D01*
X006034Y019103D01*
X006254Y019103D01*
X006457Y019187D01*
X006613Y019342D01*
X006697Y019546D01*
X006697Y019708D01*
X009400Y019708D01*
X009564Y019544D01*
X009564Y014608D01*
X009610Y014498D01*
X009910Y014198D01*
X009994Y014114D01*
X010104Y014068D01*
X018440Y014068D01*
X018564Y013944D01*
X018564Y013578D01*
X018454Y013440D02*
X018274Y013440D01*
X018324Y013282D02*
X018404Y013282D01*
X018404Y013123D02*
X018324Y013123D01*
X018324Y012965D02*
X018404Y012965D01*
X018404Y012806D02*
X018324Y012806D01*
X018324Y012648D02*
X018404Y012648D01*
X018457Y012489D02*
X018272Y012489D01*
X018138Y012331D02*
X018591Y012331D01*
X019138Y012331D02*
X019564Y012331D01*
X019564Y012172D02*
X013484Y012172D01*
X013642Y012014D02*
X019564Y012014D01*
X019564Y011855D02*
X013753Y011855D01*
X013764Y011697D02*
X019564Y011697D01*
X019564Y011538D02*
X013764Y011538D01*
X013764Y011380D02*
X019564Y011380D01*
X019564Y011221D02*
X013764Y011221D01*
X013764Y011063D02*
X019535Y011063D01*
X021164Y011380D02*
X022564Y011380D01*
X022564Y011538D02*
X021164Y011538D01*
X021164Y011697D02*
X022564Y011697D01*
X022564Y011855D02*
X021164Y011855D01*
X021164Y012014D02*
X022564Y012014D01*
X022564Y012172D02*
X021164Y012172D01*
X021164Y012331D02*
X021591Y012331D01*
X021604Y012318D02*
X021773Y012248D01*
X021956Y012248D01*
X022125Y012318D01*
X022254Y012447D01*
X022324Y012616D01*
X022324Y013319D01*
X022254Y013489D01*
X022125Y013618D01*
X021956Y013688D01*
X021773Y013688D01*
X021604Y013618D01*
X021474Y013489D01*
X021404Y013319D01*
X021404Y012616D01*
X021474Y012447D01*
X021604Y012318D01*
X021457Y012489D02*
X021272Y012489D01*
X021324Y012648D02*
X021404Y012648D01*
X021404Y012806D02*
X021324Y012806D01*
X021324Y012965D02*
X021404Y012965D01*
X021404Y013123D02*
X021324Y013123D01*
X021324Y013282D02*
X021404Y013282D01*
X021454Y013440D02*
X021274Y013440D01*
X021144Y013599D02*
X021585Y013599D01*
X022144Y013599D02*
X022585Y013599D01*
X022454Y013440D02*
X022274Y013440D01*
X022324Y013282D02*
X022404Y013282D01*
X022404Y013123D02*
X022324Y013123D01*
X022324Y012965D02*
X022404Y012965D01*
X022404Y012806D02*
X022324Y012806D01*
X022324Y012648D02*
X022404Y012648D01*
X022457Y012489D02*
X022272Y012489D01*
X022138Y012331D02*
X022564Y012331D01*
X022564Y011221D02*
X021419Y011221D01*
X021419Y011063D02*
X022564Y011063D01*
X022566Y010904D02*
X021419Y010904D01*
X021419Y010746D02*
X022662Y010746D01*
X022820Y010587D02*
X021419Y010587D01*
X021418Y010429D02*
X024464Y010429D01*
X024460Y010270D02*
X024069Y010270D01*
X024204Y010112D02*
X024324Y010112D01*
X024264Y009967D02*
X024264Y009169D01*
X024188Y008985D01*
X024047Y008844D01*
X024195Y009002D02*
X024333Y009002D01*
X024340Y008985D02*
X024481Y008844D01*
X024340Y008985D02*
X024264Y009169D01*
X024264Y009967D01*
X024264Y009953D02*
X024264Y009953D01*
X024264Y009795D02*
X024264Y009795D01*
X024264Y009636D02*
X024264Y009636D01*
X024264Y009478D02*
X024264Y009478D01*
X024264Y009319D02*
X024264Y009319D01*
X024261Y009161D02*
X024267Y009161D01*
X025047Y008844D02*
X025188Y008985D01*
X025264Y009169D01*
X025264Y009967D01*
X025264Y009169D01*
X025340Y008985D01*
X025481Y008844D01*
X025333Y009002D02*
X025195Y009002D01*
X025261Y009161D02*
X025267Y009161D01*
X025264Y009319D02*
X025264Y009319D01*
X025264Y009478D02*
X025264Y009478D01*
X025264Y009636D02*
X025264Y009636D01*
X025264Y009795D02*
X025264Y009795D01*
X025264Y009953D02*
X025264Y009953D01*
X025204Y010112D02*
X025324Y010112D01*
X025460Y010270D02*
X025069Y010270D01*
X025064Y010429D02*
X028389Y010429D01*
X028389Y010270D02*
X028069Y010270D01*
X028204Y010112D02*
X028389Y010112D01*
X028389Y009953D02*
X028264Y009953D01*
X028264Y009795D02*
X028451Y009795D01*
X028264Y009636D02*
X030264Y009636D01*
X030264Y009478D02*
X028264Y009478D01*
X028264Y009319D02*
X030264Y009319D01*
X030264Y009161D02*
X029257Y009161D01*
X029340Y009002D02*
X030264Y009002D01*
X030264Y008844D02*
X029340Y008844D01*
X029340Y008685D02*
X030264Y008685D01*
X030264Y008527D02*
X029340Y008527D01*
X029340Y008368D02*
X030264Y008368D01*
X030264Y008210D02*
X029164Y008210D01*
X029164Y008051D02*
X030264Y008051D01*
X030264Y007893D02*
X029164Y007893D01*
X029164Y007734D02*
X030264Y007734D01*
X030061Y007576D02*
X029468Y007576D01*
X029570Y007417D02*
X029958Y007417D01*
X029958Y007259D02*
X029570Y007259D01*
X029570Y007100D02*
X029958Y007100D01*
X029958Y006942D02*
X029570Y006942D01*
X029570Y006783D02*
X029958Y006783D01*
X029958Y006625D02*
X029570Y006625D01*
X029570Y006466D02*
X029958Y006466D01*
X030013Y006308D02*
X029516Y006308D01*
X028898Y006918D02*
X028893Y006923D01*
X028898Y006918D02*
X028864Y006918D01*
X028893Y006922D02*
X028881Y006937D01*
X028872Y006955D01*
X028866Y006973D01*
X028864Y006993D01*
X028226Y006466D02*
X014187Y006466D01*
X014164Y006308D02*
X028280Y006308D01*
X027070Y006625D02*
X014345Y006625D01*
X014164Y006149D02*
X014680Y006149D01*
X014604Y006118D02*
X014474Y005989D01*
X014404Y005819D01*
X014404Y005116D01*
X014474Y004947D01*
X014604Y004818D01*
X014773Y004748D01*
X014956Y004748D01*
X015125Y004818D01*
X015254Y004947D01*
X015324Y005116D01*
X015324Y005819D01*
X015254Y005989D01*
X015125Y006118D01*
X014956Y006188D01*
X014773Y006188D01*
X014604Y006118D01*
X014477Y005991D02*
X014252Y005991D01*
X014319Y005832D02*
X014410Y005832D01*
X014404Y005674D02*
X014324Y005674D01*
X014324Y005515D02*
X014404Y005515D01*
X014404Y005357D02*
X014324Y005357D01*
X014324Y005198D02*
X014404Y005198D01*
X014436Y005040D02*
X014292Y005040D01*
X014188Y004881D02*
X014540Y004881D01*
X015188Y004881D02*
X015540Y004881D01*
X015604Y004818D02*
X015474Y004947D01*
X015404Y005116D01*
X015404Y005819D01*
X015474Y005989D01*
X015604Y006118D01*
X015773Y006188D01*
X015956Y006188D01*
X016125Y006118D01*
X016254Y005989D01*
X016324Y005819D01*
X016324Y005116D01*
X016254Y004947D01*
X016125Y004818D01*
X015956Y004748D01*
X015773Y004748D01*
X015604Y004818D01*
X015436Y005040D02*
X015292Y005040D01*
X015324Y005198D02*
X015404Y005198D01*
X015404Y005357D02*
X015324Y005357D01*
X015324Y005515D02*
X015404Y005515D01*
X015404Y005674D02*
X015324Y005674D01*
X015319Y005832D02*
X015410Y005832D01*
X015477Y005991D02*
X015252Y005991D01*
X015049Y006149D02*
X015680Y006149D01*
X016049Y006149D02*
X030680Y006149D01*
X030604Y006118D02*
X030474Y005989D01*
X030404Y005819D01*
X030404Y005116D01*
X030474Y004947D01*
X030604Y004818D01*
X030773Y004748D01*
X030956Y004748D01*
X031125Y004818D01*
X031254Y004947D01*
X031324Y005116D01*
X031324Y005819D01*
X031254Y005989D01*
X031125Y006118D01*
X030956Y006188D01*
X030773Y006188D01*
X030604Y006118D01*
X030477Y005991D02*
X016252Y005991D01*
X016319Y005832D02*
X030410Y005832D01*
X030404Y005674D02*
X016324Y005674D01*
X016324Y005515D02*
X030404Y005515D01*
X030404Y005357D02*
X016324Y005357D01*
X016324Y005198D02*
X030404Y005198D01*
X030436Y005040D02*
X016292Y005040D01*
X016188Y004881D02*
X030540Y004881D01*
X031188Y004881D02*
X031540Y004881D01*
X031604Y004818D02*
X031474Y004947D01*
X031404Y005116D01*
X031404Y005819D01*
X031474Y005989D01*
X031604Y006118D01*
X031773Y006188D01*
X031956Y006188D01*
X032125Y006118D01*
X032254Y005989D01*
X032324Y005819D01*
X032324Y005116D01*
X032254Y004947D01*
X032125Y004818D01*
X031956Y004748D01*
X031773Y004748D01*
X031604Y004818D01*
X031436Y005040D02*
X031292Y005040D01*
X031324Y005198D02*
X031404Y005198D01*
X031404Y005357D02*
X031324Y005357D01*
X031324Y005515D02*
X031404Y005515D01*
X031404Y005674D02*
X031324Y005674D01*
X031319Y005832D02*
X031410Y005832D01*
X031477Y005991D02*
X031252Y005991D01*
X031049Y006149D02*
X031680Y006149D01*
X032049Y006149D02*
X032564Y006149D01*
X032564Y006308D02*
X031248Y006308D01*
X031303Y006466D02*
X032353Y006466D01*
X032252Y005991D02*
X032477Y005991D01*
X032410Y005832D02*
X032319Y005832D01*
X032324Y005674D02*
X032404Y005674D01*
X032404Y005515D02*
X032324Y005515D01*
X032324Y005357D02*
X032404Y005357D01*
X032404Y005198D02*
X032324Y005198D01*
X032292Y005040D02*
X032436Y005040D01*
X032540Y004881D02*
X032188Y004881D01*
X032864Y006908D02*
X032864Y006918D01*
X032309Y007259D02*
X031303Y007259D01*
X031303Y007417D02*
X032421Y007417D01*
X032392Y007576D02*
X031200Y007576D01*
X030864Y007734D02*
X032329Y007734D01*
X032787Y007734D02*
X032942Y007734D01*
X032942Y007576D02*
X032787Y007576D01*
X032787Y007893D02*
X032942Y007893D01*
X032942Y008210D02*
X032787Y008210D01*
X032787Y008368D02*
X032942Y008368D01*
X033399Y008368D02*
X034044Y008368D01*
X034044Y008527D02*
X030864Y008527D01*
X030864Y008685D02*
X033754Y008685D01*
X033704Y008844D02*
X033533Y008844D01*
X033533Y009002D02*
X033704Y009002D01*
X033704Y009161D02*
X033533Y009161D01*
X033533Y009319D02*
X033704Y009319D01*
X033801Y009478D02*
X033533Y009478D01*
X033533Y009636D02*
X033749Y009636D01*
X033724Y009795D02*
X033496Y009795D01*
X034304Y009795D02*
X034384Y009795D01*
X034384Y009953D02*
X036151Y009953D01*
X036151Y010746D02*
X034984Y010746D01*
X036030Y011697D02*
X039448Y011697D01*
X039448Y011855D02*
X036030Y011855D01*
X033923Y012489D02*
X032977Y012489D01*
X033030Y012331D02*
X033878Y012331D01*
X032622Y012331D02*
X032487Y012331D01*
X032487Y012489D02*
X032622Y012489D01*
X032133Y012489D02*
X031824Y012489D01*
X031869Y012331D02*
X032079Y012331D01*
X032079Y012172D02*
X031869Y012172D01*
X032487Y012172D02*
X032622Y012172D01*
X033892Y013916D02*
X024236Y013916D01*
X024274Y013440D02*
X024479Y013440D01*
X024427Y013282D02*
X024324Y013282D01*
X024324Y013123D02*
X024424Y013123D01*
X024424Y012965D02*
X024324Y012965D01*
X024324Y012806D02*
X024424Y012806D01*
X024428Y012648D02*
X024324Y012648D01*
X024272Y012489D02*
X024482Y012489D01*
X024635Y012331D02*
X024138Y012331D01*
X023564Y013916D02*
X020164Y013916D01*
X020164Y014074D02*
X023584Y014074D01*
X023705Y014233D02*
X020164Y014233D01*
X020164Y014391D02*
X023863Y014391D01*
X024061Y014550D02*
X020332Y014550D01*
X019761Y014867D02*
X010164Y014867D01*
X010164Y015025D02*
X019966Y015025D01*
X019956Y015248D02*
X020125Y015318D01*
X020254Y015447D01*
X020324Y015616D01*
X020324Y016319D01*
X020254Y016489D01*
X020155Y016588D01*
X020155Y018074D01*
X020233Y018074D01*
X020350Y018191D01*
X020350Y019145D01*
X020252Y019243D01*
X020339Y019330D01*
X020339Y020206D01*
X020222Y020323D01*
X019426Y020323D01*
X019309Y020206D01*
X019309Y019330D01*
X019426Y019213D01*
X019428Y019213D01*
X019359Y019145D01*
X019359Y018191D01*
X019477Y018074D01*
X019555Y018074D01*
X019555Y016569D01*
X019474Y016489D01*
X019404Y016319D01*
X019404Y015616D01*
X019474Y015447D01*
X019604Y015318D01*
X019773Y015248D01*
X019956Y015248D01*
X020149Y015342D02*
X020579Y015342D01*
X020604Y015318D02*
X020773Y015248D01*
X020956Y015248D01*
X021125Y015318D01*
X021254Y015447D01*
X021324Y015616D01*
X021324Y016319D01*
X021254Y016489D01*
X021125Y016618D01*
X020956Y016688D01*
X020773Y016688D01*
X020604Y016618D01*
X020474Y016489D01*
X020404Y016319D01*
X020404Y015616D01*
X020474Y015447D01*
X020604Y015318D01*
X020452Y015501D02*
X020276Y015501D01*
X020324Y015659D02*
X020404Y015659D01*
X020404Y015818D02*
X020324Y015818D01*
X020324Y015976D02*
X020404Y015976D01*
X020404Y016135D02*
X020324Y016135D01*
X020324Y016293D02*
X020404Y016293D01*
X020459Y016452D02*
X020269Y016452D01*
X020155Y016610D02*
X020596Y016610D01*
X020155Y016769D02*
X021564Y016769D01*
X021564Y016927D02*
X020155Y016927D01*
X020155Y017086D02*
X021564Y017086D01*
X021564Y017241D02*
X021564Y016578D01*
X021474Y016489D01*
X021404Y016319D01*
X021404Y015616D01*
X021474Y015447D01*
X021604Y015318D01*
X021773Y015248D01*
X021956Y015248D01*
X022125Y015318D01*
X022254Y015447D01*
X022324Y015616D01*
X022324Y016319D01*
X022254Y016489D01*
X022164Y016578D01*
X022164Y017619D01*
X022157Y017635D01*
X022164Y017651D01*
X022164Y019393D01*
X022302Y019393D01*
X022419Y019510D01*
X022419Y020306D01*
X022302Y020423D01*
X021426Y020423D01*
X021309Y020306D01*
X021309Y019510D01*
X021426Y019393D01*
X021564Y019393D01*
X021564Y018898D01*
X021194Y018898D01*
X021076Y018781D01*
X021076Y018221D01*
X021194Y018104D01*
X021564Y018104D01*
X021564Y018028D01*
X021450Y017915D01*
X021450Y017355D01*
X021564Y017241D01*
X021561Y017244D02*
X020155Y017244D01*
X020155Y017403D02*
X020725Y017403D01*
X020722Y017414D02*
X020735Y017369D01*
X020758Y017328D01*
X020792Y017294D01*
X020833Y017270D01*
X020879Y017258D01*
X021040Y017258D01*
X021040Y017635D01*
X021040Y017635D01*
X020722Y017635D01*
X020722Y017855D01*
X020735Y017901D01*
X020758Y017942D01*
X020792Y017976D01*
X020833Y017999D01*
X020879Y018012D01*
X021040Y018012D01*
X021040Y017635D01*
X021040Y017635D01*
X020722Y017635D01*
X020722Y017414D01*
X020722Y017561D02*
X020155Y017561D01*
X020155Y017720D02*
X020722Y017720D01*
X020729Y017878D02*
X020155Y017878D01*
X020155Y018037D02*
X021564Y018037D01*
X021450Y017878D02*
X021352Y017878D01*
X021358Y017855D02*
X021346Y017901D01*
X021322Y017942D01*
X021288Y017976D01*
X021247Y017999D01*
X021202Y018012D01*
X021040Y018012D01*
X021040Y017635D01*
X021040Y017635D01*
X021358Y017635D01*
X021358Y017855D01*
X021358Y017720D02*
X021450Y017720D01*
X021358Y017635D02*
X021040Y017635D01*
X021040Y017635D01*
X021040Y017258D01*
X021202Y017258D01*
X021247Y017270D01*
X021288Y017294D01*
X021322Y017328D01*
X021346Y017369D01*
X021358Y017414D01*
X021358Y017635D01*
X021358Y017561D02*
X021450Y017561D01*
X021450Y017403D02*
X021355Y017403D01*
X021040Y017403D02*
X021040Y017403D01*
X021040Y017561D02*
X021040Y017561D01*
X021040Y017720D02*
X021040Y017720D01*
X021040Y017878D02*
X021040Y017878D01*
X021102Y018195D02*
X020350Y018195D01*
X020350Y018354D02*
X021076Y018354D01*
X021076Y018512D02*
X020350Y018512D01*
X020350Y018671D02*
X021076Y018671D01*
X021125Y018829D02*
X020350Y018829D01*
X020350Y018988D02*
X021564Y018988D01*
X021564Y019146D02*
X020348Y019146D01*
X020314Y019305D02*
X021564Y019305D01*
X021356Y019463D02*
X020339Y019463D01*
X020339Y019622D02*
X021309Y019622D01*
X021309Y019780D02*
X020339Y019780D01*
X020339Y019939D02*
X021309Y019939D01*
X021309Y020097D02*
X020339Y020097D01*
X020289Y020256D02*
X021309Y020256D01*
X021418Y020414D02*
X018964Y020414D01*
X018964Y020323D02*
X018964Y021055D01*
X018980Y021027D01*
X019014Y020994D01*
X019055Y020970D01*
X019100Y020958D01*
X019354Y020958D01*
X019354Y021208D01*
X019354Y021448D01*
X019354Y021448D01*
X019354Y021218D01*
X019354Y021208D01*
X019354Y021208D01*
X019354Y021208D01*
X019354Y020958D01*
X019608Y020958D01*
X019654Y020970D01*
X019695Y020994D01*
X019728Y021027D01*
X019752Y021068D01*
X019764Y021114D01*
X019764Y021208D01*
X020174Y021208D01*
X020174Y021208D01*
X019764Y021208D01*
X019764Y021302D01*
X019776Y021347D01*
X019800Y021388D01*
X019834Y021422D01*
X019875Y021446D01*
X019920Y021458D01*
X020042Y021458D01*
X020042Y021458D01*
X019861Y021458D01*
X019764Y021555D01*
X019764Y021468D01*
X019677Y021468D01*
X019677Y021468D01*
X019764Y021468D01*
X019764Y021374D01*
X019754Y021338D01*
X019764Y021302D01*
X019764Y021208D01*
X019354Y021208D01*
X019354Y021208D01*
X019764Y021208D01*
X019764Y021114D01*
X019776Y021068D01*
X019800Y021027D01*
X019834Y020994D01*
X019875Y020970D01*
X019920Y020958D01*
X020174Y020958D01*
X020174Y021208D01*
X020174Y021208D01*
X020174Y020958D01*
X020428Y020958D01*
X020474Y020970D01*
X020515Y020994D01*
X020548Y021027D01*
X020560Y021048D01*
X020710Y020898D01*
X020794Y020814D01*
X020904Y020768D01*
X021309Y020768D01*
X021309Y020630D01*
X021426Y020513D01*
X022302Y020513D01*
X022419Y020630D01*
X022419Y021382D01*
X023341Y021382D01*
X023458Y021499D01*
X023458Y021568D01*
X024270Y021568D01*
X024270Y021499D01*
X024347Y021422D01*
X024342Y021412D01*
X024329Y021366D01*
X024329Y021105D01*
X024787Y021105D01*
X024787Y020950D01*
X024942Y020950D01*
X024942Y021105D01*
X025399Y021105D01*
X025399Y021366D01*
X025395Y021382D01*
X026341Y021382D01*
X026458Y021499D01*
X026458Y021682D01*
X026534Y021714D01*
X026934Y022114D01*
X027019Y022198D01*
X027064Y022308D01*
X027064Y023793D01*
X027064Y023793D01*
X027064Y023608D01*
X027110Y023498D01*
X027664Y022944D01*
X027664Y017208D01*
X027710Y017098D01*
X027794Y017014D01*
X028429Y016379D01*
X028404Y016319D01*
X028404Y015616D01*
X028474Y015447D01*
X028604Y015318D01*
X028773Y015248D01*
X028956Y015248D01*
X029125Y015318D01*
X029254Y015447D01*
X029324Y015616D01*
X029324Y016319D01*
X029254Y016489D01*
X029125Y016618D01*
X028977Y016679D01*
X028264Y017392D01*
X028264Y023128D01*
X028219Y023238D01*
X027664Y023792D01*
X027664Y023816D01*
X027695Y023800D01*
X027761Y023779D01*
X027830Y023768D01*
X027864Y023768D01*
X027864Y024468D01*
X027864Y025168D01*
X027830Y025168D01*
X027761Y025157D01*
X027695Y025136D01*
X027634Y025104D01*
X027633Y025104D01*
X027619Y025138D01*
X027534Y025222D01*
X027019Y025738D01*
X026934Y025822D01*
X026824Y025868D01*
X017504Y025868D01*
X017394Y025822D01*
X016751Y025179D01*
X016604Y025118D01*
X016474Y024989D01*
X016404Y024819D01*
X016404Y024116D01*
X016474Y023947D01*
X016604Y023818D01*
X016773Y023748D01*
X016956Y023748D01*
X017125Y023818D01*
X017254Y023947D01*
X017324Y024116D01*
X017324Y024819D01*
X017299Y024879D01*
X017688Y025268D01*
X026640Y025268D01*
X026735Y025173D01*
X026604Y025118D01*
X026474Y024989D01*
X026404Y024819D01*
X026404Y024116D01*
X026464Y023972D01*
X026464Y022492D01*
X026343Y022371D01*
X026341Y022373D01*
X025388Y022373D01*
X025364Y022349D01*
X025341Y022373D01*
X024388Y022373D01*
X024270Y022256D01*
X024270Y022168D01*
X024064Y022168D01*
X024064Y023344D01*
X024119Y023398D01*
X024164Y023508D01*
X024164Y023857D01*
X024254Y023947D01*
X024324Y024116D01*
X024324Y024819D01*
X024254Y024989D01*
X024125Y025118D01*
X023956Y025188D01*
X023773Y025188D01*
X023604Y025118D01*
X023474Y024989D01*
X023404Y024819D01*
X023404Y024116D01*
X023474Y023947D01*
X023564Y023857D01*
X023564Y023692D01*
X023510Y023638D01*
X023464Y023528D01*
X023464Y022168D01*
X023458Y022168D01*
X023458Y022256D01*
X023341Y022373D01*
X022388Y022373D01*
X022345Y022330D01*
X022327Y022340D01*
X022282Y022353D01*
X021932Y022353D01*
X021932Y021945D01*
X021797Y021945D01*
X021797Y022353D01*
X021447Y022353D01*
X021401Y022340D01*
X021360Y022317D01*
X021326Y022283D01*
X021303Y022242D01*
X021290Y022196D01*
X021290Y021945D01*
X021797Y021945D01*
X021797Y021810D01*
X021290Y021810D01*
X021290Y021558D01*
X021303Y021513D01*
X021326Y021472D01*
X021341Y021457D01*
X021309Y021426D01*
X021309Y021368D01*
X021088Y021368D01*
X021064Y021392D01*
X021064Y023228D01*
X021019Y023338D01*
X020934Y023422D01*
X020299Y024057D01*
X020324Y024116D01*
X020324Y024819D01*
X020254Y024989D01*
X020125Y025118D01*
X019956Y025188D01*
X019773Y025188D01*
X019604Y025118D01*
X019474Y024989D01*
X019404Y024819D01*
X019404Y024116D01*
X019474Y023947D01*
X019604Y023818D01*
X019751Y023757D01*
X020464Y023044D01*
X020464Y022028D01*
X020114Y022028D01*
X020042Y021998D01*
X019861Y021998D01*
X019764Y021901D01*
X019667Y021998D01*
X019520Y021998D01*
X019513Y022005D01*
X019410Y022048D01*
X018972Y022048D01*
X018924Y022068D01*
X018804Y022068D01*
X018694Y022022D01*
X018410Y021738D01*
X018364Y021628D01*
X018364Y020323D01*
X018307Y020323D01*
X018189Y020206D01*
X018189Y019330D01*
X018297Y019223D01*
X018268Y019206D01*
X018234Y019172D01*
X018211Y019131D01*
X018198Y019085D01*
X018198Y018736D01*
X018606Y018736D01*
X018606Y018600D01*
X018741Y018600D01*
X018741Y018094D01*
X018993Y018094D01*
X019038Y018107D01*
X019079Y018130D01*
X019113Y018164D01*
X019137Y018205D01*
X019149Y018251D01*
X019149Y018600D01*
X018741Y018600D01*
X018741Y018736D01*
X019149Y018736D01*
X019149Y019085D01*
X019137Y019131D01*
X019113Y019172D01*
X019079Y019206D01*
X019067Y019213D01*
X019102Y019213D01*
X019219Y019330D01*
X019219Y020206D01*
X019102Y020323D01*
X018964Y020323D01*
X019169Y020256D02*
X019359Y020256D01*
X019309Y020097D02*
X019219Y020097D01*
X019219Y019939D02*
X019309Y019939D01*
X019309Y019780D02*
X019219Y019780D01*
X019219Y019622D02*
X019309Y019622D01*
X019309Y019463D02*
X019219Y019463D01*
X019194Y019305D02*
X019334Y019305D01*
X019361Y019146D02*
X019128Y019146D01*
X019149Y018988D02*
X019359Y018988D01*
X019359Y018829D02*
X019149Y018829D01*
X019359Y018671D02*
X018741Y018671D01*
X018606Y018671D02*
X018164Y018671D01*
X018198Y018600D02*
X018198Y018251D01*
X018211Y018205D01*
X018234Y018164D01*
X018268Y018130D01*
X018309Y018107D01*
X018355Y018094D01*
X018606Y018094D01*
X018606Y018600D01*
X018198Y018600D01*
X018198Y018512D02*
X018164Y018512D01*
X018164Y018354D02*
X018198Y018354D01*
X018216Y018195D02*
X018164Y018195D01*
X018164Y018092D02*
X018164Y022028D01*
X018119Y022138D01*
X018034Y022222D01*
X017534Y022722D01*
X017424Y022768D01*
X016488Y022768D01*
X016164Y023092D01*
X016164Y023857D01*
X016254Y023947D01*
X016324Y024116D01*
X016324Y024819D01*
X016254Y024989D01*
X016125Y025118D01*
X015956Y025188D01*
X015773Y025188D01*
X015604Y025118D01*
X015474Y024989D01*
X015404Y024819D01*
X015404Y024116D01*
X015474Y023947D01*
X015564Y023857D01*
X015564Y022908D01*
X015610Y022798D01*
X016110Y022298D01*
X016194Y022214D01*
X016304Y022168D01*
X017240Y022168D01*
X017564Y021844D01*
X017564Y021192D01*
X017534Y021222D01*
X017034Y021722D01*
X016924Y021768D01*
X015488Y021768D01*
X015164Y022092D01*
X015164Y023857D01*
X015254Y023947D01*
X015324Y024116D01*
X015324Y024819D01*
X015254Y024989D01*
X015125Y025118D01*
X014956Y025188D01*
X014773Y025188D01*
X014604Y025118D01*
X014474Y024989D01*
X014404Y024819D01*
X014404Y024116D01*
X014474Y023947D01*
X014564Y023857D01*
X014564Y021908D01*
X014610Y021798D01*
X015110Y021298D01*
X015194Y021214D01*
X015304Y021168D01*
X016740Y021168D01*
X017064Y020844D01*
X017064Y020192D01*
X017034Y020222D01*
X016534Y020722D01*
X016424Y020768D01*
X014488Y020768D01*
X014164Y021092D01*
X014164Y023857D01*
X014254Y023947D01*
X014324Y024116D01*
X014324Y024819D01*
X014254Y024989D01*
X014125Y025118D01*
X013956Y025188D01*
X013773Y025188D01*
X013604Y025118D01*
X013474Y024989D01*
X013404Y024819D01*
X013404Y024116D01*
X013474Y023947D01*
X013564Y023857D01*
X013564Y020908D01*
X013610Y020798D01*
X014110Y020298D01*
X014194Y020214D01*
X014304Y020168D01*
X016240Y020168D01*
X016564Y019844D01*
X016564Y016578D01*
X016474Y016489D01*
X016404Y016319D01*
X016404Y015616D01*
X016474Y015447D01*
X016604Y015318D01*
X016773Y015248D01*
X016956Y015248D01*
X017125Y015318D01*
X017254Y015447D01*
X017324Y015616D01*
X017324Y016319D01*
X017254Y016489D01*
X017164Y016578D01*
X017164Y017244D01*
X017564Y016844D01*
X017564Y016578D01*
X017474Y016489D01*
X017404Y016319D01*
X017404Y015616D01*
X017474Y015447D01*
X017604Y015318D01*
X017773Y015248D01*
X017956Y015248D01*
X018125Y015318D01*
X018254Y015447D01*
X018324Y015616D01*
X018324Y016319D01*
X018254Y016489D01*
X018164Y016578D01*
X018164Y017028D01*
X018119Y017138D01*
X018034Y017222D01*
X017664Y017592D01*
X017664Y017744D01*
X017694Y017714D01*
X018564Y016844D01*
X018564Y016578D01*
X018474Y016489D01*
X018404Y016319D01*
X018404Y015616D01*
X018474Y015447D01*
X018604Y015318D01*
X018773Y015248D01*
X018956Y015248D01*
X019125Y015318D01*
X019254Y015447D01*
X019324Y015616D01*
X019324Y016319D01*
X019254Y016489D01*
X019164Y016578D01*
X019164Y017028D01*
X019119Y017138D01*
X019034Y017222D01*
X018164Y018092D01*
X018219Y018037D02*
X019555Y018037D01*
X019555Y017878D02*
X018378Y017878D01*
X018536Y017720D02*
X019555Y017720D01*
X019555Y017561D02*
X018695Y017561D01*
X018853Y017403D02*
X019555Y017403D01*
X019555Y017244D02*
X019012Y017244D01*
X019034Y017222D02*
X019034Y017222D01*
X019140Y017086D02*
X019555Y017086D01*
X019555Y016927D02*
X019164Y016927D01*
X019164Y016769D02*
X019555Y016769D01*
X019555Y016610D02*
X019164Y016610D01*
X019269Y016452D02*
X019459Y016452D01*
X019404Y016293D02*
X019324Y016293D01*
X019324Y016135D02*
X019404Y016135D01*
X019404Y015976D02*
X019324Y015976D01*
X019324Y015818D02*
X019404Y015818D01*
X019404Y015659D02*
X019324Y015659D01*
X019276Y015501D02*
X019452Y015501D01*
X019579Y015342D02*
X019149Y015342D01*
X018579Y015342D02*
X018149Y015342D01*
X018276Y015501D02*
X018452Y015501D01*
X018404Y015659D02*
X018324Y015659D01*
X018324Y015818D02*
X018404Y015818D01*
X018404Y015976D02*
X018324Y015976D01*
X018324Y016135D02*
X018404Y016135D01*
X018404Y016293D02*
X018324Y016293D01*
X018269Y016452D02*
X018459Y016452D01*
X018564Y016610D02*
X018164Y016610D01*
X018164Y016769D02*
X018564Y016769D01*
X018480Y016927D02*
X018164Y016927D01*
X018140Y017086D02*
X018322Y017086D01*
X018163Y017244D02*
X018012Y017244D01*
X018005Y017403D02*
X017853Y017403D01*
X017846Y017561D02*
X017695Y017561D01*
X017694Y017714D02*
X017694Y017714D01*
X017688Y017720D02*
X017664Y017720D01*
X017322Y017086D02*
X017164Y017086D01*
X017164Y016927D02*
X017480Y016927D01*
X017564Y016769D02*
X017164Y016769D01*
X017164Y016610D02*
X017564Y016610D01*
X017459Y016452D02*
X017269Y016452D01*
X017324Y016293D02*
X017404Y016293D01*
X017404Y016135D02*
X017324Y016135D01*
X017324Y015976D02*
X017404Y015976D01*
X017404Y015818D02*
X017324Y015818D01*
X017324Y015659D02*
X017404Y015659D01*
X017452Y015501D02*
X017276Y015501D01*
X017149Y015342D02*
X017579Y015342D01*
X016579Y015342D02*
X016149Y015342D01*
X016125Y015318D02*
X016254Y015447D01*
X016324Y015616D01*
X016324Y016319D01*
X016254Y016489D01*
X016164Y016578D01*
X016164Y016692D01*
X016171Y016692D01*
X016288Y016810D01*
X016288Y017526D01*
X016171Y017644D01*
X016164Y017644D01*
X016164Y019428D01*
X016119Y019538D01*
X016034Y019622D01*
X015763Y019893D01*
X015749Y019907D01*
X015602Y019968D01*
X013388Y019968D01*
X013264Y020092D01*
X013264Y024228D01*
X013219Y024338D01*
X013134Y024422D01*
X012863Y024693D01*
X012849Y024707D01*
X012702Y024768D01*
X012071Y024768D01*
X011947Y024892D01*
X011764Y024968D01*
X010965Y024968D01*
X010781Y024892D01*
X010640Y024751D01*
X010564Y024567D01*
X010564Y024369D01*
X010640Y024185D01*
X010781Y024044D01*
X010965Y023968D01*
X011764Y023968D01*
X011947Y023892D01*
X012071Y023768D01*
X012224Y023768D01*
X012334Y023722D01*
X012419Y023638D01*
X012664Y023392D01*
X012664Y024044D01*
X012540Y024168D01*
X012071Y024168D01*
X011947Y024044D01*
X011764Y023968D01*
X010965Y023968D01*
X010781Y023892D01*
X010640Y023751D01*
X010564Y023567D01*
X010564Y023369D01*
X010640Y023185D01*
X010781Y023044D01*
X010965Y022968D01*
X011764Y022968D01*
X011947Y023044D01*
X012056Y023152D01*
X012164Y023044D01*
X012164Y018508D01*
X012210Y018398D01*
X012294Y018314D01*
X012421Y018187D01*
X012439Y018169D01*
X012505Y018103D01*
X012505Y018103D01*
X012519Y018089D01*
X012519Y018089D01*
X012666Y018028D01*
X012709Y018028D01*
X012709Y017930D01*
X012826Y017813D01*
X013702Y017813D01*
X013819Y017930D01*
X013819Y018726D01*
X013702Y018843D01*
X012826Y018843D01*
X012764Y018781D01*
X012764Y019744D01*
X013094Y019414D01*
X013204Y019368D01*
X015440Y019368D01*
X015564Y019244D01*
X015564Y017644D01*
X015454Y017644D01*
X015337Y017526D01*
X015337Y016810D01*
X015454Y016692D01*
X015564Y016692D01*
X015564Y016578D01*
X015474Y016489D01*
X015404Y016319D01*
X015404Y015616D01*
X015474Y015447D01*
X015604Y015318D01*
X015773Y015248D01*
X015956Y015248D01*
X016125Y015318D01*
X016276Y015501D02*
X016452Y015501D01*
X016404Y015659D02*
X016324Y015659D01*
X016324Y015818D02*
X016404Y015818D01*
X016404Y015976D02*
X016324Y015976D01*
X016324Y016135D02*
X016404Y016135D01*
X016404Y016293D02*
X016324Y016293D01*
X016269Y016452D02*
X016459Y016452D01*
X016564Y016610D02*
X016164Y016610D01*
X016247Y016769D02*
X016564Y016769D01*
X016564Y016927D02*
X016288Y016927D01*
X016288Y017086D02*
X016564Y017086D01*
X016564Y017244D02*
X016288Y017244D01*
X016288Y017403D02*
X016564Y017403D01*
X016564Y017561D02*
X016253Y017561D01*
X016164Y017720D02*
X016564Y017720D01*
X016564Y017878D02*
X016164Y017878D01*
X016164Y018037D02*
X016564Y018037D01*
X016564Y018195D02*
X016164Y018195D01*
X016164Y018354D02*
X016564Y018354D01*
X016564Y018512D02*
X016164Y018512D01*
X016164Y018671D02*
X016564Y018671D01*
X016564Y018829D02*
X016164Y018829D01*
X016164Y018988D02*
X016564Y018988D01*
X016564Y019146D02*
X016164Y019146D01*
X016164Y019305D02*
X016564Y019305D01*
X016564Y019463D02*
X016149Y019463D01*
X016034Y019622D02*
X016564Y019622D01*
X016564Y019780D02*
X015876Y019780D01*
X015763Y019893D02*
X015763Y019893D01*
X015749Y019907D02*
X015749Y019907D01*
X015749Y019907D01*
X015672Y019939D02*
X016469Y019939D01*
X016310Y020097D02*
X013264Y020097D01*
X013264Y020256D02*
X014152Y020256D01*
X013993Y020414D02*
X013264Y020414D01*
X013264Y020573D02*
X013835Y020573D01*
X013676Y020731D02*
X013264Y020731D01*
X013264Y020890D02*
X013572Y020890D01*
X013564Y021048D02*
X013264Y021048D01*
X013264Y021207D02*
X013564Y021207D01*
X013564Y021365D02*
X013264Y021365D01*
X013264Y021524D02*
X013564Y021524D01*
X013564Y021682D02*
X013264Y021682D01*
X013264Y021841D02*
X013564Y021841D01*
X013564Y021999D02*
X013264Y021999D01*
X013264Y022158D02*
X013564Y022158D01*
X013564Y022316D02*
X013264Y022316D01*
X013264Y022475D02*
X013564Y022475D01*
X013564Y022633D02*
X013264Y022633D01*
X013264Y022792D02*
X013564Y022792D01*
X013564Y022950D02*
X013264Y022950D01*
X013264Y023109D02*
X013564Y023109D01*
X013564Y023267D02*
X013264Y023267D01*
X013264Y023426D02*
X013564Y023426D01*
X013564Y023584D02*
X013264Y023584D01*
X013264Y023743D02*
X013564Y023743D01*
X013520Y023901D02*
X013264Y023901D01*
X013264Y024060D02*
X013428Y024060D01*
X013404Y024218D02*
X013264Y024218D01*
X013179Y024377D02*
X013404Y024377D01*
X013404Y024535D02*
X013021Y024535D01*
X012863Y024693D02*
X012863Y024693D01*
X012862Y024694D02*
X013404Y024694D01*
X013418Y024852D02*
X011987Y024852D01*
X011963Y024060D02*
X012648Y024060D01*
X012664Y023901D02*
X011924Y023901D01*
X012284Y023743D02*
X012664Y023743D01*
X012664Y023584D02*
X012472Y023584D01*
X012630Y023426D02*
X012664Y023426D01*
X012099Y023109D02*
X012012Y023109D01*
X012164Y022950D02*
X007633Y022950D01*
X007642Y022941D02*
X007407Y023176D01*
X007100Y023303D01*
X006768Y023303D01*
X006461Y023176D01*
X006226Y022941D01*
X006099Y022634D01*
X006099Y022302D01*
X006226Y021995D01*
X006461Y021760D01*
X006768Y021633D01*
X007100Y021633D01*
X007407Y021760D01*
X007642Y021995D01*
X007769Y022302D01*
X007769Y022634D01*
X007642Y022941D01*
X007704Y022792D02*
X010709Y022792D01*
X010698Y022781D02*
X010654Y022720D01*
X010619Y022652D01*
X010596Y022580D01*
X010584Y022506D01*
X010584Y022488D01*
X011344Y022488D01*
X011344Y022448D01*
X010584Y022448D01*
X010584Y022430D01*
X010596Y022356D01*
X010619Y022284D01*
X010654Y022216D01*
X010698Y022155D01*
X010751Y022102D01*
X010813Y022057D01*
X010880Y022023D01*
X010952Y022000D01*
X011026Y021988D01*
X011344Y021988D01*
X011344Y022448D01*
X011384Y022448D01*
X011384Y021988D01*
X011702Y021988D01*
X011777Y022000D01*
X011848Y022023D01*
X011916Y022057D01*
X011977Y022102D01*
X012030Y022155D01*
X012075Y022216D01*
X012109Y022284D01*
X012132Y022356D01*
X012144Y022430D01*
X012144Y022448D01*
X011384Y022448D01*
X011384Y022488D01*
X011344Y022488D01*
X011344Y022948D01*
X011026Y022948D01*
X010952Y022936D01*
X010880Y022913D01*
X010813Y022878D01*
X010751Y022834D01*
X010698Y022781D01*
X010613Y022633D02*
X007769Y022633D01*
X007769Y022475D02*
X011344Y022475D01*
X011384Y022475D02*
X012164Y022475D01*
X012144Y022488D02*
X012144Y022506D01*
X012132Y022580D01*
X012109Y022652D01*
X012075Y022720D01*
X012030Y022781D01*
X011977Y022834D01*
X011916Y022878D01*
X011848Y022913D01*
X011777Y022936D01*
X011702Y022948D01*
X011384Y022948D01*
X011384Y022488D01*
X012144Y022488D01*
X012164Y022633D02*
X012115Y022633D01*
X012164Y022792D02*
X012019Y022792D01*
X012120Y022316D02*
X012164Y022316D01*
X012164Y022158D02*
X012032Y022158D01*
X012164Y021999D02*
X011775Y021999D01*
X011764Y021968D02*
X011947Y021892D01*
X012088Y021751D01*
X012164Y021567D01*
X012164Y021369D01*
X012088Y021185D01*
X011947Y021044D01*
X011764Y020968D01*
X010965Y020968D01*
X010781Y021044D01*
X010640Y021185D01*
X010564Y021369D01*
X010564Y021567D01*
X010640Y021751D01*
X010781Y021892D01*
X010965Y021968D01*
X011764Y021968D01*
X011998Y021841D02*
X012164Y021841D01*
X012164Y021682D02*
X012117Y021682D01*
X012164Y021524D02*
X012164Y021524D01*
X012163Y021365D02*
X012164Y021365D01*
X012164Y021207D02*
X012097Y021207D01*
X012164Y021048D02*
X011952Y021048D01*
X011947Y020892D02*
X011764Y020968D01*
X010965Y020968D01*
X010781Y020892D01*
X010640Y020751D01*
X010564Y020567D01*
X010564Y020369D01*
X010640Y020185D01*
X010781Y020044D01*
X010965Y019968D01*
X011764Y019968D01*
X011947Y020044D01*
X012088Y020185D01*
X012164Y020369D01*
X012164Y020567D01*
X012088Y020751D01*
X011947Y020892D01*
X011949Y020890D02*
X012164Y020890D01*
X012164Y020731D02*
X012096Y020731D01*
X012162Y020573D02*
X012164Y020573D01*
X012164Y020414D02*
X012164Y020414D01*
X012164Y020256D02*
X012118Y020256D01*
X012164Y020097D02*
X012001Y020097D01*
X011947Y019892D02*
X011764Y019968D01*
X010965Y019968D01*
X010781Y019892D01*
X010640Y019751D01*
X010564Y019567D01*
X010564Y019369D01*
X010640Y019185D01*
X010781Y019044D01*
X010965Y018968D01*
X011764Y018968D01*
X011947Y019044D01*
X012088Y019185D01*
X012164Y019369D01*
X012164Y019567D01*
X012088Y019751D01*
X011947Y019892D01*
X011834Y019939D02*
X012164Y019939D01*
X012164Y019780D02*
X012059Y019780D01*
X012142Y019622D02*
X012164Y019622D01*
X012164Y019463D02*
X012164Y019463D01*
X012164Y019305D02*
X012138Y019305D01*
X012164Y019146D02*
X012050Y019146D01*
X012164Y018988D02*
X011812Y018988D01*
X012164Y018829D02*
X010164Y018829D01*
X010164Y018671D02*
X012164Y018671D01*
X012164Y018512D02*
X010164Y018512D01*
X010164Y018354D02*
X012254Y018354D01*
X012412Y018195D02*
X010164Y018195D01*
X010164Y018037D02*
X012644Y018037D01*
X012761Y017878D02*
X010164Y017878D01*
X010164Y017720D02*
X012823Y017720D01*
X012826Y017723D02*
X012709Y017606D01*
X012709Y016810D01*
X012826Y016693D01*
X013702Y016693D01*
X013819Y016810D01*
X013819Y016868D01*
X013841Y016868D01*
X013841Y016810D01*
X013958Y016692D01*
X014055Y016692D01*
X014055Y016562D01*
X013977Y016562D01*
X013859Y016445D01*
X013859Y015491D01*
X013977Y015374D01*
X014733Y015374D01*
X014850Y015491D01*
X014850Y016445D01*
X014733Y016562D01*
X014655Y016562D01*
X014655Y016692D01*
X014675Y016692D01*
X014792Y016810D01*
X014792Y017526D01*
X014675Y017644D01*
X013958Y017644D01*
X013841Y017526D01*
X013841Y017468D01*
X013819Y017468D01*
X013819Y017606D01*
X013702Y017723D01*
X012826Y017723D01*
X012709Y017561D02*
X010164Y017561D01*
X010164Y017403D02*
X012709Y017403D01*
X012709Y017244D02*
X010164Y017244D01*
X010164Y017086D02*
X012709Y017086D01*
X012709Y016927D02*
X010164Y016927D01*
X010164Y016769D02*
X012751Y016769D01*
X012809Y016529D02*
X012768Y016506D01*
X012734Y016472D01*
X012711Y016431D01*
X012698Y016385D01*
X012698Y016036D01*
X013106Y016036D01*
X013106Y016542D01*
X012855Y016542D01*
X012809Y016529D01*
X012723Y016452D02*
X010164Y016452D01*
X010164Y016610D02*
X014055Y016610D01*
X013881Y016769D02*
X013778Y016769D01*
X013867Y016452D02*
X013625Y016452D01*
X013613Y016472D02*
X013579Y016506D01*
X013538Y016529D01*
X013493Y016542D01*
X013241Y016542D01*
X013241Y016036D01*
X013106Y016036D01*
X013106Y015900D01*
X013241Y015900D01*
X013241Y015394D01*
X013493Y015394D01*
X013538Y015407D01*
X013579Y015430D01*
X013613Y015464D01*
X013637Y015505D01*
X013649Y015551D01*
X013649Y015900D01*
X013241Y015900D01*
X013241Y016036D01*
X013649Y016036D01*
X013649Y016385D01*
X013637Y016431D01*
X013613Y016472D01*
X013649Y016293D02*
X013859Y016293D01*
X013859Y016135D02*
X013649Y016135D01*
X013859Y015976D02*
X013241Y015976D01*
X013106Y015976D02*
X010164Y015976D01*
X010164Y015818D02*
X012698Y015818D01*
X012698Y015900D02*
X012698Y015551D01*
X012711Y015505D01*
X012734Y015464D01*
X012768Y015430D01*
X012809Y015407D01*
X012855Y015394D01*
X013106Y015394D01*
X013106Y015900D01*
X012698Y015900D01*
X012698Y016135D02*
X010164Y016135D01*
X010164Y016293D02*
X012698Y016293D01*
X013106Y016293D02*
X013241Y016293D01*
X013241Y016135D02*
X013106Y016135D01*
X013106Y016452D02*
X013241Y016452D01*
X013241Y015818D02*
X013106Y015818D01*
X013106Y015659D02*
X013241Y015659D01*
X013241Y015501D02*
X013106Y015501D01*
X012713Y015501D02*
X010164Y015501D01*
X010164Y015659D02*
X012698Y015659D01*
X013634Y015501D02*
X013859Y015501D01*
X013859Y015659D02*
X013649Y015659D01*
X013649Y015818D02*
X013859Y015818D01*
X014850Y015818D02*
X015404Y015818D01*
X015404Y015976D02*
X014850Y015976D01*
X014850Y016135D02*
X015404Y016135D01*
X015404Y016293D02*
X014850Y016293D01*
X014843Y016452D02*
X015459Y016452D01*
X015564Y016610D02*
X014655Y016610D01*
X014751Y016769D02*
X015377Y016769D01*
X015337Y016927D02*
X014792Y016927D01*
X014792Y017086D02*
X015337Y017086D01*
X015337Y017244D02*
X014792Y017244D01*
X014792Y017403D02*
X015337Y017403D01*
X015372Y017561D02*
X014757Y017561D01*
X015564Y017720D02*
X013705Y017720D01*
X013768Y017878D02*
X015564Y017878D01*
X015564Y018037D02*
X013819Y018037D01*
X013819Y018195D02*
X015564Y018195D01*
X015564Y018354D02*
X013819Y018354D01*
X013819Y018512D02*
X015564Y018512D01*
X015564Y018671D02*
X013819Y018671D01*
X013715Y018829D02*
X015564Y018829D01*
X015564Y018988D02*
X012764Y018988D01*
X012764Y019146D02*
X015564Y019146D01*
X015503Y019305D02*
X012764Y019305D01*
X012764Y019463D02*
X013044Y019463D01*
X012886Y019622D02*
X012764Y019622D01*
X012764Y018829D02*
X012813Y018829D01*
X012421Y018187D02*
X012421Y018187D01*
X013819Y017561D02*
X013876Y017561D01*
X014850Y015659D02*
X015404Y015659D01*
X015452Y015501D02*
X014850Y015501D01*
X015579Y015342D02*
X010164Y015342D01*
X010164Y015184D02*
X020184Y015184D01*
X019598Y014708D02*
X010248Y014708D01*
X009716Y014391D02*
X007242Y014391D01*
X007100Y014333D02*
X007407Y014460D01*
X007642Y014695D01*
X007769Y015002D01*
X007769Y015334D01*
X007642Y015641D01*
X007407Y015876D01*
X007100Y016003D01*
X006768Y016003D01*
X006461Y015876D01*
X006226Y015641D01*
X006099Y015334D01*
X006099Y015002D01*
X006226Y014695D01*
X006461Y014460D01*
X006768Y014333D01*
X007100Y014333D01*
X007497Y014550D02*
X009588Y014550D01*
X009564Y014708D02*
X007648Y014708D01*
X007713Y014867D02*
X009564Y014867D01*
X009564Y015025D02*
X007769Y015025D01*
X007769Y015184D02*
X009564Y015184D01*
X009564Y015342D02*
X007766Y015342D01*
X007700Y015501D02*
X009564Y015501D01*
X009564Y015659D02*
X007624Y015659D01*
X007465Y015818D02*
X009564Y015818D01*
X009564Y015976D02*
X007164Y015976D01*
X006704Y015976D02*
X003624Y015976D01*
X003560Y016003D02*
X003867Y015876D01*
X004102Y015641D01*
X004229Y015334D01*
X004229Y015002D01*
X004102Y014695D01*
X003867Y014460D01*
X003560Y014333D01*
X003228Y014333D01*
X002921Y014460D01*
X002686Y014695D01*
X002559Y015002D01*
X002559Y015334D01*
X002686Y015641D01*
X002921Y015876D01*
X003228Y016003D01*
X003560Y016003D01*
X003164Y015976D02*
X000644Y015976D01*
X000644Y015818D02*
X002863Y015818D01*
X002705Y015659D02*
X000644Y015659D01*
X000644Y015501D02*
X002628Y015501D01*
X002563Y015342D02*
X000644Y015342D01*
X000644Y015184D02*
X002559Y015184D01*
X002559Y015025D02*
X000644Y015025D01*
X000644Y014867D02*
X002615Y014867D01*
X002681Y014708D02*
X000644Y014708D01*
X000644Y014550D02*
X002831Y014550D01*
X003087Y014391D02*
X000644Y014391D01*
X000644Y014233D02*
X009875Y014233D01*
X010089Y014074D02*
X000644Y014074D01*
X000644Y013916D02*
X018564Y013916D01*
X018564Y013757D02*
X000644Y013757D01*
X000644Y013599D02*
X006001Y013599D01*
X005743Y013440D02*
X004557Y013440D01*
X004531Y013467D02*
X004463Y013516D01*
X004389Y013554D01*
X004309Y013580D01*
X004226Y013593D01*
X004222Y013593D01*
X004222Y012745D01*
X004717Y012745D01*
X004717Y013102D01*
X004704Y013185D01*
X004678Y013265D01*
X004640Y013340D01*
X004590Y013407D01*
X004531Y013467D01*
X004669Y013282D02*
X005638Y013282D01*
X005592Y013123D02*
X004713Y013123D01*
X004717Y012965D02*
X005592Y012965D01*
X005592Y012806D02*
X004717Y012806D01*
X004717Y012670D02*
X004222Y012670D01*
X004222Y012745D01*
X004147Y012745D01*
X004147Y012670D01*
X004222Y012670D01*
X004222Y011823D01*
X004226Y011823D01*
X004309Y011836D01*
X004389Y011862D01*
X004463Y011900D01*
X004531Y011949D01*
X004590Y012009D01*
X004640Y012076D01*
X004678Y012151D01*
X004704Y012231D01*
X004717Y012314D01*
X004717Y012670D01*
X004717Y012648D02*
X005592Y012648D01*
X005592Y012489D02*
X004717Y012489D01*
X004717Y012331D02*
X005592Y012331D01*
X005622Y012172D02*
X004685Y012172D01*
X004594Y012014D02*
X005704Y012014D01*
X005907Y011855D02*
X004369Y011855D01*
X004222Y011855D02*
X004147Y011855D01*
X004147Y011823D02*
X004147Y012670D01*
X003652Y012670D01*
X003652Y012314D01*
X003665Y012231D01*
X003691Y012151D01*
X003729Y012076D01*
X003778Y012009D01*
X003837Y011949D01*
X003905Y011900D01*
X003980Y011862D01*
X004059Y011836D01*
X004142Y011823D01*
X004147Y011823D01*
X004000Y011855D02*
X000644Y011855D01*
X000644Y012014D02*
X003774Y012014D01*
X003684Y012172D02*
X000644Y012172D01*
X000644Y012331D02*
X003652Y012331D01*
X003652Y012489D02*
X000644Y012489D01*
X000644Y012648D02*
X003652Y012648D01*
X003652Y012745D02*
X004147Y012745D01*
X004147Y013593D01*
X004142Y013593D01*
X004059Y013580D01*
X003980Y013554D01*
X003905Y013516D01*
X003837Y013467D01*
X003778Y013407D01*
X003729Y013340D01*
X003691Y013265D01*
X003665Y013185D01*
X003652Y013102D01*
X003652Y012745D01*
X003652Y012806D02*
X000644Y012806D01*
X000644Y012965D02*
X003652Y012965D01*
X003655Y013123D02*
X000644Y013123D01*
X000644Y013282D02*
X003699Y013282D01*
X003811Y013440D02*
X000644Y013440D01*
X003702Y014391D02*
X006627Y014391D01*
X006371Y014550D02*
X003957Y014550D01*
X004108Y014708D02*
X006221Y014708D01*
X006155Y014867D02*
X004173Y014867D01*
X004229Y015025D02*
X006099Y015025D01*
X006099Y015184D02*
X004229Y015184D01*
X004226Y015342D02*
X006103Y015342D01*
X006168Y015501D02*
X004160Y015501D01*
X004084Y015659D02*
X006245Y015659D01*
X006403Y015818D02*
X003925Y015818D01*
X004059Y016756D02*
X004142Y016743D01*
X004147Y016743D01*
X004147Y017590D01*
X004222Y017590D01*
X004222Y017665D01*
X004717Y017665D01*
X004717Y018022D01*
X004704Y018105D01*
X004678Y018185D01*
X004640Y018260D01*
X004590Y018327D01*
X004531Y018387D01*
X004463Y018436D01*
X004389Y018474D01*
X004309Y018500D01*
X004226Y018513D01*
X004222Y018513D01*
X004222Y017665D01*
X004147Y017665D01*
X004147Y017590D01*
X003652Y017590D01*
X003652Y017234D01*
X003665Y017151D01*
X003691Y017071D01*
X003729Y016996D01*
X003778Y016929D01*
X003837Y016869D01*
X003905Y016820D01*
X003980Y016782D01*
X004059Y016756D01*
X004020Y016769D02*
X000644Y016769D01*
X000644Y016927D02*
X003779Y016927D01*
X003686Y017086D02*
X000644Y017086D01*
X000644Y017244D02*
X003652Y017244D01*
X003652Y017403D02*
X000644Y017403D01*
X000644Y017561D02*
X003652Y017561D01*
X003652Y017665D02*
X004147Y017665D01*
X004147Y018513D01*
X004142Y018513D01*
X004059Y018500D01*
X003980Y018474D01*
X003905Y018436D01*
X003837Y018387D01*
X003778Y018327D01*
X003729Y018260D01*
X003691Y018185D01*
X003665Y018105D01*
X003652Y018022D01*
X003652Y017665D01*
X003652Y017720D02*
X000644Y017720D01*
X000644Y017878D02*
X003652Y017878D01*
X003654Y018037D02*
X000644Y018037D01*
X000644Y018195D02*
X003696Y018195D01*
X003805Y018354D02*
X000644Y018354D01*
X000644Y018512D02*
X004139Y018512D01*
X004147Y018512D02*
X004222Y018512D01*
X004229Y018512D02*
X005985Y018512D01*
X006034Y018533D02*
X005831Y018449D01*
X005676Y018293D01*
X005592Y018090D01*
X005592Y017166D01*
X005676Y016962D01*
X005831Y016807D01*
X006034Y016723D01*
X006254Y016723D01*
X006457Y016807D01*
X006613Y016962D01*
X006697Y017166D01*
X006697Y018090D01*
X006613Y018293D01*
X006457Y018449D01*
X006254Y018533D01*
X006034Y018533D01*
X006303Y018512D02*
X009564Y018512D01*
X009564Y018354D02*
X006552Y018354D01*
X006653Y018195D02*
X009564Y018195D01*
X009564Y018037D02*
X006697Y018037D01*
X006697Y017878D02*
X009564Y017878D01*
X009564Y017720D02*
X006697Y017720D01*
X006697Y017561D02*
X009564Y017561D01*
X009564Y017403D02*
X006697Y017403D01*
X006697Y017244D02*
X009564Y017244D01*
X009564Y017086D02*
X006664Y017086D01*
X006578Y016927D02*
X009564Y016927D01*
X009564Y016769D02*
X006365Y016769D01*
X005923Y016769D02*
X004349Y016769D01*
X004389Y016782D02*
X004463Y016820D01*
X004531Y016869D01*
X004590Y016929D01*
X004640Y016996D01*
X004678Y017071D01*
X004704Y017151D01*
X004717Y017234D01*
X004717Y017590D01*
X004222Y017590D01*
X004222Y016743D01*
X004226Y016743D01*
X004309Y016756D01*
X004389Y016782D01*
X004222Y016769D02*
X004147Y016769D01*
X004147Y016927D02*
X004222Y016927D01*
X004222Y017086D02*
X004147Y017086D01*
X004147Y017244D02*
X004222Y017244D01*
X004222Y017403D02*
X004147Y017403D01*
X004147Y017561D02*
X004222Y017561D01*
X004222Y017720D02*
X004147Y017720D01*
X004147Y017878D02*
X004222Y017878D01*
X004222Y018037D02*
X004147Y018037D01*
X004147Y018195D02*
X004222Y018195D01*
X004222Y018354D02*
X004147Y018354D01*
X004564Y018354D02*
X005736Y018354D01*
X005635Y018195D02*
X004672Y018195D01*
X004714Y018037D02*
X005592Y018037D01*
X005592Y017878D02*
X004717Y017878D01*
X004717Y017720D02*
X005592Y017720D01*
X005592Y017561D02*
X004717Y017561D01*
X004717Y017403D02*
X005592Y017403D01*
X005592Y017244D02*
X004717Y017244D01*
X004683Y017086D02*
X005625Y017086D01*
X005711Y016927D02*
X004589Y016927D01*
X004226Y019123D02*
X004309Y019136D01*
X004389Y019162D01*
X004463Y019200D01*
X004531Y019249D01*
X004590Y019309D01*
X004640Y019376D01*
X004678Y019451D01*
X004704Y019531D01*
X004717Y019614D01*
X004717Y019970D01*
X004222Y019970D01*
X004222Y020045D01*
X004717Y020045D01*
X004717Y020402D01*
X004704Y020485D01*
X004678Y020565D01*
X004640Y020640D01*
X004590Y020707D01*
X004531Y020767D01*
X004463Y020816D01*
X004389Y020854D01*
X004309Y020880D01*
X004226Y020893D01*
X004222Y020893D01*
X004222Y020045D01*
X004147Y020045D01*
X004147Y019970D01*
X004222Y019970D01*
X004222Y019123D01*
X004226Y019123D01*
X004222Y019146D02*
X004147Y019146D01*
X004147Y019123D02*
X004147Y019970D01*
X003652Y019970D01*
X003652Y019614D01*
X003665Y019531D01*
X003691Y019451D01*
X003729Y019376D01*
X003778Y019309D01*
X003837Y019249D01*
X003905Y019200D01*
X003980Y019162D01*
X004059Y019136D01*
X004142Y019123D01*
X004147Y019123D01*
X004027Y019146D02*
X000644Y019146D01*
X000644Y018988D02*
X009564Y018988D01*
X009564Y019146D02*
X006359Y019146D01*
X006575Y019305D02*
X009564Y019305D01*
X009564Y019463D02*
X006663Y019463D01*
X006697Y019622D02*
X009486Y019622D01*
X009859Y020097D02*
X010728Y020097D01*
X010611Y020256D02*
X009700Y020256D01*
X010017Y019939D02*
X010895Y019939D01*
X010670Y019780D02*
X010142Y019780D01*
X010164Y019622D02*
X010587Y019622D01*
X010564Y019463D02*
X010164Y019463D01*
X010164Y019305D02*
X010590Y019305D01*
X010679Y019146D02*
X010164Y019146D01*
X010164Y018988D02*
X010916Y018988D01*
X009564Y018829D02*
X000644Y018829D01*
X000644Y018671D02*
X009564Y018671D01*
X010564Y020414D02*
X006697Y020414D01*
X006654Y020573D02*
X010566Y020573D01*
X010632Y020731D02*
X006554Y020731D01*
X006310Y020890D02*
X010779Y020890D01*
X010777Y021048D02*
X000644Y021048D01*
X000644Y020890D02*
X004124Y020890D01*
X004142Y020893D02*
X004059Y020880D01*
X003980Y020854D01*
X003905Y020816D01*
X003837Y020767D01*
X003778Y020707D01*
X003729Y020640D01*
X003691Y020565D01*
X003665Y020485D01*
X003652Y020402D01*
X003652Y020045D01*
X004147Y020045D01*
X004147Y020893D01*
X004142Y020893D01*
X004147Y020890D02*
X004222Y020890D01*
X004245Y020890D02*
X005979Y020890D01*
X005734Y020731D02*
X004566Y020731D01*
X004674Y020573D02*
X005634Y020573D01*
X005592Y020414D02*
X004715Y020414D01*
X004717Y020256D02*
X005592Y020256D01*
X005592Y020097D02*
X004717Y020097D01*
X004717Y019939D02*
X005592Y019939D01*
X005592Y019780D02*
X004717Y019780D01*
X004717Y019622D02*
X005592Y019622D01*
X005626Y019463D02*
X004682Y019463D01*
X004587Y019305D02*
X005713Y019305D01*
X005929Y019146D02*
X004341Y019146D01*
X004222Y019305D02*
X004147Y019305D01*
X004147Y019463D02*
X004222Y019463D01*
X004222Y019622D02*
X004147Y019622D01*
X004147Y019780D02*
X004222Y019780D01*
X004222Y019939D02*
X004147Y019939D01*
X004147Y020097D02*
X004222Y020097D01*
X004222Y020256D02*
X004147Y020256D01*
X004147Y020414D02*
X004222Y020414D01*
X004222Y020573D02*
X004147Y020573D01*
X004147Y020731D02*
X004222Y020731D01*
X003802Y020731D02*
X000644Y020731D01*
X000644Y020573D02*
X003695Y020573D01*
X003654Y020414D02*
X000644Y020414D01*
X000644Y020256D02*
X003652Y020256D01*
X003652Y020097D02*
X000644Y020097D01*
X000644Y019939D02*
X003652Y019939D01*
X003652Y019780D02*
X000644Y019780D01*
X000644Y019622D02*
X003652Y019622D01*
X003687Y019463D02*
X000644Y019463D01*
X000644Y019305D02*
X003782Y019305D01*
X003560Y021633D02*
X003867Y021760D01*
X004102Y021995D01*
X004229Y022302D01*
X004229Y022634D01*
X004102Y022941D01*
X003867Y023176D01*
X003560Y023303D01*
X003228Y023303D01*
X002921Y023176D01*
X002686Y022941D01*
X002559Y022634D01*
X002559Y022302D01*
X002686Y021995D01*
X002921Y021760D01*
X003228Y021633D01*
X003560Y021633D01*
X003680Y021682D02*
X006648Y021682D01*
X006380Y021841D02*
X003948Y021841D01*
X004104Y021999D02*
X006224Y021999D01*
X006159Y022158D02*
X004170Y022158D01*
X004229Y022316D02*
X006099Y022316D01*
X006099Y022475D02*
X004229Y022475D01*
X004229Y022633D02*
X006099Y022633D01*
X006165Y022792D02*
X004164Y022792D01*
X004093Y022950D02*
X006236Y022950D01*
X006394Y023109D02*
X003934Y023109D01*
X003646Y023267D02*
X006682Y023267D01*
X007186Y023267D02*
X010606Y023267D01*
X010564Y023426D02*
X000644Y023426D01*
X000644Y023584D02*
X010571Y023584D01*
X010637Y023743D02*
X000644Y023743D01*
X000644Y023901D02*
X010804Y023901D01*
X010765Y024060D02*
X006343Y024060D01*
X006254Y024023D02*
X006457Y024107D01*
X006613Y024262D01*
X006697Y024466D01*
X006697Y025390D01*
X006613Y025593D01*
X006457Y025749D01*
X006254Y025833D01*
X006034Y025833D01*
X005831Y025749D01*
X005676Y025593D01*
X005592Y025390D01*
X005592Y024466D01*
X005676Y024262D01*
X005831Y024107D01*
X006034Y024023D01*
X006254Y024023D01*
X005945Y024060D02*
X004321Y024060D01*
X004309Y024056D02*
X004389Y024082D01*
X004463Y024120D01*
X004531Y024169D01*
X004590Y024229D01*
X004640Y024296D01*
X004678Y024371D01*
X004704Y024451D01*
X004717Y024534D01*
X004717Y024890D01*
X004222Y024890D01*
X004222Y024965D01*
X004717Y024965D01*
X004717Y025322D01*
X004704Y025405D01*
X004678Y025485D01*
X004640Y025560D01*
X004590Y025627D01*
X004531Y025687D01*
X004463Y025736D01*
X004389Y025774D01*
X004309Y025800D01*
X004226Y025813D01*
X004222Y025813D01*
X004222Y024965D01*
X004147Y024965D01*
X004147Y024890D01*
X004222Y024890D01*
X004222Y024043D01*
X004226Y024043D01*
X004309Y024056D01*
X004222Y024060D02*
X004147Y024060D01*
X004147Y024043D02*
X004147Y024890D01*
X003652Y024890D01*
X003652Y024534D01*
X003665Y024451D01*
X003691Y024371D01*
X003729Y024296D01*
X003778Y024229D01*
X003837Y024169D01*
X003905Y024120D01*
X003980Y024082D01*
X004059Y024056D01*
X004142Y024043D01*
X004147Y024043D01*
X004047Y024060D02*
X000644Y024060D01*
X000644Y024218D02*
X003788Y024218D01*
X003689Y024377D02*
X000644Y024377D01*
X000644Y024535D02*
X003652Y024535D01*
X003652Y024694D02*
X000644Y024694D01*
X000644Y024852D02*
X003652Y024852D01*
X003652Y024965D02*
X004147Y024965D01*
X004147Y025813D01*
X004142Y025813D01*
X004059Y025800D01*
X003980Y025774D01*
X003905Y025736D01*
X003837Y025687D01*
X003778Y025627D01*
X003729Y025560D01*
X003691Y025485D01*
X003665Y025405D01*
X003652Y025322D01*
X003652Y024965D01*
X003652Y025011D02*
X000644Y025011D01*
X000644Y025169D02*
X003652Y025169D01*
X003653Y025328D02*
X000644Y025328D01*
X000644Y025486D02*
X003692Y025486D01*
X003796Y025645D02*
X000644Y025645D01*
X000644Y025804D02*
X004083Y025804D01*
X004147Y025804D02*
X004222Y025804D01*
X004286Y025804D02*
X005963Y025804D01*
X005727Y025645D02*
X004573Y025645D01*
X004677Y025486D02*
X005631Y025486D01*
X005592Y025328D02*
X004716Y025328D01*
X004717Y025169D02*
X005592Y025169D01*
X005592Y025011D02*
X004717Y025011D01*
X004717Y024852D02*
X005592Y024852D01*
X005592Y024694D02*
X004717Y024694D01*
X004717Y024535D02*
X005592Y024535D01*
X005628Y024377D02*
X004680Y024377D01*
X004580Y024218D02*
X005720Y024218D01*
X006569Y024218D02*
X010626Y024218D01*
X010564Y024377D02*
X006660Y024377D01*
X006697Y024535D02*
X010564Y024535D01*
X010617Y024694D02*
X006697Y024694D01*
X006697Y024852D02*
X010742Y024852D01*
X010716Y023109D02*
X007474Y023109D01*
X007769Y022316D02*
X010609Y022316D01*
X010696Y022158D02*
X007710Y022158D01*
X007644Y021999D02*
X010954Y021999D01*
X010730Y021841D02*
X007488Y021841D01*
X007220Y021682D02*
X010612Y021682D01*
X010564Y021524D02*
X000644Y021524D01*
X000644Y021682D02*
X003108Y021682D01*
X002840Y021841D02*
X000644Y021841D01*
X000644Y021999D02*
X002684Y021999D01*
X002619Y022158D02*
X000644Y022158D01*
X000644Y022316D02*
X002559Y022316D01*
X002559Y022475D02*
X000644Y022475D01*
X000644Y022633D02*
X002559Y022633D01*
X002625Y022792D02*
X000644Y022792D01*
X000644Y022950D02*
X002696Y022950D01*
X002854Y023109D02*
X000644Y023109D01*
X000644Y023267D02*
X003142Y023267D01*
X004147Y024218D02*
X004222Y024218D01*
X004222Y024377D02*
X004147Y024377D01*
X004147Y024535D02*
X004222Y024535D01*
X004222Y024694D02*
X004147Y024694D01*
X004147Y024852D02*
X004222Y024852D01*
X004222Y025011D02*
X004147Y025011D01*
X004147Y025169D02*
X004222Y025169D01*
X004222Y025328D02*
X004147Y025328D01*
X004147Y025486D02*
X004222Y025486D01*
X004222Y025645D02*
X004147Y025645D01*
X003294Y026917D02*
X003023Y026760D01*
X002721Y026679D01*
X002408Y026679D01*
X002105Y026760D01*
X001834Y026917D01*
X001613Y027138D01*
X001457Y027409D01*
X001376Y027711D01*
X001376Y028024D01*
X001457Y028327D01*
X001613Y028598D01*
X001834Y028819D01*
X002105Y028976D01*
X002408Y029057D01*
X002721Y029057D01*
X003023Y028976D01*
X003294Y028819D01*
X003515Y028598D01*
X003672Y028327D01*
X003753Y028024D01*
X003753Y027711D01*
X003672Y027409D01*
X003515Y027138D01*
X003294Y026917D01*
X003287Y026913D02*
X036741Y026913D01*
X036734Y026917D02*
X037005Y026760D01*
X037308Y026679D01*
X037621Y026679D01*
X037923Y026760D01*
X038194Y026917D01*
X038415Y027138D01*
X038572Y027409D01*
X038653Y027711D01*
X038653Y028024D01*
X038572Y028327D01*
X038415Y028598D01*
X038194Y028819D01*
X037923Y028976D01*
X037621Y029057D01*
X037308Y029057D01*
X037005Y028976D01*
X036734Y028819D01*
X036513Y028598D01*
X036357Y028327D01*
X036276Y028024D01*
X036276Y027711D01*
X036357Y027409D01*
X036513Y027138D01*
X036734Y026917D01*
X036580Y027072D02*
X003449Y027072D01*
X003568Y027230D02*
X036460Y027230D01*
X036368Y027389D02*
X003660Y027389D01*
X003709Y027547D02*
X036320Y027547D01*
X036277Y027706D02*
X003751Y027706D01*
X003753Y027864D02*
X036276Y027864D01*
X036276Y028023D02*
X003753Y028023D01*
X003711Y028181D02*
X036317Y028181D01*
X036364Y028340D02*
X003664Y028340D01*
X003573Y028498D02*
X036455Y028498D01*
X036572Y028657D02*
X003457Y028657D01*
X003298Y028815D02*
X036730Y028815D01*
X037002Y028974D02*
X003027Y028974D01*
X002102Y028974D02*
X000942Y028974D01*
X000861Y028815D02*
X001830Y028815D01*
X001672Y028657D02*
X000780Y028657D01*
X000730Y028498D02*
X001555Y028498D01*
X001464Y028340D02*
X000690Y028340D01*
X000657Y028181D02*
X001417Y028181D01*
X001376Y028023D02*
X000645Y028023D01*
X000644Y027864D02*
X001376Y027864D01*
X001377Y027706D02*
X000644Y027706D01*
X000644Y027547D02*
X001420Y027547D01*
X001468Y027389D02*
X000644Y027389D01*
X000644Y027230D02*
X001560Y027230D01*
X001680Y027072D02*
X000644Y027072D01*
X000644Y026913D02*
X001841Y026913D01*
X002127Y026755D02*
X000644Y026755D01*
X000644Y026596D02*
X039448Y026596D01*
X039448Y026438D02*
X000644Y026438D01*
X000644Y026279D02*
X039448Y026279D01*
X039448Y026121D02*
X000644Y026121D01*
X000644Y025962D02*
X039448Y025962D01*
X039448Y025804D02*
X026953Y025804D01*
X027111Y025645D02*
X039448Y025645D01*
X039448Y025486D02*
X027270Y025486D01*
X027428Y025328D02*
X039448Y025328D01*
X039448Y025169D02*
X033000Y025169D01*
X032956Y025188D02*
X032773Y025188D01*
X032604Y025118D01*
X032474Y024989D01*
X032404Y024819D01*
X032404Y024116D01*
X032474Y023947D01*
X032564Y023857D01*
X032564Y023554D01*
X032388Y023554D01*
X032364Y023530D01*
X032341Y023554D01*
X032164Y023554D01*
X032164Y023857D01*
X032254Y023947D01*
X032324Y024116D01*
X032324Y024819D01*
X032254Y024989D01*
X032125Y025118D01*
X031956Y025188D01*
X031773Y025188D01*
X031604Y025118D01*
X031474Y024989D01*
X031404Y024819D01*
X031404Y024116D01*
X031474Y023947D01*
X031564Y023857D01*
X031564Y023554D01*
X031388Y023554D01*
X031364Y023530D01*
X031341Y023554D01*
X031164Y023554D01*
X031164Y023857D01*
X031254Y023947D01*
X031324Y024116D01*
X031324Y024819D01*
X031254Y024989D01*
X031125Y025118D01*
X030956Y025188D01*
X030773Y025188D01*
X030604Y025118D01*
X030474Y024989D01*
X030404Y024819D01*
X030404Y024116D01*
X030474Y023947D01*
X030564Y023857D01*
X030564Y023554D01*
X030388Y023554D01*
X030364Y023530D01*
X030341Y023554D01*
X030164Y023554D01*
X030164Y023857D01*
X030254Y023947D01*
X030324Y024116D01*
X030324Y024819D01*
X030254Y024989D01*
X030125Y025118D01*
X029956Y025188D01*
X029773Y025188D01*
X029604Y025118D01*
X029474Y024989D01*
X029404Y024819D01*
X029404Y024116D01*
X029474Y023947D01*
X029564Y023857D01*
X029564Y023554D01*
X029388Y023554D01*
X029364Y023530D01*
X029341Y023554D01*
X029164Y023554D01*
X029164Y023857D01*
X029254Y023947D01*
X029324Y024116D01*
X029324Y024819D01*
X029254Y024989D01*
X029125Y025118D01*
X028956Y025188D01*
X028773Y025188D01*
X028604Y025118D01*
X028474Y024989D01*
X028404Y024819D01*
X028404Y024116D01*
X028474Y023947D01*
X028564Y023857D01*
X028564Y023554D01*
X028388Y023554D01*
X028270Y023437D01*
X028270Y022680D01*
X028388Y022563D01*
X029341Y022563D01*
X029364Y022587D01*
X029388Y022563D01*
X030341Y022563D01*
X030364Y022587D01*
X030388Y022563D01*
X031341Y022563D01*
X031364Y022587D01*
X031388Y022563D01*
X032341Y022563D01*
X032364Y022587D01*
X032388Y022563D01*
X033341Y022563D01*
X033458Y022680D01*
X033458Y023437D01*
X033341Y023554D01*
X033164Y023554D01*
X033164Y023857D01*
X033254Y023947D01*
X033324Y024116D01*
X033324Y024819D01*
X033254Y024989D01*
X033125Y025118D01*
X032956Y025188D01*
X032728Y025169D02*
X032000Y025169D01*
X031728Y025169D02*
X031000Y025169D01*
X030728Y025169D02*
X030000Y025169D01*
X029728Y025169D02*
X029000Y025169D01*
X028728Y025169D02*
X027587Y025169D01*
X027864Y025168D02*
X027864Y024468D01*
X027864Y024468D01*
X027864Y024468D01*
X027864Y023768D01*
X027899Y023768D01*
X027967Y023779D01*
X028033Y023800D01*
X028095Y023832D01*
X028151Y023872D01*
X028200Y023921D01*
X028240Y023977D01*
X028272Y024039D01*
X028293Y024105D01*
X028304Y024173D01*
X028304Y024468D01*
X028304Y024763D01*
X028293Y024831D01*
X028272Y024897D01*
X028240Y024959D01*
X028200Y025015D01*
X028151Y025064D01*
X028095Y025104D01*
X028033Y025136D01*
X027967Y025157D01*
X027899Y025168D01*
X027864Y025168D01*
X027864Y025011D02*
X027864Y025011D01*
X027864Y024852D02*
X027864Y024852D01*
X027864Y024694D02*
X027864Y024694D01*
X027864Y024535D02*
X027864Y024535D01*
X027864Y024468D02*
X028304Y024468D01*
X027864Y024468D01*
X027864Y024468D01*
X027864Y024377D02*
X027864Y024377D01*
X027864Y024218D02*
X027864Y024218D01*
X027864Y024060D02*
X027864Y024060D01*
X027864Y023901D02*
X027864Y023901D01*
X027713Y023743D02*
X028564Y023743D01*
X028564Y023584D02*
X027872Y023584D01*
X028030Y023426D02*
X028270Y023426D01*
X028270Y023267D02*
X028189Y023267D01*
X028264Y023109D02*
X028270Y023109D01*
X028264Y022950D02*
X028270Y022950D01*
X028264Y022792D02*
X028270Y022792D01*
X028264Y022633D02*
X028317Y022633D01*
X028264Y022475D02*
X039448Y022475D01*
X039448Y022633D02*
X033411Y022633D01*
X033458Y022792D02*
X039448Y022792D01*
X039448Y022950D02*
X033458Y022950D01*
X033458Y023109D02*
X039448Y023109D01*
X039448Y023267D02*
X033458Y023267D01*
X033458Y023426D02*
X039448Y023426D01*
X039448Y023584D02*
X033164Y023584D01*
X033164Y023743D02*
X039448Y023743D01*
X039448Y023901D02*
X033208Y023901D01*
X033301Y024060D02*
X039448Y024060D01*
X039448Y024218D02*
X033324Y024218D01*
X033324Y024377D02*
X039448Y024377D01*
X039448Y024535D02*
X033324Y024535D01*
X033324Y024694D02*
X039448Y024694D01*
X039448Y024852D02*
X033310Y024852D01*
X033232Y025011D02*
X039448Y025011D01*
X039448Y026755D02*
X037901Y026755D01*
X038187Y026913D02*
X039448Y026913D01*
X039448Y027072D02*
X038349Y027072D01*
X038468Y027230D02*
X039448Y027230D01*
X039448Y027389D02*
X038560Y027389D01*
X038609Y027547D02*
X039448Y027547D01*
X039448Y027706D02*
X038651Y027706D01*
X038653Y027864D02*
X039448Y027864D01*
X039447Y028023D02*
X038653Y028023D01*
X038611Y028181D02*
X039435Y028181D01*
X039402Y028340D02*
X038564Y028340D01*
X038473Y028498D02*
X039362Y028498D01*
X039312Y028657D02*
X038357Y028657D01*
X038198Y028815D02*
X039231Y028815D01*
X039151Y028974D02*
X037927Y028974D01*
X037942Y029766D02*
X002150Y029766D01*
X001669Y029608D02*
X038423Y029608D01*
X038685Y029449D02*
X001407Y029449D01*
X001203Y029291D02*
X038889Y029291D01*
X039021Y029132D02*
X001071Y029132D01*
X003001Y026755D02*
X037027Y026755D01*
X032497Y025011D02*
X032232Y025011D01*
X032310Y024852D02*
X032418Y024852D01*
X032404Y024694D02*
X032324Y024694D01*
X032324Y024535D02*
X032404Y024535D01*
X032404Y024377D02*
X032324Y024377D01*
X032324Y024218D02*
X032404Y024218D01*
X032428Y024060D02*
X032301Y024060D01*
X032208Y023901D02*
X032520Y023901D01*
X032564Y023743D02*
X032164Y023743D01*
X032164Y023584D02*
X032564Y023584D01*
X031564Y023584D02*
X031164Y023584D01*
X031164Y023743D02*
X031564Y023743D01*
X031520Y023901D02*
X031208Y023901D01*
X031301Y024060D02*
X031428Y024060D01*
X031404Y024218D02*
X031324Y024218D01*
X031324Y024377D02*
X031404Y024377D01*
X031404Y024535D02*
X031324Y024535D01*
X031324Y024694D02*
X031404Y024694D01*
X031418Y024852D02*
X031310Y024852D01*
X031232Y025011D02*
X031497Y025011D01*
X030497Y025011D02*
X030232Y025011D01*
X030310Y024852D02*
X030418Y024852D01*
X030404Y024694D02*
X030324Y024694D01*
X030324Y024535D02*
X030404Y024535D01*
X030404Y024377D02*
X030324Y024377D01*
X030324Y024218D02*
X030404Y024218D01*
X030428Y024060D02*
X030301Y024060D01*
X030208Y023901D02*
X030520Y023901D01*
X030564Y023743D02*
X030164Y023743D01*
X030164Y023584D02*
X030564Y023584D01*
X029564Y023584D02*
X029164Y023584D01*
X029164Y023743D02*
X029564Y023743D01*
X029520Y023901D02*
X029208Y023901D01*
X029301Y024060D02*
X029428Y024060D01*
X029404Y024218D02*
X029324Y024218D01*
X029324Y024377D02*
X029404Y024377D01*
X029404Y024535D02*
X029324Y024535D01*
X029324Y024694D02*
X029404Y024694D01*
X029418Y024852D02*
X029310Y024852D01*
X029232Y025011D02*
X029497Y025011D01*
X028497Y025011D02*
X028202Y025011D01*
X028286Y024852D02*
X028418Y024852D01*
X028404Y024694D02*
X028304Y024694D01*
X028304Y024535D02*
X028404Y024535D01*
X028404Y024377D02*
X028304Y024377D01*
X028304Y024218D02*
X028404Y024218D01*
X028428Y024060D02*
X028279Y024060D01*
X028180Y023901D02*
X028520Y023901D01*
X027657Y022950D02*
X027064Y022950D01*
X027064Y022792D02*
X027664Y022792D01*
X027664Y022633D02*
X027064Y022633D01*
X027064Y022475D02*
X027664Y022475D01*
X027664Y022316D02*
X027064Y022316D01*
X026978Y022158D02*
X027664Y022158D01*
X027664Y021999D02*
X026820Y021999D01*
X026661Y021841D02*
X027664Y021841D01*
X027664Y021682D02*
X026459Y021682D01*
X026458Y021524D02*
X027664Y021524D01*
X027664Y021365D02*
X025399Y021365D01*
X025399Y021207D02*
X027664Y021207D01*
X027664Y021048D02*
X024942Y021048D01*
X024864Y021068D02*
X023014Y021068D01*
X023458Y021524D02*
X024270Y021524D01*
X024329Y021365D02*
X022419Y021365D01*
X022419Y021207D02*
X024329Y021207D01*
X024329Y020950D02*
X024329Y020689D01*
X024342Y020643D01*
X024365Y020602D01*
X024399Y020569D01*
X024440Y020545D01*
X024486Y020533D01*
X024787Y020533D01*
X024787Y020950D01*
X024329Y020950D01*
X024329Y020890D02*
X022419Y020890D01*
X022419Y021048D02*
X024787Y021048D01*
X024787Y020890D02*
X024942Y020890D01*
X024942Y020950D02*
X024942Y020533D01*
X025243Y020533D01*
X025289Y020545D01*
X025330Y020569D01*
X025363Y020602D01*
X025387Y020643D01*
X025399Y020689D01*
X025399Y020950D01*
X024942Y020950D01*
X024942Y020731D02*
X024787Y020731D01*
X024787Y020573D02*
X024942Y020573D01*
X025302Y020423D02*
X025419Y020306D01*
X025419Y019510D01*
X025302Y019393D01*
X025251Y019393D01*
X025359Y019285D01*
X025359Y018529D01*
X025242Y018412D01*
X024486Y018412D01*
X024369Y018529D01*
X024369Y019285D01*
X024477Y019393D01*
X024426Y019393D01*
X024309Y019510D01*
X024309Y020306D01*
X024426Y020423D01*
X025302Y020423D01*
X025311Y020414D02*
X027664Y020414D01*
X027664Y020256D02*
X025419Y020256D01*
X025419Y020097D02*
X027664Y020097D01*
X027664Y019939D02*
X025419Y019939D01*
X025419Y019780D02*
X027664Y019780D01*
X027664Y019622D02*
X025419Y019622D01*
X025372Y019463D02*
X027664Y019463D01*
X027664Y019305D02*
X025340Y019305D01*
X025359Y019146D02*
X027664Y019146D01*
X027664Y018988D02*
X025359Y018988D01*
X025359Y018829D02*
X027664Y018829D01*
X027664Y018671D02*
X027459Y018671D01*
X027454Y018675D02*
X026774Y018675D01*
X026657Y018558D01*
X026657Y017878D01*
X026774Y017760D01*
X027454Y017760D01*
X027572Y017878D01*
X027572Y018558D01*
X027454Y018675D01*
X027572Y018512D02*
X027664Y018512D01*
X027664Y018354D02*
X027572Y018354D01*
X027572Y018195D02*
X027664Y018195D01*
X027664Y018037D02*
X027572Y018037D01*
X027572Y017878D02*
X027664Y017878D01*
X027664Y017720D02*
X025359Y017720D01*
X025359Y017878D02*
X025657Y017878D01*
X025774Y017760D01*
X026454Y017760D01*
X026572Y017878D01*
X026572Y018558D01*
X026454Y018675D01*
X025774Y018675D01*
X025657Y018558D01*
X025657Y017878D01*
X025657Y018037D02*
X022164Y018037D01*
X022164Y018195D02*
X025657Y018195D01*
X025657Y018354D02*
X022164Y018354D01*
X022164Y018512D02*
X024385Y018512D01*
X024369Y018671D02*
X022164Y018671D01*
X022164Y018829D02*
X024369Y018829D01*
X024369Y018988D02*
X022164Y018988D01*
X022164Y019146D02*
X024369Y019146D01*
X024389Y019305D02*
X022164Y019305D01*
X022372Y019463D02*
X024356Y019463D01*
X024309Y019622D02*
X022419Y019622D01*
X022419Y019780D02*
X024309Y019780D01*
X024309Y019939D02*
X022419Y019939D01*
X022419Y020097D02*
X024309Y020097D01*
X024309Y020256D02*
X022419Y020256D01*
X022311Y020414D02*
X024418Y020414D01*
X024395Y020573D02*
X022362Y020573D01*
X022419Y020731D02*
X024329Y020731D01*
X025334Y020573D02*
X027664Y020573D01*
X027664Y020731D02*
X025399Y020731D01*
X025399Y020890D02*
X027664Y020890D01*
X028264Y020890D02*
X039448Y020890D01*
X039448Y021048D02*
X028264Y021048D01*
X028264Y021207D02*
X039448Y021207D01*
X039448Y021365D02*
X028264Y021365D01*
X028360Y021438D02*
X028401Y021414D01*
X028447Y021402D01*
X028797Y021402D01*
X028797Y021810D01*
X028932Y021810D01*
X028932Y021945D01*
X029797Y021945D01*
X029797Y022353D01*
X029447Y022353D01*
X029401Y022340D01*
X029364Y022319D01*
X029327Y022340D01*
X029282Y022353D01*
X028932Y022353D01*
X028932Y021945D01*
X028797Y021945D01*
X028797Y022353D01*
X028447Y022353D01*
X028401Y022340D01*
X028360Y022317D01*
X028326Y022283D01*
X028303Y022242D01*
X028290Y022196D01*
X028290Y021945D01*
X028797Y021945D01*
X028797Y021810D01*
X028290Y021810D01*
X028290Y021558D01*
X028303Y021513D01*
X028326Y021472D01*
X028360Y021438D01*
X028300Y021524D02*
X028264Y021524D01*
X028264Y021682D02*
X028290Y021682D01*
X028264Y021841D02*
X028797Y021841D01*
X028932Y021841D02*
X029797Y021841D01*
X029797Y021810D02*
X029438Y021810D01*
X028932Y021810D01*
X028932Y021402D01*
X029282Y021402D01*
X029327Y021414D01*
X029364Y021436D01*
X029401Y021414D01*
X029447Y021402D01*
X029797Y021402D01*
X029797Y021810D01*
X029932Y021810D01*
X029932Y021945D01*
X030290Y021945D01*
X030797Y021945D01*
X030797Y022353D01*
X030447Y022353D01*
X030401Y022340D01*
X030364Y022319D01*
X030327Y022340D01*
X030282Y022353D01*
X029932Y022353D01*
X029932Y021945D01*
X029797Y021945D01*
X029797Y021810D01*
X029797Y021682D02*
X029932Y021682D01*
X029932Y021810D02*
X029932Y021402D01*
X030282Y021402D01*
X030327Y021414D01*
X030364Y021436D01*
X030401Y021414D01*
X030447Y021402D01*
X030797Y021402D01*
X030797Y021810D01*
X030932Y021810D01*
X030932Y021945D01*
X031797Y021945D01*
X031797Y022353D01*
X031447Y022353D01*
X031401Y022340D01*
X031364Y022319D01*
X031327Y022340D01*
X031282Y022353D01*
X030932Y022353D01*
X030932Y021945D01*
X030797Y021945D01*
X030797Y021810D01*
X029932Y021810D01*
X029932Y021841D02*
X030797Y021841D01*
X030932Y021841D02*
X031797Y021841D01*
X031797Y021810D02*
X031438Y021810D01*
X030932Y021810D01*
X030932Y021402D01*
X031282Y021402D01*
X031327Y021414D01*
X031364Y021436D01*
X031401Y021414D01*
X031447Y021402D01*
X031797Y021402D01*
X031797Y021810D01*
X031932Y021810D01*
X031932Y021945D01*
X032290Y021945D01*
X032797Y021945D01*
X032797Y022353D01*
X032447Y022353D01*
X032401Y022340D01*
X032364Y022319D01*
X032327Y022340D01*
X032282Y022353D01*
X031932Y022353D01*
X031932Y021945D01*
X031797Y021945D01*
X031797Y021810D01*
X031797Y021682D02*
X031932Y021682D01*
X031932Y021810D02*
X031932Y021402D01*
X032282Y021402D01*
X032327Y021414D01*
X032364Y021436D01*
X032401Y021414D01*
X032447Y021402D01*
X032797Y021402D01*
X032797Y021810D01*
X032932Y021810D01*
X032932Y021945D01*
X033438Y021945D01*
X033438Y022196D01*
X033426Y022242D01*
X033402Y022283D01*
X033368Y022317D01*
X033327Y022340D01*
X033282Y022353D01*
X032932Y022353D01*
X032932Y021945D01*
X032797Y021945D01*
X032797Y021810D01*
X031932Y021810D01*
X031932Y021841D02*
X032797Y021841D01*
X032932Y021841D02*
X039448Y021841D01*
X039448Y021999D02*
X033438Y021999D01*
X033438Y022158D02*
X039448Y022158D01*
X039448Y022316D02*
X033369Y022316D01*
X032932Y022316D02*
X032797Y022316D01*
X032797Y022158D02*
X032932Y022158D01*
X032932Y021999D02*
X032797Y021999D01*
X032932Y021810D02*
X033438Y021810D01*
X033438Y021558D01*
X033426Y021513D01*
X033402Y021472D01*
X033368Y021438D01*
X033327Y021414D01*
X033282Y021402D01*
X032932Y021402D01*
X032932Y021810D01*
X032932Y021682D02*
X032797Y021682D01*
X032797Y021524D02*
X032932Y021524D01*
X033429Y021524D02*
X039448Y021524D01*
X039448Y021682D02*
X033438Y021682D01*
X031932Y021524D02*
X031797Y021524D01*
X031797Y021999D02*
X031932Y021999D01*
X031932Y022158D02*
X031797Y022158D01*
X031797Y022316D02*
X031932Y022316D01*
X030932Y022316D02*
X030797Y022316D01*
X030797Y022158D02*
X030932Y022158D01*
X030932Y021999D02*
X030797Y021999D01*
X030797Y021682D02*
X030932Y021682D01*
X030932Y021524D02*
X030797Y021524D01*
X029932Y021524D02*
X029797Y021524D01*
X029797Y021999D02*
X029932Y021999D01*
X029932Y022158D02*
X029797Y022158D01*
X029797Y022316D02*
X029932Y022316D01*
X028932Y022316D02*
X028797Y022316D01*
X028797Y022158D02*
X028932Y022158D01*
X028932Y021999D02*
X028797Y021999D01*
X028797Y021682D02*
X028932Y021682D01*
X028932Y021524D02*
X028797Y021524D01*
X028290Y021999D02*
X028264Y021999D01*
X028264Y022158D02*
X028290Y022158D01*
X028264Y022316D02*
X028360Y022316D01*
X027499Y023109D02*
X027064Y023109D01*
X027064Y023267D02*
X027340Y023267D01*
X027182Y023426D02*
X027064Y023426D01*
X027064Y023584D02*
X027074Y023584D01*
X027064Y023743D02*
X027064Y023743D01*
X026464Y023743D02*
X026164Y023743D01*
X026164Y023857D02*
X026164Y023554D01*
X026341Y023554D01*
X026458Y023437D01*
X026458Y022680D01*
X026341Y022563D01*
X025388Y022563D01*
X025364Y022587D01*
X025341Y022563D01*
X024388Y022563D01*
X024270Y022680D01*
X024270Y023437D01*
X024388Y023554D01*
X024564Y023554D01*
X024564Y023857D01*
X024474Y023947D01*
X024404Y024116D01*
X024404Y024819D01*
X024474Y024989D01*
X024604Y025118D01*
X024773Y025188D01*
X024956Y025188D01*
X025125Y025118D01*
X025254Y024989D01*
X025324Y024819D01*
X025324Y024116D01*
X025254Y023947D01*
X025164Y023857D01*
X025164Y023554D01*
X025341Y023554D01*
X025364Y023530D01*
X025388Y023554D01*
X025564Y023554D01*
X025564Y023857D01*
X025474Y023947D01*
X025404Y024116D01*
X025404Y024819D01*
X025474Y024989D01*
X025604Y025118D01*
X025773Y025188D01*
X025956Y025188D01*
X026125Y025118D01*
X026254Y024989D01*
X026324Y024819D01*
X026324Y024116D01*
X026254Y023947D01*
X026164Y023857D01*
X026208Y023901D02*
X026464Y023901D01*
X026428Y024060D02*
X026301Y024060D01*
X026324Y024218D02*
X026404Y024218D01*
X026404Y024377D02*
X026324Y024377D01*
X026324Y024535D02*
X026404Y024535D01*
X026404Y024694D02*
X026324Y024694D01*
X026310Y024852D02*
X026418Y024852D01*
X026497Y025011D02*
X026232Y025011D01*
X026000Y025169D02*
X026728Y025169D01*
X025728Y025169D02*
X025000Y025169D01*
X024728Y025169D02*
X024000Y025169D01*
X023728Y025169D02*
X023000Y025169D01*
X022956Y025188D02*
X022773Y025188D01*
X022604Y025118D01*
X022474Y024989D01*
X022404Y024819D01*
X022404Y024116D01*
X022474Y023947D01*
X022564Y023857D01*
X022564Y023554D01*
X022388Y023554D01*
X022364Y023530D01*
X022341Y023554D01*
X022164Y023554D01*
X022164Y023857D01*
X022254Y023947D01*
X022324Y024116D01*
X022324Y024819D01*
X022254Y024989D01*
X022125Y025118D01*
X021956Y025188D01*
X021773Y025188D01*
X021604Y025118D01*
X021474Y024989D01*
X021404Y024819D01*
X021404Y024116D01*
X021474Y023947D01*
X021564Y023857D01*
X021564Y023554D01*
X021388Y023554D01*
X021270Y023437D01*
X021270Y022680D01*
X021388Y022563D01*
X022341Y022563D01*
X022364Y022587D01*
X022388Y022563D01*
X023341Y022563D01*
X023458Y022680D01*
X023458Y023437D01*
X023341Y023554D01*
X023164Y023554D01*
X023164Y023857D01*
X023254Y023947D01*
X023324Y024116D01*
X023324Y024819D01*
X023254Y024989D01*
X023125Y025118D01*
X022956Y025188D01*
X022728Y025169D02*
X022000Y025169D01*
X021728Y025169D02*
X020000Y025169D01*
X019728Y025169D02*
X019000Y025169D01*
X018956Y025188D02*
X018773Y025188D01*
X018604Y025118D01*
X018474Y024989D01*
X018404Y024819D01*
X018404Y024116D01*
X018474Y023947D01*
X018604Y023818D01*
X018773Y023748D01*
X018956Y023748D01*
X019125Y023818D01*
X019254Y023947D01*
X019324Y024116D01*
X019324Y024819D01*
X019254Y024989D01*
X019125Y025118D01*
X018956Y025188D01*
X018728Y025169D02*
X018000Y025169D01*
X017956Y025188D02*
X017773Y025188D01*
X017604Y025118D01*
X017474Y024989D01*
X017404Y024819D01*
X017404Y024116D01*
X017474Y023947D01*
X017604Y023818D01*
X017773Y023748D01*
X017956Y023748D01*
X018125Y023818D01*
X018254Y023947D01*
X018324Y024116D01*
X018324Y024819D01*
X018254Y024989D01*
X018125Y025118D01*
X017956Y025188D01*
X017728Y025169D02*
X017590Y025169D01*
X017497Y025011D02*
X017431Y025011D01*
X017418Y024852D02*
X017310Y024852D01*
X017324Y024694D02*
X017404Y024694D01*
X017404Y024535D02*
X017324Y024535D01*
X017324Y024377D02*
X017404Y024377D01*
X017404Y024218D02*
X017324Y024218D01*
X017301Y024060D02*
X017428Y024060D01*
X017520Y023901D02*
X017208Y023901D01*
X016520Y023901D02*
X016208Y023901D01*
X016164Y023743D02*
X019765Y023743D01*
X019923Y023584D02*
X016164Y023584D01*
X016164Y023426D02*
X020082Y023426D01*
X020240Y023267D02*
X016164Y023267D01*
X016164Y023109D02*
X020399Y023109D01*
X020464Y022950D02*
X016306Y022950D01*
X016464Y022792D02*
X020464Y022792D01*
X020464Y022633D02*
X017623Y022633D01*
X017781Y022475D02*
X020464Y022475D01*
X020464Y022316D02*
X017940Y022316D01*
X018098Y022158D02*
X020464Y022158D01*
X020046Y021999D02*
X019519Y021999D01*
X019354Y021768D02*
X018864Y021768D01*
X018671Y021999D02*
X018164Y021999D01*
X018164Y021841D02*
X018513Y021841D01*
X018387Y021682D02*
X018164Y021682D01*
X018164Y021524D02*
X018364Y021524D01*
X018364Y021365D02*
X018164Y021365D01*
X018164Y021207D02*
X018364Y021207D01*
X018364Y021048D02*
X018164Y021048D01*
X018164Y020890D02*
X018364Y020890D01*
X018364Y020731D02*
X018164Y020731D01*
X018164Y020573D02*
X018364Y020573D01*
X018364Y020414D02*
X018164Y020414D01*
X018164Y020256D02*
X018240Y020256D01*
X018189Y020097D02*
X018164Y020097D01*
X018164Y019939D02*
X018189Y019939D01*
X018189Y019780D02*
X018164Y019780D01*
X018164Y019622D02*
X018189Y019622D01*
X018189Y019463D02*
X018164Y019463D01*
X018164Y019305D02*
X018215Y019305D01*
X018219Y019146D02*
X018164Y019146D01*
X018164Y018988D02*
X018198Y018988D01*
X018198Y018829D02*
X018164Y018829D01*
X018606Y018512D02*
X018741Y018512D01*
X018741Y018354D02*
X018606Y018354D01*
X018606Y018195D02*
X018741Y018195D01*
X019131Y018195D02*
X019359Y018195D01*
X019359Y018354D02*
X019149Y018354D01*
X019149Y018512D02*
X019359Y018512D01*
X019855Y018668D02*
X019864Y018668D01*
X018964Y020573D02*
X021366Y020573D01*
X021309Y020731D02*
X018964Y020731D01*
X018964Y020890D02*
X020718Y020890D01*
X020174Y021048D02*
X020174Y021048D01*
X020174Y021207D02*
X020174Y021207D01*
X019764Y021207D02*
X019764Y021207D01*
X019762Y021365D02*
X019787Y021365D01*
X019795Y021524D02*
X019764Y021524D01*
X019354Y021365D02*
X019354Y021365D01*
X019354Y021207D02*
X019354Y021207D01*
X019354Y021048D02*
X019354Y021048D01*
X018968Y021048D02*
X018964Y021048D01*
X019740Y021048D02*
X019788Y021048D01*
X019354Y021728D02*
X019354Y021768D01*
X021064Y021841D02*
X021797Y021841D01*
X021797Y021999D02*
X021932Y021999D01*
X021932Y022158D02*
X021797Y022158D01*
X021797Y022316D02*
X021932Y022316D01*
X021360Y022316D02*
X021064Y022316D01*
X021064Y022158D02*
X021290Y022158D01*
X021290Y021999D02*
X021064Y021999D01*
X021064Y021682D02*
X021290Y021682D01*
X021300Y021524D02*
X021064Y021524D01*
X021064Y022475D02*
X023464Y022475D01*
X023464Y022633D02*
X023411Y022633D01*
X023458Y022792D02*
X023464Y022792D01*
X023458Y022950D02*
X023464Y022950D01*
X023458Y023109D02*
X023464Y023109D01*
X023458Y023267D02*
X023464Y023267D01*
X023458Y023426D02*
X023464Y023426D01*
X023488Y023584D02*
X023164Y023584D01*
X023164Y023743D02*
X023564Y023743D01*
X023520Y023901D02*
X023208Y023901D01*
X023301Y024060D02*
X023428Y024060D01*
X023404Y024218D02*
X023324Y024218D01*
X023324Y024377D02*
X023404Y024377D01*
X023404Y024535D02*
X023324Y024535D01*
X023324Y024694D02*
X023404Y024694D01*
X023418Y024852D02*
X023310Y024852D01*
X023232Y025011D02*
X023497Y025011D01*
X024232Y025011D02*
X024497Y025011D01*
X024418Y024852D02*
X024310Y024852D01*
X024324Y024694D02*
X024404Y024694D01*
X024404Y024535D02*
X024324Y024535D01*
X024324Y024377D02*
X024404Y024377D01*
X024404Y024218D02*
X024324Y024218D01*
X024301Y024060D02*
X024428Y024060D01*
X024520Y023901D02*
X024208Y023901D01*
X024164Y023743D02*
X024564Y023743D01*
X024564Y023584D02*
X024164Y023584D01*
X024130Y023426D02*
X024270Y023426D01*
X024270Y023267D02*
X024064Y023267D01*
X024064Y023109D02*
X024270Y023109D01*
X024270Y022950D02*
X024064Y022950D01*
X024064Y022792D02*
X024270Y022792D01*
X024317Y022633D02*
X024064Y022633D01*
X024064Y022475D02*
X026447Y022475D01*
X026464Y022633D02*
X026411Y022633D01*
X026458Y022792D02*
X026464Y022792D01*
X026458Y022950D02*
X026464Y022950D01*
X026458Y023109D02*
X026464Y023109D01*
X026458Y023267D02*
X026464Y023267D01*
X026458Y023426D02*
X026464Y023426D01*
X026464Y023584D02*
X026164Y023584D01*
X025564Y023584D02*
X025164Y023584D01*
X025164Y023743D02*
X025564Y023743D01*
X025520Y023901D02*
X025208Y023901D01*
X025301Y024060D02*
X025428Y024060D01*
X025404Y024218D02*
X025324Y024218D01*
X025324Y024377D02*
X025404Y024377D01*
X025404Y024535D02*
X025324Y024535D01*
X025324Y024694D02*
X025404Y024694D01*
X025418Y024852D02*
X025310Y024852D01*
X025232Y025011D02*
X025497Y025011D01*
X022497Y025011D02*
X022232Y025011D01*
X022310Y024852D02*
X022418Y024852D01*
X022404Y024694D02*
X022324Y024694D01*
X022324Y024535D02*
X022404Y024535D01*
X022404Y024377D02*
X022324Y024377D01*
X022324Y024218D02*
X022404Y024218D01*
X022428Y024060D02*
X022301Y024060D01*
X022208Y023901D02*
X022520Y023901D01*
X022564Y023743D02*
X022164Y023743D01*
X022164Y023584D02*
X022564Y023584D01*
X021564Y023584D02*
X020772Y023584D01*
X020830Y023768D02*
X020761Y023779D01*
X020695Y023800D01*
X020634Y023832D01*
X020578Y023872D01*
X020529Y023921D01*
X020488Y023977D01*
X020456Y024039D01*
X020435Y024105D01*
X020424Y024173D01*
X020424Y024468D01*
X020864Y024468D01*
X020864Y024468D01*
X020424Y024468D01*
X020424Y024763D01*
X020435Y024831D01*
X020456Y024897D01*
X020488Y024959D01*
X020529Y025015D01*
X020578Y025064D01*
X020634Y025104D01*
X020695Y025136D01*
X020761Y025157D01*
X020830Y025168D01*
X020864Y025168D01*
X020864Y024468D01*
X020864Y024468D01*
X020864Y024468D01*
X020864Y023768D01*
X020830Y023768D01*
X020864Y023768D02*
X020899Y023768D01*
X020967Y023779D01*
X021033Y023800D01*
X021095Y023832D01*
X021151Y023872D01*
X021200Y023921D01*
X021240Y023977D01*
X021272Y024039D01*
X021293Y024105D01*
X021304Y024173D01*
X021304Y024468D01*
X021304Y024763D01*
X021293Y024831D01*
X021272Y024897D01*
X021240Y024959D01*
X021200Y025015D01*
X021151Y025064D01*
X021095Y025104D01*
X021033Y025136D01*
X020967Y025157D01*
X020899Y025168D01*
X020864Y025168D01*
X020864Y024468D01*
X020864Y023768D01*
X020864Y023901D02*
X020864Y023901D01*
X020864Y024060D02*
X020864Y024060D01*
X020864Y024218D02*
X020864Y024218D01*
X020864Y024377D02*
X020864Y024377D01*
X020864Y024468D02*
X020864Y024468D01*
X021304Y024468D01*
X020864Y024468D01*
X020864Y024535D02*
X020864Y024535D01*
X020864Y024694D02*
X020864Y024694D01*
X020864Y024852D02*
X020864Y024852D01*
X020864Y025011D02*
X020864Y025011D01*
X020526Y025011D02*
X020232Y025011D01*
X020310Y024852D02*
X020442Y024852D01*
X020424Y024694D02*
X020324Y024694D01*
X020324Y024535D02*
X020424Y024535D01*
X020424Y024377D02*
X020324Y024377D01*
X020324Y024218D02*
X020424Y024218D01*
X020450Y024060D02*
X020301Y024060D01*
X020455Y023901D02*
X020548Y023901D01*
X020613Y023743D02*
X021564Y023743D01*
X021520Y023901D02*
X021180Y023901D01*
X021279Y024060D02*
X021428Y024060D01*
X021404Y024218D02*
X021304Y024218D01*
X021304Y024377D02*
X021404Y024377D01*
X021404Y024535D02*
X021304Y024535D01*
X021304Y024694D02*
X021404Y024694D01*
X021418Y024852D02*
X021286Y024852D01*
X021202Y025011D02*
X021497Y025011D01*
X019497Y025011D02*
X019232Y025011D01*
X019310Y024852D02*
X019418Y024852D01*
X019404Y024694D02*
X019324Y024694D01*
X019324Y024535D02*
X019404Y024535D01*
X019404Y024377D02*
X019324Y024377D01*
X019324Y024218D02*
X019404Y024218D01*
X019428Y024060D02*
X019301Y024060D01*
X019208Y023901D02*
X019520Y023901D01*
X018520Y023901D02*
X018208Y023901D01*
X018301Y024060D02*
X018428Y024060D01*
X018404Y024218D02*
X018324Y024218D01*
X018324Y024377D02*
X018404Y024377D01*
X018404Y024535D02*
X018324Y024535D01*
X018324Y024694D02*
X018404Y024694D01*
X018418Y024852D02*
X018310Y024852D01*
X018232Y025011D02*
X018497Y025011D01*
X017375Y025804D02*
X006325Y025804D01*
X006561Y025645D02*
X017217Y025645D01*
X017058Y025486D02*
X006657Y025486D01*
X006697Y025328D02*
X016900Y025328D01*
X016728Y025169D02*
X016000Y025169D01*
X015728Y025169D02*
X015000Y025169D01*
X014728Y025169D02*
X014000Y025169D01*
X013728Y025169D02*
X006697Y025169D01*
X006697Y025011D02*
X013497Y025011D01*
X012849Y024707D02*
X012849Y024707D01*
X014232Y025011D02*
X014497Y025011D01*
X014418Y024852D02*
X014310Y024852D01*
X014324Y024694D02*
X014404Y024694D01*
X014404Y024535D02*
X014324Y024535D01*
X014324Y024377D02*
X014404Y024377D01*
X014404Y024218D02*
X014324Y024218D01*
X014301Y024060D02*
X014428Y024060D01*
X014520Y023901D02*
X014208Y023901D01*
X014164Y023743D02*
X014564Y023743D01*
X014564Y023584D02*
X014164Y023584D01*
X014164Y023426D02*
X014564Y023426D01*
X014564Y023267D02*
X014164Y023267D01*
X014164Y023109D02*
X014564Y023109D01*
X014564Y022950D02*
X014164Y022950D01*
X014164Y022792D02*
X014564Y022792D01*
X014564Y022633D02*
X014164Y022633D01*
X014164Y022475D02*
X014564Y022475D01*
X014564Y022316D02*
X014164Y022316D01*
X014164Y022158D02*
X014564Y022158D01*
X014564Y021999D02*
X014164Y021999D01*
X014164Y021841D02*
X014592Y021841D01*
X014725Y021682D02*
X014164Y021682D01*
X014164Y021524D02*
X014884Y021524D01*
X015042Y021365D02*
X014164Y021365D01*
X014164Y021207D02*
X015210Y021207D01*
X015415Y021841D02*
X017564Y021841D01*
X017564Y021682D02*
X017074Y021682D01*
X017232Y021524D02*
X017564Y021524D01*
X017564Y021365D02*
X017391Y021365D01*
X017549Y021207D02*
X017564Y021207D01*
X017018Y020890D02*
X014366Y020890D01*
X014208Y021048D02*
X016859Y021048D01*
X017064Y020731D02*
X016512Y020731D01*
X016683Y020573D02*
X017064Y020573D01*
X017064Y020414D02*
X016842Y020414D01*
X017000Y020256D02*
X017064Y020256D01*
X017408Y021999D02*
X015257Y021999D01*
X015164Y022158D02*
X017250Y022158D01*
X016091Y022316D02*
X015164Y022316D01*
X015164Y022475D02*
X015933Y022475D01*
X015774Y022633D02*
X015164Y022633D01*
X015164Y022792D02*
X015616Y022792D01*
X015564Y022950D02*
X015164Y022950D01*
X015164Y023109D02*
X015564Y023109D01*
X015564Y023267D02*
X015164Y023267D01*
X015164Y023426D02*
X015564Y023426D01*
X015564Y023584D02*
X015164Y023584D01*
X015164Y023743D02*
X015564Y023743D01*
X015520Y023901D02*
X015208Y023901D01*
X015301Y024060D02*
X015428Y024060D01*
X015404Y024218D02*
X015324Y024218D01*
X015324Y024377D02*
X015404Y024377D01*
X015404Y024535D02*
X015324Y024535D01*
X015324Y024694D02*
X015404Y024694D01*
X015418Y024852D02*
X015310Y024852D01*
X015232Y025011D02*
X015497Y025011D01*
X016232Y025011D02*
X016497Y025011D01*
X016418Y024852D02*
X016310Y024852D01*
X016324Y024694D02*
X016404Y024694D01*
X016404Y024535D02*
X016324Y024535D01*
X016324Y024377D02*
X016404Y024377D01*
X016404Y024218D02*
X016324Y024218D01*
X016301Y024060D02*
X016428Y024060D01*
X020930Y023426D02*
X021270Y023426D01*
X021270Y023267D02*
X021048Y023267D01*
X021064Y023109D02*
X021270Y023109D01*
X021270Y022950D02*
X021064Y022950D01*
X021064Y022792D02*
X021270Y022792D01*
X021317Y022633D02*
X021064Y022633D01*
X023397Y022316D02*
X023464Y022316D01*
X024064Y022316D02*
X024331Y022316D01*
X028264Y020731D02*
X039448Y020731D01*
X039448Y020573D02*
X028264Y020573D01*
X028264Y020414D02*
X039448Y020414D01*
X039448Y020256D02*
X028264Y020256D01*
X028264Y020097D02*
X039448Y020097D01*
X039448Y019939D02*
X028264Y019939D01*
X028264Y019780D02*
X039448Y019780D01*
X039448Y019622D02*
X028264Y019622D01*
X028264Y019463D02*
X039448Y019463D01*
X039448Y019305D02*
X028264Y019305D01*
X028264Y019146D02*
X039448Y019146D01*
X039448Y018988D02*
X028264Y018988D01*
X028264Y018829D02*
X039448Y018829D01*
X039448Y018671D02*
X028264Y018671D01*
X028264Y018512D02*
X039448Y018512D01*
X039448Y018354D02*
X028264Y018354D01*
X028264Y018195D02*
X031932Y018195D01*
X032004Y018268D02*
X031594Y017858D01*
X031594Y017278D01*
X032004Y016868D01*
X032584Y016868D01*
X032994Y017278D01*
X032994Y017858D01*
X032584Y018268D01*
X032004Y018268D01*
X031773Y018037D02*
X028264Y018037D01*
X028264Y017878D02*
X031615Y017878D01*
X031594Y017720D02*
X028264Y017720D01*
X028264Y017561D02*
X031594Y017561D01*
X031594Y017403D02*
X028264Y017403D01*
X028412Y017244D02*
X031628Y017244D01*
X031786Y017086D02*
X028570Y017086D01*
X028729Y016927D02*
X031945Y016927D01*
X032644Y016927D02*
X035885Y016927D01*
X035944Y016868D02*
X036524Y016868D01*
X036934Y017278D01*
X036934Y017858D01*
X036524Y018268D01*
X035944Y018268D01*
X035534Y017858D01*
X035534Y017278D01*
X035944Y016868D01*
X035726Y017086D02*
X032802Y017086D01*
X032961Y017244D02*
X035568Y017244D01*
X035534Y017403D02*
X032994Y017403D01*
X032994Y017561D02*
X035534Y017561D01*
X035534Y017720D02*
X032994Y017720D01*
X032974Y017878D02*
X035555Y017878D01*
X035713Y018037D02*
X032815Y018037D01*
X032657Y018195D02*
X035872Y018195D01*
X036597Y018195D02*
X039448Y018195D01*
X039448Y018037D02*
X036755Y018037D01*
X036914Y017878D02*
X039448Y017878D01*
X039448Y017720D02*
X036934Y017720D01*
X036934Y017561D02*
X039448Y017561D01*
X039448Y017403D02*
X036934Y017403D01*
X036901Y017244D02*
X039448Y017244D01*
X039448Y017086D02*
X036742Y017086D01*
X036584Y016927D02*
X039448Y016927D01*
X039448Y016769D02*
X028887Y016769D01*
X029132Y016610D02*
X039448Y016610D01*
X039448Y016452D02*
X029269Y016452D01*
X029324Y016293D02*
X039448Y016293D01*
X039448Y016135D02*
X029324Y016135D01*
X029324Y015976D02*
X039448Y015976D01*
X039448Y015818D02*
X029324Y015818D01*
X029324Y015659D02*
X039448Y015659D01*
X039448Y015501D02*
X029276Y015501D01*
X029149Y015342D02*
X039448Y015342D01*
X039448Y015184D02*
X028164Y015184D01*
X028164Y015342D02*
X028579Y015342D01*
X028452Y015501D02*
X028276Y015501D01*
X028324Y015659D02*
X028404Y015659D01*
X028404Y015818D02*
X028324Y015818D01*
X028324Y015976D02*
X028404Y015976D01*
X028404Y016135D02*
X028324Y016135D01*
X028324Y016293D02*
X028404Y016293D01*
X028356Y016452D02*
X028269Y016452D01*
X028197Y016610D02*
X028132Y016610D01*
X028039Y016769D02*
X025164Y016769D01*
X025164Y016927D02*
X027880Y016927D01*
X027722Y017086D02*
X025295Y017086D01*
X025242Y017034D02*
X025359Y017151D01*
X025359Y017907D01*
X025242Y018024D01*
X024486Y018024D01*
X024369Y017907D01*
X024369Y017151D01*
X024486Y017034D01*
X024564Y017034D01*
X024564Y016578D01*
X024474Y016489D01*
X024404Y016319D01*
X024404Y015616D01*
X024474Y015447D01*
X024604Y015318D01*
X024773Y015248D01*
X024956Y015248D01*
X025125Y015318D01*
X025254Y015447D01*
X025324Y015616D01*
X025324Y016319D01*
X025254Y016489D01*
X025164Y016578D01*
X025164Y017034D01*
X025242Y017034D01*
X025359Y017244D02*
X027664Y017244D01*
X027664Y017403D02*
X025359Y017403D01*
X025359Y017561D02*
X027664Y017561D01*
X027596Y016610D02*
X027132Y016610D01*
X027125Y016618D02*
X026956Y016688D01*
X026773Y016688D01*
X026604Y016618D01*
X026474Y016489D01*
X026404Y016319D01*
X026404Y015616D01*
X026474Y015447D01*
X026604Y015318D01*
X026773Y015248D01*
X026956Y015248D01*
X027125Y015318D01*
X027254Y015447D01*
X027324Y015616D01*
X027324Y016319D01*
X027254Y016489D01*
X027125Y016618D01*
X027269Y016452D02*
X027459Y016452D01*
X027404Y016293D02*
X027324Y016293D01*
X027324Y016135D02*
X027404Y016135D01*
X027404Y015976D02*
X027324Y015976D01*
X027324Y015818D02*
X027404Y015818D01*
X027404Y015659D02*
X027324Y015659D01*
X027276Y015501D02*
X027452Y015501D01*
X027564Y015342D02*
X027149Y015342D01*
X026579Y015342D02*
X026149Y015342D01*
X026125Y015318D02*
X026254Y015447D01*
X026324Y015616D01*
X026324Y016319D01*
X026254Y016489D01*
X026125Y016618D01*
X025956Y016688D01*
X025773Y016688D01*
X025604Y016618D01*
X025474Y016489D01*
X025404Y016319D01*
X025404Y015616D01*
X025474Y015447D01*
X025604Y015318D01*
X025773Y015248D01*
X025956Y015248D01*
X026125Y015318D01*
X026276Y015501D02*
X026452Y015501D01*
X026404Y015659D02*
X026324Y015659D01*
X026324Y015818D02*
X026404Y015818D01*
X026404Y015976D02*
X026324Y015976D01*
X026324Y016135D02*
X026404Y016135D01*
X026404Y016293D02*
X026324Y016293D01*
X026269Y016452D02*
X026459Y016452D01*
X026596Y016610D02*
X026132Y016610D01*
X025596Y016610D02*
X025164Y016610D01*
X025269Y016452D02*
X025459Y016452D01*
X025404Y016293D02*
X025324Y016293D01*
X025324Y016135D02*
X025404Y016135D01*
X025404Y015976D02*
X025324Y015976D01*
X025324Y015818D02*
X025404Y015818D01*
X025404Y015659D02*
X025324Y015659D01*
X025276Y015501D02*
X025452Y015501D01*
X025579Y015342D02*
X025149Y015342D01*
X024579Y015342D02*
X024149Y015342D01*
X024125Y015318D02*
X024254Y015447D01*
X024324Y015616D01*
X024324Y016319D01*
X024254Y016489D01*
X024125Y016618D01*
X023956Y016688D01*
X023773Y016688D01*
X023604Y016618D01*
X023474Y016489D01*
X023404Y016319D01*
X023404Y015616D01*
X023474Y015447D01*
X023604Y015318D01*
X023773Y015248D01*
X023956Y015248D01*
X024125Y015318D01*
X024276Y015501D02*
X024452Y015501D01*
X024404Y015659D02*
X024324Y015659D01*
X024324Y015818D02*
X024404Y015818D01*
X024404Y015976D02*
X024324Y015976D01*
X024324Y016135D02*
X024404Y016135D01*
X024404Y016293D02*
X024324Y016293D01*
X024269Y016452D02*
X024459Y016452D01*
X024564Y016610D02*
X024132Y016610D01*
X024564Y016769D02*
X022164Y016769D01*
X022164Y016927D02*
X024564Y016927D01*
X024434Y017086D02*
X022164Y017086D01*
X022164Y017244D02*
X024369Y017244D01*
X024369Y017403D02*
X022164Y017403D01*
X022164Y017561D02*
X024369Y017561D01*
X024369Y017720D02*
X022164Y017720D01*
X022164Y017878D02*
X024369Y017878D01*
X025343Y018512D02*
X025657Y018512D01*
X025769Y018671D02*
X025359Y018671D01*
X026459Y018671D02*
X026769Y018671D01*
X026657Y018512D02*
X026572Y018512D01*
X026572Y018354D02*
X026657Y018354D01*
X026657Y018195D02*
X026572Y018195D01*
X026572Y018037D02*
X026657Y018037D01*
X026657Y017878D02*
X026572Y017878D01*
X023596Y016610D02*
X023083Y016610D01*
X023095Y016604D02*
X023033Y016636D01*
X022967Y016657D01*
X022899Y016668D01*
X022864Y016668D01*
X022830Y016668D01*
X022761Y016657D01*
X022695Y016636D01*
X022634Y016604D01*
X022578Y016564D01*
X022529Y016515D01*
X022488Y016459D01*
X022456Y016397D01*
X022435Y016331D01*
X022424Y016263D01*
X022424Y015968D01*
X022864Y015968D01*
X022864Y015968D01*
X022424Y015968D01*
X022424Y015673D01*
X022435Y015605D01*
X022456Y015539D01*
X022488Y015477D01*
X022529Y015421D01*
X022578Y015372D01*
X022634Y015332D01*
X022695Y015300D01*
X022761Y015279D01*
X022830Y015268D01*
X022864Y015268D01*
X022864Y015968D01*
X022864Y016668D01*
X022864Y015968D01*
X022864Y015968D01*
X022864Y015968D01*
X022864Y015268D01*
X022899Y015268D01*
X022967Y015279D01*
X023033Y015300D01*
X023095Y015332D01*
X023151Y015372D01*
X023200Y015421D01*
X023240Y015477D01*
X023272Y015539D01*
X023293Y015605D01*
X023304Y015673D01*
X023304Y015968D01*
X023304Y016263D01*
X023293Y016331D01*
X023272Y016397D01*
X023240Y016459D01*
X023200Y016515D01*
X023151Y016564D01*
X023095Y016604D01*
X023244Y016452D02*
X023459Y016452D01*
X023404Y016293D02*
X023299Y016293D01*
X023304Y016135D02*
X023404Y016135D01*
X023404Y015976D02*
X023304Y015976D01*
X023304Y015968D02*
X022864Y015968D01*
X022864Y015968D01*
X023304Y015968D01*
X023304Y015818D02*
X023404Y015818D01*
X023404Y015659D02*
X023302Y015659D01*
X023253Y015501D02*
X023452Y015501D01*
X023579Y015342D02*
X023110Y015342D01*
X022864Y015342D02*
X022864Y015342D01*
X022864Y015501D02*
X022864Y015501D01*
X022864Y015659D02*
X022864Y015659D01*
X022864Y015818D02*
X022864Y015818D01*
X022864Y015976D02*
X022864Y015976D01*
X022864Y016135D02*
X022864Y016135D01*
X022864Y016293D02*
X022864Y016293D01*
X022864Y016452D02*
X022864Y016452D01*
X022864Y016610D02*
X022864Y016610D01*
X022646Y016610D02*
X022164Y016610D01*
X022269Y016452D02*
X022484Y016452D01*
X022429Y016293D02*
X022324Y016293D01*
X022324Y016135D02*
X022424Y016135D01*
X022424Y015976D02*
X022324Y015976D01*
X022324Y015818D02*
X022424Y015818D01*
X022426Y015659D02*
X022324Y015659D01*
X022276Y015501D02*
X022476Y015501D01*
X022619Y015342D02*
X022149Y015342D01*
X021579Y015342D02*
X021149Y015342D01*
X021276Y015501D02*
X021452Y015501D01*
X021404Y015659D02*
X021324Y015659D01*
X021324Y015818D02*
X021404Y015818D01*
X021404Y015976D02*
X021324Y015976D01*
X021324Y016135D02*
X021404Y016135D01*
X021404Y016293D02*
X021324Y016293D01*
X021269Y016452D02*
X021459Y016452D01*
X021564Y016610D02*
X021132Y016610D01*
X019559Y014550D02*
X018806Y014550D01*
X018965Y014391D02*
X019564Y014391D01*
X019564Y014233D02*
X019121Y014233D01*
X019164Y014074D02*
X019564Y014074D01*
X019564Y013916D02*
X019164Y013916D01*
X019164Y013757D02*
X019564Y013757D01*
X019564Y013599D02*
X019164Y013599D01*
X019274Y013440D02*
X019454Y013440D01*
X019404Y013282D02*
X019324Y013282D01*
X019324Y013123D02*
X019404Y013123D01*
X019404Y012965D02*
X019324Y012965D01*
X019324Y012806D02*
X019404Y012806D01*
X019404Y012648D02*
X019324Y012648D01*
X019272Y012489D02*
X019457Y012489D01*
X021413Y010112D02*
X022324Y010112D01*
X022264Y009953D02*
X021419Y009953D01*
X021419Y009795D02*
X022264Y009795D01*
X022264Y009636D02*
X021419Y009636D01*
X021419Y009478D02*
X022264Y009478D01*
X022264Y009319D02*
X021419Y009319D01*
X021419Y009161D02*
X022267Y009161D01*
X022333Y009002D02*
X021419Y009002D01*
X021419Y008844D02*
X022481Y008844D01*
X023047Y008844D02*
X023188Y008985D01*
X023264Y009169D01*
X023264Y009967D01*
X023264Y009169D01*
X023340Y008985D01*
X023481Y008844D01*
X023333Y009002D02*
X023195Y009002D01*
X023261Y009161D02*
X023267Y009161D01*
X023264Y009319D02*
X023264Y009319D01*
X023264Y009478D02*
X023264Y009478D01*
X023264Y009636D02*
X023264Y009636D01*
X023264Y009795D02*
X023264Y009795D01*
X023264Y009953D02*
X023264Y009953D01*
X023204Y010112D02*
X023324Y010112D01*
X023460Y010270D02*
X023069Y010270D01*
X022460Y010270D02*
X012069Y010270D01*
X011858Y010429D02*
X013479Y010429D01*
X013320Y010587D02*
X011991Y010587D01*
X012113Y010746D02*
X013190Y010746D01*
X013164Y010904D02*
X012164Y010904D01*
X012164Y011063D02*
X013164Y011063D01*
X013164Y011221D02*
X012100Y011221D01*
X011959Y011380D02*
X013164Y011380D01*
X013164Y011538D02*
X011934Y011538D01*
X010628Y011221D02*
X006485Y011221D01*
X006625Y011063D02*
X010564Y011063D01*
X010564Y010904D02*
X006691Y010904D01*
X006697Y010746D02*
X010615Y010746D01*
X012020Y009319D02*
X018227Y009319D01*
X019497Y009342D02*
X020838Y009342D01*
X020864Y009368D01*
X020864Y009708D02*
X020804Y009768D01*
X020309Y009636D02*
X019958Y009636D01*
X019913Y009002D02*
X020309Y009002D01*
X020309Y008844D02*
X019945Y008844D01*
X019953Y008685D02*
X020309Y008685D01*
X020309Y008527D02*
X019953Y008527D01*
X019953Y008576D02*
X019516Y008576D01*
X019516Y008217D01*
X019797Y008217D01*
X019842Y008229D01*
X019883Y008253D01*
X019917Y008287D01*
X019941Y008328D01*
X019953Y008373D01*
X019953Y008576D01*
X019952Y008368D02*
X020371Y008368D01*
X020787Y008051D02*
X020942Y008051D01*
X020942Y007893D02*
X020787Y007893D01*
X021398Y008051D02*
X027090Y008051D01*
X027090Y008368D02*
X021358Y008368D01*
X021419Y008527D02*
X027105Y008527D01*
X027047Y008844D02*
X027188Y008985D01*
X027264Y009169D01*
X027264Y009967D01*
X027264Y009169D01*
X027340Y008985D01*
X027481Y008844D01*
X027333Y009002D02*
X027195Y009002D01*
X027261Y009161D02*
X027267Y009161D01*
X027264Y009319D02*
X027264Y009319D01*
X027264Y009478D02*
X027264Y009478D01*
X027264Y009636D02*
X027264Y009636D01*
X027264Y009795D02*
X027264Y009795D01*
X027264Y009953D02*
X027264Y009953D01*
X027204Y010112D02*
X027324Y010112D01*
X027460Y010270D02*
X027069Y010270D01*
X026460Y010270D02*
X026069Y010270D01*
X026204Y010112D02*
X026324Y010112D01*
X026264Y009967D02*
X026264Y009169D01*
X026188Y008985D01*
X026047Y008844D01*
X026195Y009002D02*
X026333Y009002D01*
X026340Y008985D02*
X026481Y008844D01*
X026340Y008985D02*
X026264Y009169D01*
X026264Y009967D01*
X026264Y009953D02*
X026264Y009953D01*
X026264Y009795D02*
X026264Y009795D01*
X026264Y009636D02*
X026264Y009636D01*
X026264Y009478D02*
X026264Y009478D01*
X026264Y009319D02*
X026264Y009319D01*
X026261Y009161D02*
X026267Y009161D01*
X027597Y008527D02*
X027732Y008527D01*
X027732Y008368D02*
X027597Y008368D01*
X027597Y008051D02*
X027732Y008051D01*
X027732Y007893D02*
X027597Y007893D01*
X027597Y007734D02*
X027732Y007734D01*
X027132Y007417D02*
X021399Y007417D01*
X021419Y008685D02*
X028389Y008685D01*
X028389Y008527D02*
X028223Y008527D01*
X028238Y008368D02*
X028389Y008368D01*
X028047Y008844D02*
X028188Y008985D01*
X028261Y009161D02*
X028471Y009161D01*
X029277Y009795D02*
X030264Y009795D01*
X030264Y009953D02*
X029340Y009953D01*
X029340Y010112D02*
X030282Y010112D01*
X030590Y010056D02*
X030590Y009994D01*
X030564Y009968D01*
X030590Y010056D02*
X030602Y010068D01*
X030964Y009953D02*
X030964Y009953D01*
X030964Y009795D02*
X030964Y009795D01*
X031338Y010056D02*
X031351Y010081D01*
X031361Y010108D01*
X031367Y010135D01*
X031370Y010163D01*
X031369Y010191D01*
X031364Y010219D01*
X032632Y009268D02*
X032664Y009300D01*
X033399Y008210D02*
X033778Y008210D01*
X034644Y008368D02*
X039448Y008368D01*
X039448Y008210D02*
X035923Y008210D01*
X035918Y008231D02*
X035930Y008185D01*
X035930Y007836D01*
X035522Y007836D01*
X035387Y007836D01*
X035387Y008342D01*
X035136Y008342D01*
X035090Y008329D01*
X035049Y008306D01*
X035015Y008272D01*
X034992Y008231D01*
X034979Y008185D01*
X034979Y007836D01*
X035387Y007836D01*
X035387Y007700D01*
X035522Y007700D01*
X035522Y007194D01*
X035774Y007194D01*
X035819Y007207D01*
X035861Y007230D01*
X035894Y007264D01*
X035918Y007305D01*
X035930Y007351D01*
X035930Y007700D01*
X035522Y007700D01*
X035522Y007836D01*
X035522Y008342D01*
X035774Y008342D01*
X035819Y008329D01*
X035861Y008306D01*
X035894Y008272D01*
X035918Y008231D01*
X035930Y008051D02*
X039448Y008051D01*
X039448Y007893D02*
X035930Y007893D01*
X035930Y007576D02*
X039448Y007576D01*
X039448Y007734D02*
X035522Y007734D01*
X035387Y007734D02*
X034769Y007734D01*
X034769Y007576D02*
X034979Y007576D01*
X034979Y007700D02*
X034979Y007351D01*
X034992Y007305D01*
X035015Y007264D01*
X035049Y007230D01*
X035090Y007207D01*
X035136Y007194D01*
X035387Y007194D01*
X035387Y007700D01*
X034979Y007700D01*
X034979Y007893D02*
X034769Y007893D01*
X034769Y008051D02*
X034979Y008051D01*
X034986Y008210D02*
X034769Y008210D01*
X034644Y008527D02*
X039448Y008527D01*
X039448Y008685D02*
X034935Y008685D01*
X034984Y008844D02*
X039448Y008844D01*
X039448Y009002D02*
X034984Y009002D01*
X034384Y009636D02*
X034304Y009636D01*
X035387Y008210D02*
X035522Y008210D01*
X035522Y008051D02*
X035387Y008051D01*
X035387Y007893D02*
X035522Y007893D01*
X035522Y007576D02*
X035387Y007576D01*
X035387Y007417D02*
X035522Y007417D01*
X035522Y007259D02*
X035387Y007259D01*
X035020Y007259D02*
X034736Y007259D01*
X034769Y007417D02*
X034979Y007417D01*
X034664Y007100D02*
X039448Y007100D01*
X039448Y006942D02*
X034664Y006942D01*
X034664Y006783D02*
X039448Y006783D01*
X039448Y006625D02*
X034664Y006625D01*
X034664Y006466D02*
X039448Y006466D01*
X039448Y006308D02*
X034664Y006308D01*
X034664Y006149D02*
X039448Y006149D01*
X039448Y005991D02*
X036707Y005991D01*
X036700Y005998D02*
X036628Y006050D01*
X036549Y006091D01*
X036465Y006118D01*
X036381Y006131D01*
X036381Y005616D01*
X036896Y005616D01*
X036883Y005700D01*
X036855Y005784D01*
X036815Y005863D01*
X036763Y005935D01*
X036700Y005998D01*
X036831Y005832D02*
X039448Y005832D01*
X039448Y005674D02*
X036887Y005674D01*
X036896Y005520D02*
X036381Y005520D01*
X036381Y005616D01*
X036285Y005616D01*
X036285Y006131D01*
X036201Y006118D01*
X036116Y006091D01*
X036037Y006050D01*
X035965Y005998D01*
X035903Y005935D01*
X035850Y005863D01*
X035810Y005784D01*
X035783Y005700D01*
X035769Y005616D01*
X036285Y005616D01*
X036285Y005520D01*
X036381Y005520D01*
X036381Y005005D01*
X036465Y005018D01*
X036549Y005045D01*
X036628Y005086D01*
X036700Y005138D01*
X036763Y005201D01*
X036815Y005272D01*
X036855Y005352D01*
X036883Y005436D01*
X036896Y005520D01*
X036895Y005515D02*
X039448Y005515D01*
X039448Y005357D02*
X036857Y005357D01*
X036761Y005198D02*
X039448Y005198D01*
X039448Y005040D02*
X036532Y005040D01*
X036381Y005040D02*
X036285Y005040D01*
X036285Y005005D02*
X036285Y005520D01*
X035769Y005520D01*
X035783Y005436D01*
X035810Y005352D01*
X035850Y005272D01*
X035903Y005201D01*
X035965Y005138D01*
X036037Y005086D01*
X036116Y005045D01*
X036201Y005018D01*
X036285Y005005D01*
X036133Y005040D02*
X034615Y005040D01*
X034621Y004881D02*
X039448Y004881D01*
X039448Y004723D02*
X036680Y004723D01*
X036720Y004682D02*
X036638Y004764D01*
X036532Y004808D01*
X036070Y004808D01*
X035963Y004764D01*
X035881Y004682D01*
X035837Y004576D01*
X035837Y004460D01*
X035881Y004354D01*
X035963Y004272D01*
X036070Y004228D01*
X036532Y004228D01*
X036638Y004272D01*
X036720Y004354D01*
X036764Y004460D01*
X036764Y004576D01*
X036720Y004682D01*
X036764Y004564D02*
X039448Y004564D01*
X039448Y004406D02*
X036742Y004406D01*
X036578Y004247D02*
X039448Y004247D01*
X039448Y004089D02*
X034541Y004089D01*
X034678Y004247D02*
X036023Y004247D01*
X035860Y004406D02*
X034842Y004406D01*
X034864Y004564D02*
X035837Y004564D01*
X035922Y004723D02*
X034780Y004723D01*
X034820Y005198D02*
X035905Y005198D01*
X035808Y005357D02*
X034909Y005357D01*
X034948Y005515D02*
X035770Y005515D01*
X035779Y005674D02*
X034948Y005674D01*
X034887Y005832D02*
X035835Y005832D01*
X035958Y005991D02*
X034767Y005991D01*
X036285Y005991D02*
X036381Y005991D01*
X036381Y005832D02*
X036285Y005832D01*
X036285Y005674D02*
X036381Y005674D01*
X036381Y005515D02*
X036285Y005515D01*
X036285Y005357D02*
X036381Y005357D01*
X036381Y005198D02*
X036285Y005198D01*
X037105Y003676D02*
X036834Y003519D01*
X036613Y003298D01*
X036457Y003027D01*
X036376Y002724D01*
X036376Y002411D01*
X036457Y002109D01*
X036613Y001838D01*
X036834Y001617D01*
X037105Y001460D01*
X037408Y001379D01*
X037721Y001379D01*
X038023Y001460D01*
X038294Y001617D01*
X038515Y001838D01*
X038672Y002109D01*
X038753Y002411D01*
X038753Y002724D01*
X038672Y003027D01*
X038515Y003298D01*
X038294Y003519D01*
X038023Y003676D01*
X037721Y003757D01*
X037408Y003757D01*
X037105Y003676D01*
X036998Y003613D02*
X003131Y003613D01*
X003358Y003455D02*
X036770Y003455D01*
X036612Y003296D02*
X003516Y003296D01*
X003608Y003138D02*
X036521Y003138D01*
X036444Y002979D02*
X003685Y002979D01*
X003727Y002821D02*
X036401Y002821D01*
X036376Y002662D02*
X003753Y002662D01*
X003753Y002504D02*
X036376Y002504D01*
X036393Y002345D02*
X003735Y002345D01*
X003693Y002187D02*
X036436Y002187D01*
X036503Y002028D02*
X003625Y002028D01*
X003534Y001870D02*
X036595Y001870D01*
X036740Y001711D02*
X003389Y001711D01*
X003183Y001553D02*
X036945Y001553D01*
X037351Y001394D02*
X002777Y001394D01*
X002351Y001394D02*
X001040Y001394D01*
X001166Y001236D02*
X038926Y001236D01*
X039052Y001394D02*
X037777Y001394D01*
X038183Y001553D02*
X039171Y001553D01*
X039247Y001711D02*
X038389Y001711D01*
X038534Y001870D02*
X039324Y001870D01*
X039370Y002028D02*
X038625Y002028D01*
X038693Y002187D02*
X039406Y002187D01*
X039438Y002345D02*
X038735Y002345D01*
X038753Y002504D02*
X039446Y002504D01*
X039448Y002662D02*
X038753Y002662D01*
X038727Y002821D02*
X039448Y002821D01*
X039448Y002979D02*
X038685Y002979D01*
X038608Y003138D02*
X039448Y003138D01*
X039448Y003296D02*
X038516Y003296D01*
X038358Y003455D02*
X039448Y003455D01*
X039448Y003613D02*
X038131Y003613D01*
X038744Y001077D02*
X001348Y001077D01*
X001561Y000919D02*
X038531Y000919D01*
X038202Y000760D02*
X001890Y000760D01*
X003864Y007259D02*
X006464Y007259D01*
X006304Y007417D02*
X004025Y007417D01*
X004136Y007576D02*
X006193Y007576D01*
X006127Y007734D02*
X004201Y007734D01*
X004229Y007893D02*
X006099Y007893D01*
X006099Y008051D02*
X004229Y008051D01*
X004198Y008210D02*
X006131Y008210D01*
X006196Y008368D02*
X004132Y008368D01*
X004016Y008527D02*
X006312Y008527D01*
X006484Y008685D02*
X003844Y008685D01*
X004639Y009795D02*
X005662Y009795D01*
X005597Y009953D02*
X004704Y009953D01*
X004717Y010112D02*
X005592Y010112D01*
X005592Y010270D02*
X004717Y010270D01*
X004717Y010587D02*
X005592Y010587D01*
X005592Y010429D02*
X004222Y010429D01*
X004222Y010587D02*
X004147Y010587D01*
X004147Y010746D02*
X004222Y010746D01*
X004222Y010904D02*
X004147Y010904D01*
X004147Y011063D02*
X004222Y011063D01*
X004222Y011221D02*
X004147Y011221D01*
X004483Y011221D02*
X005804Y011221D01*
X005663Y011063D02*
X004637Y011063D01*
X004704Y010904D02*
X005598Y010904D01*
X005592Y010746D02*
X004717Y010746D01*
X004222Y012014D02*
X004147Y012014D01*
X004147Y012172D02*
X004222Y012172D01*
X004222Y012331D02*
X004147Y012331D01*
X004147Y012489D02*
X004222Y012489D01*
X004222Y012648D02*
X004147Y012648D01*
X004147Y012806D02*
X004222Y012806D01*
X004222Y012965D02*
X004147Y012965D01*
X004147Y013123D02*
X004222Y013123D01*
X004222Y013282D02*
X004147Y013282D01*
X004147Y013440D02*
X004222Y013440D01*
X000644Y016135D02*
X009564Y016135D01*
X009564Y016293D02*
X000644Y016293D01*
X000644Y016452D02*
X009564Y016452D01*
X009564Y016610D02*
X000644Y016610D01*
X000644Y021207D02*
X010631Y021207D01*
X010565Y021365D02*
X000644Y021365D01*
X011344Y021999D02*
X011384Y021999D01*
X011384Y022158D02*
X011344Y022158D01*
X011344Y022316D02*
X011384Y022316D01*
X011384Y022633D02*
X011344Y022633D01*
X011344Y022792D02*
X011384Y022792D01*
X025010Y010746D02*
X028918Y010746D01*
X028893Y010298D02*
X028881Y010283D01*
X028872Y010265D01*
X028866Y010247D01*
X028864Y010227D01*
X028864Y010216D01*
X028402Y010587D02*
X025064Y010587D01*
X027987Y014867D02*
X039448Y014867D01*
X039448Y015025D02*
X028130Y015025D01*
X019516Y008527D02*
X019479Y008527D01*
X019479Y008368D02*
X019516Y008368D01*
X010741Y005674D02*
X010647Y005674D01*
X010257Y005674D02*
X010089Y005674D01*
X010201Y004812D02*
X010201Y004812D01*
X030564Y006868D02*
X030664Y006868D01*
X030630Y006902D01*
X035889Y007259D02*
X039448Y007259D01*
X039448Y007417D02*
X035930Y007417D01*
M02*
