G75*
%MOIN*%
%OFA0B0*%
%FSLAX24Y24*%
%IPPOS*%
%LPD*%
%AMOC8*
5,1,8,0,0,1.08239X$1,22.5*
%
%ADD10C,0.0000*%
%ADD11C,0.0180*%
%ADD12C,0.0520*%
%ADD13R,0.0591X0.0787*%
%ADD14R,0.0630X0.0710*%
%ADD15C,0.0600*%
%ADD16C,0.0705*%
%ADD17R,0.0515X0.0515*%
%ADD18R,0.0551X0.0394*%
%ADD19R,0.0710X0.0630*%
%ADD20OC8,0.1000*%
%ADD21C,0.0768*%
%ADD22R,0.0394X0.0551*%
%ADD23C,0.0160*%
%ADD24C,0.0200*%
D10*
X002526Y000168D02*
X037566Y000168D01*
X037661Y000170D01*
X037756Y000176D01*
X037851Y000185D01*
X037945Y000199D01*
X038038Y000216D01*
X038131Y000237D01*
X038223Y000261D01*
X038314Y000290D01*
X038404Y000321D01*
X038492Y000357D01*
X038579Y000396D01*
X038664Y000439D01*
X038747Y000484D01*
X038828Y000534D01*
X038908Y000586D01*
X038985Y000642D01*
X039060Y000700D01*
X039132Y000762D01*
X039202Y000827D01*
X039269Y000894D01*
X039334Y000964D01*
X039396Y001036D01*
X039454Y001111D01*
X039510Y001188D01*
X039562Y001268D01*
X039612Y001349D01*
X039657Y001432D01*
X039700Y001517D01*
X039739Y001604D01*
X039775Y001692D01*
X039806Y001782D01*
X039835Y001873D01*
X039859Y001965D01*
X039880Y002058D01*
X039897Y002151D01*
X039911Y002245D01*
X039920Y002340D01*
X039926Y002435D01*
X039928Y002530D01*
X039928Y028024D01*
X039925Y028117D01*
X039917Y028210D01*
X039906Y028302D01*
X039890Y028394D01*
X039872Y028486D01*
X039849Y028576D01*
X039823Y028665D01*
X039794Y028754D01*
X039760Y028841D01*
X039724Y028926D01*
X039684Y029011D01*
X039640Y029093D01*
X039594Y029174D01*
X039544Y029252D01*
X039491Y029329D01*
X039435Y029403D01*
X039376Y029475D01*
X039314Y029545D01*
X039249Y029612D01*
X039182Y029676D01*
X039112Y029738D01*
X039040Y029797D01*
X038965Y029853D01*
X038888Y029906D01*
X038810Y029955D01*
X038729Y030002D01*
X038646Y030045D01*
X038562Y030085D01*
X038476Y030121D01*
X038389Y030154D01*
X038301Y030183D01*
X038211Y030209D01*
X038121Y030231D01*
X038030Y030250D01*
X037938Y030265D01*
X037845Y030276D01*
X037752Y030283D01*
X037659Y030287D01*
X037566Y030286D01*
X002526Y030286D01*
X000164Y028024D02*
X000164Y002530D01*
X000166Y002435D01*
X000172Y002340D01*
X000181Y002245D01*
X000195Y002151D01*
X000212Y002058D01*
X000233Y001965D01*
X000257Y001873D01*
X000286Y001782D01*
X000317Y001692D01*
X000353Y001604D01*
X000392Y001517D01*
X000435Y001432D01*
X000480Y001349D01*
X000530Y001268D01*
X000582Y001188D01*
X000638Y001111D01*
X000696Y001036D01*
X000758Y000964D01*
X000823Y000894D01*
X000890Y000827D01*
X000960Y000762D01*
X001032Y000700D01*
X001107Y000642D01*
X001184Y000586D01*
X001264Y000534D01*
X001345Y000484D01*
X001428Y000439D01*
X001513Y000396D01*
X001600Y000357D01*
X001688Y000321D01*
X001778Y000290D01*
X001869Y000261D01*
X001961Y000237D01*
X002054Y000216D01*
X002147Y000199D01*
X002241Y000185D01*
X002336Y000176D01*
X002431Y000170D01*
X002526Y000168D01*
X001855Y002568D02*
X001857Y002621D01*
X001863Y002674D01*
X001873Y002726D01*
X001886Y002777D01*
X001904Y002827D01*
X001925Y002876D01*
X001950Y002923D01*
X001978Y002967D01*
X002010Y003010D01*
X002044Y003050D01*
X002082Y003088D01*
X002122Y003122D01*
X002165Y003154D01*
X002210Y003182D01*
X002256Y003207D01*
X002305Y003228D01*
X002355Y003246D01*
X002406Y003259D01*
X002458Y003269D01*
X002511Y003275D01*
X002564Y003277D01*
X002617Y003275D01*
X002670Y003269D01*
X002722Y003259D01*
X002773Y003246D01*
X002823Y003228D01*
X002872Y003207D01*
X002919Y003182D01*
X002963Y003154D01*
X003006Y003122D01*
X003046Y003088D01*
X003084Y003050D01*
X003118Y003010D01*
X003150Y002967D01*
X003178Y002922D01*
X003203Y002876D01*
X003224Y002827D01*
X003242Y002777D01*
X003255Y002726D01*
X003265Y002674D01*
X003271Y002621D01*
X003273Y002568D01*
X003271Y002515D01*
X003265Y002462D01*
X003255Y002410D01*
X003242Y002359D01*
X003224Y002309D01*
X003203Y002260D01*
X003178Y002213D01*
X003150Y002169D01*
X003118Y002126D01*
X003084Y002086D01*
X003046Y002048D01*
X003006Y002014D01*
X002963Y001982D01*
X002918Y001954D01*
X002872Y001929D01*
X002823Y001908D01*
X002773Y001890D01*
X002722Y001877D01*
X002670Y001867D01*
X002617Y001861D01*
X002564Y001859D01*
X002511Y001861D01*
X002458Y001867D01*
X002406Y001877D01*
X002355Y001890D01*
X002305Y001908D01*
X002256Y001929D01*
X002209Y001954D01*
X002165Y001982D01*
X002122Y002014D01*
X002082Y002048D01*
X002044Y002086D01*
X002010Y002126D01*
X001978Y002169D01*
X001950Y002214D01*
X001925Y002260D01*
X001904Y002309D01*
X001886Y002359D01*
X001873Y002410D01*
X001863Y002462D01*
X001857Y002515D01*
X001855Y002568D01*
X003039Y007968D02*
X003041Y008005D01*
X003047Y008042D01*
X003056Y008078D01*
X003070Y008112D01*
X003087Y008145D01*
X003107Y008177D01*
X003130Y008206D01*
X003156Y008232D01*
X003185Y008255D01*
X003216Y008275D01*
X003250Y008292D01*
X003284Y008306D01*
X003320Y008315D01*
X003357Y008321D01*
X003394Y008323D01*
X003431Y008321D01*
X003468Y008315D01*
X003504Y008306D01*
X003538Y008292D01*
X003571Y008275D01*
X003603Y008255D01*
X003632Y008232D01*
X003658Y008206D01*
X003681Y008177D01*
X003701Y008146D01*
X003718Y008112D01*
X003732Y008078D01*
X003741Y008042D01*
X003747Y008005D01*
X003749Y007968D01*
X003747Y007931D01*
X003741Y007894D01*
X003732Y007858D01*
X003718Y007824D01*
X003701Y007791D01*
X003681Y007759D01*
X003658Y007730D01*
X003632Y007704D01*
X003603Y007681D01*
X003572Y007661D01*
X003538Y007644D01*
X003504Y007630D01*
X003468Y007621D01*
X003431Y007615D01*
X003394Y007613D01*
X003357Y007615D01*
X003320Y007621D01*
X003284Y007630D01*
X003250Y007644D01*
X003217Y007661D01*
X003185Y007681D01*
X003156Y007704D01*
X003130Y007730D01*
X003107Y007759D01*
X003087Y007790D01*
X003070Y007824D01*
X003056Y007858D01*
X003047Y007894D01*
X003041Y007931D01*
X003039Y007968D01*
X006579Y007968D02*
X006581Y008005D01*
X006587Y008042D01*
X006596Y008078D01*
X006610Y008112D01*
X006627Y008145D01*
X006647Y008177D01*
X006670Y008206D01*
X006696Y008232D01*
X006725Y008255D01*
X006756Y008275D01*
X006790Y008292D01*
X006824Y008306D01*
X006860Y008315D01*
X006897Y008321D01*
X006934Y008323D01*
X006971Y008321D01*
X007008Y008315D01*
X007044Y008306D01*
X007078Y008292D01*
X007111Y008275D01*
X007143Y008255D01*
X007172Y008232D01*
X007198Y008206D01*
X007221Y008177D01*
X007241Y008146D01*
X007258Y008112D01*
X007272Y008078D01*
X007281Y008042D01*
X007287Y008005D01*
X007289Y007968D01*
X007287Y007931D01*
X007281Y007894D01*
X007272Y007858D01*
X007258Y007824D01*
X007241Y007791D01*
X007221Y007759D01*
X007198Y007730D01*
X007172Y007704D01*
X007143Y007681D01*
X007112Y007661D01*
X007078Y007644D01*
X007044Y007630D01*
X007008Y007621D01*
X006971Y007615D01*
X006934Y007613D01*
X006897Y007615D01*
X006860Y007621D01*
X006824Y007630D01*
X006790Y007644D01*
X006757Y007661D01*
X006725Y007681D01*
X006696Y007704D01*
X006670Y007730D01*
X006647Y007759D01*
X006627Y007790D01*
X006610Y007824D01*
X006596Y007858D01*
X006587Y007894D01*
X006581Y007931D01*
X006579Y007968D01*
X006579Y015168D02*
X006581Y015205D01*
X006587Y015242D01*
X006596Y015278D01*
X006610Y015312D01*
X006627Y015345D01*
X006647Y015377D01*
X006670Y015406D01*
X006696Y015432D01*
X006725Y015455D01*
X006756Y015475D01*
X006790Y015492D01*
X006824Y015506D01*
X006860Y015515D01*
X006897Y015521D01*
X006934Y015523D01*
X006971Y015521D01*
X007008Y015515D01*
X007044Y015506D01*
X007078Y015492D01*
X007111Y015475D01*
X007143Y015455D01*
X007172Y015432D01*
X007198Y015406D01*
X007221Y015377D01*
X007241Y015346D01*
X007258Y015312D01*
X007272Y015278D01*
X007281Y015242D01*
X007287Y015205D01*
X007289Y015168D01*
X007287Y015131D01*
X007281Y015094D01*
X007272Y015058D01*
X007258Y015024D01*
X007241Y014991D01*
X007221Y014959D01*
X007198Y014930D01*
X007172Y014904D01*
X007143Y014881D01*
X007112Y014861D01*
X007078Y014844D01*
X007044Y014830D01*
X007008Y014821D01*
X006971Y014815D01*
X006934Y014813D01*
X006897Y014815D01*
X006860Y014821D01*
X006824Y014830D01*
X006790Y014844D01*
X006757Y014861D01*
X006725Y014881D01*
X006696Y014904D01*
X006670Y014930D01*
X006647Y014959D01*
X006627Y014990D01*
X006610Y015024D01*
X006596Y015058D01*
X006587Y015094D01*
X006581Y015131D01*
X006579Y015168D01*
X003039Y015168D02*
X003041Y015205D01*
X003047Y015242D01*
X003056Y015278D01*
X003070Y015312D01*
X003087Y015345D01*
X003107Y015377D01*
X003130Y015406D01*
X003156Y015432D01*
X003185Y015455D01*
X003216Y015475D01*
X003250Y015492D01*
X003284Y015506D01*
X003320Y015515D01*
X003357Y015521D01*
X003394Y015523D01*
X003431Y015521D01*
X003468Y015515D01*
X003504Y015506D01*
X003538Y015492D01*
X003571Y015475D01*
X003603Y015455D01*
X003632Y015432D01*
X003658Y015406D01*
X003681Y015377D01*
X003701Y015346D01*
X003718Y015312D01*
X003732Y015278D01*
X003741Y015242D01*
X003747Y015205D01*
X003749Y015168D01*
X003747Y015131D01*
X003741Y015094D01*
X003732Y015058D01*
X003718Y015024D01*
X003701Y014991D01*
X003681Y014959D01*
X003658Y014930D01*
X003632Y014904D01*
X003603Y014881D01*
X003572Y014861D01*
X003538Y014844D01*
X003504Y014830D01*
X003468Y014821D01*
X003431Y014815D01*
X003394Y014813D01*
X003357Y014815D01*
X003320Y014821D01*
X003284Y014830D01*
X003250Y014844D01*
X003217Y014861D01*
X003185Y014881D01*
X003156Y014904D01*
X003130Y014930D01*
X003107Y014959D01*
X003087Y014990D01*
X003070Y015024D01*
X003056Y015058D01*
X003047Y015094D01*
X003041Y015131D01*
X003039Y015168D01*
X003039Y022468D02*
X003041Y022505D01*
X003047Y022542D01*
X003056Y022578D01*
X003070Y022612D01*
X003087Y022645D01*
X003107Y022677D01*
X003130Y022706D01*
X003156Y022732D01*
X003185Y022755D01*
X003216Y022775D01*
X003250Y022792D01*
X003284Y022806D01*
X003320Y022815D01*
X003357Y022821D01*
X003394Y022823D01*
X003431Y022821D01*
X003468Y022815D01*
X003504Y022806D01*
X003538Y022792D01*
X003571Y022775D01*
X003603Y022755D01*
X003632Y022732D01*
X003658Y022706D01*
X003681Y022677D01*
X003701Y022646D01*
X003718Y022612D01*
X003732Y022578D01*
X003741Y022542D01*
X003747Y022505D01*
X003749Y022468D01*
X003747Y022431D01*
X003741Y022394D01*
X003732Y022358D01*
X003718Y022324D01*
X003701Y022291D01*
X003681Y022259D01*
X003658Y022230D01*
X003632Y022204D01*
X003603Y022181D01*
X003572Y022161D01*
X003538Y022144D01*
X003504Y022130D01*
X003468Y022121D01*
X003431Y022115D01*
X003394Y022113D01*
X003357Y022115D01*
X003320Y022121D01*
X003284Y022130D01*
X003250Y022144D01*
X003217Y022161D01*
X003185Y022181D01*
X003156Y022204D01*
X003130Y022230D01*
X003107Y022259D01*
X003087Y022290D01*
X003070Y022324D01*
X003056Y022358D01*
X003047Y022394D01*
X003041Y022431D01*
X003039Y022468D01*
X006579Y022468D02*
X006581Y022505D01*
X006587Y022542D01*
X006596Y022578D01*
X006610Y022612D01*
X006627Y022645D01*
X006647Y022677D01*
X006670Y022706D01*
X006696Y022732D01*
X006725Y022755D01*
X006756Y022775D01*
X006790Y022792D01*
X006824Y022806D01*
X006860Y022815D01*
X006897Y022821D01*
X006934Y022823D01*
X006971Y022821D01*
X007008Y022815D01*
X007044Y022806D01*
X007078Y022792D01*
X007111Y022775D01*
X007143Y022755D01*
X007172Y022732D01*
X007198Y022706D01*
X007221Y022677D01*
X007241Y022646D01*
X007258Y022612D01*
X007272Y022578D01*
X007281Y022542D01*
X007287Y022505D01*
X007289Y022468D01*
X007287Y022431D01*
X007281Y022394D01*
X007272Y022358D01*
X007258Y022324D01*
X007241Y022291D01*
X007221Y022259D01*
X007198Y022230D01*
X007172Y022204D01*
X007143Y022181D01*
X007112Y022161D01*
X007078Y022144D01*
X007044Y022130D01*
X007008Y022121D01*
X006971Y022115D01*
X006934Y022113D01*
X006897Y022115D01*
X006860Y022121D01*
X006824Y022130D01*
X006790Y022144D01*
X006757Y022161D01*
X006725Y022181D01*
X006696Y022204D01*
X006670Y022230D01*
X006647Y022259D01*
X006627Y022290D01*
X006610Y022324D01*
X006596Y022358D01*
X006587Y022394D01*
X006581Y022431D01*
X006579Y022468D01*
X001855Y027868D02*
X001857Y027921D01*
X001863Y027974D01*
X001873Y028026D01*
X001886Y028077D01*
X001904Y028127D01*
X001925Y028176D01*
X001950Y028223D01*
X001978Y028267D01*
X002010Y028310D01*
X002044Y028350D01*
X002082Y028388D01*
X002122Y028422D01*
X002165Y028454D01*
X002210Y028482D01*
X002256Y028507D01*
X002305Y028528D01*
X002355Y028546D01*
X002406Y028559D01*
X002458Y028569D01*
X002511Y028575D01*
X002564Y028577D01*
X002617Y028575D01*
X002670Y028569D01*
X002722Y028559D01*
X002773Y028546D01*
X002823Y028528D01*
X002872Y028507D01*
X002919Y028482D01*
X002963Y028454D01*
X003006Y028422D01*
X003046Y028388D01*
X003084Y028350D01*
X003118Y028310D01*
X003150Y028267D01*
X003178Y028222D01*
X003203Y028176D01*
X003224Y028127D01*
X003242Y028077D01*
X003255Y028026D01*
X003265Y027974D01*
X003271Y027921D01*
X003273Y027868D01*
X003271Y027815D01*
X003265Y027762D01*
X003255Y027710D01*
X003242Y027659D01*
X003224Y027609D01*
X003203Y027560D01*
X003178Y027513D01*
X003150Y027469D01*
X003118Y027426D01*
X003084Y027386D01*
X003046Y027348D01*
X003006Y027314D01*
X002963Y027282D01*
X002918Y027254D01*
X002872Y027229D01*
X002823Y027208D01*
X002773Y027190D01*
X002722Y027177D01*
X002670Y027167D01*
X002617Y027161D01*
X002564Y027159D01*
X002511Y027161D01*
X002458Y027167D01*
X002406Y027177D01*
X002355Y027190D01*
X002305Y027208D01*
X002256Y027229D01*
X002209Y027254D01*
X002165Y027282D01*
X002122Y027314D01*
X002082Y027348D01*
X002044Y027386D01*
X002010Y027426D01*
X001978Y027469D01*
X001950Y027514D01*
X001925Y027560D01*
X001904Y027609D01*
X001886Y027659D01*
X001873Y027710D01*
X001863Y027762D01*
X001857Y027815D01*
X001855Y027868D01*
X000164Y028024D02*
X000168Y028120D01*
X000176Y028215D01*
X000187Y028310D01*
X000203Y028404D01*
X000223Y028497D01*
X000247Y028590D01*
X000274Y028682D01*
X000305Y028772D01*
X000340Y028861D01*
X000378Y028949D01*
X000420Y029035D01*
X000466Y029119D01*
X000515Y029201D01*
X000567Y029281D01*
X000623Y029358D01*
X000682Y029434D01*
X000744Y029507D01*
X000809Y029577D01*
X000876Y029645D01*
X000947Y029709D01*
X001020Y029771D01*
X001095Y029830D01*
X001173Y029885D01*
X001253Y029937D01*
X001335Y029986D01*
X001419Y030032D01*
X001505Y030073D01*
X001593Y030112D01*
X001682Y030146D01*
X001772Y030177D01*
X001864Y030205D01*
X001957Y030228D01*
X002050Y030248D01*
X002145Y030263D01*
X002240Y030275D01*
X002335Y030283D01*
X002430Y030287D01*
X002526Y030286D01*
X036755Y027868D02*
X036757Y027921D01*
X036763Y027974D01*
X036773Y028026D01*
X036786Y028077D01*
X036804Y028127D01*
X036825Y028176D01*
X036850Y028223D01*
X036878Y028267D01*
X036910Y028310D01*
X036944Y028350D01*
X036982Y028388D01*
X037022Y028422D01*
X037065Y028454D01*
X037110Y028482D01*
X037156Y028507D01*
X037205Y028528D01*
X037255Y028546D01*
X037306Y028559D01*
X037358Y028569D01*
X037411Y028575D01*
X037464Y028577D01*
X037517Y028575D01*
X037570Y028569D01*
X037622Y028559D01*
X037673Y028546D01*
X037723Y028528D01*
X037772Y028507D01*
X037819Y028482D01*
X037863Y028454D01*
X037906Y028422D01*
X037946Y028388D01*
X037984Y028350D01*
X038018Y028310D01*
X038050Y028267D01*
X038078Y028222D01*
X038103Y028176D01*
X038124Y028127D01*
X038142Y028077D01*
X038155Y028026D01*
X038165Y027974D01*
X038171Y027921D01*
X038173Y027868D01*
X038171Y027815D01*
X038165Y027762D01*
X038155Y027710D01*
X038142Y027659D01*
X038124Y027609D01*
X038103Y027560D01*
X038078Y027513D01*
X038050Y027469D01*
X038018Y027426D01*
X037984Y027386D01*
X037946Y027348D01*
X037906Y027314D01*
X037863Y027282D01*
X037818Y027254D01*
X037772Y027229D01*
X037723Y027208D01*
X037673Y027190D01*
X037622Y027177D01*
X037570Y027167D01*
X037517Y027161D01*
X037464Y027159D01*
X037411Y027161D01*
X037358Y027167D01*
X037306Y027177D01*
X037255Y027190D01*
X037205Y027208D01*
X037156Y027229D01*
X037109Y027254D01*
X037065Y027282D01*
X037022Y027314D01*
X036982Y027348D01*
X036944Y027386D01*
X036910Y027426D01*
X036878Y027469D01*
X036850Y027514D01*
X036825Y027560D01*
X036804Y027609D01*
X036786Y027659D01*
X036773Y027710D01*
X036763Y027762D01*
X036757Y027815D01*
X036755Y027868D01*
X036855Y002568D02*
X036857Y002621D01*
X036863Y002674D01*
X036873Y002726D01*
X036886Y002777D01*
X036904Y002827D01*
X036925Y002876D01*
X036950Y002923D01*
X036978Y002967D01*
X037010Y003010D01*
X037044Y003050D01*
X037082Y003088D01*
X037122Y003122D01*
X037165Y003154D01*
X037210Y003182D01*
X037256Y003207D01*
X037305Y003228D01*
X037355Y003246D01*
X037406Y003259D01*
X037458Y003269D01*
X037511Y003275D01*
X037564Y003277D01*
X037617Y003275D01*
X037670Y003269D01*
X037722Y003259D01*
X037773Y003246D01*
X037823Y003228D01*
X037872Y003207D01*
X037919Y003182D01*
X037963Y003154D01*
X038006Y003122D01*
X038046Y003088D01*
X038084Y003050D01*
X038118Y003010D01*
X038150Y002967D01*
X038178Y002922D01*
X038203Y002876D01*
X038224Y002827D01*
X038242Y002777D01*
X038255Y002726D01*
X038265Y002674D01*
X038271Y002621D01*
X038273Y002568D01*
X038271Y002515D01*
X038265Y002462D01*
X038255Y002410D01*
X038242Y002359D01*
X038224Y002309D01*
X038203Y002260D01*
X038178Y002213D01*
X038150Y002169D01*
X038118Y002126D01*
X038084Y002086D01*
X038046Y002048D01*
X038006Y002014D01*
X037963Y001982D01*
X037918Y001954D01*
X037872Y001929D01*
X037823Y001908D01*
X037773Y001890D01*
X037722Y001877D01*
X037670Y001867D01*
X037617Y001861D01*
X037564Y001859D01*
X037511Y001861D01*
X037458Y001867D01*
X037406Y001877D01*
X037355Y001890D01*
X037305Y001908D01*
X037256Y001929D01*
X037209Y001954D01*
X037165Y001982D01*
X037122Y002014D01*
X037082Y002048D01*
X037044Y002086D01*
X037010Y002126D01*
X036978Y002169D01*
X036950Y002214D01*
X036925Y002260D01*
X036904Y002309D01*
X036886Y002359D01*
X036873Y002410D01*
X036863Y002462D01*
X036857Y002515D01*
X036855Y002568D01*
D11*
X023390Y005545D02*
X023303Y005458D01*
X023043Y005458D01*
X023043Y005284D02*
X023043Y005805D01*
X023303Y005805D01*
X023390Y005718D01*
X023390Y005545D01*
X022746Y005545D02*
X022659Y005458D01*
X022485Y005458D01*
X022399Y005545D01*
X022399Y005718D01*
X022485Y005805D01*
X022659Y005805D01*
X022746Y005718D01*
X022746Y005545D01*
X022101Y005978D02*
X021754Y005978D01*
X021928Y005978D02*
X021928Y005458D01*
D12*
X015864Y005208D02*
X015864Y005728D01*
X014864Y005728D02*
X014864Y005208D01*
X013864Y005208D02*
X013864Y005728D01*
X015864Y012708D02*
X015864Y013228D01*
X016864Y013228D02*
X016864Y012708D01*
X017864Y012708D02*
X017864Y013228D01*
X018864Y013228D02*
X018864Y012708D01*
X019864Y012708D02*
X019864Y013228D01*
X020864Y013228D02*
X020864Y012708D01*
X021864Y012708D02*
X021864Y013228D01*
X022864Y013228D02*
X022864Y012708D01*
X023864Y012708D02*
X023864Y013228D01*
X024864Y013228D02*
X024864Y012708D01*
X025864Y012708D02*
X025864Y013228D01*
X026864Y013228D02*
X026864Y012708D01*
X027864Y012708D02*
X027864Y013228D01*
X028864Y013228D02*
X028864Y012708D01*
X028864Y015708D02*
X028864Y016228D01*
X027864Y016228D02*
X027864Y015708D01*
X026864Y015708D02*
X026864Y016228D01*
X025864Y016228D02*
X025864Y015708D01*
X024864Y015708D02*
X024864Y016228D01*
X023864Y016228D02*
X023864Y015708D01*
X022864Y015708D02*
X022864Y016228D01*
X021864Y016228D02*
X021864Y015708D01*
X020864Y015708D02*
X020864Y016228D01*
X019864Y016228D02*
X019864Y015708D01*
X018864Y015708D02*
X018864Y016228D01*
X017864Y016228D02*
X017864Y015708D01*
X016864Y015708D02*
X016864Y016228D01*
X015864Y016228D02*
X015864Y015708D01*
X015864Y024208D02*
X015864Y024728D01*
X014864Y024728D02*
X014864Y024208D01*
X013864Y024208D02*
X013864Y024728D01*
X016864Y024728D02*
X016864Y024208D01*
X017864Y024208D02*
X017864Y024728D01*
X018864Y024728D02*
X018864Y024208D01*
X019864Y024208D02*
X019864Y024728D01*
X020864Y024728D02*
X020864Y024208D01*
X021864Y024208D02*
X021864Y024728D01*
X022864Y024728D02*
X022864Y024208D01*
X023864Y024208D02*
X023864Y024728D01*
X024864Y024728D02*
X024864Y024208D01*
X025864Y024208D02*
X025864Y024728D01*
X026864Y024728D02*
X026864Y024208D01*
X027864Y024208D02*
X027864Y024728D01*
X028864Y024728D02*
X028864Y024208D01*
X029864Y024208D02*
X029864Y024728D01*
X030864Y024728D02*
X030864Y024208D01*
X031864Y024208D02*
X031864Y024728D01*
X032864Y024728D02*
X032864Y024208D01*
X032864Y005728D02*
X032864Y005208D01*
X031864Y005208D02*
X031864Y005728D01*
X030864Y005728D02*
X030864Y005208D01*
D13*
X028355Y017268D03*
X027174Y017268D03*
X026055Y017268D03*
X024874Y017268D03*
D14*
X025404Y014268D03*
X026524Y014268D03*
X023024Y014268D03*
X021904Y014268D03*
X020024Y014268D03*
X018904Y014268D03*
X017824Y014268D03*
X016704Y014268D03*
X033704Y017568D03*
X034824Y017568D03*
D15*
X027764Y009868D02*
X027764Y009268D01*
X026764Y009268D02*
X026764Y009868D01*
X025764Y009868D02*
X025764Y009268D01*
X024764Y009268D02*
X024764Y009868D01*
X023764Y009868D02*
X023764Y009268D01*
X022764Y009268D02*
X022764Y009868D01*
X011664Y009968D02*
X011064Y009968D01*
X011064Y008968D02*
X011664Y008968D01*
X011664Y010968D02*
X011064Y010968D01*
X011064Y011968D02*
X011664Y011968D01*
X011664Y019468D02*
X011064Y019468D01*
X011064Y020468D02*
X011664Y020468D01*
X011664Y021468D02*
X011064Y021468D01*
X011064Y022468D02*
X011664Y022468D01*
X011664Y023468D02*
X011064Y023468D01*
X011064Y024468D02*
X011664Y024468D01*
D16*
X006144Y024575D02*
X006144Y025280D01*
X004184Y025280D02*
X004184Y024575D01*
X004184Y020360D02*
X004184Y019655D01*
X004184Y017980D02*
X004184Y017275D01*
X006144Y017275D02*
X006144Y017980D01*
X006144Y019655D02*
X006144Y020360D01*
X006144Y013060D02*
X006144Y012355D01*
X006144Y010780D02*
X006144Y010075D01*
X004184Y010075D02*
X004184Y010780D01*
X004184Y012355D02*
X004184Y013060D01*
X004184Y005860D02*
X004184Y005155D01*
X006144Y005155D02*
X006144Y005860D01*
D17*
X026114Y018218D03*
X027114Y018218D03*
D18*
X023097Y020868D03*
X022231Y021242D03*
X022231Y020494D03*
D19*
X020864Y018628D03*
X020864Y017508D03*
X031964Y015128D03*
X031964Y014008D03*
X031964Y009028D03*
X031964Y007908D03*
D20*
X032294Y017568D03*
X036234Y017568D03*
D21*
X036333Y005568D03*
X034364Y005568D03*
D22*
X030564Y008135D03*
X030190Y009001D03*
X030938Y009001D03*
D23*
X001195Y001199D02*
X000933Y001529D01*
X000750Y001909D01*
X000656Y002319D01*
X000644Y002530D01*
X000644Y028015D01*
X000660Y028218D01*
X000760Y028616D01*
X000946Y028982D01*
X001209Y029298D01*
X001535Y029546D01*
X001909Y029716D01*
X002311Y029799D01*
X002513Y029806D01*
X002521Y029806D01*
X002611Y029804D01*
X002616Y029806D01*
X037476Y029806D01*
X037481Y029804D01*
X037571Y029806D01*
X037579Y029806D01*
X037782Y029799D01*
X038184Y029716D01*
X038557Y029546D01*
X038883Y029298D01*
X039146Y028982D01*
X039332Y028616D01*
X039432Y028218D01*
X039448Y028015D01*
X039448Y002530D01*
X039436Y002319D01*
X039342Y001909D01*
X039159Y001529D01*
X038897Y001199D01*
X038567Y000936D01*
X038187Y000754D01*
X037776Y000660D01*
X037566Y000648D01*
X002526Y000648D01*
X002316Y000660D01*
X001905Y000754D01*
X001525Y000936D01*
X001195Y001199D01*
X001166Y001236D02*
X038926Y001236D01*
X039052Y001394D02*
X037777Y001394D01*
X037721Y001379D02*
X038023Y001460D01*
X038294Y001617D01*
X038515Y001838D01*
X038672Y002109D01*
X038753Y002411D01*
X038753Y002724D01*
X038672Y003027D01*
X038515Y003298D01*
X038294Y003519D01*
X038023Y003676D01*
X037721Y003757D01*
X037408Y003757D01*
X037105Y003676D01*
X036834Y003519D01*
X036613Y003298D01*
X036457Y003027D01*
X036376Y002724D01*
X036376Y002411D01*
X036457Y002109D01*
X036613Y001838D01*
X036834Y001617D01*
X037105Y001460D01*
X037408Y001379D01*
X037721Y001379D01*
X037351Y001394D02*
X002777Y001394D01*
X002721Y001379D02*
X003023Y001460D01*
X003294Y001617D01*
X003515Y001838D01*
X003672Y002109D01*
X003753Y002411D01*
X003753Y002724D01*
X003672Y003027D01*
X003515Y003298D01*
X003294Y003519D01*
X003023Y003676D01*
X002721Y003757D01*
X002408Y003757D01*
X002105Y003676D01*
X001834Y003519D01*
X001613Y003298D01*
X001457Y003027D01*
X001376Y002724D01*
X001376Y002411D01*
X001457Y002109D01*
X001613Y001838D01*
X001834Y001617D01*
X002105Y001460D01*
X002408Y001379D01*
X002721Y001379D01*
X002351Y001394D02*
X001040Y001394D01*
X000921Y001553D02*
X001945Y001553D01*
X001740Y001711D02*
X000845Y001711D01*
X000768Y001870D02*
X001595Y001870D01*
X001503Y002028D02*
X000722Y002028D01*
X000686Y002187D02*
X001436Y002187D01*
X001393Y002345D02*
X000655Y002345D01*
X000646Y002504D02*
X001376Y002504D01*
X001376Y002662D02*
X000644Y002662D01*
X000644Y002821D02*
X001401Y002821D01*
X001444Y002979D02*
X000644Y002979D01*
X000644Y003138D02*
X001521Y003138D01*
X001612Y003296D02*
X000644Y003296D01*
X000644Y003455D02*
X001770Y003455D01*
X001998Y003613D02*
X000644Y003613D01*
X000644Y003772D02*
X016095Y003772D01*
X016104Y003768D02*
X031702Y003768D01*
X031849Y003829D01*
X031849Y003829D01*
X031863Y003843D01*
X031863Y003843D01*
X032034Y004014D01*
X032119Y004098D01*
X032164Y004208D01*
X032164Y004857D01*
X032254Y004947D01*
X032324Y005116D01*
X032324Y005819D01*
X032254Y005989D01*
X032125Y006118D01*
X031956Y006188D01*
X031773Y006188D01*
X031604Y006118D01*
X031474Y005989D01*
X031404Y005819D01*
X031404Y005116D01*
X031474Y004947D01*
X031564Y004857D01*
X031564Y004392D01*
X031540Y004368D01*
X016288Y004368D01*
X016164Y004492D01*
X016164Y004857D01*
X016254Y004947D01*
X016324Y005116D01*
X016324Y005819D01*
X016254Y005989D01*
X016125Y006118D01*
X015956Y006188D01*
X015773Y006188D01*
X015604Y006118D01*
X015474Y005989D01*
X015404Y005819D01*
X015404Y005116D01*
X015474Y004947D01*
X015564Y004857D01*
X015564Y004330D01*
X015625Y004183D01*
X015625Y004183D01*
X015639Y004169D01*
X015639Y004169D01*
X015910Y003898D01*
X015994Y003814D01*
X016104Y003768D01*
X015877Y003930D02*
X000644Y003930D01*
X000644Y004089D02*
X015719Y004089D01*
X015598Y004247D02*
X000644Y004247D01*
X000644Y004406D02*
X015564Y004406D01*
X015564Y004564D02*
X000644Y004564D01*
X000644Y004723D02*
X003874Y004723D01*
X003905Y004700D02*
X003980Y004662D01*
X004059Y004636D01*
X004142Y004623D01*
X004147Y004623D01*
X004147Y005470D01*
X004222Y005470D01*
X004222Y005545D01*
X004717Y005545D01*
X004717Y005902D01*
X004704Y005985D01*
X004678Y006065D01*
X004640Y006140D01*
X004590Y006207D01*
X004531Y006267D01*
X004463Y006316D01*
X004389Y006354D01*
X004309Y006380D01*
X004226Y006393D01*
X004222Y006393D01*
X004222Y005545D01*
X004147Y005545D01*
X004147Y005470D01*
X003652Y005470D01*
X003652Y005114D01*
X003665Y005031D01*
X003691Y004951D01*
X003729Y004876D01*
X003778Y004809D01*
X003837Y004749D01*
X003905Y004700D01*
X004147Y004723D02*
X004222Y004723D01*
X004222Y004623D02*
X004226Y004623D01*
X004309Y004636D01*
X004389Y004662D01*
X004463Y004700D01*
X004531Y004749D01*
X004590Y004809D01*
X004640Y004876D01*
X004678Y004951D01*
X004704Y005031D01*
X004717Y005114D01*
X004717Y005470D01*
X004222Y005470D01*
X004222Y004623D01*
X004222Y004881D02*
X004147Y004881D01*
X004147Y005040D02*
X004222Y005040D01*
X004222Y005198D02*
X004147Y005198D01*
X004147Y005357D02*
X004222Y005357D01*
X004222Y005515D02*
X005592Y005515D01*
X005592Y005357D02*
X004717Y005357D01*
X004717Y005198D02*
X005592Y005198D01*
X005592Y005046D02*
X005676Y004842D01*
X005831Y004687D01*
X006034Y004603D01*
X006254Y004603D01*
X006457Y004687D01*
X006613Y004842D01*
X006697Y005046D01*
X006697Y005168D01*
X012524Y005168D01*
X012634Y005214D01*
X012719Y005298D01*
X012905Y005484D01*
X012923Y005502D01*
X012989Y005569D01*
X013003Y005583D01*
X013003Y005583D01*
X013064Y005730D01*
X013064Y006844D01*
X013288Y007068D01*
X020524Y007068D01*
X020634Y007114D01*
X020719Y007198D01*
X021034Y007514D01*
X021119Y007598D01*
X021164Y007708D01*
X021164Y010544D01*
X022034Y011414D01*
X022119Y011498D01*
X022164Y011608D01*
X022164Y012357D01*
X022254Y012447D01*
X022324Y012616D01*
X022324Y013319D01*
X022254Y013489D01*
X022164Y013578D01*
X022164Y013713D01*
X022302Y013713D01*
X022419Y013830D01*
X022419Y014568D01*
X022509Y014568D01*
X022509Y013830D01*
X022626Y013713D01*
X023422Y013713D01*
X023539Y013830D01*
X023539Y014469D01*
X023564Y014444D01*
X023564Y013578D01*
X023474Y013489D01*
X023404Y013319D01*
X023404Y012616D01*
X023474Y012447D01*
X023564Y012357D01*
X023564Y011192D01*
X023540Y011168D01*
X022904Y011168D01*
X022794Y011122D01*
X022710Y011038D01*
X022510Y010838D01*
X022464Y010728D01*
X022464Y010275D01*
X022340Y010151D01*
X022264Y009967D01*
X022264Y009169D01*
X022340Y008985D01*
X022481Y008844D01*
X022665Y008768D01*
X022864Y008768D01*
X023047Y008844D01*
X023464Y008844D01*
X023464Y008861D02*
X023464Y008508D01*
X023510Y008398D01*
X023594Y008314D01*
X023943Y007965D01*
X023943Y007965D01*
X024027Y007881D01*
X024138Y007835D01*
X030167Y007835D01*
X030167Y007776D01*
X030284Y007659D01*
X030844Y007659D01*
X030961Y007776D01*
X030961Y008493D01*
X030929Y008525D01*
X031218Y008525D01*
X031335Y008643D01*
X031335Y008728D01*
X031409Y008728D01*
X031409Y008630D01*
X031526Y008513D01*
X032402Y008513D01*
X032519Y008630D01*
X032519Y009426D01*
X032402Y009543D01*
X032264Y009543D01*
X032264Y013493D01*
X032402Y013493D01*
X032519Y013610D01*
X032519Y014288D01*
X033756Y014288D01*
X033804Y014268D01*
X033924Y014268D01*
X034034Y014314D01*
X034519Y014798D01*
X034564Y014908D01*
X034564Y017013D01*
X035222Y017013D01*
X035339Y017130D01*
X035339Y017268D01*
X035544Y017268D01*
X035944Y016868D01*
X036524Y016868D01*
X036934Y017278D01*
X036934Y017858D01*
X036564Y018228D01*
X036564Y025228D01*
X036519Y025338D01*
X035619Y026238D01*
X035534Y026322D01*
X035424Y026368D01*
X010304Y026368D01*
X010194Y026322D01*
X010110Y026238D01*
X009739Y025867D01*
X009725Y025853D01*
X009664Y025706D01*
X009664Y010408D01*
X009710Y010298D01*
X009794Y010214D01*
X010325Y009683D01*
X010435Y009637D01*
X010688Y009637D01*
X010781Y009544D01*
X010965Y009468D01*
X011764Y009468D01*
X011947Y009544D01*
X012088Y009685D01*
X012164Y009869D01*
X012164Y010067D01*
X012088Y010251D01*
X011947Y010392D01*
X011764Y010468D01*
X010965Y010468D01*
X010781Y010392D01*
X010640Y010251D01*
X010635Y010237D01*
X010619Y010237D01*
X010264Y010592D01*
X010264Y023168D01*
X010657Y023168D01*
X010781Y023044D01*
X010965Y022968D01*
X011764Y022968D01*
X011947Y023044D01*
X012071Y023168D01*
X014440Y023168D01*
X014764Y022844D01*
X014764Y015408D01*
X014810Y015298D01*
X014894Y015214D01*
X015410Y014698D01*
X015494Y014614D01*
X015604Y014568D01*
X016189Y014568D01*
X016189Y013830D01*
X016307Y013713D01*
X017102Y013713D01*
X017219Y013830D01*
X017219Y014568D01*
X017309Y014568D01*
X017309Y013830D01*
X017426Y013713D01*
X017564Y013713D01*
X017564Y013578D01*
X017474Y013489D01*
X017404Y013319D01*
X017404Y012616D01*
X017474Y012447D01*
X017564Y012357D01*
X017564Y008692D01*
X017340Y008468D01*
X008488Y008468D01*
X008364Y008592D01*
X008364Y012528D01*
X008319Y012638D01*
X008019Y012938D01*
X007934Y013022D01*
X007824Y013068D01*
X006697Y013068D01*
X006697Y013170D01*
X006613Y013373D01*
X006504Y013482D01*
X006504Y013888D01*
X006459Y013998D01*
X005964Y014492D01*
X005964Y015944D01*
X006334Y016314D01*
X006419Y016398D01*
X006464Y016508D01*
X006464Y016814D01*
X006613Y016962D01*
X006697Y017166D01*
X006697Y018090D01*
X006613Y018293D01*
X006457Y018449D01*
X006254Y018533D01*
X006034Y018533D01*
X005831Y018449D01*
X005676Y018293D01*
X005592Y018090D01*
X005592Y017166D01*
X005676Y016962D01*
X005831Y016807D01*
X005864Y016793D01*
X005864Y016692D01*
X005410Y016238D01*
X005364Y016128D01*
X005364Y014308D01*
X005410Y014198D01*
X005494Y014114D01*
X005904Y013704D01*
X005904Y013559D01*
X005831Y013529D01*
X005676Y013373D01*
X005592Y013170D01*
X005592Y012246D01*
X005676Y012042D01*
X005831Y011887D01*
X006034Y011803D01*
X006254Y011803D01*
X006457Y011887D01*
X006613Y012042D01*
X006697Y012246D01*
X006697Y012468D01*
X007640Y012468D01*
X007764Y012344D01*
X007764Y008408D01*
X007810Y008298D01*
X008194Y007914D01*
X008304Y007868D01*
X017524Y007868D01*
X017634Y007914D01*
X018119Y008398D01*
X018164Y008508D01*
X018164Y012357D01*
X018254Y012447D01*
X018324Y012616D01*
X018324Y013319D01*
X018254Y013489D01*
X018164Y013578D01*
X018164Y013713D01*
X018222Y013713D01*
X018339Y013830D01*
X018339Y014568D01*
X018389Y014568D01*
X018389Y013830D01*
X018507Y013713D01*
X018564Y013713D01*
X018564Y013578D01*
X018474Y013489D01*
X018404Y013319D01*
X018404Y012616D01*
X018474Y012447D01*
X018604Y012318D01*
X018773Y012248D01*
X018956Y012248D01*
X019125Y012318D01*
X019254Y012447D01*
X019324Y012616D01*
X019324Y013319D01*
X019254Y013489D01*
X019164Y013578D01*
X019164Y013713D01*
X019302Y013713D01*
X019419Y013830D01*
X019419Y014568D01*
X019509Y014568D01*
X019509Y013830D01*
X019626Y013713D01*
X020422Y013713D01*
X020539Y013830D01*
X020539Y014568D01*
X021389Y014568D01*
X021389Y013830D01*
X021507Y013713D01*
X021564Y013713D01*
X021564Y013578D01*
X021474Y013489D01*
X021404Y013319D01*
X021404Y012616D01*
X021474Y012447D01*
X021564Y012357D01*
X021564Y011792D01*
X020610Y010838D01*
X020564Y010728D01*
X020564Y007892D01*
X020340Y007668D01*
X013126Y007668D01*
X012979Y007607D01*
X012965Y007593D01*
X012965Y007593D01*
X012594Y007222D01*
X012510Y007138D01*
X012464Y007028D01*
X012464Y005892D01*
X012340Y005768D01*
X006697Y005768D01*
X006697Y005970D01*
X006613Y006173D01*
X006457Y006329D01*
X006444Y006334D01*
X006444Y006848D01*
X006399Y006958D01*
X005964Y007392D01*
X005964Y008644D01*
X006334Y009014D01*
X006419Y009098D01*
X006464Y009208D01*
X006464Y009614D01*
X006613Y009762D01*
X006697Y009966D01*
X006697Y010890D01*
X006613Y011093D01*
X006457Y011249D01*
X006254Y011333D01*
X006034Y011333D01*
X005831Y011249D01*
X005676Y011093D01*
X005592Y010890D01*
X005592Y009966D01*
X005676Y009762D01*
X005831Y009607D01*
X005864Y009593D01*
X005864Y009392D01*
X005410Y008938D01*
X005364Y008828D01*
X005364Y007208D01*
X005410Y007098D01*
X005494Y007014D01*
X005844Y006664D01*
X005844Y006334D01*
X005831Y006329D01*
X005676Y006173D01*
X005592Y005970D01*
X005592Y005046D01*
X005594Y005040D02*
X004705Y005040D01*
X004642Y004881D02*
X005660Y004881D01*
X005795Y004723D02*
X004495Y004723D01*
X003726Y004881D02*
X000644Y004881D01*
X000644Y005040D02*
X003663Y005040D01*
X003652Y005198D02*
X000644Y005198D01*
X000644Y005357D02*
X003652Y005357D01*
X003652Y005545D02*
X004147Y005545D01*
X004147Y006393D01*
X004142Y006393D01*
X004059Y006380D01*
X003980Y006354D01*
X003905Y006316D01*
X003837Y006267D01*
X003778Y006207D01*
X003729Y006140D01*
X003691Y006065D01*
X003665Y005985D01*
X003652Y005902D01*
X003652Y005545D01*
X003652Y005674D02*
X000644Y005674D01*
X000644Y005832D02*
X003652Y005832D01*
X003667Y005991D02*
X000644Y005991D01*
X000644Y006149D02*
X003736Y006149D01*
X003894Y006308D02*
X000644Y006308D01*
X000644Y006466D02*
X005844Y006466D01*
X005844Y006625D02*
X000644Y006625D01*
X000644Y006783D02*
X005724Y006783D01*
X005566Y006942D02*
X000644Y006942D01*
X000644Y007100D02*
X005409Y007100D01*
X005364Y007259D02*
X003864Y007259D01*
X003867Y007260D02*
X004102Y007495D01*
X004229Y007802D01*
X004229Y008134D01*
X004102Y008441D01*
X003867Y008676D01*
X003560Y008803D01*
X003228Y008803D01*
X002921Y008676D01*
X002686Y008441D01*
X002559Y008134D01*
X002559Y007802D01*
X002686Y007495D01*
X002921Y007260D01*
X003228Y007133D01*
X003560Y007133D01*
X003867Y007260D01*
X004025Y007417D02*
X005364Y007417D01*
X005364Y007576D02*
X004136Y007576D01*
X004201Y007734D02*
X005364Y007734D01*
X005364Y007893D02*
X004229Y007893D01*
X004229Y008051D02*
X005364Y008051D01*
X005364Y008210D02*
X004198Y008210D01*
X004132Y008368D02*
X005364Y008368D01*
X005364Y008527D02*
X004016Y008527D01*
X003844Y008685D02*
X005364Y008685D01*
X005371Y008844D02*
X000644Y008844D01*
X000644Y009002D02*
X005474Y009002D01*
X005633Y009161D02*
X000644Y009161D01*
X000644Y009319D02*
X005791Y009319D01*
X005864Y009478D02*
X000644Y009478D01*
X000644Y009636D02*
X003882Y009636D01*
X003905Y009620D02*
X003980Y009582D01*
X004059Y009556D01*
X004142Y009543D01*
X004147Y009543D01*
X004147Y010390D01*
X004222Y010390D01*
X004222Y010465D01*
X004717Y010465D01*
X004717Y010822D01*
X004704Y010905D01*
X004678Y010985D01*
X004640Y011060D01*
X004590Y011127D01*
X004531Y011187D01*
X004463Y011236D01*
X004389Y011274D01*
X004309Y011300D01*
X004226Y011313D01*
X004222Y011313D01*
X004222Y010465D01*
X004147Y010465D01*
X004147Y010390D01*
X003652Y010390D01*
X003652Y010034D01*
X003665Y009951D01*
X003691Y009871D01*
X003729Y009796D01*
X003778Y009729D01*
X003837Y009669D01*
X003905Y009620D01*
X004147Y009636D02*
X004222Y009636D01*
X004222Y009543D02*
X004226Y009543D01*
X004309Y009556D01*
X004389Y009582D01*
X004463Y009620D01*
X004531Y009669D01*
X004590Y009729D01*
X004640Y009796D01*
X004678Y009871D01*
X004704Y009951D01*
X004717Y010034D01*
X004717Y010390D01*
X004222Y010390D01*
X004222Y009543D01*
X004222Y009795D02*
X004147Y009795D01*
X004147Y009953D02*
X004222Y009953D01*
X004222Y010112D02*
X004147Y010112D01*
X004147Y010270D02*
X004222Y010270D01*
X004222Y010429D02*
X005592Y010429D01*
X005592Y010587D02*
X004717Y010587D01*
X004717Y010746D02*
X005592Y010746D01*
X005598Y010904D02*
X004704Y010904D01*
X004637Y011063D02*
X005663Y011063D01*
X005804Y011221D02*
X004483Y011221D01*
X004222Y011221D02*
X004147Y011221D01*
X004147Y011313D02*
X004142Y011313D01*
X004059Y011300D01*
X003980Y011274D01*
X003905Y011236D01*
X003837Y011187D01*
X003778Y011127D01*
X003729Y011060D01*
X003691Y010985D01*
X003665Y010905D01*
X003652Y010822D01*
X003652Y010465D01*
X004147Y010465D01*
X004147Y011313D01*
X004147Y011063D02*
X004222Y011063D01*
X004222Y010904D02*
X004147Y010904D01*
X004147Y010746D02*
X004222Y010746D01*
X004222Y010587D02*
X004147Y010587D01*
X004147Y010429D02*
X000644Y010429D01*
X000644Y010587D02*
X003652Y010587D01*
X003652Y010746D02*
X000644Y010746D01*
X000644Y010904D02*
X003665Y010904D01*
X003731Y011063D02*
X000644Y011063D01*
X000644Y011221D02*
X003885Y011221D01*
X004059Y011836D02*
X003980Y011862D01*
X003905Y011900D01*
X003837Y011949D01*
X003778Y012009D01*
X003729Y012076D01*
X003691Y012151D01*
X003665Y012231D01*
X003652Y012314D01*
X003652Y012670D01*
X004147Y012670D01*
X004222Y012670D01*
X004222Y012745D01*
X004717Y012745D01*
X004717Y013102D01*
X004704Y013185D01*
X004678Y013265D01*
X004640Y013340D01*
X004590Y013407D01*
X004531Y013467D01*
X004463Y013516D01*
X004389Y013554D01*
X004309Y013580D01*
X004226Y013593D01*
X004222Y013593D01*
X004222Y012745D01*
X004147Y012745D01*
X004147Y012670D01*
X004147Y011823D01*
X004142Y011823D01*
X004059Y011836D01*
X004000Y011855D02*
X000644Y011855D01*
X000644Y011697D02*
X007764Y011697D01*
X007764Y011855D02*
X006381Y011855D01*
X006584Y012014D02*
X007764Y012014D01*
X007764Y012172D02*
X006666Y012172D01*
X006697Y012331D02*
X007764Y012331D01*
X008364Y012331D02*
X009664Y012331D01*
X009664Y012489D02*
X008364Y012489D01*
X008308Y012648D02*
X009664Y012648D01*
X009664Y012806D02*
X008150Y012806D01*
X007991Y012965D02*
X009664Y012965D01*
X009664Y013123D02*
X006697Y013123D01*
X006650Y013282D02*
X009664Y013282D01*
X009664Y013440D02*
X006546Y013440D01*
X006504Y013599D02*
X009664Y013599D01*
X009664Y013757D02*
X006504Y013757D01*
X006492Y013916D02*
X009664Y013916D01*
X009664Y014074D02*
X006382Y014074D01*
X006223Y014233D02*
X009664Y014233D01*
X009664Y014391D02*
X007242Y014391D01*
X007100Y014333D02*
X007407Y014460D01*
X007642Y014695D01*
X007769Y015002D01*
X007769Y015334D01*
X007642Y015641D01*
X007407Y015876D01*
X007100Y016003D01*
X006768Y016003D01*
X006461Y015876D01*
X006226Y015641D01*
X006099Y015334D01*
X006099Y015002D01*
X006226Y014695D01*
X006461Y014460D01*
X006768Y014333D01*
X007100Y014333D01*
X007497Y014550D02*
X009664Y014550D01*
X009664Y014708D02*
X007648Y014708D01*
X007713Y014867D02*
X009664Y014867D01*
X009664Y015025D02*
X007769Y015025D01*
X007769Y015184D02*
X009664Y015184D01*
X009664Y015342D02*
X007766Y015342D01*
X007700Y015501D02*
X009664Y015501D01*
X009664Y015659D02*
X007624Y015659D01*
X007465Y015818D02*
X009664Y015818D01*
X009664Y015976D02*
X007164Y015976D01*
X006704Y015976D02*
X005997Y015976D01*
X005964Y015818D02*
X006403Y015818D01*
X006245Y015659D02*
X005964Y015659D01*
X005964Y015501D02*
X006168Y015501D01*
X006103Y015342D02*
X005964Y015342D01*
X005964Y015184D02*
X006099Y015184D01*
X006099Y015025D02*
X005964Y015025D01*
X005964Y014867D02*
X006155Y014867D01*
X006221Y014708D02*
X005964Y014708D01*
X005964Y014550D02*
X006371Y014550D01*
X006627Y014391D02*
X006065Y014391D01*
X005692Y013916D02*
X000644Y013916D01*
X000644Y014074D02*
X005533Y014074D01*
X005395Y014233D02*
X000644Y014233D01*
X000644Y014391D02*
X003087Y014391D01*
X003228Y014333D02*
X002921Y014460D01*
X002686Y014695D01*
X002559Y015002D01*
X002559Y015334D01*
X002686Y015641D01*
X002921Y015876D01*
X003228Y016003D01*
X003560Y016003D01*
X003867Y015876D01*
X004102Y015641D01*
X004229Y015334D01*
X004229Y015002D01*
X004102Y014695D01*
X003867Y014460D01*
X003560Y014333D01*
X003228Y014333D01*
X002831Y014550D02*
X000644Y014550D01*
X000644Y014708D02*
X002681Y014708D01*
X002615Y014867D02*
X000644Y014867D01*
X000644Y015025D02*
X002559Y015025D01*
X002559Y015184D02*
X000644Y015184D01*
X000644Y015342D02*
X002563Y015342D01*
X002628Y015501D02*
X000644Y015501D01*
X000644Y015659D02*
X002705Y015659D01*
X002863Y015818D02*
X000644Y015818D01*
X000644Y015976D02*
X003164Y015976D01*
X003624Y015976D02*
X005364Y015976D01*
X005364Y015818D02*
X003925Y015818D01*
X004084Y015659D02*
X005364Y015659D01*
X005364Y015501D02*
X004160Y015501D01*
X004226Y015342D02*
X005364Y015342D01*
X005364Y015184D02*
X004229Y015184D01*
X004229Y015025D02*
X005364Y015025D01*
X005364Y014867D02*
X004173Y014867D01*
X004108Y014708D02*
X005364Y014708D01*
X005364Y014550D02*
X003957Y014550D01*
X003702Y014391D02*
X005364Y014391D01*
X005850Y013757D02*
X000644Y013757D01*
X000644Y013599D02*
X005904Y013599D01*
X005743Y013440D02*
X004557Y013440D01*
X004669Y013282D02*
X005638Y013282D01*
X005592Y013123D02*
X004713Y013123D01*
X004717Y012965D02*
X005592Y012965D01*
X005592Y012806D02*
X004717Y012806D01*
X004717Y012670D02*
X004222Y012670D01*
X004222Y011823D01*
X004226Y011823D01*
X004309Y011836D01*
X004389Y011862D01*
X004463Y011900D01*
X004531Y011949D01*
X004590Y012009D01*
X004640Y012076D01*
X004678Y012151D01*
X004704Y012231D01*
X004717Y012314D01*
X004717Y012670D01*
X004717Y012648D02*
X005592Y012648D01*
X005592Y012489D02*
X004717Y012489D01*
X004717Y012331D02*
X005592Y012331D01*
X005622Y012172D02*
X004685Y012172D01*
X004594Y012014D02*
X005704Y012014D01*
X005907Y011855D02*
X004369Y011855D01*
X004222Y011855D02*
X004147Y011855D01*
X004147Y012014D02*
X004222Y012014D01*
X004222Y012172D02*
X004147Y012172D01*
X004147Y012331D02*
X004222Y012331D01*
X004222Y012489D02*
X004147Y012489D01*
X004147Y012648D02*
X004222Y012648D01*
X004147Y012745D02*
X003652Y012745D01*
X003652Y013102D01*
X003665Y013185D01*
X003691Y013265D01*
X003729Y013340D01*
X003778Y013407D01*
X003837Y013467D01*
X003905Y013516D01*
X003980Y013554D01*
X004059Y013580D01*
X004142Y013593D01*
X004147Y013593D01*
X004147Y012745D01*
X004147Y012806D02*
X004222Y012806D01*
X004222Y012965D02*
X004147Y012965D01*
X004147Y013123D02*
X004222Y013123D01*
X004222Y013282D02*
X004147Y013282D01*
X004147Y013440D02*
X004222Y013440D01*
X003811Y013440D02*
X000644Y013440D01*
X000644Y013282D02*
X003699Y013282D01*
X003655Y013123D02*
X000644Y013123D01*
X000644Y012965D02*
X003652Y012965D01*
X003652Y012806D02*
X000644Y012806D01*
X000644Y012648D02*
X003652Y012648D01*
X003652Y012489D02*
X000644Y012489D01*
X000644Y012331D02*
X003652Y012331D01*
X003684Y012172D02*
X000644Y012172D01*
X000644Y012014D02*
X003774Y012014D01*
X003652Y010270D02*
X000644Y010270D01*
X000644Y010112D02*
X003652Y010112D01*
X003664Y009953D02*
X000644Y009953D01*
X000644Y009795D02*
X003730Y009795D01*
X004486Y009636D02*
X005802Y009636D01*
X005662Y009795D02*
X004639Y009795D01*
X004704Y009953D02*
X005597Y009953D01*
X005592Y010112D02*
X004717Y010112D01*
X004717Y010270D02*
X005592Y010270D01*
X006487Y009636D02*
X007764Y009636D01*
X007764Y009478D02*
X006464Y009478D01*
X006464Y009319D02*
X007764Y009319D01*
X007764Y009161D02*
X006445Y009161D01*
X006323Y009002D02*
X007764Y009002D01*
X007764Y008844D02*
X006164Y008844D01*
X006006Y008685D02*
X006484Y008685D01*
X006461Y008676D02*
X006226Y008441D01*
X006099Y008134D01*
X006099Y007802D01*
X006226Y007495D01*
X006461Y007260D01*
X006768Y007133D01*
X007100Y007133D01*
X007407Y007260D01*
X007642Y007495D01*
X007769Y007802D01*
X007769Y008134D01*
X007642Y008441D01*
X007407Y008676D01*
X007100Y008803D01*
X006768Y008803D01*
X006461Y008676D01*
X006312Y008527D02*
X005964Y008527D01*
X005964Y008368D02*
X006196Y008368D01*
X006131Y008210D02*
X005964Y008210D01*
X005964Y008051D02*
X006099Y008051D01*
X006099Y007893D02*
X005964Y007893D01*
X005964Y007734D02*
X006127Y007734D01*
X006193Y007576D02*
X005964Y007576D01*
X005964Y007417D02*
X006304Y007417D01*
X006464Y007259D02*
X006097Y007259D01*
X006256Y007100D02*
X012494Y007100D01*
X012464Y006942D02*
X006405Y006942D01*
X006444Y006783D02*
X012464Y006783D01*
X012464Y006625D02*
X006444Y006625D01*
X006444Y006466D02*
X012464Y006466D01*
X012464Y006308D02*
X006478Y006308D01*
X006622Y006149D02*
X012464Y006149D01*
X012464Y005991D02*
X006688Y005991D01*
X006697Y005832D02*
X012404Y005832D01*
X012777Y005357D02*
X013404Y005357D01*
X013404Y005515D02*
X012936Y005515D01*
X012905Y005484D02*
X012905Y005484D01*
X012989Y005569D02*
X012989Y005569D01*
X013041Y005674D02*
X013404Y005674D01*
X013404Y005819D02*
X013474Y005989D01*
X013604Y006118D01*
X013773Y006188D01*
X013956Y006188D01*
X014125Y006118D01*
X014254Y005989D01*
X014324Y005819D01*
X014324Y005116D01*
X014254Y004947D01*
X014125Y004818D01*
X013956Y004748D01*
X013773Y004748D01*
X013604Y004818D01*
X013474Y004947D01*
X013404Y005116D01*
X013404Y005819D01*
X013410Y005832D02*
X013064Y005832D01*
X013064Y005991D02*
X013477Y005991D01*
X013680Y006149D02*
X013064Y006149D01*
X013064Y006308D02*
X014564Y006308D01*
X014564Y006328D02*
X014564Y006208D01*
X014564Y006078D01*
X014474Y005989D01*
X014404Y005819D01*
X014404Y005116D01*
X014474Y004947D01*
X014604Y004818D01*
X014773Y004748D01*
X014956Y004748D01*
X015125Y004818D01*
X015254Y004947D01*
X015324Y005116D01*
X015324Y005819D01*
X015254Y005989D01*
X015164Y006078D01*
X015164Y006144D01*
X015388Y006368D01*
X030340Y006368D01*
X030564Y006144D01*
X030564Y006078D01*
X030474Y005989D01*
X030404Y005819D01*
X030404Y005116D01*
X030474Y004947D01*
X030604Y004818D01*
X030773Y004748D01*
X030956Y004748D01*
X031125Y004818D01*
X031254Y004947D01*
X031324Y005116D01*
X031324Y005819D01*
X031254Y005989D01*
X031164Y006078D01*
X031164Y006328D01*
X031119Y006438D01*
X031034Y006522D01*
X030634Y006922D01*
X030524Y006968D01*
X015204Y006968D01*
X015094Y006922D01*
X014610Y006438D01*
X014564Y006328D01*
X014638Y006466D02*
X013064Y006466D01*
X013064Y006625D02*
X014797Y006625D01*
X014955Y006783D02*
X013064Y006783D01*
X013162Y006942D02*
X015142Y006942D01*
X015328Y006308D02*
X030400Y006308D01*
X030558Y006149D02*
X022340Y006149D01*
X022347Y006143D02*
X022265Y006224D01*
X022159Y006268D01*
X021696Y006268D01*
X021590Y006224D01*
X021508Y006143D01*
X021464Y006036D01*
X021464Y005921D01*
X021508Y005814D01*
X021590Y005733D01*
X021638Y005713D01*
X021638Y005400D01*
X021682Y005294D01*
X021763Y005212D01*
X021870Y005168D01*
X021985Y005168D01*
X022092Y005212D01*
X022174Y005294D01*
X022193Y005340D01*
X022321Y005212D01*
X022428Y005168D01*
X022717Y005168D01*
X022769Y005190D01*
X022797Y005120D01*
X022879Y005039D01*
X022986Y004994D01*
X023101Y004994D01*
X023208Y005039D01*
X023289Y005120D01*
X023309Y005168D01*
X023361Y005168D01*
X023451Y005205D01*
X023468Y005212D01*
X023549Y005294D01*
X023555Y005299D01*
X023635Y005379D01*
X023636Y005380D01*
X023636Y005380D01*
X023654Y005424D01*
X023680Y005487D01*
X023680Y005776D01*
X023636Y005882D01*
X023555Y005964D01*
X023468Y006051D01*
X023361Y006095D01*
X022986Y006095D01*
X022879Y006051D01*
X022851Y006023D01*
X022823Y006051D01*
X022717Y006095D01*
X022428Y006095D01*
X022376Y006073D01*
X022347Y006143D01*
X021515Y006149D02*
X016049Y006149D01*
X016252Y005991D02*
X021464Y005991D01*
X021501Y005832D02*
X016319Y005832D01*
X016324Y005674D02*
X021638Y005674D01*
X021638Y005515D02*
X016324Y005515D01*
X016324Y005357D02*
X021656Y005357D01*
X021796Y005198D02*
X016324Y005198D01*
X016292Y005040D02*
X022878Y005040D01*
X023209Y005040D02*
X030436Y005040D01*
X030404Y005198D02*
X023435Y005198D01*
X023468Y005212D02*
X023468Y005212D01*
X023468Y005212D01*
X023555Y005299D02*
X023555Y005299D01*
X023613Y005357D02*
X030404Y005357D01*
X030404Y005515D02*
X023680Y005515D01*
X023680Y005674D02*
X030404Y005674D01*
X030410Y005832D02*
X023657Y005832D01*
X023528Y005991D02*
X030477Y005991D01*
X031164Y006149D02*
X031680Y006149D01*
X031477Y005991D02*
X031252Y005991D01*
X031319Y005832D02*
X031410Y005832D01*
X031404Y005674D02*
X031324Y005674D01*
X031324Y005515D02*
X031404Y005515D01*
X031404Y005357D02*
X031324Y005357D01*
X031324Y005198D02*
X031404Y005198D01*
X031436Y005040D02*
X031292Y005040D01*
X031188Y004881D02*
X031540Y004881D01*
X031564Y004723D02*
X016164Y004723D01*
X016164Y004564D02*
X031564Y004564D01*
X031564Y004406D02*
X016250Y004406D01*
X016188Y004881D02*
X030540Y004881D01*
X031164Y006308D02*
X039448Y006308D01*
X039448Y006466D02*
X031090Y006466D01*
X030931Y006625D02*
X039448Y006625D01*
X039448Y006783D02*
X030773Y006783D01*
X030587Y006942D02*
X039448Y006942D01*
X039448Y007100D02*
X020602Y007100D01*
X020719Y007198D02*
X020719Y007198D01*
X020779Y007259D02*
X039448Y007259D01*
X039448Y007417D02*
X032359Y007417D01*
X032343Y007413D02*
X032389Y007425D01*
X032430Y007449D01*
X032463Y007483D01*
X032487Y007524D01*
X032499Y007569D01*
X032499Y007831D01*
X032042Y007831D01*
X032042Y007986D01*
X031887Y007986D01*
X031887Y008403D01*
X031586Y008403D01*
X031540Y008391D01*
X031499Y008367D01*
X031465Y008334D01*
X031442Y008293D01*
X031429Y008247D01*
X031429Y007986D01*
X031887Y007986D01*
X031887Y007831D01*
X031429Y007831D01*
X031429Y007569D01*
X031442Y007524D01*
X031465Y007483D01*
X031499Y007449D01*
X031540Y007425D01*
X031586Y007413D01*
X031887Y007413D01*
X031887Y007831D01*
X032042Y007831D01*
X032042Y007413D01*
X032343Y007413D01*
X032499Y007576D02*
X039448Y007576D01*
X039448Y007734D02*
X032499Y007734D01*
X032499Y007986D02*
X032042Y007986D01*
X032042Y008403D01*
X032343Y008403D01*
X032389Y008391D01*
X032430Y008367D01*
X032463Y008334D01*
X032487Y008293D01*
X032499Y008247D01*
X032499Y007986D01*
X032499Y008051D02*
X039448Y008051D01*
X039448Y007893D02*
X032042Y007893D01*
X031887Y007893D02*
X030961Y007893D01*
X030961Y008051D02*
X031429Y008051D01*
X031429Y008210D02*
X030961Y008210D01*
X030961Y008368D02*
X031501Y008368D01*
X031512Y008527D02*
X031219Y008527D01*
X031335Y008685D02*
X031409Y008685D01*
X031887Y008368D02*
X032042Y008368D01*
X032042Y008210D02*
X031887Y008210D01*
X031887Y008051D02*
X032042Y008051D01*
X032042Y007734D02*
X031887Y007734D01*
X031887Y007576D02*
X032042Y007576D01*
X032042Y007417D02*
X031887Y007417D01*
X031569Y007417D02*
X020938Y007417D01*
X021096Y007576D02*
X031429Y007576D01*
X031429Y007734D02*
X030919Y007734D01*
X030209Y007734D02*
X021164Y007734D01*
X021164Y007893D02*
X024015Y007893D01*
X023856Y008051D02*
X021164Y008051D01*
X021164Y008210D02*
X023698Y008210D01*
X023539Y008368D02*
X021164Y008368D01*
X021164Y008527D02*
X023464Y008527D01*
X023464Y008685D02*
X021164Y008685D01*
X021164Y008844D02*
X022481Y008844D01*
X022333Y009002D02*
X021164Y009002D01*
X021164Y009161D02*
X022267Y009161D01*
X022264Y009319D02*
X021164Y009319D01*
X021164Y009478D02*
X022264Y009478D01*
X022264Y009636D02*
X021164Y009636D01*
X021164Y009795D02*
X022264Y009795D01*
X022264Y009953D02*
X021164Y009953D01*
X021164Y010112D02*
X022324Y010112D01*
X022460Y010270D02*
X021164Y010270D01*
X021164Y010429D02*
X022464Y010429D01*
X022464Y010587D02*
X021208Y010587D01*
X021366Y010746D02*
X022472Y010746D01*
X022576Y010904D02*
X021525Y010904D01*
X021683Y011063D02*
X022735Y011063D01*
X022135Y011538D02*
X023564Y011538D01*
X023564Y011380D02*
X022000Y011380D01*
X021842Y011221D02*
X023564Y011221D01*
X023966Y010746D02*
X025564Y010746D01*
X025564Y010904D02*
X024121Y010904D01*
X024119Y010898D02*
X024164Y011008D01*
X024164Y012357D01*
X024254Y012447D01*
X024324Y012616D01*
X024324Y013319D01*
X024254Y013489D01*
X024164Y013578D01*
X024164Y013968D01*
X024889Y013968D01*
X024889Y013830D01*
X025007Y013713D01*
X025802Y013713D01*
X025919Y013830D01*
X025919Y014706D01*
X025802Y014823D01*
X025007Y014823D01*
X024889Y014706D01*
X024889Y014568D01*
X024164Y014568D01*
X024164Y014628D01*
X024119Y014738D01*
X023734Y015122D01*
X023624Y015168D01*
X015788Y015168D01*
X015663Y015293D01*
X015773Y015248D01*
X015956Y015248D01*
X016125Y015318D01*
X016254Y015447D01*
X016324Y015616D01*
X016324Y016319D01*
X016254Y016489D01*
X016125Y016618D01*
X015956Y016688D01*
X015773Y016688D01*
X015604Y016618D01*
X015474Y016489D01*
X015404Y016319D01*
X015404Y015616D01*
X015450Y015507D01*
X015364Y015592D01*
X015364Y023028D01*
X015319Y023138D01*
X014819Y023638D01*
X014734Y023722D01*
X014624Y023768D01*
X014004Y023768D01*
X014125Y023818D01*
X014254Y023947D01*
X014324Y024116D01*
X014324Y024819D01*
X014254Y024989D01*
X014125Y025118D01*
X013956Y025188D01*
X013773Y025188D01*
X013604Y025118D01*
X013474Y024989D01*
X013404Y024819D01*
X013404Y024116D01*
X013474Y023947D01*
X013604Y023818D01*
X013724Y023768D01*
X012071Y023768D01*
X011947Y023892D01*
X011764Y023968D01*
X011947Y024044D01*
X012088Y024185D01*
X012164Y024369D01*
X012164Y024567D01*
X012088Y024751D01*
X011947Y024892D01*
X011764Y024968D01*
X010965Y024968D01*
X010781Y024892D01*
X010640Y024751D01*
X010564Y024567D01*
X010564Y024369D01*
X010640Y024185D01*
X010781Y024044D01*
X010965Y023968D01*
X011764Y023968D01*
X010965Y023968D01*
X010781Y023892D01*
X010657Y023768D01*
X010264Y023768D01*
X010264Y025544D01*
X010488Y025768D01*
X019564Y025768D01*
X019564Y025078D01*
X019474Y024989D01*
X019404Y024819D01*
X019404Y024768D01*
X019324Y024768D01*
X019324Y024819D01*
X019254Y024989D01*
X019125Y025118D01*
X018956Y025188D01*
X018773Y025188D01*
X018604Y025118D01*
X018474Y024989D01*
X018404Y024819D01*
X018404Y024116D01*
X018474Y023947D01*
X018604Y023818D01*
X018773Y023748D01*
X018956Y023748D01*
X019125Y023818D01*
X019254Y023947D01*
X019324Y024116D01*
X019324Y024168D01*
X019404Y024168D01*
X019404Y024116D01*
X019474Y023947D01*
X019604Y023818D01*
X019773Y023748D01*
X019956Y023748D01*
X020125Y023818D01*
X020254Y023947D01*
X020324Y024116D01*
X020324Y024819D01*
X020254Y024989D01*
X020164Y025078D01*
X020164Y025768D01*
X035240Y025768D01*
X035964Y025044D01*
X035964Y018268D01*
X035944Y018268D01*
X035544Y017868D01*
X035339Y017868D01*
X035339Y018006D01*
X035222Y018123D01*
X034564Y018123D01*
X034564Y021928D01*
X034519Y022038D01*
X033834Y022722D01*
X033724Y022768D01*
X018388Y022768D01*
X018164Y022992D01*
X018164Y023857D01*
X018254Y023947D01*
X018324Y024116D01*
X018324Y024819D01*
X018254Y024989D01*
X018125Y025118D01*
X017956Y025188D01*
X017773Y025188D01*
X017604Y025118D01*
X017474Y024989D01*
X017404Y024819D01*
X017404Y024116D01*
X017474Y023947D01*
X017564Y023857D01*
X017564Y022830D01*
X017625Y022683D01*
X017625Y022683D01*
X017639Y022669D01*
X017639Y022669D01*
X018010Y022298D01*
X018094Y022214D01*
X018204Y022168D01*
X033540Y022168D01*
X033964Y021744D01*
X033964Y018123D01*
X033307Y018123D01*
X033189Y018006D01*
X033189Y017868D01*
X032984Y017868D01*
X032584Y018268D01*
X032564Y018268D01*
X032564Y020428D01*
X032519Y020538D01*
X032434Y020622D01*
X031934Y021122D01*
X031824Y021168D01*
X023553Y021168D01*
X023456Y021265D01*
X022739Y021265D01*
X022707Y021233D01*
X022707Y021522D01*
X022590Y021639D01*
X021873Y021639D01*
X021756Y021522D01*
X021756Y021468D01*
X021304Y021468D01*
X021194Y021422D01*
X020610Y020838D01*
X020564Y020728D01*
X020564Y019143D01*
X020426Y019143D01*
X020309Y019026D01*
X020309Y018230D01*
X020426Y018113D01*
X021302Y018113D01*
X021419Y018230D01*
X021419Y019026D01*
X021302Y019143D01*
X021164Y019143D01*
X021164Y020544D01*
X021488Y020868D01*
X021850Y020868D01*
X021869Y020849D01*
X021845Y020835D01*
X021811Y020801D01*
X021788Y020760D01*
X021776Y020714D01*
X021776Y020512D01*
X022213Y020512D01*
X022213Y020476D01*
X021776Y020476D01*
X021776Y020273D01*
X021788Y020228D01*
X021811Y020187D01*
X021845Y020153D01*
X021886Y020129D01*
X021932Y020117D01*
X022213Y020117D01*
X022213Y020476D01*
X022250Y020476D01*
X022250Y020512D01*
X022687Y020512D01*
X022687Y020523D01*
X022739Y020471D01*
X023456Y020471D01*
X023553Y020568D01*
X031640Y020568D01*
X031964Y020244D01*
X031964Y018228D01*
X031594Y017858D01*
X031594Y017278D01*
X032004Y016868D01*
X032584Y016868D01*
X032984Y017268D01*
X033189Y017268D01*
X033189Y017130D01*
X033307Y017013D01*
X033964Y017013D01*
X033964Y015092D01*
X033720Y014848D01*
X032519Y014848D01*
X032519Y015526D01*
X032402Y015643D01*
X031526Y015643D01*
X031409Y015526D01*
X031409Y015468D01*
X030788Y015468D01*
X030464Y015792D01*
X030464Y018828D01*
X030419Y018938D01*
X030334Y019022D01*
X029834Y019522D01*
X029724Y019568D01*
X024404Y019568D01*
X024294Y019522D01*
X024210Y019438D01*
X023610Y018838D01*
X023564Y018728D01*
X023564Y016578D01*
X023474Y016489D01*
X023404Y016319D01*
X023404Y015616D01*
X023474Y015447D01*
X023604Y015318D01*
X023773Y015248D01*
X023956Y015248D01*
X024125Y015318D01*
X024254Y015447D01*
X024324Y015616D01*
X024324Y016319D01*
X024254Y016489D01*
X024164Y016578D01*
X024164Y018544D01*
X024588Y018968D01*
X029540Y018968D01*
X029864Y018644D01*
X029864Y015608D01*
X029910Y015498D01*
X030410Y014998D01*
X030494Y014914D01*
X030604Y014868D01*
X031409Y014868D01*
X031409Y014848D01*
X028472Y014848D01*
X028424Y014868D01*
X028304Y014868D01*
X028194Y014822D01*
X027610Y014238D01*
X027564Y014128D01*
X027564Y013578D01*
X027474Y013489D01*
X027404Y013319D01*
X027404Y012616D01*
X027474Y012447D01*
X027604Y012318D01*
X027773Y012248D01*
X027956Y012248D01*
X028125Y012318D01*
X028254Y012447D01*
X028324Y012616D01*
X028324Y013319D01*
X028254Y013489D01*
X028164Y013578D01*
X028164Y013944D01*
X028508Y014288D01*
X031409Y014288D01*
X031409Y013610D01*
X031526Y013493D01*
X031664Y013493D01*
X031664Y009543D01*
X031526Y009543D01*
X031409Y009426D01*
X031409Y009328D01*
X031335Y009328D01*
X031335Y009359D01*
X031218Y009477D01*
X030658Y009477D01*
X030545Y009363D01*
X030531Y009387D01*
X030498Y009421D01*
X030456Y009444D01*
X030411Y009457D01*
X030209Y009457D01*
X030209Y009019D01*
X030172Y009019D01*
X030172Y008983D01*
X029813Y008983D01*
X029813Y008702D01*
X029826Y008656D01*
X029849Y008615D01*
X029883Y008581D01*
X029924Y008558D01*
X029970Y008545D01*
X030172Y008545D01*
X030172Y008983D01*
X030209Y008983D01*
X030209Y008545D01*
X030219Y008545D01*
X030167Y008493D01*
X030167Y008435D01*
X024322Y008435D01*
X024064Y008692D01*
X024064Y008861D01*
X024188Y008985D01*
X024264Y009169D01*
X024340Y008985D01*
X024481Y008844D01*
X024665Y008768D01*
X024864Y008768D01*
X025047Y008844D01*
X025481Y008844D01*
X025665Y008768D01*
X025864Y008768D01*
X026047Y008844D01*
X026481Y008844D01*
X026665Y008768D01*
X026864Y008768D01*
X027047Y008844D01*
X027481Y008844D01*
X027665Y008768D01*
X027864Y008768D01*
X028047Y008844D01*
X029813Y008844D01*
X029818Y008685D02*
X024071Y008685D01*
X024064Y008844D02*
X024481Y008844D01*
X024333Y009002D02*
X024195Y009002D01*
X024261Y009161D02*
X024267Y009161D01*
X024264Y009169D02*
X024264Y009967D01*
X024188Y010151D01*
X024047Y010292D01*
X023864Y010368D01*
X023665Y010368D01*
X023481Y010292D01*
X023340Y010151D01*
X023264Y009967D01*
X023188Y010151D01*
X023064Y010275D01*
X023064Y010544D01*
X023088Y010568D01*
X023724Y010568D01*
X023834Y010614D01*
X024034Y010814D01*
X024119Y010898D01*
X024164Y011063D02*
X025564Y011063D01*
X025564Y011221D02*
X024164Y011221D01*
X024164Y011380D02*
X025564Y011380D01*
X025564Y011538D02*
X024164Y011538D01*
X024164Y011697D02*
X025564Y011697D01*
X025564Y011855D02*
X024164Y011855D01*
X024164Y012014D02*
X025564Y012014D01*
X025564Y012172D02*
X024164Y012172D01*
X024164Y012331D02*
X024635Y012331D01*
X024634Y012332D02*
X024695Y012300D01*
X024761Y012279D01*
X024830Y012268D01*
X024864Y012268D01*
X024864Y012968D01*
X024864Y012968D01*
X024424Y012968D01*
X024424Y013263D01*
X024435Y013331D01*
X024456Y013397D01*
X024488Y013459D01*
X024529Y013515D01*
X024578Y013564D01*
X024634Y013604D01*
X024695Y013636D01*
X024761Y013657D01*
X024830Y013668D01*
X024864Y013668D01*
X024864Y012968D01*
X024424Y012968D01*
X024424Y012673D01*
X024435Y012605D01*
X024456Y012539D01*
X024488Y012477D01*
X024529Y012421D01*
X024578Y012372D01*
X024634Y012332D01*
X024482Y012489D02*
X024272Y012489D01*
X024324Y012648D02*
X024428Y012648D01*
X024424Y012806D02*
X024324Y012806D01*
X024324Y012965D02*
X024424Y012965D01*
X024424Y013123D02*
X024324Y013123D01*
X024324Y013282D02*
X024427Y013282D01*
X024479Y013440D02*
X024274Y013440D01*
X024164Y013599D02*
X024626Y013599D01*
X024864Y013599D02*
X024864Y013599D01*
X024864Y013668D02*
X024864Y012968D01*
X024864Y012968D01*
X024864Y012968D01*
X024864Y012268D01*
X024899Y012268D01*
X024967Y012279D01*
X025033Y012300D01*
X025095Y012332D01*
X025151Y012372D01*
X025200Y012421D01*
X025240Y012477D01*
X025272Y012539D01*
X025293Y012605D01*
X025304Y012673D01*
X025304Y012968D01*
X025304Y013263D01*
X025293Y013331D01*
X025272Y013397D01*
X025240Y013459D01*
X025200Y013515D01*
X025151Y013564D01*
X025095Y013604D01*
X025033Y013636D01*
X024967Y013657D01*
X024899Y013668D01*
X024864Y013668D01*
X024962Y013757D02*
X024164Y013757D01*
X024164Y013916D02*
X024889Y013916D01*
X025102Y013599D02*
X025585Y013599D01*
X025604Y013618D02*
X025474Y013489D01*
X025404Y013319D01*
X025404Y012616D01*
X025474Y012447D01*
X025564Y012357D01*
X025564Y010326D01*
X025481Y010292D01*
X025340Y010151D01*
X025264Y009967D01*
X025188Y010151D01*
X025047Y010292D01*
X024864Y010368D01*
X024665Y010368D01*
X024481Y010292D01*
X024340Y010151D01*
X024264Y009967D01*
X024264Y009169D01*
X024264Y009319D02*
X024264Y009319D01*
X024264Y009478D02*
X024264Y009478D01*
X024264Y009636D02*
X024264Y009636D01*
X024264Y009795D02*
X024264Y009795D01*
X024264Y009953D02*
X024264Y009953D01*
X024204Y010112D02*
X024324Y010112D01*
X024460Y010270D02*
X024069Y010270D01*
X023771Y010587D02*
X025564Y010587D01*
X025564Y010429D02*
X023064Y010429D01*
X023069Y010270D02*
X023460Y010270D01*
X023324Y010112D02*
X023204Y010112D01*
X023264Y009967D02*
X023264Y009169D01*
X023188Y008985D01*
X023047Y008844D01*
X023195Y009002D02*
X023333Y009002D01*
X023340Y008985D02*
X023464Y008861D01*
X023340Y008985D02*
X023264Y009169D01*
X023264Y009967D01*
X023264Y009953D02*
X023264Y009953D01*
X023264Y009795D02*
X023264Y009795D01*
X023264Y009636D02*
X023264Y009636D01*
X023264Y009478D02*
X023264Y009478D01*
X023264Y009319D02*
X023264Y009319D01*
X023261Y009161D02*
X023267Y009161D01*
X024229Y008527D02*
X030201Y008527D01*
X030209Y008685D02*
X030172Y008685D01*
X030172Y008844D02*
X030209Y008844D01*
X030172Y009002D02*
X028195Y009002D01*
X028188Y008985D02*
X028264Y009169D01*
X028264Y009967D01*
X028188Y010151D01*
X028047Y010292D01*
X027864Y010368D01*
X027665Y010368D01*
X027481Y010292D01*
X027340Y010151D01*
X027264Y009967D01*
X027188Y010151D01*
X027164Y010175D01*
X027164Y012357D01*
X027254Y012447D01*
X027324Y012616D01*
X027324Y013319D01*
X027254Y013489D01*
X027125Y013618D01*
X026956Y013688D01*
X026773Y013688D01*
X026604Y013618D01*
X026474Y013489D01*
X026404Y013319D01*
X026404Y012616D01*
X026474Y012447D01*
X026564Y012357D01*
X026564Y010326D01*
X026481Y010292D01*
X026340Y010151D01*
X026264Y009967D01*
X026188Y010151D01*
X026164Y010175D01*
X026164Y012357D01*
X026254Y012447D01*
X026324Y012616D01*
X026324Y013319D01*
X026254Y013489D01*
X026125Y013618D01*
X025956Y013688D01*
X025773Y013688D01*
X025604Y013618D01*
X025454Y013440D02*
X025250Y013440D01*
X025301Y013282D02*
X025404Y013282D01*
X025404Y013123D02*
X025304Y013123D01*
X025304Y012968D02*
X024864Y012968D01*
X024864Y012968D01*
X025304Y012968D01*
X025304Y012965D02*
X025404Y012965D01*
X025404Y012806D02*
X025304Y012806D01*
X025300Y012648D02*
X025404Y012648D01*
X025457Y012489D02*
X025247Y012489D01*
X025093Y012331D02*
X025564Y012331D01*
X024864Y012331D02*
X024864Y012331D01*
X024864Y012489D02*
X024864Y012489D01*
X024864Y012648D02*
X024864Y012648D01*
X024864Y012806D02*
X024864Y012806D01*
X024864Y012965D02*
X024864Y012965D01*
X024864Y013123D02*
X024864Y013123D01*
X024864Y013282D02*
X024864Y013282D01*
X024864Y013440D02*
X024864Y013440D01*
X025847Y013757D02*
X026082Y013757D01*
X026126Y013713D02*
X026922Y013713D01*
X027039Y013830D01*
X027039Y013968D01*
X027124Y013968D01*
X027234Y014014D01*
X027319Y014098D01*
X028034Y014814D01*
X028119Y014898D01*
X028164Y015008D01*
X028164Y015357D01*
X028254Y015447D01*
X028324Y015616D01*
X028324Y016319D01*
X028254Y016489D01*
X028125Y016618D01*
X027956Y016688D01*
X027773Y016688D01*
X027604Y016618D01*
X027474Y016489D01*
X027404Y016319D01*
X027404Y015616D01*
X027474Y015447D01*
X027564Y015357D01*
X027564Y015192D01*
X027039Y014667D01*
X027039Y014706D01*
X026922Y014823D01*
X026126Y014823D01*
X026009Y014706D01*
X026009Y013830D01*
X026126Y013713D01*
X026144Y013599D02*
X026585Y013599D01*
X026454Y013440D02*
X026274Y013440D01*
X026324Y013282D02*
X026404Y013282D01*
X026404Y013123D02*
X026324Y013123D01*
X026324Y012965D02*
X026404Y012965D01*
X026404Y012806D02*
X026324Y012806D01*
X026324Y012648D02*
X026404Y012648D01*
X026457Y012489D02*
X026272Y012489D01*
X026164Y012331D02*
X026564Y012331D01*
X026564Y012172D02*
X026164Y012172D01*
X026164Y012014D02*
X026564Y012014D01*
X026564Y011855D02*
X026164Y011855D01*
X026164Y011697D02*
X026564Y011697D01*
X026564Y011538D02*
X026164Y011538D01*
X026164Y011380D02*
X026564Y011380D01*
X026564Y011221D02*
X026164Y011221D01*
X026164Y011063D02*
X026564Y011063D01*
X026564Y010904D02*
X026164Y010904D01*
X026164Y010746D02*
X026564Y010746D01*
X026564Y010587D02*
X026164Y010587D01*
X026164Y010429D02*
X026564Y010429D01*
X026460Y010270D02*
X026164Y010270D01*
X026204Y010112D02*
X026324Y010112D01*
X026264Y009967D02*
X026264Y009169D01*
X026340Y008985D01*
X026481Y008844D01*
X026333Y009002D02*
X026195Y009002D01*
X026188Y008985D02*
X026264Y009169D01*
X026264Y009967D01*
X026264Y009953D02*
X026264Y009953D01*
X026264Y009795D02*
X026264Y009795D01*
X026264Y009636D02*
X026264Y009636D01*
X026264Y009478D02*
X026264Y009478D01*
X026264Y009319D02*
X026264Y009319D01*
X026261Y009161D02*
X026267Y009161D01*
X026188Y008985D02*
X026047Y008844D01*
X025481Y008844D02*
X025340Y008985D01*
X025264Y009169D01*
X025188Y008985D01*
X025047Y008844D01*
X025195Y009002D02*
X025333Y009002D01*
X025267Y009161D02*
X025261Y009161D01*
X025264Y009169D02*
X025264Y009967D01*
X025264Y009169D01*
X025264Y009319D02*
X025264Y009319D01*
X025264Y009478D02*
X025264Y009478D01*
X025264Y009636D02*
X025264Y009636D01*
X025264Y009795D02*
X025264Y009795D01*
X025264Y009953D02*
X025264Y009953D01*
X025204Y010112D02*
X025324Y010112D01*
X025460Y010270D02*
X025069Y010270D01*
X023564Y011697D02*
X022164Y011697D01*
X022164Y011855D02*
X023564Y011855D01*
X023564Y012014D02*
X022164Y012014D01*
X022164Y012172D02*
X023564Y012172D01*
X023564Y012331D02*
X023138Y012331D01*
X023125Y012318D02*
X023254Y012447D01*
X023324Y012616D01*
X023324Y013319D01*
X023254Y013489D01*
X023125Y013618D01*
X022956Y013688D01*
X022773Y013688D01*
X022604Y013618D01*
X022474Y013489D01*
X022404Y013319D01*
X022404Y012616D01*
X022474Y012447D01*
X022604Y012318D01*
X022773Y012248D01*
X022956Y012248D01*
X023125Y012318D01*
X023272Y012489D02*
X023457Y012489D01*
X023404Y012648D02*
X023324Y012648D01*
X023324Y012806D02*
X023404Y012806D01*
X023404Y012965D02*
X023324Y012965D01*
X023324Y013123D02*
X023404Y013123D01*
X023404Y013282D02*
X023324Y013282D01*
X023274Y013440D02*
X023454Y013440D01*
X023564Y013599D02*
X023144Y013599D01*
X023466Y013757D02*
X023564Y013757D01*
X023564Y013916D02*
X023539Y013916D01*
X023539Y014074D02*
X023564Y014074D01*
X023564Y014233D02*
X023539Y014233D01*
X023539Y014391D02*
X023564Y014391D01*
X023989Y014867D02*
X027239Y014867D01*
X027397Y015025D02*
X023831Y015025D01*
X023579Y015342D02*
X023110Y015342D01*
X023095Y015332D02*
X023151Y015372D01*
X023200Y015421D01*
X023240Y015477D01*
X023272Y015539D01*
X023293Y015605D01*
X023304Y015673D01*
X023304Y015968D01*
X023304Y016263D01*
X023293Y016331D01*
X023272Y016397D01*
X023240Y016459D01*
X023200Y016515D01*
X023151Y016564D01*
X023095Y016604D01*
X023033Y016636D01*
X022967Y016657D01*
X022899Y016668D01*
X022864Y016668D01*
X022830Y016668D01*
X022761Y016657D01*
X022695Y016636D01*
X022634Y016604D01*
X022578Y016564D01*
X022529Y016515D01*
X022488Y016459D01*
X022456Y016397D01*
X022435Y016331D01*
X022424Y016263D01*
X022424Y015968D01*
X022864Y015968D01*
X022864Y015968D01*
X022424Y015968D01*
X022424Y015673D01*
X022435Y015605D01*
X022456Y015539D01*
X022488Y015477D01*
X022529Y015421D01*
X022578Y015372D01*
X022634Y015332D01*
X022695Y015300D01*
X022761Y015279D01*
X022830Y015268D01*
X022864Y015268D01*
X022864Y015968D01*
X022864Y016668D01*
X022864Y015968D01*
X022864Y015968D01*
X022864Y015968D01*
X022864Y015268D01*
X022899Y015268D01*
X022967Y015279D01*
X023033Y015300D01*
X023095Y015332D01*
X023253Y015501D02*
X023452Y015501D01*
X023404Y015659D02*
X023302Y015659D01*
X023304Y015818D02*
X023404Y015818D01*
X023404Y015976D02*
X023304Y015976D01*
X023304Y015968D02*
X022864Y015968D01*
X022864Y015968D01*
X023304Y015968D01*
X023304Y016135D02*
X023404Y016135D01*
X023404Y016293D02*
X023299Y016293D01*
X023244Y016452D02*
X023459Y016452D01*
X023564Y016610D02*
X023083Y016610D01*
X022864Y016610D02*
X022864Y016610D01*
X022864Y016452D02*
X022864Y016452D01*
X022864Y016293D02*
X022864Y016293D01*
X022864Y016135D02*
X022864Y016135D01*
X022864Y015976D02*
X022864Y015976D01*
X022864Y015818D02*
X022864Y015818D01*
X022864Y015659D02*
X022864Y015659D01*
X022864Y015501D02*
X022864Y015501D01*
X022864Y015342D02*
X022864Y015342D01*
X022619Y015342D02*
X022149Y015342D01*
X022125Y015318D02*
X022254Y015447D01*
X022324Y015616D01*
X022324Y016319D01*
X022254Y016489D01*
X022125Y016618D01*
X021956Y016688D01*
X021773Y016688D01*
X021604Y016618D01*
X021474Y016489D01*
X021404Y016319D01*
X021404Y015616D01*
X021474Y015447D01*
X021604Y015318D01*
X021773Y015248D01*
X021956Y015248D01*
X022125Y015318D01*
X022276Y015501D02*
X022476Y015501D01*
X022426Y015659D02*
X022324Y015659D01*
X022324Y015818D02*
X022424Y015818D01*
X022424Y015976D02*
X022324Y015976D01*
X022324Y016135D02*
X022424Y016135D01*
X022429Y016293D02*
X022324Y016293D01*
X022269Y016452D02*
X022484Y016452D01*
X022646Y016610D02*
X022132Y016610D01*
X021596Y016610D02*
X021164Y016610D01*
X021164Y016578D02*
X021164Y016993D01*
X021302Y016993D01*
X021419Y017110D01*
X021419Y017906D01*
X021302Y018023D01*
X020426Y018023D01*
X020309Y017906D01*
X020309Y017110D01*
X020426Y016993D01*
X020564Y016993D01*
X020564Y016578D01*
X020474Y016489D01*
X020404Y016319D01*
X020404Y015616D01*
X020474Y015447D01*
X020604Y015318D01*
X020773Y015248D01*
X020956Y015248D01*
X021125Y015318D01*
X021254Y015447D01*
X021324Y015616D01*
X021324Y016319D01*
X021254Y016489D01*
X021164Y016578D01*
X021269Y016452D02*
X021459Y016452D01*
X021404Y016293D02*
X021324Y016293D01*
X021324Y016135D02*
X021404Y016135D01*
X021404Y015976D02*
X021324Y015976D01*
X021324Y015818D02*
X021404Y015818D01*
X021404Y015659D02*
X021324Y015659D01*
X021276Y015501D02*
X021452Y015501D01*
X021579Y015342D02*
X021149Y015342D01*
X020579Y015342D02*
X020149Y015342D01*
X020125Y015318D02*
X020254Y015447D01*
X020324Y015616D01*
X020324Y016319D01*
X020254Y016489D01*
X020125Y016618D01*
X019956Y016688D01*
X019773Y016688D01*
X019604Y016618D01*
X019474Y016489D01*
X019404Y016319D01*
X019404Y015616D01*
X019474Y015447D01*
X019604Y015318D01*
X019773Y015248D01*
X019956Y015248D01*
X020125Y015318D01*
X020276Y015501D02*
X020452Y015501D01*
X020404Y015659D02*
X020324Y015659D01*
X020324Y015818D02*
X020404Y015818D01*
X020404Y015976D02*
X020324Y015976D01*
X020324Y016135D02*
X020404Y016135D01*
X020404Y016293D02*
X020324Y016293D01*
X020269Y016452D02*
X020459Y016452D01*
X020564Y016610D02*
X020132Y016610D01*
X020564Y016769D02*
X015364Y016769D01*
X015364Y016927D02*
X020564Y016927D01*
X020334Y017086D02*
X015364Y017086D01*
X015364Y017244D02*
X020309Y017244D01*
X020309Y017403D02*
X015364Y017403D01*
X015364Y017561D02*
X020309Y017561D01*
X020309Y017720D02*
X015364Y017720D01*
X015364Y017878D02*
X020309Y017878D01*
X020344Y018195D02*
X015364Y018195D01*
X015364Y018037D02*
X023564Y018037D01*
X023564Y018195D02*
X021385Y018195D01*
X021419Y018354D02*
X023564Y018354D01*
X023564Y018512D02*
X021419Y018512D01*
X021419Y018671D02*
X023564Y018671D01*
X023606Y018829D02*
X021419Y018829D01*
X021419Y018988D02*
X023760Y018988D01*
X023918Y019146D02*
X021164Y019146D01*
X021164Y019305D02*
X024077Y019305D01*
X024235Y019463D02*
X021164Y019463D01*
X021164Y019622D02*
X031964Y019622D01*
X031964Y019780D02*
X021164Y019780D01*
X021164Y019939D02*
X031964Y019939D01*
X031964Y020097D02*
X021164Y020097D01*
X021164Y020256D02*
X021780Y020256D01*
X021776Y020414D02*
X021164Y020414D01*
X021193Y020573D02*
X021776Y020573D01*
X021780Y020731D02*
X021352Y020731D01*
X020979Y021207D02*
X015364Y021207D01*
X015364Y021365D02*
X021137Y021365D01*
X020820Y021048D02*
X015364Y021048D01*
X015364Y020890D02*
X020662Y020890D01*
X020566Y020731D02*
X015364Y020731D01*
X015364Y020573D02*
X020564Y020573D01*
X020564Y020414D02*
X015364Y020414D01*
X015364Y020256D02*
X020564Y020256D01*
X020564Y020097D02*
X015364Y020097D01*
X015364Y019939D02*
X020564Y019939D01*
X020564Y019780D02*
X015364Y019780D01*
X015364Y019622D02*
X020564Y019622D01*
X020564Y019463D02*
X015364Y019463D01*
X015364Y019305D02*
X020564Y019305D01*
X020564Y019146D02*
X015364Y019146D01*
X015364Y018988D02*
X020309Y018988D01*
X020309Y018829D02*
X015364Y018829D01*
X015364Y018671D02*
X020309Y018671D01*
X020309Y018512D02*
X015364Y018512D01*
X015364Y018354D02*
X020309Y018354D01*
X021419Y017878D02*
X023564Y017878D01*
X023564Y017720D02*
X021419Y017720D01*
X021419Y017561D02*
X023564Y017561D01*
X023564Y017403D02*
X021419Y017403D01*
X021419Y017244D02*
X023564Y017244D01*
X023564Y017086D02*
X021395Y017086D01*
X021164Y016927D02*
X023564Y016927D01*
X023564Y016769D02*
X021164Y016769D01*
X019596Y016610D02*
X019132Y016610D01*
X019125Y016618D02*
X018956Y016688D01*
X018773Y016688D01*
X018604Y016618D01*
X018474Y016489D01*
X018404Y016319D01*
X018404Y015616D01*
X018474Y015447D01*
X018604Y015318D01*
X018773Y015248D01*
X018956Y015248D01*
X019125Y015318D01*
X019254Y015447D01*
X019324Y015616D01*
X019324Y016319D01*
X019254Y016489D01*
X019125Y016618D01*
X019269Y016452D02*
X019459Y016452D01*
X019404Y016293D02*
X019324Y016293D01*
X019324Y016135D02*
X019404Y016135D01*
X019404Y015976D02*
X019324Y015976D01*
X019324Y015818D02*
X019404Y015818D01*
X019404Y015659D02*
X019324Y015659D01*
X019276Y015501D02*
X019452Y015501D01*
X019579Y015342D02*
X019149Y015342D01*
X018579Y015342D02*
X018149Y015342D01*
X018125Y015318D02*
X018254Y015447D01*
X018324Y015616D01*
X018324Y016319D01*
X018254Y016489D01*
X018125Y016618D01*
X017956Y016688D01*
X017773Y016688D01*
X017604Y016618D01*
X017474Y016489D01*
X017404Y016319D01*
X017404Y015616D01*
X017474Y015447D01*
X017604Y015318D01*
X017773Y015248D01*
X017956Y015248D01*
X018125Y015318D01*
X018276Y015501D02*
X018452Y015501D01*
X018404Y015659D02*
X018324Y015659D01*
X018324Y015818D02*
X018404Y015818D01*
X018404Y015976D02*
X018324Y015976D01*
X018324Y016135D02*
X018404Y016135D01*
X018404Y016293D02*
X018324Y016293D01*
X018269Y016452D02*
X018459Y016452D01*
X018596Y016610D02*
X018132Y016610D01*
X017596Y016610D02*
X017132Y016610D01*
X017125Y016618D02*
X016956Y016688D01*
X016773Y016688D01*
X016604Y016618D01*
X016474Y016489D01*
X016404Y016319D01*
X016404Y015616D01*
X016474Y015447D01*
X016604Y015318D01*
X016773Y015248D01*
X016956Y015248D01*
X017125Y015318D01*
X017254Y015447D01*
X017324Y015616D01*
X017324Y016319D01*
X017254Y016489D01*
X017125Y016618D01*
X017269Y016452D02*
X017459Y016452D01*
X017404Y016293D02*
X017324Y016293D01*
X017324Y016135D02*
X017404Y016135D01*
X017404Y015976D02*
X017324Y015976D01*
X017324Y015818D02*
X017404Y015818D01*
X017404Y015659D02*
X017324Y015659D01*
X017276Y015501D02*
X017452Y015501D01*
X017579Y015342D02*
X017149Y015342D01*
X016579Y015342D02*
X016149Y015342D01*
X016276Y015501D02*
X016452Y015501D01*
X016404Y015659D02*
X016324Y015659D01*
X016324Y015818D02*
X016404Y015818D01*
X016404Y015976D02*
X016324Y015976D01*
X016324Y016135D02*
X016404Y016135D01*
X016404Y016293D02*
X016324Y016293D01*
X016269Y016452D02*
X016459Y016452D01*
X016596Y016610D02*
X016132Y016610D01*
X015596Y016610D02*
X015364Y016610D01*
X015364Y016452D02*
X015459Y016452D01*
X015404Y016293D02*
X015364Y016293D01*
X015364Y016135D02*
X015404Y016135D01*
X015404Y015976D02*
X015364Y015976D01*
X015364Y015818D02*
X015404Y015818D01*
X015404Y015659D02*
X015364Y015659D01*
X014764Y015659D02*
X014564Y015659D01*
X014564Y015501D02*
X014764Y015501D01*
X014791Y015342D02*
X014564Y015342D01*
X014564Y015184D02*
X014924Y015184D01*
X014894Y015214D02*
X014894Y015214D01*
X015082Y015025D02*
X014564Y015025D01*
X014564Y014867D02*
X015241Y014867D01*
X015399Y014708D02*
X014564Y014708D01*
X014564Y014550D02*
X016189Y014550D01*
X016189Y014391D02*
X014564Y014391D01*
X014564Y014233D02*
X016189Y014233D01*
X016189Y014074D02*
X014564Y014074D01*
X014564Y013916D02*
X016189Y013916D01*
X016262Y013757D02*
X014564Y013757D01*
X014564Y013599D02*
X015585Y013599D01*
X015604Y013618D02*
X015474Y013489D01*
X015404Y013319D01*
X015404Y013268D01*
X014788Y013268D01*
X014564Y013492D01*
X014564Y020928D01*
X014519Y021038D01*
X014434Y021122D01*
X013834Y021722D01*
X013724Y021768D01*
X012071Y021768D01*
X011947Y021892D01*
X011764Y021968D01*
X010965Y021968D01*
X010781Y021892D01*
X010640Y021751D01*
X010564Y021567D01*
X010564Y021369D01*
X010640Y021185D01*
X010781Y021044D01*
X010965Y020968D01*
X011764Y020968D01*
X011947Y021044D01*
X012071Y021168D01*
X013540Y021168D01*
X013964Y020744D01*
X013964Y013308D01*
X014010Y013198D01*
X014410Y012798D01*
X014494Y012714D01*
X014604Y012668D01*
X015404Y012668D01*
X015404Y012616D01*
X015474Y012447D01*
X015604Y012318D01*
X015773Y012248D01*
X015956Y012248D01*
X016125Y012318D01*
X016254Y012447D01*
X016324Y012616D01*
X016324Y013319D01*
X016254Y013489D01*
X016125Y013618D01*
X015956Y013688D01*
X015773Y013688D01*
X015604Y013618D01*
X015454Y013440D02*
X014616Y013440D01*
X014774Y013282D02*
X015404Y013282D01*
X015404Y012648D02*
X013764Y012648D01*
X013764Y012806D02*
X014401Y012806D01*
X014243Y012965D02*
X013764Y012965D01*
X013764Y013123D02*
X014084Y013123D01*
X013975Y013282D02*
X013764Y013282D01*
X013764Y013440D02*
X013964Y013440D01*
X013964Y013599D02*
X013764Y013599D01*
X013764Y013757D02*
X013964Y013757D01*
X013964Y013916D02*
X013764Y013916D01*
X013764Y014074D02*
X013964Y014074D01*
X013964Y014233D02*
X013764Y014233D01*
X013764Y014391D02*
X013964Y014391D01*
X013964Y014550D02*
X013764Y014550D01*
X013764Y014708D02*
X013964Y014708D01*
X013964Y014867D02*
X013764Y014867D01*
X013764Y015025D02*
X013964Y015025D01*
X013964Y015184D02*
X013764Y015184D01*
X013764Y015342D02*
X013964Y015342D01*
X013964Y015501D02*
X013764Y015501D01*
X013764Y015659D02*
X013964Y015659D01*
X013964Y015818D02*
X013764Y015818D01*
X013764Y015976D02*
X013964Y015976D01*
X013964Y016135D02*
X013764Y016135D01*
X013764Y016293D02*
X013964Y016293D01*
X013964Y016452D02*
X013764Y016452D01*
X013764Y016610D02*
X013964Y016610D01*
X013964Y016769D02*
X013764Y016769D01*
X013764Y016927D02*
X013964Y016927D01*
X013964Y017086D02*
X013764Y017086D01*
X013764Y017244D02*
X013964Y017244D01*
X013964Y017403D02*
X013764Y017403D01*
X013764Y017561D02*
X013964Y017561D01*
X013964Y017720D02*
X013764Y017720D01*
X013764Y017878D02*
X013964Y017878D01*
X013964Y018037D02*
X013764Y018037D01*
X013764Y018195D02*
X013964Y018195D01*
X013964Y018354D02*
X013764Y018354D01*
X013764Y018512D02*
X013964Y018512D01*
X013964Y018671D02*
X013764Y018671D01*
X013764Y018829D02*
X013964Y018829D01*
X013964Y018988D02*
X013764Y018988D01*
X013764Y019146D02*
X013964Y019146D01*
X013964Y019305D02*
X013764Y019305D01*
X013764Y019463D02*
X013964Y019463D01*
X013964Y019622D02*
X013764Y019622D01*
X013764Y019780D02*
X013964Y019780D01*
X013964Y019939D02*
X013764Y019939D01*
X013764Y020097D02*
X013964Y020097D01*
X013964Y020256D02*
X013700Y020256D01*
X013719Y020238D02*
X013634Y020322D01*
X013263Y020693D01*
X013249Y020707D01*
X013102Y020768D01*
X012071Y020768D01*
X011947Y020892D01*
X011764Y020968D01*
X010965Y020968D01*
X010781Y020892D01*
X010640Y020751D01*
X010564Y020567D01*
X010564Y020369D01*
X010640Y020185D01*
X010781Y020044D01*
X010965Y019968D01*
X011764Y019968D01*
X011947Y020044D01*
X012071Y020168D01*
X012940Y020168D01*
X013164Y019944D01*
X013164Y011130D01*
X013225Y010983D01*
X013239Y010969D01*
X013239Y010969D01*
X013610Y010598D01*
X013694Y010514D01*
X013804Y010468D01*
X016702Y010468D01*
X016849Y010529D01*
X016849Y010529D01*
X016863Y010543D01*
X016863Y010543D01*
X017034Y010714D01*
X017119Y010798D01*
X017164Y010908D01*
X017164Y012357D01*
X017254Y012447D01*
X017324Y012616D01*
X017324Y013319D01*
X017254Y013489D01*
X017125Y013618D01*
X016956Y013688D01*
X016773Y013688D01*
X016604Y013618D01*
X016474Y013489D01*
X016404Y013319D01*
X016404Y012616D01*
X016474Y012447D01*
X016564Y012357D01*
X016564Y011092D01*
X016540Y011068D01*
X013988Y011068D01*
X013764Y011292D01*
X013764Y020128D01*
X013719Y020238D01*
X013542Y020414D02*
X013964Y020414D01*
X013964Y020573D02*
X013383Y020573D01*
X013263Y020693D02*
X013263Y020693D01*
X013249Y020707D02*
X013249Y020707D01*
X013190Y020731D02*
X013964Y020731D01*
X013818Y020890D02*
X011949Y020890D01*
X011952Y021048D02*
X013659Y021048D01*
X014032Y021524D02*
X014764Y021524D01*
X014764Y021682D02*
X013874Y021682D01*
X014191Y021365D02*
X014764Y021365D01*
X014764Y021207D02*
X014349Y021207D01*
X014508Y021048D02*
X014764Y021048D01*
X014764Y020890D02*
X014564Y020890D01*
X014564Y020731D02*
X014764Y020731D01*
X014764Y020573D02*
X014564Y020573D01*
X014564Y020414D02*
X014764Y020414D01*
X014764Y020256D02*
X014564Y020256D01*
X014564Y020097D02*
X014764Y020097D01*
X014764Y019939D02*
X014564Y019939D01*
X014564Y019780D02*
X014764Y019780D01*
X014764Y019622D02*
X014564Y019622D01*
X014564Y019463D02*
X014764Y019463D01*
X014764Y019305D02*
X014564Y019305D01*
X014564Y019146D02*
X014764Y019146D01*
X014764Y018988D02*
X014564Y018988D01*
X014564Y018829D02*
X014764Y018829D01*
X014764Y018671D02*
X014564Y018671D01*
X014564Y018512D02*
X014764Y018512D01*
X014764Y018354D02*
X014564Y018354D01*
X014564Y018195D02*
X014764Y018195D01*
X014764Y018037D02*
X014564Y018037D01*
X014564Y017878D02*
X014764Y017878D01*
X014764Y017720D02*
X014564Y017720D01*
X014564Y017561D02*
X014764Y017561D01*
X014764Y017403D02*
X014564Y017403D01*
X014564Y017244D02*
X014764Y017244D01*
X014764Y017086D02*
X014564Y017086D01*
X014564Y016927D02*
X014764Y016927D01*
X014764Y016769D02*
X014564Y016769D01*
X014564Y016610D02*
X014764Y016610D01*
X014764Y016452D02*
X014564Y016452D01*
X014564Y016293D02*
X014764Y016293D01*
X014764Y016135D02*
X014564Y016135D01*
X014564Y015976D02*
X014764Y015976D01*
X014764Y015818D02*
X014564Y015818D01*
X015772Y015184D02*
X027556Y015184D01*
X027564Y015342D02*
X027149Y015342D01*
X027125Y015318D02*
X027254Y015447D01*
X027324Y015616D01*
X027324Y016319D01*
X027299Y016379D01*
X027344Y016423D01*
X027428Y016507D01*
X027474Y016618D01*
X027474Y016674D01*
X027552Y016674D01*
X027669Y016791D01*
X027669Y017745D01*
X027554Y017860D01*
X027572Y017878D01*
X027572Y018558D01*
X027454Y018675D01*
X026774Y018675D01*
X026657Y018558D01*
X026657Y017878D01*
X026734Y017800D01*
X026678Y017745D01*
X026678Y016791D01*
X026771Y016699D01*
X026751Y016679D01*
X026604Y016618D01*
X026474Y016489D01*
X026404Y016319D01*
X026404Y015616D01*
X026474Y015447D01*
X026604Y015318D01*
X026773Y015248D01*
X026956Y015248D01*
X027125Y015318D01*
X027276Y015501D02*
X027452Y015501D01*
X027404Y015659D02*
X027324Y015659D01*
X027324Y015818D02*
X027404Y015818D01*
X027404Y015976D02*
X027324Y015976D01*
X027324Y016135D02*
X027404Y016135D01*
X027404Y016293D02*
X027324Y016293D01*
X027344Y016423D02*
X027344Y016423D01*
X027372Y016452D02*
X027459Y016452D01*
X027471Y016610D02*
X027596Y016610D01*
X027646Y016769D02*
X027912Y016769D01*
X027915Y016764D02*
X027949Y016730D01*
X027990Y016707D01*
X028036Y016694D01*
X028287Y016694D01*
X028287Y017200D01*
X028422Y017200D01*
X028422Y016694D01*
X028674Y016694D01*
X028719Y016707D01*
X028761Y016730D01*
X028794Y016764D01*
X028818Y016805D01*
X028830Y016851D01*
X028830Y017200D01*
X028422Y017200D01*
X028422Y017336D01*
X028287Y017336D01*
X028287Y017842D01*
X028036Y017842D01*
X027990Y017829D01*
X027949Y017806D01*
X027915Y017772D01*
X027892Y017731D01*
X027879Y017685D01*
X027879Y017336D01*
X028287Y017336D01*
X028287Y017200D01*
X027879Y017200D01*
X027879Y016851D01*
X027892Y016805D01*
X027915Y016764D01*
X027879Y016927D02*
X027669Y016927D01*
X027669Y017086D02*
X027879Y017086D01*
X027669Y017244D02*
X028287Y017244D01*
X028422Y017244D02*
X029864Y017244D01*
X029864Y017086D02*
X028830Y017086D01*
X028830Y016927D02*
X029864Y016927D01*
X029864Y016769D02*
X028797Y016769D01*
X028773Y016688D02*
X028604Y016618D01*
X028474Y016489D01*
X028404Y016319D01*
X028404Y015616D01*
X028474Y015447D01*
X028604Y015318D01*
X028773Y015248D01*
X028956Y015248D01*
X029125Y015318D01*
X029254Y015447D01*
X029324Y015616D01*
X029324Y016319D01*
X029254Y016489D01*
X029125Y016618D01*
X028956Y016688D01*
X028773Y016688D01*
X028596Y016610D02*
X028132Y016610D01*
X028269Y016452D02*
X028459Y016452D01*
X028404Y016293D02*
X028324Y016293D01*
X028324Y016135D02*
X028404Y016135D01*
X028404Y015976D02*
X028324Y015976D01*
X028324Y015818D02*
X028404Y015818D01*
X028404Y015659D02*
X028324Y015659D01*
X028276Y015501D02*
X028452Y015501D01*
X028579Y015342D02*
X028164Y015342D01*
X028164Y015184D02*
X030224Y015184D01*
X030382Y015025D02*
X028164Y015025D01*
X028087Y014867D02*
X028302Y014867D01*
X028426Y014867D02*
X031409Y014867D01*
X031409Y015501D02*
X030755Y015501D01*
X030597Y015659D02*
X033964Y015659D01*
X033964Y015501D02*
X032519Y015501D01*
X032519Y015342D02*
X033964Y015342D01*
X033964Y015184D02*
X032519Y015184D01*
X032519Y015025D02*
X033897Y015025D01*
X033739Y014867D02*
X032519Y014867D01*
X032519Y014233D02*
X039448Y014233D01*
X039448Y014391D02*
X034112Y014391D01*
X034270Y014550D02*
X039448Y014550D01*
X039448Y014708D02*
X034429Y014708D01*
X034547Y014867D02*
X039448Y014867D01*
X039448Y015025D02*
X034564Y015025D01*
X034564Y015184D02*
X039448Y015184D01*
X039448Y015342D02*
X034564Y015342D01*
X034564Y015501D02*
X039448Y015501D01*
X039448Y015659D02*
X034564Y015659D01*
X034564Y015818D02*
X039448Y015818D01*
X039448Y015976D02*
X034564Y015976D01*
X034564Y016135D02*
X039448Y016135D01*
X039448Y016293D02*
X034564Y016293D01*
X034564Y016452D02*
X039448Y016452D01*
X039448Y016610D02*
X034564Y016610D01*
X034564Y016769D02*
X039448Y016769D01*
X039448Y016927D02*
X036584Y016927D01*
X036742Y017086D02*
X039448Y017086D01*
X039448Y017244D02*
X036901Y017244D01*
X036934Y017403D02*
X039448Y017403D01*
X039448Y017561D02*
X036934Y017561D01*
X036934Y017720D02*
X039448Y017720D01*
X039448Y017878D02*
X036914Y017878D01*
X036755Y018037D02*
X039448Y018037D01*
X039448Y018195D02*
X036597Y018195D01*
X036564Y018354D02*
X039448Y018354D01*
X039448Y018512D02*
X036564Y018512D01*
X036564Y018671D02*
X039448Y018671D01*
X039448Y018829D02*
X036564Y018829D01*
X036564Y018988D02*
X039448Y018988D01*
X039448Y019146D02*
X036564Y019146D01*
X036564Y019305D02*
X039448Y019305D01*
X039448Y019463D02*
X036564Y019463D01*
X036564Y019622D02*
X039448Y019622D01*
X039448Y019780D02*
X036564Y019780D01*
X036564Y019939D02*
X039448Y019939D01*
X039448Y020097D02*
X036564Y020097D01*
X036564Y020256D02*
X039448Y020256D01*
X039448Y020414D02*
X036564Y020414D01*
X036564Y020573D02*
X039448Y020573D01*
X039448Y020731D02*
X036564Y020731D01*
X036564Y020890D02*
X039448Y020890D01*
X039448Y021048D02*
X036564Y021048D01*
X036564Y021207D02*
X039448Y021207D01*
X039448Y021365D02*
X036564Y021365D01*
X036564Y021524D02*
X039448Y021524D01*
X039448Y021682D02*
X036564Y021682D01*
X036564Y021841D02*
X039448Y021841D01*
X039448Y021999D02*
X036564Y021999D01*
X036564Y022158D02*
X039448Y022158D01*
X039448Y022316D02*
X036564Y022316D01*
X036564Y022475D02*
X039448Y022475D01*
X039448Y022633D02*
X036564Y022633D01*
X036564Y022792D02*
X039448Y022792D01*
X039448Y022950D02*
X036564Y022950D01*
X036564Y023109D02*
X039448Y023109D01*
X039448Y023267D02*
X036564Y023267D01*
X036564Y023426D02*
X039448Y023426D01*
X039448Y023584D02*
X036564Y023584D01*
X036564Y023743D02*
X039448Y023743D01*
X039448Y023901D02*
X036564Y023901D01*
X036564Y024060D02*
X039448Y024060D01*
X039448Y024218D02*
X036564Y024218D01*
X036564Y024377D02*
X039448Y024377D01*
X039448Y024535D02*
X036564Y024535D01*
X036564Y024694D02*
X039448Y024694D01*
X039448Y024852D02*
X036564Y024852D01*
X036564Y025011D02*
X039448Y025011D01*
X039448Y025169D02*
X036564Y025169D01*
X036523Y025328D02*
X039448Y025328D01*
X039448Y025486D02*
X036370Y025486D01*
X036211Y025645D02*
X039448Y025645D01*
X039448Y025804D02*
X036053Y025804D01*
X035894Y025962D02*
X039448Y025962D01*
X039448Y026121D02*
X035736Y026121D01*
X035619Y026238D02*
X035619Y026238D01*
X035577Y026279D02*
X039448Y026279D01*
X039448Y026438D02*
X000644Y026438D01*
X000644Y026596D02*
X039448Y026596D01*
X039448Y026755D02*
X037901Y026755D01*
X037923Y026760D02*
X038194Y026917D01*
X038415Y027138D01*
X038572Y027409D01*
X038653Y027711D01*
X038653Y028024D01*
X038572Y028327D01*
X038415Y028598D01*
X038194Y028819D01*
X037923Y028976D01*
X037621Y029057D01*
X037308Y029057D01*
X037005Y028976D01*
X036734Y028819D01*
X036513Y028598D01*
X036357Y028327D01*
X036276Y028024D01*
X036276Y027711D01*
X036357Y027409D01*
X036513Y027138D01*
X036734Y026917D01*
X037005Y026760D01*
X037308Y026679D01*
X037621Y026679D01*
X037923Y026760D01*
X038187Y026913D02*
X039448Y026913D01*
X039448Y027072D02*
X038349Y027072D01*
X038468Y027230D02*
X039448Y027230D01*
X039448Y027389D02*
X038560Y027389D01*
X038609Y027547D02*
X039448Y027547D01*
X039448Y027706D02*
X038651Y027706D01*
X038653Y027864D02*
X039448Y027864D01*
X039447Y028023D02*
X038653Y028023D01*
X038611Y028181D02*
X039435Y028181D01*
X039402Y028340D02*
X038564Y028340D01*
X038473Y028498D02*
X039362Y028498D01*
X039312Y028657D02*
X038357Y028657D01*
X038198Y028815D02*
X039231Y028815D01*
X039151Y028974D02*
X037927Y028974D01*
X037942Y029766D02*
X002150Y029766D01*
X001669Y029608D02*
X038423Y029608D01*
X038685Y029449D02*
X001407Y029449D01*
X001203Y029291D02*
X038889Y029291D01*
X039021Y029132D02*
X001071Y029132D01*
X000942Y028974D02*
X002102Y028974D01*
X002105Y028976D02*
X001834Y028819D01*
X001613Y028598D01*
X001457Y028327D01*
X001376Y028024D01*
X001376Y027711D01*
X001457Y027409D01*
X001613Y027138D01*
X001834Y026917D01*
X002105Y026760D01*
X002408Y026679D01*
X002721Y026679D01*
X003023Y026760D01*
X003294Y026917D01*
X003515Y027138D01*
X003672Y027409D01*
X003753Y027711D01*
X003753Y028024D01*
X003672Y028327D01*
X003515Y028598D01*
X003294Y028819D01*
X003023Y028976D01*
X002721Y029057D01*
X002408Y029057D01*
X002105Y028976D01*
X001830Y028815D02*
X000861Y028815D01*
X000780Y028657D02*
X001672Y028657D01*
X001555Y028498D02*
X000730Y028498D01*
X000690Y028340D02*
X001464Y028340D01*
X001417Y028181D02*
X000657Y028181D01*
X000645Y028023D02*
X001376Y028023D01*
X001376Y027864D02*
X000644Y027864D01*
X000644Y027706D02*
X001377Y027706D01*
X001420Y027547D02*
X000644Y027547D01*
X000644Y027389D02*
X001468Y027389D01*
X001560Y027230D02*
X000644Y027230D01*
X000644Y027072D02*
X001680Y027072D01*
X001841Y026913D02*
X000644Y026913D01*
X000644Y026755D02*
X002127Y026755D01*
X003001Y026755D02*
X037027Y026755D01*
X036741Y026913D02*
X003287Y026913D01*
X003449Y027072D02*
X036580Y027072D01*
X036460Y027230D02*
X003568Y027230D01*
X003660Y027389D02*
X036368Y027389D01*
X036320Y027547D02*
X003709Y027547D01*
X003751Y027706D02*
X036277Y027706D01*
X036276Y027864D02*
X003753Y027864D01*
X003753Y028023D02*
X036276Y028023D01*
X036317Y028181D02*
X003711Y028181D01*
X003664Y028340D02*
X036364Y028340D01*
X036455Y028498D02*
X003573Y028498D01*
X003457Y028657D02*
X036572Y028657D01*
X036730Y028815D02*
X003298Y028815D01*
X003027Y028974D02*
X037002Y028974D01*
X035363Y025645D02*
X020164Y025645D01*
X020164Y025486D02*
X035521Y025486D01*
X035680Y025328D02*
X020164Y025328D01*
X020164Y025169D02*
X021728Y025169D01*
X021773Y025188D02*
X021604Y025118D01*
X021474Y024989D01*
X021404Y024819D01*
X021404Y024116D01*
X021474Y023947D01*
X021604Y023818D01*
X021773Y023748D01*
X021956Y023748D01*
X022125Y023818D01*
X022254Y023947D01*
X022324Y024116D01*
X022324Y024819D01*
X022254Y024989D01*
X022125Y025118D01*
X021956Y025188D01*
X021773Y025188D01*
X022000Y025169D02*
X022728Y025169D01*
X022773Y025188D02*
X022604Y025118D01*
X022474Y024989D01*
X022404Y024819D01*
X022404Y024116D01*
X022474Y023947D01*
X022604Y023818D01*
X022773Y023748D01*
X022956Y023748D01*
X023125Y023818D01*
X023254Y023947D01*
X023324Y024116D01*
X023324Y024819D01*
X023254Y024989D01*
X023125Y025118D01*
X022956Y025188D01*
X022773Y025188D01*
X023000Y025169D02*
X023728Y025169D01*
X023773Y025188D02*
X023604Y025118D01*
X023474Y024989D01*
X023404Y024819D01*
X023404Y024116D01*
X023474Y023947D01*
X023604Y023818D01*
X023773Y023748D01*
X023956Y023748D01*
X024125Y023818D01*
X024254Y023947D01*
X024324Y024116D01*
X024324Y024819D01*
X024254Y024989D01*
X024125Y025118D01*
X023956Y025188D01*
X023773Y025188D01*
X024000Y025169D02*
X024728Y025169D01*
X024773Y025188D02*
X024604Y025118D01*
X024474Y024989D01*
X024404Y024819D01*
X024404Y024116D01*
X024474Y023947D01*
X024604Y023818D01*
X024773Y023748D01*
X024956Y023748D01*
X025125Y023818D01*
X025254Y023947D01*
X025324Y024116D01*
X025324Y024819D01*
X025254Y024989D01*
X025125Y025118D01*
X024956Y025188D01*
X024773Y025188D01*
X025000Y025169D02*
X025728Y025169D01*
X025773Y025188D02*
X025604Y025118D01*
X025474Y024989D01*
X025404Y024819D01*
X025404Y024116D01*
X025474Y023947D01*
X025604Y023818D01*
X025773Y023748D01*
X025956Y023748D01*
X026125Y023818D01*
X026254Y023947D01*
X026324Y024116D01*
X026324Y024819D01*
X026254Y024989D01*
X026125Y025118D01*
X025956Y025188D01*
X025773Y025188D01*
X026000Y025169D02*
X026728Y025169D01*
X026773Y025188D02*
X026604Y025118D01*
X026474Y024989D01*
X026404Y024819D01*
X026404Y024116D01*
X026474Y023947D01*
X026604Y023818D01*
X026773Y023748D01*
X026956Y023748D01*
X027125Y023818D01*
X027254Y023947D01*
X027324Y024116D01*
X027324Y024819D01*
X027254Y024989D01*
X027125Y025118D01*
X026956Y025188D01*
X026773Y025188D01*
X027000Y025169D02*
X028728Y025169D01*
X028773Y025188D02*
X028604Y025118D01*
X028474Y024989D01*
X028404Y024819D01*
X028404Y024116D01*
X028474Y023947D01*
X028604Y023818D01*
X028773Y023748D01*
X028956Y023748D01*
X029125Y023818D01*
X029254Y023947D01*
X029324Y024116D01*
X029324Y024819D01*
X029254Y024989D01*
X029125Y025118D01*
X028956Y025188D01*
X028773Y025188D01*
X029000Y025169D02*
X029728Y025169D01*
X029773Y025188D02*
X029604Y025118D01*
X029474Y024989D01*
X029404Y024819D01*
X029404Y024116D01*
X029474Y023947D01*
X029604Y023818D01*
X029773Y023748D01*
X029956Y023748D01*
X030125Y023818D01*
X030254Y023947D01*
X030324Y024116D01*
X030324Y024819D01*
X030254Y024989D01*
X030125Y025118D01*
X029956Y025188D01*
X029773Y025188D01*
X030000Y025169D02*
X030728Y025169D01*
X030773Y025188D02*
X030604Y025118D01*
X030474Y024989D01*
X030404Y024819D01*
X030404Y024116D01*
X030474Y023947D01*
X030604Y023818D01*
X030773Y023748D01*
X030956Y023748D01*
X031125Y023818D01*
X031254Y023947D01*
X031324Y024116D01*
X031324Y024819D01*
X031254Y024989D01*
X031125Y025118D01*
X030956Y025188D01*
X030773Y025188D01*
X031000Y025169D02*
X031728Y025169D01*
X031773Y025188D02*
X031604Y025118D01*
X031474Y024989D01*
X031404Y024819D01*
X031404Y024116D01*
X031474Y023947D01*
X031604Y023818D01*
X031773Y023748D01*
X031956Y023748D01*
X032125Y023818D01*
X032254Y023947D01*
X032324Y024116D01*
X032324Y024819D01*
X032254Y024989D01*
X032125Y025118D01*
X031956Y025188D01*
X031773Y025188D01*
X032000Y025169D02*
X032728Y025169D01*
X032773Y025188D02*
X032604Y025118D01*
X032474Y024989D01*
X032404Y024819D01*
X032404Y024116D01*
X032474Y023947D01*
X032604Y023818D01*
X032773Y023748D01*
X032956Y023748D01*
X033125Y023818D01*
X033254Y023947D01*
X033324Y024116D01*
X033324Y024819D01*
X033254Y024989D01*
X033125Y025118D01*
X032956Y025188D01*
X032773Y025188D01*
X033000Y025169D02*
X035838Y025169D01*
X035964Y025011D02*
X033232Y025011D01*
X033310Y024852D02*
X035964Y024852D01*
X035964Y024694D02*
X033324Y024694D01*
X033324Y024535D02*
X035964Y024535D01*
X035964Y024377D02*
X033324Y024377D01*
X033324Y024218D02*
X035964Y024218D01*
X035964Y024060D02*
X033301Y024060D01*
X033208Y023901D02*
X035964Y023901D01*
X035964Y023743D02*
X018164Y023743D01*
X018164Y023584D02*
X035964Y023584D01*
X035964Y023426D02*
X018164Y023426D01*
X018164Y023267D02*
X035964Y023267D01*
X035964Y023109D02*
X018164Y023109D01*
X018206Y022950D02*
X035964Y022950D01*
X035964Y022792D02*
X018364Y022792D01*
X017991Y022316D02*
X015364Y022316D01*
X015364Y022158D02*
X033550Y022158D01*
X033708Y021999D02*
X015364Y021999D01*
X015364Y021841D02*
X033867Y021841D01*
X033964Y021682D02*
X015364Y021682D01*
X015364Y021524D02*
X021758Y021524D01*
X022704Y021524D02*
X033964Y021524D01*
X033964Y021365D02*
X022707Y021365D01*
X023513Y021207D02*
X033964Y021207D01*
X033964Y021048D02*
X032008Y021048D01*
X032166Y020890D02*
X033964Y020890D01*
X033964Y020731D02*
X032325Y020731D01*
X032483Y020573D02*
X033964Y020573D01*
X033964Y020414D02*
X032564Y020414D01*
X032564Y020256D02*
X033964Y020256D01*
X033964Y020097D02*
X032564Y020097D01*
X032564Y019939D02*
X033964Y019939D01*
X033964Y019780D02*
X032564Y019780D01*
X032564Y019622D02*
X033964Y019622D01*
X033964Y019463D02*
X032564Y019463D01*
X032564Y019305D02*
X033964Y019305D01*
X033964Y019146D02*
X032564Y019146D01*
X032564Y018988D02*
X033964Y018988D01*
X033964Y018829D02*
X032564Y018829D01*
X032564Y018671D02*
X033964Y018671D01*
X033964Y018512D02*
X032564Y018512D01*
X032564Y018354D02*
X033964Y018354D01*
X033964Y018195D02*
X032657Y018195D01*
X032815Y018037D02*
X033221Y018037D01*
X033189Y017878D02*
X032974Y017878D01*
X032961Y017244D02*
X033189Y017244D01*
X033234Y017086D02*
X032802Y017086D01*
X032644Y016927D02*
X033964Y016927D01*
X033964Y016769D02*
X030464Y016769D01*
X030464Y016927D02*
X031945Y016927D01*
X031786Y017086D02*
X030464Y017086D01*
X030464Y017244D02*
X031628Y017244D01*
X031594Y017403D02*
X030464Y017403D01*
X030464Y017561D02*
X031594Y017561D01*
X031594Y017720D02*
X030464Y017720D01*
X030464Y017878D02*
X031615Y017878D01*
X031773Y018037D02*
X030464Y018037D01*
X030464Y018195D02*
X031932Y018195D01*
X031964Y018354D02*
X030464Y018354D01*
X030464Y018512D02*
X031964Y018512D01*
X031964Y018671D02*
X030464Y018671D01*
X030463Y018829D02*
X031964Y018829D01*
X031964Y018988D02*
X030368Y018988D01*
X030210Y019146D02*
X031964Y019146D01*
X031964Y019305D02*
X030051Y019305D01*
X029893Y019463D02*
X031964Y019463D01*
X031952Y020256D02*
X022682Y020256D01*
X022687Y020273D02*
X022687Y020476D01*
X022250Y020476D01*
X022250Y020117D01*
X022530Y020117D01*
X022576Y020129D01*
X022617Y020153D01*
X022651Y020187D01*
X022674Y020228D01*
X022687Y020273D01*
X022687Y020414D02*
X031793Y020414D01*
X029837Y018671D02*
X027459Y018671D01*
X027572Y018512D02*
X029864Y018512D01*
X029864Y018354D02*
X027572Y018354D01*
X027572Y018195D02*
X029864Y018195D01*
X029864Y018037D02*
X027572Y018037D01*
X027572Y017878D02*
X029864Y017878D01*
X029864Y017720D02*
X028821Y017720D01*
X028818Y017731D02*
X028794Y017772D01*
X028761Y017806D01*
X028719Y017829D01*
X028674Y017842D01*
X028422Y017842D01*
X028422Y017336D01*
X028830Y017336D01*
X028830Y017685D01*
X028818Y017731D01*
X028830Y017561D02*
X029864Y017561D01*
X029864Y017403D02*
X028830Y017403D01*
X028422Y017403D02*
X028287Y017403D01*
X028287Y017561D02*
X028422Y017561D01*
X028422Y017720D02*
X028287Y017720D01*
X027889Y017720D02*
X027669Y017720D01*
X027669Y017561D02*
X027879Y017561D01*
X027879Y017403D02*
X027669Y017403D01*
X028287Y017086D02*
X028422Y017086D01*
X028422Y016927D02*
X028287Y016927D01*
X028287Y016769D02*
X028422Y016769D01*
X029132Y016610D02*
X029864Y016610D01*
X029864Y016452D02*
X029269Y016452D01*
X029324Y016293D02*
X029864Y016293D01*
X029864Y016135D02*
X029324Y016135D01*
X029324Y015976D02*
X029864Y015976D01*
X029864Y015818D02*
X029324Y015818D01*
X029324Y015659D02*
X029864Y015659D01*
X029909Y015501D02*
X029276Y015501D01*
X029149Y015342D02*
X030065Y015342D01*
X030464Y015818D02*
X033964Y015818D01*
X033964Y015976D02*
X030464Y015976D01*
X030464Y016135D02*
X033964Y016135D01*
X033964Y016293D02*
X030464Y016293D01*
X030464Y016452D02*
X033964Y016452D01*
X033964Y016610D02*
X030464Y016610D01*
X028080Y014708D02*
X027929Y014708D01*
X027922Y014550D02*
X027770Y014550D01*
X027763Y014391D02*
X027612Y014391D01*
X027608Y014233D02*
X027453Y014233D01*
X027564Y014074D02*
X027295Y014074D01*
X027039Y013916D02*
X027564Y013916D01*
X027564Y013757D02*
X026966Y013757D01*
X027144Y013599D02*
X027564Y013599D01*
X027454Y013440D02*
X027274Y013440D01*
X027324Y013282D02*
X027404Y013282D01*
X027404Y013123D02*
X027324Y013123D01*
X027324Y012965D02*
X027404Y012965D01*
X027404Y012806D02*
X027324Y012806D01*
X027324Y012648D02*
X027404Y012648D01*
X027457Y012489D02*
X027272Y012489D01*
X027164Y012331D02*
X027591Y012331D01*
X027164Y012172D02*
X031664Y012172D01*
X031664Y012014D02*
X027164Y012014D01*
X027164Y011855D02*
X031664Y011855D01*
X031664Y011697D02*
X027164Y011697D01*
X027164Y011538D02*
X031664Y011538D01*
X031664Y011380D02*
X027164Y011380D01*
X027164Y011221D02*
X031664Y011221D01*
X031664Y011063D02*
X027164Y011063D01*
X027164Y010904D02*
X031664Y010904D01*
X031664Y010746D02*
X027164Y010746D01*
X027164Y010587D02*
X031664Y010587D01*
X031664Y010429D02*
X027164Y010429D01*
X027164Y010270D02*
X027460Y010270D01*
X027324Y010112D02*
X027204Y010112D01*
X027264Y009967D02*
X027264Y009169D01*
X027188Y008985D01*
X027047Y008844D01*
X027195Y009002D02*
X027333Y009002D01*
X027340Y008985D02*
X027481Y008844D01*
X027340Y008985D02*
X027264Y009169D01*
X027264Y009967D01*
X027264Y009953D02*
X027264Y009953D01*
X027264Y009795D02*
X027264Y009795D01*
X027264Y009636D02*
X027264Y009636D01*
X027264Y009478D02*
X027264Y009478D01*
X027264Y009319D02*
X027264Y009319D01*
X027261Y009161D02*
X027267Y009161D01*
X028047Y008844D02*
X028188Y008985D01*
X028261Y009161D02*
X029813Y009161D01*
X029813Y009300D02*
X029813Y009019D01*
X030172Y009019D01*
X030172Y009457D01*
X029970Y009457D01*
X029924Y009444D01*
X029883Y009421D01*
X029849Y009387D01*
X029826Y009346D01*
X029813Y009300D01*
X029818Y009319D02*
X028264Y009319D01*
X028264Y009478D02*
X031462Y009478D01*
X031664Y009636D02*
X028264Y009636D01*
X028264Y009795D02*
X031664Y009795D01*
X031664Y009953D02*
X028264Y009953D01*
X028204Y010112D02*
X031664Y010112D01*
X031664Y010270D02*
X028069Y010270D01*
X030172Y009319D02*
X030209Y009319D01*
X030209Y009161D02*
X030172Y009161D01*
X032264Y009636D02*
X039448Y009636D01*
X039448Y009478D02*
X032467Y009478D01*
X032519Y009319D02*
X039448Y009319D01*
X039448Y009161D02*
X032519Y009161D01*
X032519Y009002D02*
X039448Y009002D01*
X039448Y008844D02*
X032519Y008844D01*
X032519Y008685D02*
X039448Y008685D01*
X039448Y008527D02*
X032416Y008527D01*
X032427Y008368D02*
X039448Y008368D01*
X039448Y008210D02*
X032499Y008210D01*
X032264Y009795D02*
X039448Y009795D01*
X039448Y009953D02*
X032264Y009953D01*
X032264Y010112D02*
X039448Y010112D01*
X039448Y010270D02*
X032264Y010270D01*
X032264Y010429D02*
X039448Y010429D01*
X039448Y010587D02*
X032264Y010587D01*
X032264Y010746D02*
X039448Y010746D01*
X039448Y010904D02*
X032264Y010904D01*
X032264Y011063D02*
X039448Y011063D01*
X039448Y011221D02*
X032264Y011221D01*
X032264Y011380D02*
X039448Y011380D01*
X039448Y011538D02*
X032264Y011538D01*
X032264Y011697D02*
X039448Y011697D01*
X039448Y011855D02*
X032264Y011855D01*
X032264Y012014D02*
X039448Y012014D01*
X039448Y012172D02*
X032264Y012172D01*
X032264Y012331D02*
X039448Y012331D01*
X039448Y012489D02*
X032264Y012489D01*
X032264Y012648D02*
X039448Y012648D01*
X039448Y012806D02*
X032264Y012806D01*
X032264Y012965D02*
X039448Y012965D01*
X039448Y013123D02*
X032264Y013123D01*
X032264Y013282D02*
X039448Y013282D01*
X039448Y013440D02*
X032264Y013440D01*
X032508Y013599D02*
X039448Y013599D01*
X039448Y013757D02*
X032519Y013757D01*
X032519Y013916D02*
X039448Y013916D01*
X039448Y014074D02*
X032519Y014074D01*
X031664Y013440D02*
X029274Y013440D01*
X029254Y013489D02*
X029125Y013618D01*
X028956Y013688D01*
X028773Y013688D01*
X028604Y013618D01*
X028474Y013489D01*
X028404Y013319D01*
X028404Y012616D01*
X028474Y012447D01*
X028604Y012318D01*
X028773Y012248D01*
X028956Y012248D01*
X029125Y012318D01*
X029254Y012447D01*
X029324Y012616D01*
X029324Y013319D01*
X029254Y013489D01*
X029144Y013599D02*
X031421Y013599D01*
X031409Y013757D02*
X028164Y013757D01*
X028164Y013599D02*
X028585Y013599D01*
X028454Y013440D02*
X028274Y013440D01*
X028324Y013282D02*
X028404Y013282D01*
X028404Y013123D02*
X028324Y013123D01*
X028324Y012965D02*
X028404Y012965D01*
X028404Y012806D02*
X028324Y012806D01*
X028324Y012648D02*
X028404Y012648D01*
X028457Y012489D02*
X028272Y012489D01*
X028138Y012331D02*
X028591Y012331D01*
X029138Y012331D02*
X031664Y012331D01*
X031664Y012489D02*
X029272Y012489D01*
X029324Y012648D02*
X031664Y012648D01*
X031664Y012806D02*
X029324Y012806D01*
X029324Y012965D02*
X031664Y012965D01*
X031664Y013123D02*
X029324Y013123D01*
X029324Y013282D02*
X031664Y013282D01*
X031409Y013916D02*
X028164Y013916D01*
X028295Y014074D02*
X031409Y014074D01*
X031409Y014233D02*
X028453Y014233D01*
X028364Y014568D02*
X033864Y014568D01*
X034564Y016927D02*
X035885Y016927D01*
X035726Y017086D02*
X035295Y017086D01*
X035339Y017244D02*
X035568Y017244D01*
X035555Y017878D02*
X035339Y017878D01*
X035308Y018037D02*
X035713Y018037D01*
X035872Y018195D02*
X034564Y018195D01*
X034564Y018354D02*
X035964Y018354D01*
X035964Y018512D02*
X034564Y018512D01*
X034564Y018671D02*
X035964Y018671D01*
X035964Y018829D02*
X034564Y018829D01*
X034564Y018988D02*
X035964Y018988D01*
X035964Y019146D02*
X034564Y019146D01*
X034564Y019305D02*
X035964Y019305D01*
X035964Y019463D02*
X034564Y019463D01*
X034564Y019622D02*
X035964Y019622D01*
X035964Y019780D02*
X034564Y019780D01*
X034564Y019939D02*
X035964Y019939D01*
X035964Y020097D02*
X034564Y020097D01*
X034564Y020256D02*
X035964Y020256D01*
X035964Y020414D02*
X034564Y020414D01*
X034564Y020573D02*
X035964Y020573D01*
X035964Y020731D02*
X034564Y020731D01*
X034564Y020890D02*
X035964Y020890D01*
X035964Y021048D02*
X034564Y021048D01*
X034564Y021207D02*
X035964Y021207D01*
X035964Y021365D02*
X034564Y021365D01*
X034564Y021524D02*
X035964Y021524D01*
X035964Y021682D02*
X034564Y021682D01*
X034564Y021841D02*
X035964Y021841D01*
X035964Y021999D02*
X034534Y021999D01*
X034398Y022158D02*
X035964Y022158D01*
X035964Y022316D02*
X034240Y022316D01*
X034081Y022475D02*
X035964Y022475D01*
X035964Y022633D02*
X033923Y022633D01*
X032520Y023901D02*
X032208Y023901D01*
X032301Y024060D02*
X032428Y024060D01*
X032404Y024218D02*
X032324Y024218D01*
X032324Y024377D02*
X032404Y024377D01*
X032404Y024535D02*
X032324Y024535D01*
X032324Y024694D02*
X032404Y024694D01*
X032418Y024852D02*
X032310Y024852D01*
X032232Y025011D02*
X032497Y025011D01*
X031497Y025011D02*
X031232Y025011D01*
X031310Y024852D02*
X031418Y024852D01*
X031404Y024694D02*
X031324Y024694D01*
X031324Y024535D02*
X031404Y024535D01*
X031404Y024377D02*
X031324Y024377D01*
X031324Y024218D02*
X031404Y024218D01*
X031428Y024060D02*
X031301Y024060D01*
X031208Y023901D02*
X031520Y023901D01*
X030520Y023901D02*
X030208Y023901D01*
X030301Y024060D02*
X030428Y024060D01*
X030404Y024218D02*
X030324Y024218D01*
X030324Y024377D02*
X030404Y024377D01*
X030404Y024535D02*
X030324Y024535D01*
X030324Y024694D02*
X030404Y024694D01*
X030418Y024852D02*
X030310Y024852D01*
X030232Y025011D02*
X030497Y025011D01*
X029497Y025011D02*
X029232Y025011D01*
X029310Y024852D02*
X029418Y024852D01*
X029404Y024694D02*
X029324Y024694D01*
X029324Y024535D02*
X029404Y024535D01*
X029404Y024377D02*
X029324Y024377D01*
X029324Y024218D02*
X029404Y024218D01*
X029428Y024060D02*
X029301Y024060D01*
X029208Y023901D02*
X029520Y023901D01*
X028520Y023901D02*
X028180Y023901D01*
X028200Y023921D02*
X028240Y023977D01*
X028272Y024039D01*
X028293Y024105D01*
X028304Y024173D01*
X028304Y024468D01*
X028304Y024763D01*
X028293Y024831D01*
X028272Y024897D01*
X028240Y024959D01*
X028200Y025015D01*
X028151Y025064D01*
X028095Y025104D01*
X028033Y025136D01*
X027967Y025157D01*
X027899Y025168D01*
X027864Y025168D01*
X027830Y025168D01*
X027761Y025157D01*
X027695Y025136D01*
X027634Y025104D01*
X027578Y025064D01*
X027529Y025015D01*
X027488Y024959D01*
X027456Y024897D01*
X027435Y024831D01*
X027424Y024763D01*
X027424Y024468D01*
X027864Y024468D01*
X027864Y024468D01*
X027424Y024468D01*
X027424Y024173D01*
X027435Y024105D01*
X027456Y024039D01*
X027488Y023977D01*
X027529Y023921D01*
X027578Y023872D01*
X027634Y023832D01*
X027695Y023800D01*
X027761Y023779D01*
X027830Y023768D01*
X027864Y023768D01*
X027864Y024468D01*
X027864Y025168D01*
X027864Y024468D01*
X027864Y024468D01*
X027864Y024468D01*
X027864Y023768D01*
X027899Y023768D01*
X027967Y023779D01*
X028033Y023800D01*
X028095Y023832D01*
X028151Y023872D01*
X028200Y023921D01*
X028279Y024060D02*
X028428Y024060D01*
X028404Y024218D02*
X028304Y024218D01*
X028304Y024377D02*
X028404Y024377D01*
X028304Y024468D02*
X027864Y024468D01*
X028304Y024468D01*
X028304Y024535D02*
X028404Y024535D01*
X028404Y024694D02*
X028304Y024694D01*
X028286Y024852D02*
X028418Y024852D01*
X028497Y025011D02*
X028202Y025011D01*
X027864Y025011D02*
X027864Y025011D01*
X027864Y024852D02*
X027864Y024852D01*
X027864Y024694D02*
X027864Y024694D01*
X027864Y024535D02*
X027864Y024535D01*
X027864Y024468D02*
X027864Y024468D01*
X027864Y024377D02*
X027864Y024377D01*
X027864Y024218D02*
X027864Y024218D01*
X027864Y024060D02*
X027864Y024060D01*
X027864Y023901D02*
X027864Y023901D01*
X027548Y023901D02*
X027208Y023901D01*
X027301Y024060D02*
X027450Y024060D01*
X027424Y024218D02*
X027324Y024218D01*
X027324Y024377D02*
X027424Y024377D01*
X027424Y024535D02*
X027324Y024535D01*
X027324Y024694D02*
X027424Y024694D01*
X027442Y024852D02*
X027310Y024852D01*
X027232Y025011D02*
X027526Y025011D01*
X026497Y025011D02*
X026232Y025011D01*
X026310Y024852D02*
X026418Y024852D01*
X026404Y024694D02*
X026324Y024694D01*
X026324Y024535D02*
X026404Y024535D01*
X026404Y024377D02*
X026324Y024377D01*
X026324Y024218D02*
X026404Y024218D01*
X026428Y024060D02*
X026301Y024060D01*
X026208Y023901D02*
X026520Y023901D01*
X025520Y023901D02*
X025208Y023901D01*
X025301Y024060D02*
X025428Y024060D01*
X025404Y024218D02*
X025324Y024218D01*
X025324Y024377D02*
X025404Y024377D01*
X025404Y024535D02*
X025324Y024535D01*
X025324Y024694D02*
X025404Y024694D01*
X025418Y024852D02*
X025310Y024852D01*
X025232Y025011D02*
X025497Y025011D01*
X024497Y025011D02*
X024232Y025011D01*
X024310Y024852D02*
X024418Y024852D01*
X024404Y024694D02*
X024324Y024694D01*
X024324Y024535D02*
X024404Y024535D01*
X024404Y024377D02*
X024324Y024377D01*
X024324Y024218D02*
X024404Y024218D01*
X024428Y024060D02*
X024301Y024060D01*
X024208Y023901D02*
X024520Y023901D01*
X023520Y023901D02*
X023208Y023901D01*
X023301Y024060D02*
X023428Y024060D01*
X023404Y024218D02*
X023324Y024218D01*
X023324Y024377D02*
X023404Y024377D01*
X023404Y024535D02*
X023324Y024535D01*
X023324Y024694D02*
X023404Y024694D01*
X023418Y024852D02*
X023310Y024852D01*
X023232Y025011D02*
X023497Y025011D01*
X022497Y025011D02*
X022232Y025011D01*
X022310Y024852D02*
X022418Y024852D01*
X022404Y024694D02*
X022324Y024694D01*
X022324Y024535D02*
X022404Y024535D01*
X022404Y024377D02*
X022324Y024377D01*
X022324Y024218D02*
X022404Y024218D01*
X022428Y024060D02*
X022301Y024060D01*
X022208Y023901D02*
X022520Y023901D01*
X021520Y023901D02*
X021180Y023901D01*
X021200Y023921D02*
X021240Y023977D01*
X021272Y024039D01*
X021293Y024105D01*
X021304Y024173D01*
X021304Y024468D01*
X021304Y024763D01*
X021293Y024831D01*
X021272Y024897D01*
X021240Y024959D01*
X021200Y025015D01*
X021151Y025064D01*
X021095Y025104D01*
X021033Y025136D01*
X020967Y025157D01*
X020899Y025168D01*
X020864Y025168D01*
X020830Y025168D01*
X020761Y025157D01*
X020695Y025136D01*
X020634Y025104D01*
X020578Y025064D01*
X020529Y025015D01*
X020488Y024959D01*
X020456Y024897D01*
X020435Y024831D01*
X020424Y024763D01*
X020424Y024468D01*
X020864Y024468D01*
X020864Y024468D01*
X020424Y024468D01*
X020424Y024173D01*
X020435Y024105D01*
X020456Y024039D01*
X020488Y023977D01*
X020529Y023921D01*
X020578Y023872D01*
X020634Y023832D01*
X020695Y023800D01*
X020761Y023779D01*
X020830Y023768D01*
X020864Y023768D01*
X020864Y024468D01*
X020864Y025168D01*
X020864Y024468D01*
X020864Y024468D01*
X020864Y024468D01*
X020864Y023768D01*
X020899Y023768D01*
X020967Y023779D01*
X021033Y023800D01*
X021095Y023832D01*
X021151Y023872D01*
X021200Y023921D01*
X021279Y024060D02*
X021428Y024060D01*
X021404Y024218D02*
X021304Y024218D01*
X021304Y024377D02*
X021404Y024377D01*
X021304Y024468D02*
X020864Y024468D01*
X021304Y024468D01*
X021304Y024535D02*
X021404Y024535D01*
X021404Y024694D02*
X021304Y024694D01*
X021286Y024852D02*
X021418Y024852D01*
X021497Y025011D02*
X021202Y025011D01*
X020864Y025011D02*
X020864Y025011D01*
X020864Y024852D02*
X020864Y024852D01*
X020864Y024694D02*
X020864Y024694D01*
X020864Y024535D02*
X020864Y024535D01*
X020864Y024468D02*
X020864Y024468D01*
X020864Y024377D02*
X020864Y024377D01*
X020864Y024218D02*
X020864Y024218D01*
X020864Y024060D02*
X020864Y024060D01*
X020864Y023901D02*
X020864Y023901D01*
X020548Y023901D02*
X020208Y023901D01*
X020301Y024060D02*
X020450Y024060D01*
X020424Y024218D02*
X020324Y024218D01*
X020324Y024377D02*
X020424Y024377D01*
X020424Y024535D02*
X020324Y024535D01*
X020324Y024694D02*
X020424Y024694D01*
X020442Y024852D02*
X020310Y024852D01*
X020232Y025011D02*
X020526Y025011D01*
X019564Y025169D02*
X019000Y025169D01*
X018728Y025169D02*
X018000Y025169D01*
X017728Y025169D02*
X017000Y025169D01*
X016956Y025188D02*
X016773Y025188D01*
X016604Y025118D01*
X016474Y024989D01*
X016404Y024819D01*
X016404Y024116D01*
X016474Y023947D01*
X016604Y023818D01*
X016773Y023748D01*
X016956Y023748D01*
X017125Y023818D01*
X017254Y023947D01*
X017324Y024116D01*
X017324Y024819D01*
X017254Y024989D01*
X017125Y025118D01*
X016956Y025188D01*
X016728Y025169D02*
X016000Y025169D01*
X015956Y025188D02*
X015773Y025188D01*
X015604Y025118D01*
X015474Y024989D01*
X015404Y024819D01*
X015404Y024116D01*
X015474Y023947D01*
X015604Y023818D01*
X015773Y023748D01*
X015956Y023748D01*
X016125Y023818D01*
X016254Y023947D01*
X016324Y024116D01*
X016324Y024819D01*
X016254Y024989D01*
X016125Y025118D01*
X015956Y025188D01*
X015728Y025169D02*
X015000Y025169D01*
X014956Y025188D02*
X014773Y025188D01*
X014604Y025118D01*
X014474Y024989D01*
X014404Y024819D01*
X014404Y024116D01*
X014474Y023947D01*
X014604Y023818D01*
X014773Y023748D01*
X014956Y023748D01*
X015125Y023818D01*
X015254Y023947D01*
X015324Y024116D01*
X015324Y024819D01*
X015254Y024989D01*
X015125Y025118D01*
X014956Y025188D01*
X014728Y025169D02*
X014000Y025169D01*
X013728Y025169D02*
X010264Y025169D01*
X010264Y025011D02*
X013497Y025011D01*
X013418Y024852D02*
X011987Y024852D01*
X012112Y024694D02*
X013404Y024694D01*
X013404Y024535D02*
X012164Y024535D01*
X012164Y024377D02*
X013404Y024377D01*
X013404Y024218D02*
X012102Y024218D01*
X011963Y024060D02*
X013428Y024060D01*
X013520Y023901D02*
X011924Y023901D01*
X012012Y023109D02*
X014499Y023109D01*
X014657Y022950D02*
X010264Y022950D01*
X010264Y022792D02*
X010709Y022792D01*
X010698Y022781D02*
X010654Y022720D01*
X010619Y022652D01*
X010596Y022580D01*
X010584Y022506D01*
X010584Y022488D01*
X011344Y022488D01*
X011344Y022448D01*
X010584Y022448D01*
X010584Y022430D01*
X010596Y022356D01*
X010619Y022284D01*
X010654Y022216D01*
X010698Y022155D01*
X010751Y022102D01*
X010813Y022057D01*
X010880Y022023D01*
X010952Y022000D01*
X011026Y021988D01*
X011344Y021988D01*
X011344Y022448D01*
X011384Y022448D01*
X011384Y021988D01*
X011702Y021988D01*
X011777Y022000D01*
X011848Y022023D01*
X011916Y022057D01*
X011977Y022102D01*
X012030Y022155D01*
X012075Y022216D01*
X012109Y022284D01*
X012132Y022356D01*
X012144Y022430D01*
X012144Y022448D01*
X011384Y022448D01*
X011384Y022488D01*
X011344Y022488D01*
X011344Y022948D01*
X011026Y022948D01*
X010952Y022936D01*
X010880Y022913D01*
X010813Y022878D01*
X010751Y022834D01*
X010698Y022781D01*
X010613Y022633D02*
X010264Y022633D01*
X010264Y022475D02*
X011344Y022475D01*
X011384Y022475D02*
X014764Y022475D01*
X014764Y022633D02*
X012115Y022633D01*
X012109Y022652D02*
X012075Y022720D01*
X012030Y022781D01*
X011977Y022834D01*
X011916Y022878D01*
X011848Y022913D01*
X011777Y022936D01*
X011702Y022948D01*
X011384Y022948D01*
X011384Y022488D01*
X012144Y022488D01*
X012144Y022506D01*
X012132Y022580D01*
X012109Y022652D01*
X012019Y022792D02*
X014764Y022792D01*
X014764Y022316D02*
X012120Y022316D01*
X012032Y022158D02*
X014764Y022158D01*
X014764Y021999D02*
X011775Y021999D01*
X011998Y021841D02*
X014764Y021841D01*
X015364Y022475D02*
X017833Y022475D01*
X017674Y022633D02*
X015364Y022633D01*
X015364Y022792D02*
X017580Y022792D01*
X017564Y022950D02*
X015364Y022950D01*
X015330Y023109D02*
X017564Y023109D01*
X017564Y023267D02*
X015189Y023267D01*
X015030Y023426D02*
X017564Y023426D01*
X017564Y023584D02*
X014872Y023584D01*
X014684Y023743D02*
X017564Y023743D01*
X017520Y023901D02*
X017208Y023901D01*
X017301Y024060D02*
X017428Y024060D01*
X017404Y024218D02*
X017324Y024218D01*
X017324Y024377D02*
X017404Y024377D01*
X017404Y024535D02*
X017324Y024535D01*
X017324Y024694D02*
X017404Y024694D01*
X017418Y024852D02*
X017310Y024852D01*
X017232Y025011D02*
X017497Y025011D01*
X018232Y025011D02*
X018497Y025011D01*
X018418Y024852D02*
X018310Y024852D01*
X018324Y024694D02*
X018404Y024694D01*
X018404Y024535D02*
X018324Y024535D01*
X018324Y024377D02*
X018404Y024377D01*
X018404Y024218D02*
X018324Y024218D01*
X018301Y024060D02*
X018428Y024060D01*
X018520Y023901D02*
X018208Y023901D01*
X019208Y023901D02*
X019520Y023901D01*
X019428Y024060D02*
X019301Y024060D01*
X019310Y024852D02*
X019418Y024852D01*
X019497Y025011D02*
X019232Y025011D01*
X019564Y025328D02*
X010264Y025328D01*
X010264Y025486D02*
X019564Y025486D01*
X019564Y025645D02*
X010365Y025645D01*
X009992Y026121D02*
X000644Y026121D01*
X000644Y026279D02*
X010151Y026279D01*
X009834Y025962D02*
X000644Y025962D01*
X000644Y025804D02*
X004083Y025804D01*
X004059Y025800D02*
X003980Y025774D01*
X003905Y025736D01*
X003837Y025687D01*
X003778Y025627D01*
X003729Y025560D01*
X003691Y025485D01*
X003665Y025405D01*
X003652Y025322D01*
X003652Y024965D01*
X004147Y024965D01*
X004147Y024890D01*
X004222Y024890D01*
X004222Y024965D01*
X004717Y024965D01*
X004717Y025322D01*
X004704Y025405D01*
X004678Y025485D01*
X004640Y025560D01*
X004590Y025627D01*
X004531Y025687D01*
X004463Y025736D01*
X004389Y025774D01*
X004309Y025800D01*
X004226Y025813D01*
X004222Y025813D01*
X004222Y024965D01*
X004147Y024965D01*
X004147Y025813D01*
X004142Y025813D01*
X004059Y025800D01*
X004147Y025804D02*
X004222Y025804D01*
X004286Y025804D02*
X005963Y025804D01*
X006034Y025833D02*
X005831Y025749D01*
X005676Y025593D01*
X005592Y025390D01*
X005592Y024466D01*
X005676Y024262D01*
X005831Y024107D01*
X005864Y024093D01*
X005864Y023892D01*
X005594Y023622D01*
X005510Y023538D01*
X005464Y023428D01*
X005464Y021608D01*
X005510Y021498D01*
X005594Y021414D01*
X005844Y021164D01*
X005844Y020834D01*
X005831Y020829D01*
X005676Y020673D01*
X005592Y020470D01*
X005592Y019546D01*
X005676Y019342D01*
X005831Y019187D01*
X006034Y019103D01*
X006254Y019103D01*
X006457Y019187D01*
X006613Y019342D01*
X006697Y019546D01*
X006697Y020470D01*
X006613Y020673D01*
X006457Y020829D01*
X006444Y020834D01*
X006444Y021348D01*
X006399Y021458D01*
X006064Y021792D01*
X006064Y023244D01*
X006334Y023514D01*
X006419Y023598D01*
X006464Y023708D01*
X006464Y024114D01*
X006613Y024262D01*
X006697Y024466D01*
X006697Y025390D01*
X006613Y025593D01*
X006457Y025749D01*
X006254Y025833D01*
X006034Y025833D01*
X006325Y025804D02*
X009705Y025804D01*
X009725Y025853D02*
X009725Y025853D01*
X009739Y025867D02*
X009739Y025867D01*
X009664Y025645D02*
X006561Y025645D01*
X006657Y025486D02*
X009664Y025486D01*
X009664Y025328D02*
X006697Y025328D01*
X006697Y025169D02*
X009664Y025169D01*
X009664Y025011D02*
X006697Y025011D01*
X006697Y024852D02*
X009664Y024852D01*
X009664Y024694D02*
X006697Y024694D01*
X006697Y024535D02*
X009664Y024535D01*
X009664Y024377D02*
X006660Y024377D01*
X006569Y024218D02*
X009664Y024218D01*
X009664Y024060D02*
X006464Y024060D01*
X006464Y023901D02*
X009664Y023901D01*
X009664Y023743D02*
X006464Y023743D01*
X006405Y023584D02*
X009664Y023584D01*
X009664Y023426D02*
X006246Y023426D01*
X006334Y023514D02*
X006334Y023514D01*
X006088Y023267D02*
X006682Y023267D01*
X006768Y023303D02*
X006461Y023176D01*
X006226Y022941D01*
X006099Y022634D01*
X006099Y022302D01*
X006226Y021995D01*
X006461Y021760D01*
X006768Y021633D01*
X007100Y021633D01*
X007407Y021760D01*
X007642Y021995D01*
X007769Y022302D01*
X007769Y022634D01*
X007642Y022941D01*
X007407Y023176D01*
X007100Y023303D01*
X006768Y023303D01*
X007186Y023267D02*
X009664Y023267D01*
X009664Y023109D02*
X007474Y023109D01*
X007633Y022950D02*
X009664Y022950D01*
X009664Y022792D02*
X007704Y022792D01*
X007769Y022633D02*
X009664Y022633D01*
X009664Y022475D02*
X007769Y022475D01*
X007769Y022316D02*
X009664Y022316D01*
X009664Y022158D02*
X007710Y022158D01*
X007644Y021999D02*
X009664Y021999D01*
X009664Y021841D02*
X007488Y021841D01*
X007220Y021682D02*
X009664Y021682D01*
X009664Y021524D02*
X006332Y021524D01*
X006437Y021365D02*
X009664Y021365D01*
X009664Y021207D02*
X006444Y021207D01*
X006444Y021048D02*
X009664Y021048D01*
X009664Y020890D02*
X006444Y020890D01*
X006554Y020731D02*
X009664Y020731D01*
X009664Y020573D02*
X006654Y020573D01*
X006697Y020414D02*
X009664Y020414D01*
X009664Y020256D02*
X006697Y020256D01*
X006697Y020097D02*
X009664Y020097D01*
X009664Y019939D02*
X006697Y019939D01*
X006697Y019780D02*
X009664Y019780D01*
X009664Y019622D02*
X006697Y019622D01*
X006663Y019463D02*
X009664Y019463D01*
X009664Y019305D02*
X006575Y019305D01*
X006359Y019146D02*
X009664Y019146D01*
X009664Y018988D02*
X000644Y018988D01*
X000644Y019146D02*
X004027Y019146D01*
X004059Y019136D02*
X004142Y019123D01*
X004147Y019123D01*
X004147Y019970D01*
X004222Y019970D01*
X004222Y020045D01*
X004717Y020045D01*
X004717Y020402D01*
X004704Y020485D01*
X004678Y020565D01*
X004640Y020640D01*
X004590Y020707D01*
X004531Y020767D01*
X004463Y020816D01*
X004389Y020854D01*
X004309Y020880D01*
X004226Y020893D01*
X004222Y020893D01*
X004222Y020045D01*
X004147Y020045D01*
X004147Y019970D01*
X003652Y019970D01*
X003652Y019614D01*
X003665Y019531D01*
X003691Y019451D01*
X003729Y019376D01*
X003778Y019309D01*
X003837Y019249D01*
X003905Y019200D01*
X003980Y019162D01*
X004059Y019136D01*
X004147Y019146D02*
X004222Y019146D01*
X004222Y019123D02*
X004226Y019123D01*
X004309Y019136D01*
X004389Y019162D01*
X004463Y019200D01*
X004531Y019249D01*
X004590Y019309D01*
X004640Y019376D01*
X004678Y019451D01*
X004704Y019531D01*
X004717Y019614D01*
X004717Y019970D01*
X004222Y019970D01*
X004222Y019123D01*
X004341Y019146D02*
X005929Y019146D01*
X005713Y019305D02*
X004587Y019305D01*
X004682Y019463D02*
X005626Y019463D01*
X005592Y019622D02*
X004717Y019622D01*
X004717Y019780D02*
X005592Y019780D01*
X005592Y019939D02*
X004717Y019939D01*
X004717Y020097D02*
X005592Y020097D01*
X005592Y020256D02*
X004717Y020256D01*
X004715Y020414D02*
X005592Y020414D01*
X005634Y020573D02*
X004674Y020573D01*
X004566Y020731D02*
X005734Y020731D01*
X005844Y020890D02*
X004245Y020890D01*
X004222Y020890D02*
X004147Y020890D01*
X004147Y020893D02*
X004142Y020893D01*
X004059Y020880D01*
X003980Y020854D01*
X003905Y020816D01*
X003837Y020767D01*
X003778Y020707D01*
X003729Y020640D01*
X003691Y020565D01*
X003665Y020485D01*
X003652Y020402D01*
X003652Y020045D01*
X004147Y020045D01*
X004147Y020893D01*
X004124Y020890D02*
X000644Y020890D01*
X000644Y021048D02*
X005844Y021048D01*
X005801Y021207D02*
X000644Y021207D01*
X000644Y021365D02*
X005642Y021365D01*
X005499Y021524D02*
X000644Y021524D01*
X000644Y021682D02*
X003108Y021682D01*
X003228Y021633D02*
X002921Y021760D01*
X002686Y021995D01*
X002559Y022302D01*
X002559Y022634D01*
X002686Y022941D01*
X002921Y023176D01*
X003228Y023303D01*
X003560Y023303D01*
X003867Y023176D01*
X004102Y022941D01*
X004229Y022634D01*
X004229Y022302D01*
X004102Y021995D01*
X003867Y021760D01*
X003560Y021633D01*
X003228Y021633D01*
X002840Y021841D02*
X000644Y021841D01*
X000644Y021999D02*
X002684Y021999D01*
X002619Y022158D02*
X000644Y022158D01*
X000644Y022316D02*
X002559Y022316D01*
X002559Y022475D02*
X000644Y022475D01*
X000644Y022633D02*
X002559Y022633D01*
X002625Y022792D02*
X000644Y022792D01*
X000644Y022950D02*
X002696Y022950D01*
X002854Y023109D02*
X000644Y023109D01*
X000644Y023267D02*
X003142Y023267D01*
X003646Y023267D02*
X005464Y023267D01*
X005464Y023109D02*
X003934Y023109D01*
X004093Y022950D02*
X005464Y022950D01*
X005464Y022792D02*
X004164Y022792D01*
X004229Y022633D02*
X005464Y022633D01*
X005464Y022475D02*
X004229Y022475D01*
X004229Y022316D02*
X005464Y022316D01*
X005464Y022158D02*
X004170Y022158D01*
X004104Y021999D02*
X005464Y021999D01*
X005464Y021841D02*
X003948Y021841D01*
X003680Y021682D02*
X005464Y021682D01*
X006064Y021841D02*
X006380Y021841D01*
X006224Y021999D02*
X006064Y021999D01*
X006064Y022158D02*
X006159Y022158D01*
X006099Y022316D02*
X006064Y022316D01*
X006064Y022475D02*
X006099Y022475D01*
X006099Y022633D02*
X006064Y022633D01*
X006064Y022792D02*
X006165Y022792D01*
X006236Y022950D02*
X006064Y022950D01*
X006064Y023109D02*
X006394Y023109D01*
X005715Y023743D02*
X000644Y023743D01*
X000644Y023901D02*
X005864Y023901D01*
X005864Y024060D02*
X004321Y024060D01*
X004309Y024056D02*
X004389Y024082D01*
X004463Y024120D01*
X004531Y024169D01*
X004590Y024229D01*
X004640Y024296D01*
X004678Y024371D01*
X004704Y024451D01*
X004717Y024534D01*
X004717Y024890D01*
X004222Y024890D01*
X004222Y024043D01*
X004226Y024043D01*
X004309Y024056D01*
X004222Y024060D02*
X004147Y024060D01*
X004147Y024043D02*
X004147Y024890D01*
X003652Y024890D01*
X003652Y024534D01*
X003665Y024451D01*
X003691Y024371D01*
X003729Y024296D01*
X003778Y024229D01*
X003837Y024169D01*
X003905Y024120D01*
X003980Y024082D01*
X004059Y024056D01*
X004142Y024043D01*
X004147Y024043D01*
X004047Y024060D02*
X000644Y024060D01*
X000644Y024218D02*
X003788Y024218D01*
X003689Y024377D02*
X000644Y024377D01*
X000644Y024535D02*
X003652Y024535D01*
X003652Y024694D02*
X000644Y024694D01*
X000644Y024852D02*
X003652Y024852D01*
X003652Y025011D02*
X000644Y025011D01*
X000644Y025169D02*
X003652Y025169D01*
X003653Y025328D02*
X000644Y025328D01*
X000644Y025486D02*
X003692Y025486D01*
X003796Y025645D02*
X000644Y025645D01*
X000644Y023584D02*
X005556Y023584D01*
X005594Y023622D02*
X005594Y023622D01*
X005464Y023426D02*
X000644Y023426D01*
X000644Y020731D02*
X003802Y020731D01*
X003695Y020573D02*
X000644Y020573D01*
X000644Y020414D02*
X003654Y020414D01*
X003652Y020256D02*
X000644Y020256D01*
X000644Y020097D02*
X003652Y020097D01*
X003652Y019939D02*
X000644Y019939D01*
X000644Y019780D02*
X003652Y019780D01*
X003652Y019622D02*
X000644Y019622D01*
X000644Y019463D02*
X003687Y019463D01*
X003782Y019305D02*
X000644Y019305D01*
X000644Y018829D02*
X009664Y018829D01*
X009664Y018671D02*
X000644Y018671D01*
X000644Y018512D02*
X004139Y018512D01*
X004142Y018513D02*
X004059Y018500D01*
X003980Y018474D01*
X003905Y018436D01*
X003837Y018387D01*
X003778Y018327D01*
X003729Y018260D01*
X003691Y018185D01*
X003665Y018105D01*
X003652Y018022D01*
X003652Y017665D01*
X004147Y017665D01*
X004147Y017590D01*
X004222Y017590D01*
X004222Y017665D01*
X004717Y017665D01*
X004717Y018022D01*
X004704Y018105D01*
X004678Y018185D01*
X004640Y018260D01*
X004590Y018327D01*
X004531Y018387D01*
X004463Y018436D01*
X004389Y018474D01*
X004309Y018500D01*
X004226Y018513D01*
X004222Y018513D01*
X004222Y017665D01*
X004147Y017665D01*
X004147Y018513D01*
X004142Y018513D01*
X004147Y018512D02*
X004222Y018512D01*
X004229Y018512D02*
X005985Y018512D01*
X005736Y018354D02*
X004564Y018354D01*
X004672Y018195D02*
X005635Y018195D01*
X005592Y018037D02*
X004714Y018037D01*
X004717Y017878D02*
X005592Y017878D01*
X005592Y017720D02*
X004717Y017720D01*
X004717Y017590D02*
X004222Y017590D01*
X004222Y016743D01*
X004226Y016743D01*
X004309Y016756D01*
X004389Y016782D01*
X004463Y016820D01*
X004531Y016869D01*
X004590Y016929D01*
X004640Y016996D01*
X004678Y017071D01*
X004704Y017151D01*
X004717Y017234D01*
X004717Y017590D01*
X004717Y017561D02*
X005592Y017561D01*
X005592Y017403D02*
X004717Y017403D01*
X004717Y017244D02*
X005592Y017244D01*
X005625Y017086D02*
X004683Y017086D01*
X004589Y016927D02*
X005711Y016927D01*
X005864Y016769D02*
X004349Y016769D01*
X004222Y016769D02*
X004147Y016769D01*
X004147Y016743D02*
X004147Y017590D01*
X003652Y017590D01*
X003652Y017234D01*
X003665Y017151D01*
X003691Y017071D01*
X003729Y016996D01*
X003778Y016929D01*
X003837Y016869D01*
X003905Y016820D01*
X003980Y016782D01*
X004059Y016756D01*
X004142Y016743D01*
X004147Y016743D01*
X004020Y016769D02*
X000644Y016769D01*
X000644Y016927D02*
X003779Y016927D01*
X003686Y017086D02*
X000644Y017086D01*
X000644Y017244D02*
X003652Y017244D01*
X003652Y017403D02*
X000644Y017403D01*
X000644Y017561D02*
X003652Y017561D01*
X003652Y017720D02*
X000644Y017720D01*
X000644Y017878D02*
X003652Y017878D01*
X003654Y018037D02*
X000644Y018037D01*
X000644Y018195D02*
X003696Y018195D01*
X003805Y018354D02*
X000644Y018354D01*
X000644Y016610D02*
X005782Y016610D01*
X005624Y016452D02*
X000644Y016452D01*
X000644Y016293D02*
X005465Y016293D01*
X005367Y016135D02*
X000644Y016135D01*
X004147Y016927D02*
X004222Y016927D01*
X004222Y017086D02*
X004147Y017086D01*
X004147Y017244D02*
X004222Y017244D01*
X004222Y017403D02*
X004147Y017403D01*
X004147Y017561D02*
X004222Y017561D01*
X004222Y017720D02*
X004147Y017720D01*
X004147Y017878D02*
X004222Y017878D01*
X004222Y018037D02*
X004147Y018037D01*
X004147Y018195D02*
X004222Y018195D01*
X004222Y018354D02*
X004147Y018354D01*
X004147Y019305D02*
X004222Y019305D01*
X004222Y019463D02*
X004147Y019463D01*
X004147Y019622D02*
X004222Y019622D01*
X004222Y019780D02*
X004147Y019780D01*
X004147Y019939D02*
X004222Y019939D01*
X004222Y020097D02*
X004147Y020097D01*
X004147Y020256D02*
X004222Y020256D01*
X004222Y020414D02*
X004147Y020414D01*
X004147Y020573D02*
X004222Y020573D01*
X004222Y020731D02*
X004147Y020731D01*
X006174Y021682D02*
X006648Y021682D01*
X005720Y024218D02*
X004580Y024218D01*
X004680Y024377D02*
X005628Y024377D01*
X005592Y024535D02*
X004717Y024535D01*
X004717Y024694D02*
X005592Y024694D01*
X005592Y024852D02*
X004717Y024852D01*
X004717Y025011D02*
X005592Y025011D01*
X005592Y025169D02*
X004717Y025169D01*
X004716Y025328D02*
X005592Y025328D01*
X005631Y025486D02*
X004677Y025486D01*
X004573Y025645D02*
X005727Y025645D01*
X004222Y025645D02*
X004147Y025645D01*
X004147Y025486D02*
X004222Y025486D01*
X004222Y025328D02*
X004147Y025328D01*
X004147Y025169D02*
X004222Y025169D01*
X004222Y025011D02*
X004147Y025011D01*
X004147Y024852D02*
X004222Y024852D01*
X004222Y024694D02*
X004147Y024694D01*
X004147Y024535D02*
X004222Y024535D01*
X004222Y024377D02*
X004147Y024377D01*
X004147Y024218D02*
X004222Y024218D01*
X010264Y024218D02*
X010626Y024218D01*
X010564Y024377D02*
X010264Y024377D01*
X010264Y024535D02*
X010564Y024535D01*
X010617Y024694D02*
X010264Y024694D01*
X010264Y024852D02*
X010742Y024852D01*
X010765Y024060D02*
X010264Y024060D01*
X010264Y023901D02*
X010804Y023901D01*
X010716Y023109D02*
X010264Y023109D01*
X010264Y022316D02*
X010609Y022316D01*
X010696Y022158D02*
X010264Y022158D01*
X010264Y021999D02*
X010954Y021999D01*
X010730Y021841D02*
X010264Y021841D01*
X010264Y021682D02*
X010612Y021682D01*
X010564Y021524D02*
X010264Y021524D01*
X010264Y021365D02*
X010565Y021365D01*
X010631Y021207D02*
X010264Y021207D01*
X010264Y021048D02*
X010777Y021048D01*
X010779Y020890D02*
X010264Y020890D01*
X010264Y020731D02*
X010632Y020731D01*
X010566Y020573D02*
X010264Y020573D01*
X010264Y020414D02*
X010564Y020414D01*
X010611Y020256D02*
X010264Y020256D01*
X010264Y020097D02*
X010728Y020097D01*
X010781Y019892D02*
X010640Y019751D01*
X010564Y019567D01*
X010564Y019369D01*
X010640Y019185D01*
X010781Y019044D01*
X010965Y018968D01*
X011764Y018968D01*
X011947Y019044D01*
X012088Y019185D01*
X012164Y019369D01*
X012164Y019567D01*
X012088Y019751D01*
X011947Y019892D01*
X011764Y019968D01*
X010965Y019968D01*
X010781Y019892D01*
X010895Y019939D02*
X010264Y019939D01*
X010264Y019780D02*
X010670Y019780D01*
X010587Y019622D02*
X010264Y019622D01*
X010264Y019463D02*
X010564Y019463D01*
X010590Y019305D02*
X010264Y019305D01*
X010264Y019146D02*
X010679Y019146D01*
X010916Y018988D02*
X010264Y018988D01*
X010264Y018829D02*
X013164Y018829D01*
X013164Y018671D02*
X010264Y018671D01*
X010264Y018512D02*
X013164Y018512D01*
X013164Y018354D02*
X010264Y018354D01*
X010264Y018195D02*
X013164Y018195D01*
X013164Y018037D02*
X010264Y018037D01*
X010264Y017878D02*
X013164Y017878D01*
X013164Y017720D02*
X010264Y017720D01*
X010264Y017561D02*
X013164Y017561D01*
X013164Y017403D02*
X010264Y017403D01*
X010264Y017244D02*
X013164Y017244D01*
X013164Y017086D02*
X010264Y017086D01*
X010264Y016927D02*
X013164Y016927D01*
X013164Y016769D02*
X010264Y016769D01*
X010264Y016610D02*
X013164Y016610D01*
X013164Y016452D02*
X010264Y016452D01*
X010264Y016293D02*
X013164Y016293D01*
X013164Y016135D02*
X010264Y016135D01*
X010264Y015976D02*
X013164Y015976D01*
X013164Y015818D02*
X010264Y015818D01*
X010264Y015659D02*
X013164Y015659D01*
X013164Y015501D02*
X010264Y015501D01*
X010264Y015342D02*
X013164Y015342D01*
X013164Y015184D02*
X010264Y015184D01*
X010264Y015025D02*
X013164Y015025D01*
X013164Y014867D02*
X010264Y014867D01*
X010264Y014708D02*
X013164Y014708D01*
X013164Y014550D02*
X010264Y014550D01*
X010264Y014391D02*
X013164Y014391D01*
X013164Y014233D02*
X010264Y014233D01*
X010264Y014074D02*
X013164Y014074D01*
X013164Y013916D02*
X010264Y013916D01*
X010264Y013757D02*
X013164Y013757D01*
X013164Y013599D02*
X010264Y013599D01*
X010264Y013440D02*
X013164Y013440D01*
X013164Y013282D02*
X010264Y013282D01*
X010264Y013123D02*
X013164Y013123D01*
X013164Y012965D02*
X010264Y012965D01*
X010264Y012806D02*
X013164Y012806D01*
X013164Y012648D02*
X010264Y012648D01*
X010264Y012489D02*
X013164Y012489D01*
X013164Y012331D02*
X012008Y012331D01*
X011947Y012392D02*
X011764Y012468D01*
X010965Y012468D01*
X010781Y012392D01*
X010640Y012251D01*
X010564Y012067D01*
X010564Y011869D01*
X010640Y011685D01*
X010781Y011544D01*
X010965Y011468D01*
X010781Y011392D01*
X010640Y011251D01*
X010564Y011067D01*
X010564Y010869D01*
X010640Y010685D01*
X010781Y010544D01*
X010965Y010468D01*
X011764Y010468D01*
X011947Y010544D01*
X012088Y010685D01*
X012164Y010869D01*
X012164Y011067D01*
X012088Y011251D01*
X011947Y011392D01*
X011764Y011468D01*
X010965Y011468D01*
X011764Y011468D01*
X011947Y011544D01*
X012088Y011685D01*
X012164Y011869D01*
X012164Y012067D01*
X012088Y012251D01*
X011947Y012392D01*
X012121Y012172D02*
X013164Y012172D01*
X013164Y012014D02*
X012164Y012014D01*
X012159Y011855D02*
X013164Y011855D01*
X013164Y011697D02*
X012093Y011697D01*
X011934Y011538D02*
X013164Y011538D01*
X013164Y011380D02*
X011959Y011380D01*
X012100Y011221D02*
X013164Y011221D01*
X013192Y011063D02*
X012164Y011063D01*
X012164Y010904D02*
X013303Y010904D01*
X013225Y010983D02*
X013225Y010983D01*
X013462Y010746D02*
X012113Y010746D01*
X011991Y010587D02*
X013620Y010587D01*
X013610Y010598D02*
X013610Y010598D01*
X013835Y011221D02*
X016564Y011221D01*
X016564Y011380D02*
X013764Y011380D01*
X013764Y011538D02*
X016564Y011538D01*
X016564Y011697D02*
X013764Y011697D01*
X013764Y011855D02*
X016564Y011855D01*
X016564Y012014D02*
X013764Y012014D01*
X013764Y012172D02*
X016564Y012172D01*
X016564Y012331D02*
X016138Y012331D01*
X016272Y012489D02*
X016457Y012489D01*
X016404Y012648D02*
X016324Y012648D01*
X016324Y012806D02*
X016404Y012806D01*
X016404Y012965D02*
X016324Y012965D01*
X016324Y013123D02*
X016404Y013123D01*
X016404Y013282D02*
X016324Y013282D01*
X016274Y013440D02*
X016454Y013440D01*
X016585Y013599D02*
X016144Y013599D01*
X017144Y013599D02*
X017564Y013599D01*
X017454Y013440D02*
X017274Y013440D01*
X017324Y013282D02*
X017404Y013282D01*
X017404Y013123D02*
X017324Y013123D01*
X017324Y012965D02*
X017404Y012965D01*
X017404Y012806D02*
X017324Y012806D01*
X017324Y012648D02*
X017404Y012648D01*
X017457Y012489D02*
X017272Y012489D01*
X017164Y012331D02*
X017564Y012331D01*
X017564Y012172D02*
X017164Y012172D01*
X017164Y012014D02*
X017564Y012014D01*
X017564Y011855D02*
X017164Y011855D01*
X017164Y011697D02*
X017564Y011697D01*
X017564Y011538D02*
X017164Y011538D01*
X017164Y011380D02*
X017564Y011380D01*
X017564Y011221D02*
X017164Y011221D01*
X017164Y011063D02*
X017564Y011063D01*
X017564Y010904D02*
X017163Y010904D01*
X017066Y010746D02*
X017564Y010746D01*
X017564Y010587D02*
X016908Y010587D01*
X017034Y010714D02*
X017034Y010714D01*
X017564Y010429D02*
X011858Y010429D01*
X012069Y010270D02*
X017564Y010270D01*
X017564Y010112D02*
X012146Y010112D01*
X012164Y009953D02*
X017564Y009953D01*
X017564Y009795D02*
X012134Y009795D01*
X012040Y009636D02*
X017564Y009636D01*
X017564Y009478D02*
X011788Y009478D01*
X011764Y009468D02*
X010965Y009468D01*
X010781Y009392D01*
X010640Y009251D01*
X010564Y009067D01*
X010564Y008869D01*
X010640Y008685D01*
X010781Y008544D01*
X010965Y008468D01*
X011764Y008468D01*
X011947Y008544D01*
X012088Y008685D01*
X012164Y008869D01*
X012164Y009067D01*
X012088Y009251D01*
X011947Y009392D01*
X011764Y009468D01*
X012020Y009319D02*
X017564Y009319D01*
X017564Y009161D02*
X012125Y009161D01*
X012164Y009002D02*
X017564Y009002D01*
X017564Y008844D02*
X012154Y008844D01*
X012088Y008685D02*
X017557Y008685D01*
X017399Y008527D02*
X011906Y008527D01*
X010822Y008527D02*
X008429Y008527D01*
X008364Y008685D02*
X010640Y008685D01*
X010574Y008844D02*
X008364Y008844D01*
X008364Y009002D02*
X010564Y009002D01*
X010603Y009161D02*
X008364Y009161D01*
X008364Y009319D02*
X010709Y009319D01*
X010941Y009478D02*
X008364Y009478D01*
X008364Y009636D02*
X010689Y009636D01*
X010213Y009795D02*
X008364Y009795D01*
X008364Y009953D02*
X010054Y009953D01*
X009896Y010112D02*
X008364Y010112D01*
X008364Y010270D02*
X009737Y010270D01*
X009664Y010429D02*
X008364Y010429D01*
X008364Y010587D02*
X009664Y010587D01*
X009664Y010746D02*
X008364Y010746D01*
X008364Y010904D02*
X009664Y010904D01*
X009664Y011063D02*
X008364Y011063D01*
X008364Y011221D02*
X009664Y011221D01*
X009664Y011380D02*
X008364Y011380D01*
X008364Y011538D02*
X009664Y011538D01*
X009664Y011697D02*
X008364Y011697D01*
X008364Y011855D02*
X009664Y011855D01*
X009664Y012014D02*
X008364Y012014D01*
X008364Y012172D02*
X009664Y012172D01*
X010264Y012172D02*
X010608Y012172D01*
X010564Y012014D02*
X010264Y012014D01*
X010264Y011855D02*
X010570Y011855D01*
X010635Y011697D02*
X010264Y011697D01*
X010264Y011538D02*
X010794Y011538D01*
X010769Y011380D02*
X010264Y011380D01*
X010264Y011221D02*
X010628Y011221D01*
X010564Y011063D02*
X010264Y011063D01*
X010264Y010904D02*
X010564Y010904D01*
X010615Y010746D02*
X010264Y010746D01*
X010269Y010587D02*
X010738Y010587D01*
X010871Y010429D02*
X010427Y010429D01*
X010586Y010270D02*
X010660Y010270D01*
X010720Y012331D02*
X010264Y012331D01*
X007764Y011538D02*
X000644Y011538D01*
X000644Y011380D02*
X007764Y011380D01*
X007764Y011221D02*
X006485Y011221D01*
X006625Y011063D02*
X007764Y011063D01*
X007764Y010904D02*
X006691Y010904D01*
X006697Y010746D02*
X007764Y010746D01*
X007764Y010587D02*
X006697Y010587D01*
X006697Y010429D02*
X007764Y010429D01*
X007764Y010270D02*
X006697Y010270D01*
X006697Y010112D02*
X007764Y010112D01*
X007764Y009953D02*
X006692Y009953D01*
X006626Y009795D02*
X007764Y009795D01*
X007764Y008685D02*
X007384Y008685D01*
X007556Y008527D02*
X007764Y008527D01*
X007781Y008368D02*
X007672Y008368D01*
X007738Y008210D02*
X007898Y008210D01*
X007769Y008051D02*
X008056Y008051D01*
X008244Y007893D02*
X007769Y007893D01*
X007741Y007734D02*
X020406Y007734D01*
X020564Y007893D02*
X017584Y007893D01*
X017772Y008051D02*
X020564Y008051D01*
X020564Y008210D02*
X017930Y008210D01*
X018089Y008368D02*
X020564Y008368D01*
X020564Y008527D02*
X018164Y008527D01*
X018164Y008685D02*
X020564Y008685D01*
X020564Y008844D02*
X018164Y008844D01*
X018164Y009002D02*
X020564Y009002D01*
X020564Y009161D02*
X018164Y009161D01*
X018164Y009319D02*
X020564Y009319D01*
X020564Y009478D02*
X018164Y009478D01*
X018164Y009636D02*
X020564Y009636D01*
X020564Y009795D02*
X018164Y009795D01*
X018164Y009953D02*
X020564Y009953D01*
X020564Y010112D02*
X018164Y010112D01*
X018164Y010270D02*
X020564Y010270D01*
X020564Y010429D02*
X018164Y010429D01*
X018164Y010587D02*
X020564Y010587D01*
X020572Y010746D02*
X018164Y010746D01*
X018164Y010904D02*
X020676Y010904D01*
X020835Y011063D02*
X018164Y011063D01*
X018164Y011221D02*
X020993Y011221D01*
X021152Y011380D02*
X018164Y011380D01*
X018164Y011538D02*
X021310Y011538D01*
X021469Y011697D02*
X018164Y011697D01*
X018164Y011855D02*
X021564Y011855D01*
X021564Y012014D02*
X018164Y012014D01*
X018164Y012172D02*
X021564Y012172D01*
X021564Y012331D02*
X021138Y012331D01*
X021125Y012318D02*
X021254Y012447D01*
X021324Y012616D01*
X021324Y013319D01*
X021254Y013489D01*
X021125Y013618D01*
X020956Y013688D01*
X020773Y013688D01*
X020604Y013618D01*
X020474Y013489D01*
X020404Y013319D01*
X020404Y012616D01*
X020474Y012447D01*
X020604Y012318D01*
X020773Y012248D01*
X020956Y012248D01*
X021125Y012318D01*
X021272Y012489D02*
X021457Y012489D01*
X021404Y012648D02*
X021324Y012648D01*
X021324Y012806D02*
X021404Y012806D01*
X021404Y012965D02*
X021324Y012965D01*
X021324Y013123D02*
X021404Y013123D01*
X021404Y013282D02*
X021324Y013282D01*
X021274Y013440D02*
X021454Y013440D01*
X021564Y013599D02*
X021144Y013599D01*
X021462Y013757D02*
X020466Y013757D01*
X020539Y013916D02*
X021389Y013916D01*
X021389Y014074D02*
X020539Y014074D01*
X020539Y014233D02*
X021389Y014233D01*
X021389Y014391D02*
X020539Y014391D01*
X020539Y014550D02*
X021389Y014550D01*
X022419Y014550D02*
X022509Y014550D01*
X022509Y014391D02*
X022419Y014391D01*
X022419Y014233D02*
X022509Y014233D01*
X022509Y014074D02*
X022419Y014074D01*
X022419Y013916D02*
X022509Y013916D01*
X022582Y013757D02*
X022347Y013757D01*
X022164Y013599D02*
X022585Y013599D01*
X022454Y013440D02*
X022274Y013440D01*
X022324Y013282D02*
X022404Y013282D01*
X022404Y013123D02*
X022324Y013123D01*
X022324Y012965D02*
X022404Y012965D01*
X022404Y012806D02*
X022324Y012806D01*
X022324Y012648D02*
X022404Y012648D01*
X022457Y012489D02*
X022272Y012489D01*
X022164Y012331D02*
X022591Y012331D01*
X020591Y012331D02*
X020138Y012331D01*
X020125Y012318D02*
X020254Y012447D01*
X020324Y012616D01*
X020324Y013319D01*
X020254Y013489D01*
X020125Y013618D01*
X019956Y013688D01*
X019773Y013688D01*
X019604Y013618D01*
X019474Y013489D01*
X019404Y013319D01*
X019404Y012616D01*
X019474Y012447D01*
X019604Y012318D01*
X019773Y012248D01*
X019956Y012248D01*
X020125Y012318D01*
X020272Y012489D02*
X020457Y012489D01*
X020404Y012648D02*
X020324Y012648D01*
X020324Y012806D02*
X020404Y012806D01*
X020404Y012965D02*
X020324Y012965D01*
X020324Y013123D02*
X020404Y013123D01*
X020404Y013282D02*
X020324Y013282D01*
X020274Y013440D02*
X020454Y013440D01*
X020585Y013599D02*
X020144Y013599D01*
X019585Y013599D02*
X019164Y013599D01*
X019274Y013440D02*
X019454Y013440D01*
X019404Y013282D02*
X019324Y013282D01*
X019324Y013123D02*
X019404Y013123D01*
X019404Y012965D02*
X019324Y012965D01*
X019324Y012806D02*
X019404Y012806D01*
X019404Y012648D02*
X019324Y012648D01*
X019272Y012489D02*
X019457Y012489D01*
X019591Y012331D02*
X019138Y012331D01*
X018591Y012331D02*
X018164Y012331D01*
X018272Y012489D02*
X018457Y012489D01*
X018404Y012648D02*
X018324Y012648D01*
X018324Y012806D02*
X018404Y012806D01*
X018404Y012965D02*
X018324Y012965D01*
X018324Y013123D02*
X018404Y013123D01*
X018404Y013282D02*
X018324Y013282D01*
X018274Y013440D02*
X018454Y013440D01*
X018564Y013599D02*
X018164Y013599D01*
X018266Y013757D02*
X018462Y013757D01*
X018389Y013916D02*
X018339Y013916D01*
X018339Y014074D02*
X018389Y014074D01*
X018389Y014233D02*
X018339Y014233D01*
X018339Y014391D02*
X018389Y014391D01*
X018389Y014550D02*
X018339Y014550D01*
X017309Y014550D02*
X017219Y014550D01*
X017219Y014391D02*
X017309Y014391D01*
X017309Y014233D02*
X017219Y014233D01*
X017219Y014074D02*
X017309Y014074D01*
X017309Y013916D02*
X017219Y013916D01*
X017147Y013757D02*
X017382Y013757D01*
X019347Y013757D02*
X019582Y013757D01*
X019509Y013916D02*
X019419Y013916D01*
X019419Y014074D02*
X019509Y014074D01*
X019509Y014233D02*
X019419Y014233D01*
X019419Y014391D02*
X019509Y014391D01*
X019509Y014550D02*
X019419Y014550D01*
X015410Y014698D02*
X015410Y014698D01*
X015457Y012489D02*
X013764Y012489D01*
X013764Y012331D02*
X015591Y012331D01*
X009664Y016135D02*
X006155Y016135D01*
X006314Y016293D02*
X009664Y016293D01*
X009664Y016452D02*
X006441Y016452D01*
X006464Y016610D02*
X009664Y016610D01*
X009664Y016769D02*
X006464Y016769D01*
X006578Y016927D02*
X009664Y016927D01*
X009664Y017086D02*
X006664Y017086D01*
X006697Y017244D02*
X009664Y017244D01*
X009664Y017403D02*
X006697Y017403D01*
X006697Y017561D02*
X009664Y017561D01*
X009664Y017720D02*
X006697Y017720D01*
X006697Y017878D02*
X009664Y017878D01*
X009664Y018037D02*
X006697Y018037D01*
X006653Y018195D02*
X009664Y018195D01*
X009664Y018354D02*
X006552Y018354D01*
X006303Y018512D02*
X009664Y018512D01*
X011812Y018988D02*
X013164Y018988D01*
X013164Y019146D02*
X012050Y019146D01*
X012138Y019305D02*
X013164Y019305D01*
X013164Y019463D02*
X012164Y019463D01*
X012142Y019622D02*
X013164Y019622D01*
X013164Y019780D02*
X012059Y019780D01*
X011834Y019939D02*
X013164Y019939D01*
X013010Y020097D02*
X012001Y020097D01*
X011384Y021999D02*
X011344Y021999D01*
X011344Y022158D02*
X011384Y022158D01*
X011384Y022316D02*
X011344Y022316D01*
X011344Y022633D02*
X011384Y022633D01*
X011384Y022792D02*
X011344Y022792D01*
X014208Y023901D02*
X014520Y023901D01*
X014428Y024060D02*
X014301Y024060D01*
X014324Y024218D02*
X014404Y024218D01*
X014404Y024377D02*
X014324Y024377D01*
X014324Y024535D02*
X014404Y024535D01*
X014404Y024694D02*
X014324Y024694D01*
X014310Y024852D02*
X014418Y024852D01*
X014497Y025011D02*
X014232Y025011D01*
X015232Y025011D02*
X015497Y025011D01*
X015418Y024852D02*
X015310Y024852D01*
X015324Y024694D02*
X015404Y024694D01*
X015404Y024535D02*
X015324Y024535D01*
X015324Y024377D02*
X015404Y024377D01*
X015404Y024218D02*
X015324Y024218D01*
X015301Y024060D02*
X015428Y024060D01*
X015520Y023901D02*
X015208Y023901D01*
X016208Y023901D02*
X016520Y023901D01*
X016428Y024060D02*
X016301Y024060D01*
X016324Y024218D02*
X016404Y024218D01*
X016404Y024377D02*
X016324Y024377D01*
X016324Y024535D02*
X016404Y024535D01*
X016404Y024694D02*
X016324Y024694D01*
X016310Y024852D02*
X016418Y024852D01*
X016497Y025011D02*
X016232Y025011D01*
X022213Y020414D02*
X022250Y020414D01*
X022250Y020256D02*
X022213Y020256D01*
X024291Y018671D02*
X025769Y018671D01*
X025774Y018675D02*
X025657Y018558D01*
X025657Y017878D01*
X025675Y017860D01*
X025559Y017745D01*
X025559Y016791D01*
X025661Y016689D01*
X025610Y016638D01*
X025600Y016614D01*
X025474Y016489D01*
X025404Y016319D01*
X025404Y015616D01*
X025474Y015447D01*
X025604Y015318D01*
X025773Y015248D01*
X025956Y015248D01*
X026125Y015318D01*
X026254Y015447D01*
X026324Y015616D01*
X026324Y016319D01*
X026270Y016450D01*
X026319Y016498D01*
X026364Y016608D01*
X026364Y016674D01*
X026433Y016674D01*
X026550Y016791D01*
X026550Y017745D01*
X026494Y017800D01*
X026572Y017878D01*
X026572Y018558D01*
X026454Y018675D01*
X025774Y018675D01*
X025657Y018512D02*
X024164Y018512D01*
X024164Y018354D02*
X025657Y018354D01*
X025657Y018195D02*
X024164Y018195D01*
X024164Y018037D02*
X025657Y018037D01*
X025657Y017878D02*
X024164Y017878D01*
X024164Y017720D02*
X024408Y017720D01*
X024411Y017731D02*
X024398Y017685D01*
X024398Y017336D01*
X024806Y017336D01*
X024806Y017842D01*
X024555Y017842D01*
X024509Y017829D01*
X024468Y017806D01*
X024434Y017772D01*
X024411Y017731D01*
X024398Y017561D02*
X024164Y017561D01*
X024164Y017403D02*
X024398Y017403D01*
X024398Y017200D02*
X024398Y016851D01*
X024411Y016805D01*
X024434Y016764D01*
X024468Y016730D01*
X024509Y016707D01*
X024555Y016694D01*
X024806Y016694D01*
X024806Y017200D01*
X024941Y017200D01*
X024941Y016694D01*
X025193Y016694D01*
X025238Y016707D01*
X025279Y016730D01*
X025313Y016764D01*
X025337Y016805D01*
X025349Y016851D01*
X025349Y017200D01*
X024941Y017200D01*
X024941Y017336D01*
X024806Y017336D01*
X024806Y017200D01*
X024398Y017200D01*
X024398Y017086D02*
X024164Y017086D01*
X024164Y017244D02*
X024806Y017244D01*
X024941Y017244D02*
X025559Y017244D01*
X025559Y017086D02*
X025349Y017086D01*
X025349Y016927D02*
X025559Y016927D01*
X025582Y016769D02*
X025316Y016769D01*
X025132Y016610D02*
X025596Y016610D01*
X025459Y016452D02*
X025269Y016452D01*
X025254Y016489D02*
X025125Y016618D01*
X024956Y016688D01*
X024773Y016688D01*
X024604Y016618D01*
X024474Y016489D01*
X024404Y016319D01*
X024404Y015616D01*
X024474Y015447D01*
X024604Y015318D01*
X024773Y015248D01*
X024956Y015248D01*
X025125Y015318D01*
X025254Y015447D01*
X025324Y015616D01*
X025324Y016319D01*
X025254Y016489D01*
X025324Y016293D02*
X025404Y016293D01*
X025404Y016135D02*
X025324Y016135D01*
X025324Y015976D02*
X025404Y015976D01*
X025404Y015818D02*
X025324Y015818D01*
X025324Y015659D02*
X025404Y015659D01*
X025452Y015501D02*
X025276Y015501D01*
X025149Y015342D02*
X025579Y015342D01*
X026149Y015342D02*
X026579Y015342D01*
X026452Y015501D02*
X026276Y015501D01*
X026324Y015659D02*
X026404Y015659D01*
X026404Y015818D02*
X026324Y015818D01*
X026324Y015976D02*
X026404Y015976D01*
X026404Y016135D02*
X026324Y016135D01*
X026324Y016293D02*
X026404Y016293D01*
X026459Y016452D02*
X026272Y016452D01*
X026364Y016610D02*
X026596Y016610D01*
X026528Y016769D02*
X026701Y016769D01*
X026678Y016927D02*
X026550Y016927D01*
X026550Y017086D02*
X026678Y017086D01*
X026678Y017244D02*
X026550Y017244D01*
X026550Y017403D02*
X026678Y017403D01*
X026678Y017561D02*
X026550Y017561D01*
X026550Y017720D02*
X026678Y017720D01*
X026657Y017878D02*
X026572Y017878D01*
X026572Y018037D02*
X026657Y018037D01*
X026657Y018195D02*
X026572Y018195D01*
X026572Y018354D02*
X026657Y018354D01*
X026657Y018512D02*
X026572Y018512D01*
X026459Y018671D02*
X026769Y018671D01*
X025559Y017720D02*
X025340Y017720D01*
X025337Y017731D02*
X025313Y017772D01*
X025279Y017806D01*
X025238Y017829D01*
X025193Y017842D01*
X024941Y017842D01*
X024941Y017336D01*
X025349Y017336D01*
X025349Y017685D01*
X025337Y017731D01*
X025349Y017561D02*
X025559Y017561D01*
X025559Y017403D02*
X025349Y017403D01*
X024941Y017403D02*
X024806Y017403D01*
X024806Y017561D02*
X024941Y017561D01*
X024941Y017720D02*
X024806Y017720D01*
X024806Y017086D02*
X024941Y017086D01*
X024941Y016927D02*
X024806Y016927D01*
X024806Y016769D02*
X024941Y016769D01*
X024596Y016610D02*
X024164Y016610D01*
X024164Y016769D02*
X024431Y016769D01*
X024398Y016927D02*
X024164Y016927D01*
X024269Y016452D02*
X024459Y016452D01*
X024404Y016293D02*
X024324Y016293D01*
X024324Y016135D02*
X024404Y016135D01*
X024404Y015976D02*
X024324Y015976D01*
X024324Y015818D02*
X024404Y015818D01*
X024404Y015659D02*
X024324Y015659D01*
X024276Y015501D02*
X024452Y015501D01*
X024579Y015342D02*
X024149Y015342D01*
X024131Y014708D02*
X024892Y014708D01*
X025917Y014708D02*
X026012Y014708D01*
X026009Y014550D02*
X025919Y014550D01*
X025919Y014391D02*
X026009Y014391D01*
X026009Y014233D02*
X025919Y014233D01*
X025919Y014074D02*
X026009Y014074D01*
X026009Y013916D02*
X025919Y013916D01*
X027036Y014708D02*
X027080Y014708D01*
X026064Y017268D02*
X026055Y017268D01*
X024450Y018829D02*
X029678Y018829D01*
X032049Y006149D02*
X032680Y006149D01*
X032604Y006118D02*
X032474Y005989D01*
X032404Y005819D01*
X032404Y005116D01*
X032474Y004947D01*
X032604Y004818D01*
X032773Y004748D01*
X032956Y004748D01*
X033125Y004818D01*
X033254Y004947D01*
X033324Y005116D01*
X033324Y005819D01*
X033254Y005989D01*
X033125Y006118D01*
X032956Y006188D01*
X032773Y006188D01*
X032604Y006118D01*
X032477Y005991D02*
X032252Y005991D01*
X032319Y005832D02*
X032410Y005832D01*
X032404Y005674D02*
X032324Y005674D01*
X032324Y005515D02*
X032404Y005515D01*
X032404Y005357D02*
X032324Y005357D01*
X032324Y005198D02*
X032404Y005198D01*
X032436Y005040D02*
X032292Y005040D01*
X032188Y004881D02*
X032540Y004881D01*
X032164Y004723D02*
X039448Y004723D01*
X039448Y004881D02*
X033188Y004881D01*
X033292Y005040D02*
X034113Y005040D01*
X034033Y005073D02*
X034248Y004984D01*
X034480Y004984D01*
X034695Y005073D01*
X034859Y005237D01*
X034948Y005452D01*
X034948Y005684D01*
X034859Y005899D01*
X034695Y006063D01*
X034480Y006152D01*
X034248Y006152D01*
X034033Y006063D01*
X033869Y005899D01*
X033780Y005684D01*
X033780Y005452D01*
X033869Y005237D01*
X034033Y005073D01*
X033908Y005198D02*
X033324Y005198D01*
X033324Y005357D02*
X033820Y005357D01*
X033780Y005515D02*
X033324Y005515D01*
X033324Y005674D02*
X033780Y005674D01*
X033842Y005832D02*
X033319Y005832D01*
X033252Y005991D02*
X033961Y005991D01*
X034242Y006149D02*
X033049Y006149D01*
X034486Y006149D02*
X039448Y006149D01*
X039448Y005991D02*
X036707Y005991D01*
X036700Y005998D02*
X036628Y006050D01*
X036549Y006091D01*
X036465Y006118D01*
X036381Y006131D01*
X036381Y005616D01*
X036896Y005616D01*
X036883Y005700D01*
X036855Y005784D01*
X036815Y005863D01*
X036763Y005935D01*
X036700Y005998D01*
X036831Y005832D02*
X039448Y005832D01*
X039448Y005674D02*
X036887Y005674D01*
X036896Y005520D02*
X036381Y005520D01*
X036381Y005616D01*
X036285Y005616D01*
X036285Y006131D01*
X036201Y006118D01*
X036116Y006091D01*
X036037Y006050D01*
X035965Y005998D01*
X035903Y005935D01*
X035850Y005863D01*
X035810Y005784D01*
X035783Y005700D01*
X035769Y005616D01*
X036285Y005616D01*
X036285Y005520D01*
X036381Y005520D01*
X036381Y005005D01*
X036465Y005018D01*
X036549Y005045D01*
X036628Y005086D01*
X036700Y005138D01*
X036763Y005201D01*
X036815Y005272D01*
X036855Y005352D01*
X036883Y005436D01*
X036896Y005520D01*
X036895Y005515D02*
X039448Y005515D01*
X039448Y005357D02*
X036857Y005357D01*
X036761Y005198D02*
X039448Y005198D01*
X039448Y005040D02*
X036532Y005040D01*
X036381Y005040D02*
X036285Y005040D01*
X036285Y005005D02*
X036285Y005520D01*
X035769Y005520D01*
X035783Y005436D01*
X035810Y005352D01*
X035850Y005272D01*
X035903Y005201D01*
X035965Y005138D01*
X036037Y005086D01*
X036116Y005045D01*
X036201Y005018D01*
X036285Y005005D01*
X036133Y005040D02*
X034615Y005040D01*
X034820Y005198D02*
X035905Y005198D01*
X035808Y005357D02*
X034909Y005357D01*
X034948Y005515D02*
X035770Y005515D01*
X035779Y005674D02*
X034948Y005674D01*
X034887Y005832D02*
X035835Y005832D01*
X035958Y005991D02*
X034767Y005991D01*
X036285Y005991D02*
X036381Y005991D01*
X036381Y005832D02*
X036285Y005832D01*
X036285Y005674D02*
X036381Y005674D01*
X036381Y005515D02*
X036285Y005515D01*
X036285Y005357D02*
X036381Y005357D01*
X036381Y005198D02*
X036285Y005198D01*
X036998Y003613D02*
X003131Y003613D01*
X003358Y003455D02*
X036770Y003455D01*
X036612Y003296D02*
X003516Y003296D01*
X003608Y003138D02*
X036521Y003138D01*
X036444Y002979D02*
X003685Y002979D01*
X003727Y002821D02*
X036401Y002821D01*
X036376Y002662D02*
X003753Y002662D01*
X003753Y002504D02*
X036376Y002504D01*
X036393Y002345D02*
X003735Y002345D01*
X003693Y002187D02*
X036436Y002187D01*
X036503Y002028D02*
X003625Y002028D01*
X003534Y001870D02*
X036595Y001870D01*
X036740Y001711D02*
X003389Y001711D01*
X003183Y001553D02*
X036945Y001553D01*
X038183Y001553D02*
X039171Y001553D01*
X039247Y001711D02*
X038389Y001711D01*
X038534Y001870D02*
X039324Y001870D01*
X039370Y002028D02*
X038625Y002028D01*
X038693Y002187D02*
X039406Y002187D01*
X039438Y002345D02*
X038735Y002345D01*
X038753Y002504D02*
X039446Y002504D01*
X039448Y002662D02*
X038753Y002662D01*
X038727Y002821D02*
X039448Y002821D01*
X039448Y002979D02*
X038685Y002979D01*
X038608Y003138D02*
X039448Y003138D01*
X039448Y003296D02*
X038516Y003296D01*
X038358Y003455D02*
X039448Y003455D01*
X039448Y003613D02*
X038131Y003613D01*
X039448Y003772D02*
X031712Y003772D01*
X031951Y003930D02*
X039448Y003930D01*
X039448Y004089D02*
X032109Y004089D01*
X032164Y004247D02*
X039448Y004247D01*
X039448Y004406D02*
X032164Y004406D01*
X032164Y004564D02*
X039448Y004564D01*
X038744Y001077D02*
X001348Y001077D01*
X001561Y000919D02*
X038531Y000919D01*
X038567Y000936D02*
X038567Y000936D01*
X038202Y000760D02*
X001890Y000760D01*
X006493Y004723D02*
X015564Y004723D01*
X015540Y004881D02*
X015188Y004881D01*
X015292Y005040D02*
X015436Y005040D01*
X015404Y005198D02*
X015324Y005198D01*
X015324Y005357D02*
X015404Y005357D01*
X015404Y005515D02*
X015324Y005515D01*
X015324Y005674D02*
X015404Y005674D01*
X015410Y005832D02*
X015319Y005832D01*
X015252Y005991D02*
X015477Y005991D01*
X015680Y006149D02*
X015170Y006149D01*
X014564Y006149D02*
X014049Y006149D01*
X014252Y005991D02*
X014477Y005991D01*
X014410Y005832D02*
X014319Y005832D01*
X014324Y005674D02*
X014404Y005674D01*
X014404Y005515D02*
X014324Y005515D01*
X014324Y005357D02*
X014404Y005357D01*
X014404Y005198D02*
X014324Y005198D01*
X014292Y005040D02*
X014436Y005040D01*
X014540Y004881D02*
X014188Y004881D01*
X013540Y004881D02*
X006629Y004881D01*
X006694Y005040D02*
X013436Y005040D01*
X013404Y005198D02*
X012598Y005198D01*
X012719Y005298D02*
X012719Y005298D01*
X012631Y007259D02*
X007404Y007259D01*
X007565Y007417D02*
X012789Y007417D01*
X012948Y007576D02*
X007676Y007576D01*
X005810Y006308D02*
X004474Y006308D01*
X004632Y006149D02*
X005666Y006149D01*
X005600Y005991D02*
X004702Y005991D01*
X004717Y005832D02*
X005592Y005832D01*
X005592Y005674D02*
X004717Y005674D01*
X004222Y005674D02*
X004147Y005674D01*
X004147Y005832D02*
X004222Y005832D01*
X004222Y005991D02*
X004147Y005991D01*
X004147Y006149D02*
X004222Y006149D01*
X004222Y006308D02*
X004147Y006308D01*
X004147Y005515D02*
X000644Y005515D01*
X000644Y007259D02*
X002924Y007259D01*
X002764Y007417D02*
X000644Y007417D01*
X000644Y007576D02*
X002653Y007576D01*
X002587Y007734D02*
X000644Y007734D01*
X000644Y007893D02*
X002559Y007893D01*
X002559Y008051D02*
X000644Y008051D01*
X000644Y008210D02*
X002591Y008210D01*
X002656Y008368D02*
X000644Y008368D01*
X000644Y008527D02*
X002772Y008527D01*
X002944Y008685D02*
X000644Y008685D01*
X012979Y007607D02*
X012979Y007607D01*
X022059Y005198D02*
X022354Y005198D01*
D24*
X020464Y007368D02*
X020864Y007768D01*
X020864Y010668D01*
X021864Y011668D01*
X021864Y012968D01*
X021864Y014528D01*
X021904Y014268D01*
X023024Y014268D02*
X023024Y014808D01*
X022964Y014868D01*
X023564Y014868D01*
X023864Y014568D01*
X023864Y014268D01*
X025404Y014268D01*
X026524Y014268D02*
X027064Y014268D01*
X027864Y015068D01*
X027864Y015968D01*
X027174Y016677D02*
X026864Y016368D01*
X026864Y015968D01*
X027174Y016677D02*
X027174Y017268D01*
X027174Y018159D01*
X027114Y018218D01*
X026114Y018218D02*
X026064Y018168D01*
X026064Y017368D01*
X026055Y017359D01*
X026055Y017268D01*
X026064Y017268D02*
X026064Y016668D01*
X025864Y016468D01*
X025864Y015968D01*
X023864Y015968D02*
X023864Y018668D01*
X024464Y019268D01*
X029664Y019268D01*
X030164Y018768D01*
X030164Y015668D01*
X030664Y015168D01*
X031924Y015168D01*
X031964Y015128D01*
X031964Y014008D02*
X031964Y009028D01*
X030965Y009028D01*
X030938Y009001D01*
X030564Y008135D02*
X024197Y008135D01*
X023764Y008568D01*
X023764Y009568D01*
X022764Y009568D02*
X022764Y010668D01*
X022964Y010868D01*
X023664Y010868D01*
X023864Y011068D01*
X023864Y012968D01*
X023864Y014268D01*
X022964Y014868D02*
X020064Y014868D01*
X020064Y014268D01*
X020024Y014268D01*
X020064Y014868D02*
X016764Y014868D01*
X016764Y014268D01*
X016704Y014268D01*
X016764Y014868D02*
X015664Y014868D01*
X015064Y015468D01*
X015064Y022968D01*
X014564Y023468D01*
X011364Y023468D01*
X009964Y023468D01*
X009964Y010468D01*
X010495Y009937D01*
X011364Y009937D01*
X011364Y009968D01*
X013493Y011139D02*
X013864Y010768D01*
X016623Y010768D01*
X016693Y010797D02*
X016864Y010968D01*
X016864Y012968D01*
X017864Y012968D02*
X017864Y014228D01*
X017824Y014268D01*
X018864Y014228D02*
X018904Y014268D01*
X018864Y014228D02*
X018864Y012968D01*
X017864Y012968D02*
X017864Y008568D01*
X017464Y008168D01*
X008364Y008168D01*
X008064Y008468D01*
X008064Y012468D01*
X007764Y012768D01*
X006204Y012768D01*
X006204Y013828D01*
X005664Y014368D01*
X005664Y016068D01*
X006164Y016568D01*
X006164Y017608D01*
X006144Y017628D01*
X006144Y020008D02*
X006144Y021288D01*
X005764Y021668D01*
X005764Y023368D01*
X006164Y023768D01*
X006164Y024908D01*
X006144Y024928D01*
X009964Y025627D02*
X009964Y023468D01*
X009964Y025627D02*
X009966Y025647D01*
X009972Y025665D01*
X009981Y025683D01*
X009993Y025698D01*
X009993Y025697D02*
X010364Y026068D01*
X019864Y026068D01*
X019864Y024468D01*
X018864Y024468D01*
X017864Y024468D02*
X017864Y022909D01*
X017893Y022839D02*
X018264Y022468D01*
X033664Y022468D01*
X034264Y021868D01*
X034264Y014968D01*
X033864Y014568D01*
X033704Y017568D02*
X032294Y017568D01*
X032264Y017598D01*
X032264Y020368D01*
X031764Y020868D01*
X023097Y020868D01*
X022231Y021242D02*
X022157Y021168D01*
X021364Y021168D01*
X020864Y020668D01*
X020864Y018628D01*
X020864Y017508D02*
X020864Y015968D01*
X025864Y012968D02*
X025864Y009668D01*
X025764Y009568D01*
X026764Y009568D02*
X026864Y009668D01*
X026864Y012968D01*
X027864Y012968D02*
X027864Y014068D01*
X028364Y014568D01*
X027864Y012968D02*
X027864Y012868D01*
X034824Y017568D02*
X036264Y017568D01*
X036264Y025168D01*
X035364Y026068D01*
X019864Y026068D01*
X017864Y022909D02*
X017866Y022889D01*
X017872Y022871D01*
X017881Y022853D01*
X017893Y022838D01*
X014264Y020868D02*
X014264Y013368D01*
X014664Y012968D01*
X015864Y012968D01*
X013464Y011209D02*
X013466Y011189D01*
X013472Y011171D01*
X013481Y011153D01*
X013493Y011138D01*
X013464Y011209D02*
X013464Y020068D01*
X013093Y020439D01*
X013023Y020468D02*
X011364Y020468D01*
X011364Y021468D02*
X013664Y021468D01*
X014264Y020868D01*
X013094Y020439D02*
X013079Y020451D01*
X013061Y020460D01*
X013043Y020466D01*
X013023Y020468D01*
X006204Y012768D02*
X006144Y012708D01*
X006144Y010428D02*
X006164Y010408D01*
X006164Y009268D01*
X005664Y008768D01*
X005664Y007268D01*
X006144Y006788D01*
X006144Y005508D01*
X006184Y005468D01*
X012464Y005468D01*
X012735Y005739D01*
X012764Y005809D02*
X012764Y006968D01*
X013135Y007339D01*
X013206Y007368D02*
X020464Y007368D01*
X016694Y010797D02*
X016679Y010785D01*
X016661Y010776D01*
X016643Y010770D01*
X016623Y010768D01*
X013206Y007368D02*
X013186Y007366D01*
X013168Y007360D01*
X013150Y007351D01*
X013135Y007339D01*
X012764Y005809D02*
X012762Y005789D01*
X012756Y005771D01*
X012747Y005753D01*
X012735Y005738D01*
X014864Y005468D02*
X014864Y006268D01*
X015264Y006668D01*
X030464Y006668D01*
X030864Y006268D01*
X030864Y005468D01*
X031864Y005468D02*
X031864Y004268D01*
X031693Y004097D01*
X031623Y004068D02*
X016164Y004068D01*
X015893Y004339D01*
X015864Y004409D02*
X015864Y005468D01*
X015864Y004568D01*
X015864Y004409D02*
X015866Y004389D01*
X015872Y004371D01*
X015881Y004353D01*
X015893Y004338D01*
X031623Y004068D02*
X031643Y004070D01*
X031661Y004076D01*
X031679Y004085D01*
X031694Y004097D01*
X034824Y017568D02*
X036234Y017568D01*
M02*
